%TF.GenerationSoftware,KiCad,Pcbnew,8.0.8*%
%TF.CreationDate,2025-02-22T00:09:07-08:00*%
%TF.ProjectId,deflection_board,6465666c-6563-4746-996f-6e5f626f6172,rev?*%
%TF.SameCoordinates,Original*%
%TF.FileFunction,Copper,L2,Bot*%
%TF.FilePolarity,Positive*%
%FSLAX46Y46*%
G04 Gerber Fmt 4.6, Leading zero omitted, Abs format (unit mm)*
G04 Created by KiCad (PCBNEW 8.0.8) date 2025-02-22 00:09:07*
%MOMM*%
%LPD*%
G01*
G04 APERTURE LIST*
%TA.AperFunction,ComponentPad*%
%ADD10C,1.440000*%
%TD*%
%TA.AperFunction,ComponentPad*%
%ADD11R,1.700000X1.700000*%
%TD*%
%TA.AperFunction,ComponentPad*%
%ADD12O,1.700000X1.700000*%
%TD*%
%TA.AperFunction,ViaPad*%
%ADD13C,0.600000*%
%TD*%
%TA.AperFunction,Conductor*%
%ADD14C,0.500000*%
%TD*%
G04 APERTURE END LIST*
D10*
%TO.P,RV2,1,1*%
%TO.N,Net-(R45-Pad2)*%
X128000000Y-90960000D03*
%TO.P,RV2,2,2*%
%TO.N,Net-(RV2-Pad2)*%
X128000000Y-93500000D03*
%TO.P,RV2,3,3*%
%TO.N,Net-(R48-Pad1)*%
X128000000Y-96040000D03*
%TD*%
D11*
%TO.P,J2,1,Pin_1*%
%TO.N,Net-(J2-Pin_1)*%
X123500000Y-109546249D03*
%TD*%
%TO.P,J19,1,Pin_1*%
%TO.N,+150V*%
X195000000Y-58500000D03*
D12*
%TO.P,J19,2,Pin_2*%
%TO.N,Net-(D2-K)*%
X192460000Y-58500000D03*
%TD*%
D10*
%TO.P,RV3,1,1*%
%TO.N,Net-(R50-Pad2)*%
X141000000Y-100500000D03*
%TO.P,RV3,2,2*%
%TO.N,X2_amp_input*%
X138460000Y-100500000D03*
%TO.P,RV3,3,3*%
%TO.N,unconnected-(RV3-Pad3)*%
X135920000Y-100500000D03*
%TD*%
D11*
%TO.P,J4,1,Pin_1*%
%TO.N,Net-(J4-Pin_1)*%
X217500000Y-85000000D03*
%TD*%
%TO.P,J14,1,Pin_1*%
%TO.N,-150V*%
X217500000Y-78000000D03*
%TD*%
D10*
%TO.P,RV5,1,1*%
%TO.N,Net-(R54-Pad2)*%
X140540000Y-125546249D03*
%TO.P,RV5,2,2*%
%TO.N,Y2_amp_input*%
X138000000Y-125546249D03*
%TO.P,RV5,3,3*%
%TO.N,unconnected-(RV5-Pad3)*%
X135460000Y-125546249D03*
%TD*%
D11*
%TO.P,J10,1,Pin_1*%
%TO.N,+5V*%
X123500000Y-127500000D03*
%TD*%
%TO.P,J11,1,Pin_1*%
%TO.N,GND*%
X217500000Y-70500000D03*
%TD*%
%TO.P,J13,1,Pin_1*%
%TO.N,+150V*%
X217500000Y-63500000D03*
%TD*%
%TO.P,J17,1,Pin_1*%
%TO.N,-5V*%
X194875000Y-67500000D03*
D12*
%TO.P,J17,2,Pin_2*%
%TO.N,Net-(J17-Pin_2)*%
X192335000Y-67500000D03*
%TD*%
D11*
%TO.P,J6,1,Pin_1*%
%TO.N,Net-(J6-Pin_1)*%
X218000000Y-110000000D03*
%TD*%
%TO.P,J7,1,Pin_1*%
%TO.N,Net-(J7-Pin_1)*%
X218000000Y-121500000D03*
%TD*%
%TO.P,J1,1,Pin_1*%
%TO.N,Net-(J1-Pin_1)*%
X217500000Y-55000000D03*
%TD*%
%TO.P,J16,1,Pin_1*%
%TO.N,+5V*%
X194875000Y-76500000D03*
D12*
%TO.P,J16,2,Pin_2*%
%TO.N,Net-(J16-Pin_2)*%
X192335000Y-76500000D03*
%TD*%
D11*
%TO.P,J5,1,Pin_1*%
%TO.N,Net-(J5-Pin_1)*%
X218000000Y-96000000D03*
%TD*%
%TO.P,J9,1,Pin_1*%
%TO.N,VIN_GND*%
X125000000Y-69000000D03*
%TD*%
D10*
%TO.P,RV4,1,1*%
%TO.N,Net-(R51-Pad2)*%
X127500000Y-117006249D03*
%TO.P,RV4,2,2*%
%TO.N,Net-(RV4-Pad2)*%
X127500000Y-119546249D03*
%TO.P,RV4,3,3*%
%TO.N,Net-(R52-Pad1)*%
X127500000Y-122086249D03*
%TD*%
%TO.P,RV1,1,1*%
%TO.N,Net-(D2-K)*%
X211000000Y-57550000D03*
%TO.P,RV1,2,2*%
%TO.N,Net-(J1-Pin_1)*%
X211000000Y-55010000D03*
%TO.P,RV1,3,3*%
%TO.N,Net-(D1-A)*%
X211000000Y-52470000D03*
%TD*%
D11*
%TO.P,J18,1,Pin_1*%
%TO.N,-150V*%
X195040000Y-52500000D03*
D12*
%TO.P,J18,2,Pin_2*%
%TO.N,Net-(D1-A)*%
X192500000Y-52500000D03*
%TD*%
D11*
%TO.P,J12,1,Pin_1*%
%TO.N,-5V*%
X123500000Y-131500000D03*
%TD*%
%TO.P,J8,1,Pin_1*%
%TO.N,+12V*%
X125000000Y-52000000D03*
%TD*%
%TO.P,J21,1,Pin_1*%
%TO.N,/150v_supply*%
X135040000Y-54745000D03*
D12*
%TO.P,J21,2,Pin_2*%
%TO.N,+12V*%
X132500000Y-54745000D03*
%TD*%
D11*
%TO.P,J20,1,Pin_1*%
%TO.N,/5v_supply*%
X135040000Y-70500000D03*
D12*
%TO.P,J20,2,Pin_2*%
%TO.N,+12V*%
X132500000Y-70500000D03*
%TD*%
D11*
%TO.P,J15,1,Pin_1*%
%TO.N,GND*%
X146000000Y-82775000D03*
D12*
%TO.P,J15,2,Pin_2*%
%TO.N,VIN_GND*%
X146000000Y-80235000D03*
%TD*%
D11*
%TO.P,J3,1,Pin_1*%
%TO.N,Net-(J3-Pin_1)*%
X123500000Y-85000000D03*
%TD*%
D13*
%TO.N,GND*%
X143000000Y-90000000D03*
X123000000Y-117500000D03*
X203500000Y-96000000D03*
X133000000Y-114000000D03*
X155000000Y-114000000D03*
X194500000Y-120500000D03*
X150000000Y-108000000D03*
X137500000Y-116500000D03*
X138500000Y-92000000D03*
X155500000Y-95500000D03*
X170500000Y-96000000D03*
X150500000Y-101000000D03*
X142000000Y-114500000D03*
X163000000Y-95500000D03*
X142500000Y-84000000D03*
X171500000Y-120500000D03*
X199000000Y-126000000D03*
X199000000Y-69500000D03*
X219000000Y-105500000D03*
X179000000Y-130000000D03*
X160000000Y-129000000D03*
X195000000Y-95500000D03*
X203500000Y-121000000D03*
X199500000Y-62000000D03*
X187000000Y-120500000D03*
X134000000Y-90000000D03*
X162000000Y-119500000D03*
X137500000Y-131500000D03*
X198500000Y-84000000D03*
X194000000Y-103000000D03*
X147500000Y-88500000D03*
X123500000Y-90500000D03*
X206000000Y-79500000D03*
X219000000Y-132000000D03*
X166500000Y-99500000D03*
X140000000Y-131500000D03*
X154000000Y-131500000D03*
X147000000Y-118500000D03*
X150500000Y-125500000D03*
X218500000Y-89500000D03*
%TO.N,VIN_GND*%
X129000000Y-67500000D03*
X133500000Y-49500000D03*
X124500000Y-76500000D03*
X148500000Y-78000000D03*
X154500000Y-63500000D03*
X146000000Y-61500000D03*
X137500000Y-59000000D03*
X136500000Y-76500000D03*
%TO.N,+5V*%
X158250000Y-100250000D03*
X157500000Y-121500000D03*
X194500000Y-86500000D03*
X132000000Y-93000000D03*
X132000000Y-86500000D03*
X162000000Y-86500000D03*
X189500000Y-96500000D03*
X163500000Y-111000000D03*
X194000000Y-111500000D03*
X131000000Y-118000000D03*
X127000000Y-111000000D03*
X188000000Y-126000000D03*
X194500000Y-84000000D03*
%TO.N,-5V*%
X142540000Y-119960000D03*
X161500000Y-104500000D03*
X165000000Y-131500000D03*
X197000000Y-131500000D03*
X141500000Y-106000000D03*
X143500000Y-95500000D03*
X189000000Y-101000000D03*
X131453751Y-126046249D03*
%TO.N,+150V*%
X212500000Y-115500000D03*
X179000000Y-87000000D03*
X211000000Y-95000000D03*
X180500000Y-115000000D03*
%TO.N,-150V*%
X184000000Y-129500000D03*
X212500000Y-105000000D03*
X213500000Y-126500000D03*
X182500000Y-106000000D03*
%TD*%
D14*
%TO.N,+5V*%
X160500000Y-85500000D02*
X132500000Y-85500000D01*
X162000000Y-111000000D02*
X157500000Y-115500000D01*
X132000000Y-86500000D02*
X132000000Y-93000000D01*
X132000000Y-117000000D02*
X131000000Y-118000000D01*
X192000000Y-122000000D02*
X188000000Y-126000000D01*
X195000000Y-117500000D02*
X192000000Y-120500000D01*
X162000000Y-126000000D02*
X188000000Y-126000000D01*
X163000000Y-110500000D02*
X163000000Y-110000000D01*
X191500000Y-100000000D02*
X189500000Y-102000000D01*
X194500000Y-86500000D02*
X194500000Y-84000000D01*
X132000000Y-104000000D02*
X132000000Y-106000000D01*
X176500000Y-85500000D02*
X176500000Y-94000000D01*
X163500000Y-111000000D02*
X163000000Y-110500000D01*
X194500000Y-84000000D02*
X178000000Y-84000000D01*
X162500000Y-85500000D02*
X162500000Y-86000000D01*
X176500000Y-94000000D02*
X179000000Y-96500000D01*
X132000000Y-106000000D02*
X127000000Y-111000000D01*
X178000000Y-84000000D02*
X176500000Y-85500000D01*
X189500000Y-102000000D02*
X186000000Y-102000000D01*
X132000000Y-93000000D02*
X132000000Y-104000000D01*
X162500000Y-86000000D02*
X162000000Y-86500000D01*
X132000000Y-104000000D02*
X132000000Y-117000000D01*
X132000000Y-86000000D02*
X132000000Y-86500000D01*
X163000000Y-110000000D02*
X162000000Y-111000000D01*
X194000000Y-111500000D02*
X195000000Y-112500000D01*
X189500000Y-96500000D02*
X190500000Y-96500000D01*
X162500000Y-85500000D02*
X160500000Y-85500000D01*
X179000000Y-96500000D02*
X189500000Y-96500000D01*
X193500000Y-81000000D02*
X167000000Y-81000000D01*
X157500000Y-121500000D02*
X162000000Y-126000000D01*
X167000000Y-81000000D02*
X162500000Y-85500000D01*
X192000000Y-120500000D02*
X192000000Y-122000000D01*
X191500000Y-97500000D02*
X191500000Y-100000000D01*
X194875000Y-79625000D02*
X193500000Y-81000000D01*
X195000000Y-112500000D02*
X195000000Y-117500000D01*
X194875000Y-76500000D02*
X194875000Y-79625000D01*
X132000000Y-86000000D02*
X132500000Y-85500000D01*
X190500000Y-96500000D02*
X191500000Y-97500000D01*
X160500000Y-98000000D02*
X160500000Y-85500000D01*
X186000000Y-102000000D02*
X171000000Y-102000000D01*
X157500000Y-121500000D02*
X157500000Y-121000000D01*
X171000000Y-102000000D02*
X163000000Y-110000000D01*
X157500000Y-115500000D02*
X157500000Y-121500000D01*
X158250000Y-100250000D02*
X160500000Y-98000000D01*
%TO.N,-5V*%
X196175000Y-68800000D02*
X196175000Y-79314950D01*
X196175000Y-79314950D02*
X193789950Y-81700000D01*
X146000000Y-104500000D02*
X143500000Y-102000000D01*
X153000000Y-125000000D02*
X159500000Y-131500000D01*
X156000000Y-104500000D02*
X153000000Y-104500000D01*
X165744975Y-83244975D02*
X165744975Y-84955025D01*
X161200000Y-89500000D02*
X161200000Y-104200000D01*
X143500000Y-106000000D02*
X143500000Y-119000000D01*
X140500000Y-123500000D02*
X133500000Y-123500000D01*
X133500000Y-123500000D02*
X131453751Y-125546249D01*
X161200000Y-104200000D02*
X161500000Y-104500000D01*
X142000000Y-120646910D02*
X142000000Y-122000000D01*
X167560661Y-101000000D02*
X167310661Y-101250000D01*
X143500000Y-102000000D02*
X143500000Y-95500000D01*
X194875000Y-67500000D02*
X196175000Y-68800000D01*
X143500000Y-102000000D02*
X143500000Y-106000000D01*
X142000000Y-122000000D02*
X140500000Y-123500000D01*
X166439339Y-101000000D02*
X165000000Y-101000000D01*
X143500000Y-119000000D02*
X142540000Y-119960000D01*
X193789950Y-81700000D02*
X167289950Y-81700000D01*
X159500000Y-131500000D02*
X165000000Y-131500000D01*
X166689339Y-101250000D02*
X166439339Y-101000000D01*
X165000000Y-101000000D02*
X161500000Y-104500000D01*
X165000000Y-131500000D02*
X197000000Y-131500000D01*
X143500000Y-106000000D02*
X141500000Y-106000000D01*
X131453751Y-125546249D02*
X131453751Y-126046249D01*
X153000000Y-104500000D02*
X153000000Y-125000000D01*
X189000000Y-101000000D02*
X167560661Y-101000000D01*
X142540000Y-120106910D02*
X142000000Y-120646910D01*
X153000000Y-104500000D02*
X146000000Y-104500000D01*
X165744975Y-84955025D02*
X161200000Y-89500000D01*
X161500000Y-104500000D02*
X156000000Y-104500000D01*
X167289950Y-81700000D02*
X165744975Y-83244975D01*
X167310661Y-101250000D02*
X166689339Y-101250000D01*
X142540000Y-119960000D02*
X142540000Y-120106910D01*
%TO.N,+150V*%
X210000000Y-104500000D02*
X182000000Y-104500000D01*
X179000000Y-87000000D02*
X181000000Y-89000000D01*
X211000000Y-103500000D02*
X210000000Y-104500000D01*
X211000000Y-95000000D02*
X211000000Y-103500000D01*
X204000000Y-58500000D02*
X211000000Y-65500000D01*
X211000000Y-95000000D02*
X211000000Y-83500000D01*
X182000000Y-115000000D02*
X187500000Y-109500000D01*
X205500000Y-89000000D02*
X211000000Y-83500000D01*
X187500000Y-109500000D02*
X206500000Y-109500000D01*
X195000000Y-58500000D02*
X204000000Y-58500000D01*
X206500000Y-109500000D02*
X212500000Y-115500000D01*
X211000000Y-83500000D02*
X211000000Y-65500000D01*
X181000000Y-89000000D02*
X205500000Y-89000000D01*
X180000000Y-114500000D02*
X180500000Y-115000000D01*
X182000000Y-104500000D02*
X180000000Y-106500000D01*
X180500000Y-115000000D02*
X182000000Y-115000000D01*
X180000000Y-106500000D02*
X180000000Y-114500000D01*
%TO.N,-150V*%
X213500000Y-126500000D02*
X210500000Y-129500000D01*
X217500000Y-78000000D02*
X213500000Y-74000000D01*
X211500000Y-106000000D02*
X212500000Y-105000000D01*
X213500000Y-104000000D02*
X213500000Y-126500000D01*
X213500000Y-64000000D02*
X213500000Y-69500000D01*
X213500000Y-104000000D02*
X212500000Y-105000000D01*
X210500000Y-129500000D02*
X184000000Y-129500000D01*
X213500000Y-74000000D02*
X213500000Y-69500000D01*
X182500000Y-106000000D02*
X211500000Y-106000000D01*
X202000000Y-52500000D02*
X213500000Y-64000000D01*
X195040000Y-52500000D02*
X202000000Y-52500000D01*
X213500000Y-69500000D02*
X213500000Y-104000000D01*
%TD*%
%TA.AperFunction,Conductor*%
%TO.N,GND*%
G36*
X220442539Y-47520185D02*
G01*
X220488294Y-47572989D01*
X220499500Y-47624500D01*
X220499500Y-83000000D01*
X214500500Y-83000000D01*
X214500500Y-76714782D01*
X214520185Y-76647743D01*
X214572989Y-76601988D01*
X214642147Y-76592044D01*
X214705703Y-76621069D01*
X214712181Y-76627101D01*
X215863181Y-77778102D01*
X215896666Y-77839425D01*
X215899500Y-77865783D01*
X215899500Y-78900001D01*
X215899501Y-78900019D01*
X215910000Y-79002796D01*
X215910001Y-79002799D01*
X215961834Y-79159217D01*
X215965186Y-79169334D01*
X216057288Y-79318656D01*
X216181344Y-79442712D01*
X216330666Y-79534814D01*
X216497203Y-79589999D01*
X216599991Y-79600500D01*
X218400008Y-79600499D01*
X218502797Y-79589999D01*
X218669334Y-79534814D01*
X218818656Y-79442712D01*
X218942712Y-79318656D01*
X219034814Y-79169334D01*
X219089999Y-79002797D01*
X219100500Y-78900009D01*
X219100499Y-77099992D01*
X219089999Y-76997203D01*
X219034814Y-76830666D01*
X218942712Y-76681344D01*
X218818656Y-76557288D01*
X218669334Y-76465186D01*
X218502797Y-76410001D01*
X218502795Y-76410000D01*
X218400016Y-76399500D01*
X218400009Y-76399500D01*
X217365783Y-76399500D01*
X217298744Y-76379815D01*
X217278102Y-76363181D01*
X214536819Y-73621898D01*
X214503334Y-73560575D01*
X214500500Y-73534217D01*
X214500500Y-69602155D01*
X216150000Y-69602155D01*
X216150000Y-70250000D01*
X217066988Y-70250000D01*
X217034075Y-70307007D01*
X217000000Y-70434174D01*
X217000000Y-70565826D01*
X217034075Y-70692993D01*
X217066988Y-70750000D01*
X216150000Y-70750000D01*
X216150000Y-71397844D01*
X216156401Y-71457372D01*
X216156403Y-71457379D01*
X216206645Y-71592086D01*
X216206649Y-71592093D01*
X216292809Y-71707187D01*
X216292812Y-71707190D01*
X216407906Y-71793350D01*
X216407913Y-71793354D01*
X216542620Y-71843596D01*
X216542627Y-71843598D01*
X216602155Y-71849999D01*
X216602172Y-71850000D01*
X217250000Y-71850000D01*
X217250000Y-70933012D01*
X217307007Y-70965925D01*
X217434174Y-71000000D01*
X217565826Y-71000000D01*
X217692993Y-70965925D01*
X217750000Y-70933012D01*
X217750000Y-71850000D01*
X218397828Y-71850000D01*
X218397844Y-71849999D01*
X218457372Y-71843598D01*
X218457379Y-71843596D01*
X218592086Y-71793354D01*
X218592093Y-71793350D01*
X218707187Y-71707190D01*
X218707190Y-71707187D01*
X218793350Y-71592093D01*
X218793354Y-71592086D01*
X218843596Y-71457379D01*
X218843598Y-71457372D01*
X218849999Y-71397844D01*
X218850000Y-71397827D01*
X218850000Y-70750000D01*
X217933012Y-70750000D01*
X217965925Y-70692993D01*
X218000000Y-70565826D01*
X218000000Y-70434174D01*
X217965925Y-70307007D01*
X217933012Y-70250000D01*
X218850000Y-70250000D01*
X218850000Y-69602172D01*
X218849999Y-69602155D01*
X218843598Y-69542627D01*
X218843596Y-69542620D01*
X218793354Y-69407913D01*
X218793350Y-69407906D01*
X218707190Y-69292812D01*
X218707187Y-69292809D01*
X218592093Y-69206649D01*
X218592086Y-69206645D01*
X218457379Y-69156403D01*
X218457372Y-69156401D01*
X218397844Y-69150000D01*
X217750000Y-69150000D01*
X217750000Y-70066988D01*
X217692993Y-70034075D01*
X217565826Y-70000000D01*
X217434174Y-70000000D01*
X217307007Y-70034075D01*
X217250000Y-70066988D01*
X217250000Y-69150000D01*
X216602155Y-69150000D01*
X216542627Y-69156401D01*
X216542620Y-69156403D01*
X216407913Y-69206645D01*
X216407906Y-69206649D01*
X216292812Y-69292809D01*
X216292809Y-69292812D01*
X216206649Y-69407906D01*
X216206645Y-69407913D01*
X216156403Y-69542620D01*
X216156401Y-69542627D01*
X216150000Y-69602155D01*
X214500500Y-69602155D01*
X214500500Y-63901456D01*
X214462052Y-63708170D01*
X214462051Y-63708169D01*
X214462051Y-63708165D01*
X214462049Y-63708160D01*
X214386635Y-63526092D01*
X214386628Y-63526079D01*
X214277139Y-63362218D01*
X214277136Y-63362214D01*
X214134686Y-63219764D01*
X214134655Y-63219735D01*
X213514903Y-62599983D01*
X215899500Y-62599983D01*
X215899500Y-64400001D01*
X215899501Y-64400018D01*
X215910000Y-64502796D01*
X215910001Y-64502799D01*
X215965185Y-64669331D01*
X215965186Y-64669334D01*
X216057288Y-64818656D01*
X216181344Y-64942712D01*
X216330666Y-65034814D01*
X216497203Y-65089999D01*
X216599991Y-65100500D01*
X218400008Y-65100499D01*
X218502797Y-65089999D01*
X218669334Y-65034814D01*
X218818656Y-64942712D01*
X218942712Y-64818656D01*
X219034814Y-64669334D01*
X219089999Y-64502797D01*
X219100500Y-64400009D01*
X219100499Y-62599992D01*
X219089999Y-62497203D01*
X219034814Y-62330666D01*
X218942712Y-62181344D01*
X218818656Y-62057288D01*
X218669334Y-61965186D01*
X218502797Y-61910001D01*
X218502795Y-61910000D01*
X218400010Y-61899500D01*
X216599998Y-61899500D01*
X216599981Y-61899501D01*
X216497203Y-61910000D01*
X216497200Y-61910001D01*
X216330668Y-61965185D01*
X216330663Y-61965187D01*
X216181342Y-62057289D01*
X216057289Y-62181342D01*
X215965187Y-62330663D01*
X215965186Y-62330666D01*
X215910001Y-62497203D01*
X215910001Y-62497204D01*
X215910000Y-62497204D01*
X215899500Y-62599983D01*
X213514903Y-62599983D01*
X203384913Y-52469993D01*
X209524460Y-52469993D01*
X209524460Y-52470006D01*
X209544582Y-52712858D01*
X209544584Y-52712866D01*
X209604408Y-52949106D01*
X209702301Y-53172280D01*
X209835590Y-53376292D01*
X209835592Y-53376295D01*
X210000644Y-53555590D01*
X210102956Y-53635223D01*
X210111852Y-53642147D01*
X210152665Y-53698857D01*
X210156339Y-53768630D01*
X210121707Y-53829313D01*
X210111852Y-53837853D01*
X210000646Y-53924408D01*
X209835593Y-54103703D01*
X209835590Y-54103707D01*
X209702301Y-54307719D01*
X209604408Y-54530893D01*
X209544584Y-54767133D01*
X209544582Y-54767141D01*
X209524460Y-55009993D01*
X209524460Y-55010006D01*
X209544582Y-55252858D01*
X209544584Y-55252866D01*
X209604408Y-55489106D01*
X209702301Y-55712280D01*
X209824951Y-55900008D01*
X209835592Y-55916295D01*
X210000644Y-56095590D01*
X210095386Y-56169331D01*
X210111852Y-56182147D01*
X210152665Y-56238857D01*
X210156339Y-56308630D01*
X210121707Y-56369313D01*
X210111852Y-56377853D01*
X210000646Y-56464408D01*
X209835593Y-56643703D01*
X209835590Y-56643707D01*
X209702301Y-56847719D01*
X209604408Y-57070893D01*
X209544584Y-57307133D01*
X209544582Y-57307141D01*
X209524460Y-57549993D01*
X209524460Y-57550000D01*
X209544582Y-57792858D01*
X209544584Y-57792866D01*
X209604408Y-58029106D01*
X209702301Y-58252280D01*
X209835590Y-58456292D01*
X209835592Y-58456295D01*
X210000644Y-58635590D01*
X210192956Y-58785273D01*
X210192958Y-58785274D01*
X210192961Y-58785276D01*
X210317557Y-58852703D01*
X210407282Y-58901260D01*
X210637776Y-58980389D01*
X210878151Y-59020500D01*
X211121849Y-59020500D01*
X211362224Y-58980389D01*
X211592718Y-58901260D01*
X211807044Y-58785273D01*
X211999356Y-58635590D01*
X212164408Y-58456295D01*
X212297699Y-58252279D01*
X212395591Y-58029107D01*
X212455416Y-57792866D01*
X212457217Y-57771140D01*
X212475540Y-57550000D01*
X212475540Y-57549993D01*
X212455417Y-57307141D01*
X212455416Y-57307138D01*
X212455416Y-57307134D01*
X212395591Y-57070893D01*
X212297699Y-56847721D01*
X212164408Y-56643705D01*
X211999356Y-56464410D01*
X211888148Y-56377853D01*
X211847335Y-56321143D01*
X211843661Y-56251370D01*
X211878293Y-56190687D01*
X211888148Y-56182147D01*
X211904614Y-56169331D01*
X211999356Y-56095590D01*
X212164408Y-55916295D01*
X212297699Y-55712279D01*
X212395591Y-55489107D01*
X212455416Y-55252866D01*
X212475540Y-55010000D01*
X212475540Y-55009993D01*
X212455417Y-54767141D01*
X212455416Y-54767138D01*
X212455416Y-54767134D01*
X212395591Y-54530893D01*
X212297699Y-54307721D01*
X212164408Y-54103705D01*
X212160982Y-54099983D01*
X215899500Y-54099983D01*
X215899500Y-55900001D01*
X215899501Y-55900018D01*
X215910000Y-56002796D01*
X215910001Y-56002799D01*
X215965185Y-56169331D01*
X215965187Y-56169336D01*
X216000069Y-56225888D01*
X216057288Y-56318656D01*
X216181344Y-56442712D01*
X216330666Y-56534814D01*
X216497203Y-56589999D01*
X216599991Y-56600500D01*
X218400008Y-56600499D01*
X218502797Y-56589999D01*
X218669334Y-56534814D01*
X218818656Y-56442712D01*
X218942712Y-56318656D01*
X219034814Y-56169334D01*
X219089999Y-56002797D01*
X219100500Y-55900009D01*
X219100499Y-54099992D01*
X219089999Y-53997203D01*
X219034814Y-53830666D01*
X218942712Y-53681344D01*
X218818656Y-53557288D01*
X218669334Y-53465186D01*
X218502797Y-53410001D01*
X218502795Y-53410000D01*
X218400010Y-53399500D01*
X216599998Y-53399500D01*
X216599981Y-53399501D01*
X216497203Y-53410000D01*
X216497200Y-53410001D01*
X216330668Y-53465185D01*
X216330663Y-53465187D01*
X216181342Y-53557289D01*
X216057289Y-53681342D01*
X215965187Y-53830663D01*
X215965186Y-53830666D01*
X215910001Y-53997203D01*
X215910001Y-53997204D01*
X215910000Y-53997204D01*
X215899500Y-54099983D01*
X212160982Y-54099983D01*
X211999356Y-53924410D01*
X211888148Y-53837853D01*
X211847335Y-53781143D01*
X211843661Y-53711370D01*
X211878293Y-53650687D01*
X211888148Y-53642147D01*
X211889313Y-53641239D01*
X211999356Y-53555590D01*
X212164408Y-53376295D01*
X212297699Y-53172279D01*
X212395591Y-52949107D01*
X212455416Y-52712866D01*
X212455417Y-52712858D01*
X212475540Y-52470006D01*
X212475540Y-52469993D01*
X212455417Y-52227141D01*
X212455416Y-52227138D01*
X212455416Y-52227134D01*
X212395591Y-51990893D01*
X212297699Y-51767721D01*
X212268390Y-51722861D01*
X212231053Y-51665713D01*
X212164408Y-51563705D01*
X211999356Y-51384410D01*
X211999351Y-51384406D01*
X211999349Y-51384404D01*
X211807047Y-51234729D01*
X211807038Y-51234723D01*
X211592724Y-51118743D01*
X211592721Y-51118742D01*
X211592718Y-51118740D01*
X211592712Y-51118738D01*
X211592710Y-51118737D01*
X211362226Y-51039611D01*
X211121849Y-50999500D01*
X210878151Y-50999500D01*
X210637773Y-51039611D01*
X210407289Y-51118737D01*
X210407275Y-51118743D01*
X210192961Y-51234723D01*
X210192952Y-51234729D01*
X210000650Y-51384404D01*
X210000647Y-51384407D01*
X209835593Y-51563703D01*
X209835590Y-51563707D01*
X209702301Y-51767719D01*
X209604408Y-51990893D01*
X209544584Y-52227133D01*
X209544582Y-52227141D01*
X209524460Y-52469993D01*
X203384913Y-52469993D01*
X202781479Y-51866559D01*
X202781459Y-51866537D01*
X202637785Y-51722863D01*
X202637781Y-51722860D01*
X202473920Y-51613371D01*
X202473907Y-51613364D01*
X202336239Y-51556341D01*
X202336238Y-51556341D01*
X202291836Y-51537949D01*
X202291828Y-51537947D01*
X202195188Y-51518724D01*
X202098544Y-51499500D01*
X202098541Y-51499500D01*
X196720301Y-51499500D01*
X196653262Y-51479815D01*
X196607507Y-51427011D01*
X196602595Y-51414504D01*
X196592621Y-51384404D01*
X196574814Y-51330666D01*
X196482712Y-51181344D01*
X196358656Y-51057288D01*
X196264966Y-50999500D01*
X196209336Y-50965187D01*
X196209331Y-50965185D01*
X196207862Y-50964698D01*
X196042797Y-50910001D01*
X196042795Y-50910000D01*
X195940010Y-50899500D01*
X194139998Y-50899500D01*
X194139981Y-50899501D01*
X194037203Y-50910000D01*
X194037200Y-50910001D01*
X193870668Y-50965185D01*
X193870663Y-50965187D01*
X193721345Y-51057287D01*
X193595748Y-51182884D01*
X193534425Y-51216368D01*
X193464733Y-51211384D01*
X193443277Y-51200929D01*
X193228859Y-51069533D01*
X192996110Y-50973126D01*
X192751151Y-50914317D01*
X192500000Y-50894551D01*
X192248848Y-50914317D01*
X192003889Y-50973126D01*
X191771140Y-51069533D01*
X191556346Y-51201160D01*
X191556343Y-51201161D01*
X191364776Y-51364776D01*
X191201164Y-51556341D01*
X191201160Y-51556346D01*
X191069533Y-51771140D01*
X190973126Y-52003889D01*
X190914317Y-52248848D01*
X190894551Y-52500000D01*
X190914317Y-52751151D01*
X190973126Y-52996110D01*
X191069533Y-53228859D01*
X191201160Y-53443653D01*
X191201161Y-53443656D01*
X191249711Y-53500500D01*
X191364776Y-53635224D01*
X191463726Y-53719735D01*
X191556343Y-53798838D01*
X191556346Y-53798839D01*
X191771140Y-53930466D01*
X191932259Y-53997203D01*
X192003889Y-54026873D01*
X192248852Y-54085683D01*
X192500000Y-54105449D01*
X192751148Y-54085683D01*
X192996111Y-54026873D01*
X193228859Y-53930466D01*
X193443277Y-53799069D01*
X193510722Y-53780825D01*
X193577325Y-53801941D01*
X193595748Y-53817116D01*
X193597288Y-53818656D01*
X193721344Y-53942712D01*
X193870666Y-54034814D01*
X194037203Y-54089999D01*
X194139991Y-54100500D01*
X195940008Y-54100499D01*
X196042797Y-54089999D01*
X196209334Y-54034814D01*
X196358656Y-53942712D01*
X196482712Y-53818656D01*
X196574814Y-53669334D01*
X196602595Y-53585495D01*
X196642368Y-53528051D01*
X196706884Y-53501228D01*
X196720301Y-53500500D01*
X201534218Y-53500500D01*
X201601257Y-53520185D01*
X201621899Y-53536819D01*
X212463181Y-64378101D01*
X212496666Y-64439424D01*
X212499500Y-64465782D01*
X212499500Y-83000000D01*
X212000500Y-83000000D01*
X212000500Y-65401456D01*
X211962052Y-65208170D01*
X211962051Y-65208169D01*
X211962051Y-65208165D01*
X211917455Y-65100499D01*
X211886635Y-65026092D01*
X211886628Y-65026079D01*
X211777139Y-64862218D01*
X211777136Y-64862214D01*
X211634686Y-64719764D01*
X211634655Y-64719735D01*
X204781479Y-57866559D01*
X204781459Y-57866537D01*
X204637785Y-57722863D01*
X204637781Y-57722860D01*
X204473920Y-57613371D01*
X204473907Y-57613364D01*
X204320930Y-57550000D01*
X204291837Y-57537949D01*
X204291829Y-57537947D01*
X204195188Y-57518724D01*
X204098544Y-57499500D01*
X204098541Y-57499500D01*
X196680301Y-57499500D01*
X196613262Y-57479815D01*
X196567507Y-57427011D01*
X196562595Y-57414504D01*
X196534814Y-57330666D01*
X196442712Y-57181344D01*
X196318656Y-57057288D01*
X196225888Y-57000069D01*
X196169336Y-56965187D01*
X196169331Y-56965185D01*
X196167862Y-56964698D01*
X196002797Y-56910001D01*
X196002795Y-56910000D01*
X195900010Y-56899500D01*
X194099998Y-56899500D01*
X194099981Y-56899501D01*
X193997203Y-56910000D01*
X193997200Y-56910001D01*
X193830668Y-56965185D01*
X193830663Y-56965187D01*
X193681345Y-57057287D01*
X193555748Y-57182884D01*
X193494425Y-57216368D01*
X193424733Y-57211384D01*
X193403277Y-57200929D01*
X193188859Y-57069533D01*
X192956110Y-56973126D01*
X192711151Y-56914317D01*
X192460000Y-56894551D01*
X192208848Y-56914317D01*
X191963889Y-56973126D01*
X191731140Y-57069533D01*
X191516346Y-57201160D01*
X191516343Y-57201161D01*
X191324776Y-57364776D01*
X191161161Y-57556343D01*
X191161160Y-57556346D01*
X191029533Y-57771140D01*
X190933126Y-58003889D01*
X190874317Y-58248848D01*
X190854551Y-58500000D01*
X190874317Y-58751151D01*
X190933126Y-58996110D01*
X191029533Y-59228859D01*
X191161160Y-59443653D01*
X191161161Y-59443656D01*
X191161164Y-59443659D01*
X191324776Y-59635224D01*
X191423726Y-59719735D01*
X191516343Y-59798838D01*
X191516346Y-59798839D01*
X191731140Y-59930466D01*
X191963889Y-60026873D01*
X192208852Y-60085683D01*
X192460000Y-60105449D01*
X192711148Y-60085683D01*
X192956111Y-60026873D01*
X193188859Y-59930466D01*
X193403277Y-59799069D01*
X193470722Y-59780825D01*
X193537325Y-59801941D01*
X193555748Y-59817116D01*
X193557288Y-59818656D01*
X193681344Y-59942712D01*
X193830666Y-60034814D01*
X193997203Y-60089999D01*
X194099991Y-60100500D01*
X195900008Y-60100499D01*
X196002797Y-60089999D01*
X196169334Y-60034814D01*
X196318656Y-59942712D01*
X196442712Y-59818656D01*
X196534814Y-59669334D01*
X196562595Y-59585495D01*
X196602368Y-59528051D01*
X196666884Y-59501228D01*
X196680301Y-59500500D01*
X203534218Y-59500500D01*
X203601257Y-59520185D01*
X203621899Y-59536819D01*
X209963181Y-65878101D01*
X209996666Y-65939424D01*
X209999500Y-65965782D01*
X209999500Y-83000000D01*
X194822304Y-83000000D01*
X194705934Y-82964700D01*
X194705932Y-82964699D01*
X194705934Y-82964699D01*
X194500000Y-82944417D01*
X194294067Y-82964699D01*
X194196945Y-82994161D01*
X194160950Y-82999500D01*
X177901456Y-82999500D01*
X177898942Y-83000000D01*
X167500000Y-83000000D01*
X167500640Y-82953881D01*
X167521253Y-82887123D01*
X167536938Y-82867932D01*
X167668053Y-82736818D01*
X167729377Y-82703334D01*
X167755734Y-82700500D01*
X193888492Y-82700500D01*
X193907820Y-82696655D01*
X193985138Y-82681275D01*
X194081786Y-82662051D01*
X194135115Y-82639961D01*
X194263864Y-82586632D01*
X194427732Y-82477139D01*
X194567089Y-82337782D01*
X194567090Y-82337779D01*
X194574156Y-82330714D01*
X194574159Y-82330710D01*
X196812778Y-80092091D01*
X196812782Y-80092089D01*
X196952139Y-79952732D01*
X197061632Y-79788864D01*
X197137051Y-79606785D01*
X197138302Y-79600499D01*
X197138302Y-79600498D01*
X197156275Y-79510141D01*
X197156275Y-79510138D01*
X197175500Y-79413491D01*
X197175500Y-68701459D01*
X197175500Y-68701456D01*
X197162325Y-68635225D01*
X197162325Y-68635224D01*
X197137052Y-68508165D01*
X197061632Y-68326086D01*
X197061631Y-68326085D01*
X197061628Y-68326079D01*
X196952140Y-68162219D01*
X196952137Y-68162215D01*
X196511818Y-67721896D01*
X196478333Y-67660573D01*
X196475499Y-67634215D01*
X196475499Y-66599998D01*
X196475498Y-66599981D01*
X196464999Y-66497203D01*
X196464998Y-66497200D01*
X196409814Y-66330666D01*
X196317712Y-66181344D01*
X196193656Y-66057288D01*
X196100888Y-66000069D01*
X196044336Y-65965187D01*
X196044331Y-65965185D01*
X196042862Y-65964698D01*
X195877797Y-65910001D01*
X195877795Y-65910000D01*
X195775010Y-65899500D01*
X193974998Y-65899500D01*
X193974981Y-65899501D01*
X193872203Y-65910000D01*
X193872200Y-65910001D01*
X193705668Y-65965185D01*
X193705663Y-65965187D01*
X193556345Y-66057287D01*
X193430748Y-66182884D01*
X193369425Y-66216368D01*
X193299733Y-66211384D01*
X193278277Y-66200929D01*
X193063859Y-66069533D01*
X192831110Y-65973126D01*
X192586151Y-65914317D01*
X192335000Y-65894551D01*
X192083848Y-65914317D01*
X191838889Y-65973126D01*
X191606140Y-66069533D01*
X191391346Y-66201160D01*
X191391343Y-66201161D01*
X191199776Y-66364776D01*
X191036161Y-66556343D01*
X191036160Y-66556346D01*
X190904533Y-66771140D01*
X190808126Y-67003889D01*
X190749317Y-67248848D01*
X190729551Y-67500000D01*
X190749317Y-67751151D01*
X190808126Y-67996110D01*
X190904533Y-68228859D01*
X191036160Y-68443653D01*
X191036161Y-68443656D01*
X191036164Y-68443659D01*
X191199776Y-68635224D01*
X191298726Y-68719735D01*
X191391343Y-68798838D01*
X191391346Y-68798839D01*
X191606140Y-68930466D01*
X191838889Y-69026873D01*
X192083852Y-69085683D01*
X192335000Y-69105449D01*
X192586148Y-69085683D01*
X192831111Y-69026873D01*
X193063859Y-68930466D01*
X193278277Y-68799069D01*
X193345722Y-68780825D01*
X193412325Y-68801941D01*
X193430748Y-68817116D01*
X193432288Y-68818656D01*
X193556344Y-68942712D01*
X193705666Y-69034814D01*
X193872203Y-69089999D01*
X193974991Y-69100500D01*
X195009215Y-69100499D01*
X195076254Y-69120183D01*
X195096895Y-69136817D01*
X195138180Y-69178101D01*
X195171666Y-69239423D01*
X195174500Y-69265783D01*
X195174500Y-74775500D01*
X195154815Y-74842539D01*
X195102011Y-74888294D01*
X195050500Y-74899500D01*
X193974998Y-74899500D01*
X193974981Y-74899501D01*
X193872203Y-74910000D01*
X193872200Y-74910001D01*
X193705668Y-74965185D01*
X193705663Y-74965187D01*
X193556345Y-75057287D01*
X193430748Y-75182884D01*
X193369425Y-75216368D01*
X193299733Y-75211384D01*
X193278277Y-75200929D01*
X193063859Y-75069533D01*
X192831110Y-74973126D01*
X192586151Y-74914317D01*
X192335000Y-74894551D01*
X192083848Y-74914317D01*
X191838889Y-74973126D01*
X191606140Y-75069533D01*
X191391346Y-75201160D01*
X191391343Y-75201161D01*
X191199776Y-75364776D01*
X191036161Y-75556343D01*
X191036160Y-75556346D01*
X190904533Y-75771140D01*
X190808126Y-76003889D01*
X190749317Y-76248848D01*
X190729551Y-76500000D01*
X190749317Y-76751151D01*
X190808126Y-76996110D01*
X190904533Y-77228859D01*
X191036160Y-77443653D01*
X191036161Y-77443656D01*
X191036164Y-77443659D01*
X191199776Y-77635224D01*
X191298726Y-77719735D01*
X191391343Y-77798838D01*
X191391346Y-77798839D01*
X191606140Y-77930466D01*
X191838889Y-78026873D01*
X192083852Y-78085683D01*
X192335000Y-78105449D01*
X192586148Y-78085683D01*
X192831111Y-78026873D01*
X193063859Y-77930466D01*
X193278277Y-77799069D01*
X193345722Y-77780825D01*
X193412325Y-77801941D01*
X193430748Y-77817116D01*
X193432288Y-77818656D01*
X193556344Y-77942712D01*
X193705666Y-78034814D01*
X193789505Y-78062595D01*
X193846948Y-78102366D01*
X193873772Y-78166882D01*
X193874500Y-78180300D01*
X193874500Y-79159217D01*
X193854815Y-79226256D01*
X193838181Y-79246898D01*
X193121899Y-79963181D01*
X193060576Y-79996666D01*
X193034218Y-79999500D01*
X167667408Y-79999500D01*
X167600369Y-79979815D01*
X167554614Y-79927011D01*
X167543420Y-79873778D01*
X167991351Y-47622778D01*
X168011965Y-47556018D01*
X168065399Y-47511001D01*
X168115339Y-47500500D01*
X220375500Y-47500500D01*
X220442539Y-47520185D01*
G37*
%TD.AperFunction*%
%TD*%
%TA.AperFunction,Conductor*%
%TO.N,GND*%
G36*
X144593039Y-83019685D02*
G01*
X144638794Y-83072489D01*
X144650000Y-83124000D01*
X144650000Y-83672844D01*
X144656401Y-83732372D01*
X144656403Y-83732379D01*
X144706645Y-83867086D01*
X144706649Y-83867093D01*
X144792809Y-83982187D01*
X144792812Y-83982190D01*
X144907906Y-84068350D01*
X144907913Y-84068354D01*
X145042620Y-84118596D01*
X145042627Y-84118598D01*
X145102155Y-84124999D01*
X145102172Y-84125000D01*
X145750000Y-84125000D01*
X145750000Y-83208012D01*
X145807007Y-83240925D01*
X145934174Y-83275000D01*
X146065826Y-83275000D01*
X146192993Y-83240925D01*
X146250000Y-83208012D01*
X146250000Y-84125000D01*
X146897828Y-84125000D01*
X146897844Y-84124999D01*
X146957372Y-84118598D01*
X146957379Y-84118596D01*
X147092086Y-84068354D01*
X147092093Y-84068350D01*
X147207187Y-83982190D01*
X147207190Y-83982187D01*
X147293350Y-83867093D01*
X147293354Y-83867086D01*
X147343596Y-83732379D01*
X147343598Y-83732372D01*
X147349999Y-83672844D01*
X147350000Y-83672827D01*
X147350000Y-83124000D01*
X147369685Y-83056961D01*
X147422489Y-83011206D01*
X147474000Y-83000000D01*
X163285718Y-83000000D01*
X163352757Y-83019685D01*
X163398512Y-83072489D01*
X163408456Y-83141647D01*
X163379431Y-83205203D01*
X163373399Y-83211681D01*
X162121899Y-84463181D01*
X162060576Y-84496666D01*
X162034218Y-84499500D01*
X132401455Y-84499500D01*
X132304812Y-84518724D01*
X132208167Y-84537947D01*
X132208161Y-84537949D01*
X132154834Y-84560037D01*
X132154834Y-84560038D01*
X132109315Y-84578892D01*
X132026089Y-84613366D01*
X132026079Y-84613371D01*
X131862220Y-84722859D01*
X131862219Y-84722859D01*
X131792540Y-84792538D01*
X131722861Y-84862218D01*
X131722858Y-84862221D01*
X131362221Y-85222858D01*
X131362218Y-85222861D01*
X131292538Y-85292540D01*
X131222859Y-85362219D01*
X131113371Y-85526080D01*
X131113366Y-85526089D01*
X131077215Y-85613368D01*
X131037950Y-85708160D01*
X131037949Y-85708162D01*
X131037949Y-85708164D01*
X131035026Y-85722861D01*
X130999500Y-85901456D01*
X130999500Y-86160949D01*
X130994161Y-86196943D01*
X130964699Y-86294066D01*
X130944417Y-86500000D01*
X130964699Y-86705932D01*
X130994161Y-86803054D01*
X130999500Y-86839049D01*
X130999500Y-92660949D01*
X130994161Y-92696943D01*
X130964699Y-92794066D01*
X130944417Y-93000000D01*
X130964699Y-93205932D01*
X130994161Y-93303054D01*
X130999500Y-93339049D01*
X130999500Y-105534217D01*
X130979815Y-105601256D01*
X130963181Y-105621898D01*
X126532284Y-110052794D01*
X126503058Y-110074470D01*
X126413548Y-110122315D01*
X126253589Y-110253589D01*
X126122318Y-110413546D01*
X126122315Y-110413550D01*
X126104827Y-110446267D01*
X126024769Y-110596043D01*
X125964699Y-110794067D01*
X125944417Y-111000000D01*
X125964699Y-111205932D01*
X125994734Y-111304944D01*
X126024768Y-111403954D01*
X126122315Y-111586450D01*
X126156969Y-111628677D01*
X126253589Y-111746410D01*
X126350209Y-111825702D01*
X126413550Y-111877685D01*
X126596046Y-111975232D01*
X126794066Y-112035300D01*
X126794065Y-112035300D01*
X126812529Y-112037118D01*
X127000000Y-112055583D01*
X127205934Y-112035300D01*
X127403954Y-111975232D01*
X127586450Y-111877685D01*
X127746410Y-111746410D01*
X127877685Y-111586450D01*
X127925530Y-111496937D01*
X127947201Y-111467717D01*
X130787821Y-108627098D01*
X130849142Y-108593615D01*
X130918834Y-108598599D01*
X130974767Y-108640471D01*
X130999184Y-108705935D01*
X130999500Y-108714781D01*
X130999500Y-116534217D01*
X130979815Y-116601256D01*
X130963181Y-116621898D01*
X130532284Y-117052794D01*
X130503058Y-117074470D01*
X130413548Y-117122315D01*
X130253589Y-117253589D01*
X130122317Y-117413547D01*
X130122315Y-117413550D01*
X130090046Y-117473920D01*
X130024769Y-117596043D01*
X130024768Y-117596045D01*
X130024768Y-117596046D01*
X130024011Y-117598541D01*
X129964699Y-117794067D01*
X129944417Y-118000000D01*
X129964699Y-118205932D01*
X129994714Y-118304879D01*
X130024768Y-118403954D01*
X130122315Y-118586450D01*
X130122316Y-118586451D01*
X130122317Y-118586452D01*
X130253589Y-118746410D01*
X130350209Y-118825702D01*
X130413550Y-118877685D01*
X130596046Y-118975232D01*
X130794066Y-119035300D01*
X130794065Y-119035300D01*
X130812529Y-119037118D01*
X131000000Y-119055583D01*
X131205934Y-119035300D01*
X131403954Y-118975232D01*
X131586450Y-118877685D01*
X131746410Y-118746410D01*
X131877685Y-118586450D01*
X131925530Y-118496937D01*
X131947201Y-118467717D01*
X132777140Y-117637781D01*
X132886632Y-117473914D01*
X132962052Y-117291835D01*
X133000501Y-117098540D01*
X133000501Y-116901459D01*
X133000501Y-116896349D01*
X133000500Y-116896323D01*
X133000500Y-93339049D01*
X133005839Y-93303054D01*
X133035300Y-93205934D01*
X133055583Y-93000000D01*
X133035300Y-92794066D01*
X133005839Y-92696943D01*
X133000500Y-92660949D01*
X133000500Y-86839049D01*
X133005839Y-86803054D01*
X133008565Y-86794067D01*
X133035300Y-86705934D01*
X133044518Y-86612346D01*
X133070679Y-86547558D01*
X133127714Y-86507200D01*
X133167921Y-86500500D01*
X159375500Y-86500500D01*
X159442539Y-86520185D01*
X159488294Y-86572989D01*
X159499500Y-86624500D01*
X159499500Y-97534217D01*
X159479815Y-97601256D01*
X159463181Y-97621898D01*
X157782284Y-99302794D01*
X157753058Y-99324470D01*
X157663548Y-99372315D01*
X157503589Y-99503589D01*
X157372317Y-99663547D01*
X157372315Y-99663550D01*
X157344590Y-99715420D01*
X157274769Y-99846043D01*
X157214699Y-100044067D01*
X157194417Y-100250000D01*
X157214699Y-100455932D01*
X157214700Y-100455934D01*
X157274768Y-100653954D01*
X157372315Y-100836450D01*
X157372316Y-100836451D01*
X157372317Y-100836452D01*
X157503589Y-100996410D01*
X157600209Y-101075702D01*
X157663550Y-101127685D01*
X157846046Y-101225232D01*
X158044066Y-101285300D01*
X158044065Y-101285300D01*
X158062529Y-101287118D01*
X158250000Y-101305583D01*
X158455934Y-101285300D01*
X158653954Y-101225232D01*
X158836450Y-101127685D01*
X158996410Y-100996410D01*
X159127685Y-100836450D01*
X159175530Y-100746937D01*
X159197201Y-100717717D01*
X159987820Y-99927099D01*
X160049142Y-99893615D01*
X160118834Y-99898599D01*
X160174767Y-99940471D01*
X160199184Y-100005935D01*
X160199500Y-100014781D01*
X160199500Y-103375500D01*
X160179815Y-103442539D01*
X160127011Y-103488294D01*
X160075500Y-103499500D01*
X146465782Y-103499500D01*
X146398743Y-103479815D01*
X146378101Y-103463181D01*
X144536819Y-101621899D01*
X144503334Y-101560576D01*
X144500500Y-101534218D01*
X144500500Y-95839049D01*
X144505839Y-95803054D01*
X144530165Y-95722861D01*
X144535300Y-95705934D01*
X144555583Y-95500000D01*
X144535300Y-95294066D01*
X144475232Y-95096046D01*
X144377685Y-94913550D01*
X144309662Y-94830663D01*
X144246410Y-94753589D01*
X144105300Y-94637785D01*
X144086450Y-94622315D01*
X143903954Y-94524768D01*
X143705934Y-94464700D01*
X143705932Y-94464699D01*
X143705934Y-94464699D01*
X143500000Y-94444417D01*
X143294067Y-94464699D01*
X143096043Y-94524769D01*
X143035204Y-94557289D01*
X142913550Y-94622315D01*
X142913548Y-94622316D01*
X142913547Y-94622317D01*
X142753589Y-94753589D01*
X142622317Y-94913547D01*
X142524769Y-95096043D01*
X142464699Y-95294067D01*
X142444417Y-95500000D01*
X142464699Y-95705932D01*
X142494161Y-95803054D01*
X142499500Y-95839049D01*
X142499500Y-99690091D01*
X142479815Y-99757130D01*
X142427011Y-99802885D01*
X142357853Y-99812829D01*
X142294297Y-99783804D01*
X142271692Y-99757913D01*
X142189588Y-99632245D01*
X142164408Y-99593705D01*
X141999356Y-99414410D01*
X141999351Y-99414406D01*
X141999349Y-99414404D01*
X141807047Y-99264729D01*
X141807038Y-99264723D01*
X141592724Y-99148743D01*
X141592721Y-99148742D01*
X141592718Y-99148740D01*
X141592712Y-99148738D01*
X141592710Y-99148737D01*
X141362226Y-99069611D01*
X141121849Y-99029500D01*
X140878151Y-99029500D01*
X140637773Y-99069611D01*
X140407289Y-99148737D01*
X140407275Y-99148743D01*
X140192961Y-99264723D01*
X140192952Y-99264729D01*
X140000650Y-99414404D01*
X140000647Y-99414407D01*
X139835593Y-99593703D01*
X139835587Y-99593710D01*
X139833804Y-99596441D01*
X139832789Y-99597306D01*
X139832446Y-99597748D01*
X139832355Y-99597677D01*
X139780655Y-99641795D01*
X139711423Y-99651214D01*
X139648089Y-99621708D01*
X139626196Y-99596441D01*
X139624412Y-99593710D01*
X139624406Y-99593703D01*
X139616928Y-99585580D01*
X139459356Y-99414410D01*
X139459351Y-99414406D01*
X139459349Y-99414404D01*
X139267047Y-99264729D01*
X139267038Y-99264723D01*
X139052724Y-99148743D01*
X139052721Y-99148742D01*
X139052718Y-99148740D01*
X139052712Y-99148738D01*
X139052710Y-99148737D01*
X138822226Y-99069611D01*
X138581849Y-99029500D01*
X138338151Y-99029500D01*
X138097773Y-99069611D01*
X137867289Y-99148737D01*
X137867275Y-99148743D01*
X137652961Y-99264723D01*
X137652952Y-99264729D01*
X137460650Y-99414404D01*
X137460647Y-99414407D01*
X137295593Y-99593703D01*
X137295587Y-99593710D01*
X137293804Y-99596441D01*
X137292789Y-99597306D01*
X137292446Y-99597748D01*
X137292355Y-99597677D01*
X137240655Y-99641795D01*
X137171423Y-99651214D01*
X137108089Y-99621708D01*
X137086196Y-99596441D01*
X137084412Y-99593710D01*
X137084406Y-99593703D01*
X137076928Y-99585580D01*
X136919356Y-99414410D01*
X136919351Y-99414406D01*
X136919349Y-99414404D01*
X136727047Y-99264729D01*
X136727038Y-99264723D01*
X136512724Y-99148743D01*
X136512721Y-99148742D01*
X136512718Y-99148740D01*
X136512712Y-99148738D01*
X136512710Y-99148737D01*
X136282226Y-99069611D01*
X136041849Y-99029500D01*
X135798151Y-99029500D01*
X135557773Y-99069611D01*
X135327289Y-99148737D01*
X135327275Y-99148743D01*
X135112961Y-99264723D01*
X135112952Y-99264729D01*
X134920650Y-99414404D01*
X134920647Y-99414407D01*
X134755593Y-99593703D01*
X134755590Y-99593707D01*
X134622301Y-99797719D01*
X134524408Y-100020893D01*
X134464584Y-100257133D01*
X134464582Y-100257141D01*
X134444460Y-100499993D01*
X134444460Y-100500006D01*
X134464582Y-100742858D01*
X134464584Y-100742866D01*
X134524408Y-100979106D01*
X134622301Y-101202280D01*
X134689793Y-101305583D01*
X134755592Y-101406295D01*
X134920644Y-101585590D01*
X134920647Y-101585592D01*
X134920650Y-101585595D01*
X135112952Y-101735270D01*
X135112956Y-101735273D01*
X135112958Y-101735274D01*
X135112961Y-101735276D01*
X135237557Y-101802703D01*
X135327282Y-101851260D01*
X135557776Y-101930389D01*
X135798151Y-101970500D01*
X136041849Y-101970500D01*
X136282224Y-101930389D01*
X136512718Y-101851260D01*
X136727044Y-101735273D01*
X136919356Y-101585590D01*
X137084408Y-101406295D01*
X137086192Y-101403563D01*
X137087206Y-101402698D01*
X137087554Y-101402252D01*
X137087645Y-101402323D01*
X137139338Y-101358208D01*
X137208569Y-101348784D01*
X137271905Y-101378286D01*
X137293806Y-101403562D01*
X137295592Y-101406295D01*
X137460644Y-101585590D01*
X137460647Y-101585592D01*
X137460650Y-101585595D01*
X137652952Y-101735270D01*
X137652956Y-101735273D01*
X137652958Y-101735274D01*
X137652961Y-101735276D01*
X137777557Y-101802703D01*
X137867282Y-101851260D01*
X138097776Y-101930389D01*
X138338151Y-101970500D01*
X138581849Y-101970500D01*
X138822224Y-101930389D01*
X139052718Y-101851260D01*
X139267044Y-101735273D01*
X139459356Y-101585590D01*
X139624408Y-101406295D01*
X139626192Y-101403563D01*
X139627206Y-101402698D01*
X139627554Y-101402252D01*
X139627645Y-101402323D01*
X139679338Y-101358208D01*
X139748569Y-101348784D01*
X139811905Y-101378286D01*
X139833806Y-101403562D01*
X139835592Y-101406295D01*
X140000644Y-101585590D01*
X140000647Y-101585592D01*
X140000650Y-101585595D01*
X140192952Y-101735270D01*
X140192956Y-101735273D01*
X140192958Y-101735274D01*
X140192961Y-101735276D01*
X140317557Y-101802703D01*
X140407282Y-101851260D01*
X140637776Y-101930389D01*
X140878151Y-101970500D01*
X141121849Y-101970500D01*
X141362224Y-101930389D01*
X141592718Y-101851260D01*
X141807044Y-101735273D01*
X141999356Y-101585590D01*
X142164408Y-101406295D01*
X142271692Y-101242086D01*
X142324838Y-101196729D01*
X142394070Y-101187306D01*
X142457405Y-101216808D01*
X142494736Y-101275869D01*
X142499500Y-101309908D01*
X142499500Y-104875500D01*
X142479815Y-104942539D01*
X142427011Y-104988294D01*
X142375500Y-104999500D01*
X141839050Y-104999500D01*
X141803055Y-104994161D01*
X141783714Y-104988294D01*
X141705934Y-104964700D01*
X141705932Y-104964699D01*
X141705934Y-104964699D01*
X141500000Y-104944417D01*
X141294067Y-104964699D01*
X141096043Y-105024769D01*
X140985898Y-105083643D01*
X140913550Y-105122315D01*
X140913548Y-105122316D01*
X140913547Y-105122317D01*
X140753589Y-105253589D01*
X140644403Y-105386635D01*
X140622315Y-105413550D01*
X140589346Y-105475230D01*
X140524769Y-105596043D01*
X140464699Y-105794067D01*
X140444417Y-106000000D01*
X140464699Y-106205932D01*
X140494734Y-106304944D01*
X140524768Y-106403954D01*
X140622315Y-106586450D01*
X140622317Y-106586452D01*
X140753589Y-106746410D01*
X140850209Y-106825702D01*
X140913550Y-106877685D01*
X141096046Y-106975232D01*
X141294066Y-107035300D01*
X141294065Y-107035300D01*
X141312529Y-107037118D01*
X141500000Y-107055583D01*
X141705934Y-107035300D01*
X141803055Y-107005838D01*
X141839050Y-107000500D01*
X142375500Y-107000500D01*
X142442539Y-107020185D01*
X142488294Y-107072989D01*
X142499500Y-107124500D01*
X142499500Y-118534217D01*
X142479815Y-118601256D01*
X142463181Y-118621898D01*
X142072284Y-119012794D01*
X142043058Y-119034470D01*
X141953548Y-119082315D01*
X141793589Y-119213589D01*
X141662317Y-119373547D01*
X141564767Y-119556046D01*
X141525374Y-119685908D01*
X141494396Y-119737593D01*
X141362220Y-119869769D01*
X141362218Y-119869771D01*
X141321989Y-119910000D01*
X141222859Y-120009129D01*
X141113371Y-120172990D01*
X141113364Y-120173003D01*
X141080712Y-120251835D01*
X141080712Y-120251836D01*
X141037949Y-120355073D01*
X141037947Y-120355081D01*
X141028722Y-120401459D01*
X141028722Y-120401460D01*
X140999500Y-120548366D01*
X140999500Y-121534217D01*
X140979815Y-121601256D01*
X140963181Y-121621898D01*
X140121899Y-122463181D01*
X140060576Y-122496666D01*
X140034218Y-122499500D01*
X133401455Y-122499500D01*
X133304812Y-122518724D01*
X133208171Y-122537947D01*
X133208163Y-122537949D01*
X133165592Y-122555583D01*
X133165591Y-122555583D01*
X133026092Y-122613364D01*
X133026079Y-122613371D01*
X132862219Y-122722859D01*
X132796551Y-122788528D01*
X132722861Y-122862218D01*
X132722858Y-122862221D01*
X130815972Y-124769107D01*
X130815969Y-124769110D01*
X130746289Y-124838789D01*
X130676610Y-124908468D01*
X130567120Y-125072331D01*
X130527260Y-125168564D01*
X130492041Y-125253590D01*
X130491700Y-125254413D01*
X130487239Y-125276840D01*
X130481959Y-125303383D01*
X130453251Y-125447705D01*
X130453251Y-125707198D01*
X130447912Y-125743192D01*
X130418450Y-125840315D01*
X130398168Y-126046249D01*
X130418450Y-126252181D01*
X130418451Y-126252183D01*
X130478519Y-126450203D01*
X130576066Y-126632699D01*
X130610720Y-126674926D01*
X130707340Y-126792659D01*
X130803960Y-126871951D01*
X130867301Y-126923934D01*
X131049797Y-127021481D01*
X131247817Y-127081549D01*
X131247816Y-127081549D01*
X131266280Y-127083367D01*
X131453751Y-127101832D01*
X131659685Y-127081549D01*
X131857705Y-127021481D01*
X132040201Y-126923934D01*
X132200161Y-126792659D01*
X132331436Y-126632699D01*
X132428983Y-126450203D01*
X132489051Y-126252183D01*
X132509334Y-126046249D01*
X132502469Y-125976560D01*
X132515487Y-125907918D01*
X132538188Y-125876730D01*
X133878101Y-124536819D01*
X133939424Y-124503334D01*
X133965782Y-124500500D01*
X134157570Y-124500500D01*
X134224609Y-124520185D01*
X134270364Y-124572989D01*
X134280308Y-124642147D01*
X134261378Y-124692322D01*
X134162301Y-124843968D01*
X134064408Y-125067142D01*
X134004584Y-125303382D01*
X134004582Y-125303390D01*
X133984460Y-125546242D01*
X133984460Y-125546255D01*
X134004582Y-125789107D01*
X134004584Y-125789115D01*
X134064408Y-126025355D01*
X134162301Y-126248529D01*
X134294064Y-126450205D01*
X134295592Y-126452544D01*
X134460644Y-126631839D01*
X134460647Y-126631841D01*
X134460650Y-126631844D01*
X134555838Y-126705932D01*
X134652956Y-126781522D01*
X134652958Y-126781523D01*
X134652961Y-126781525D01*
X134673535Y-126792659D01*
X134867282Y-126897509D01*
X135097776Y-126976638D01*
X135338151Y-127016749D01*
X135581849Y-127016749D01*
X135822224Y-126976638D01*
X136052718Y-126897509D01*
X136267044Y-126781522D01*
X136459356Y-126631839D01*
X136624408Y-126452544D01*
X136626192Y-126449812D01*
X136627206Y-126448947D01*
X136627554Y-126448501D01*
X136627645Y-126448572D01*
X136679338Y-126404457D01*
X136748569Y-126395033D01*
X136811905Y-126424535D01*
X136833806Y-126449811D01*
X136835592Y-126452544D01*
X137000644Y-126631839D01*
X137000647Y-126631841D01*
X137000650Y-126631844D01*
X137095838Y-126705932D01*
X137192956Y-126781522D01*
X137192958Y-126781523D01*
X137192961Y-126781525D01*
X137213535Y-126792659D01*
X137407282Y-126897509D01*
X137637776Y-126976638D01*
X137878151Y-127016749D01*
X138121849Y-127016749D01*
X138362224Y-126976638D01*
X138592718Y-126897509D01*
X138807044Y-126781522D01*
X138999356Y-126631839D01*
X139164408Y-126452544D01*
X139166192Y-126449812D01*
X139167206Y-126448947D01*
X139167554Y-126448501D01*
X139167645Y-126448572D01*
X139219338Y-126404457D01*
X139288569Y-126395033D01*
X139351905Y-126424535D01*
X139373806Y-126449811D01*
X139375592Y-126452544D01*
X139540644Y-126631839D01*
X139540647Y-126631841D01*
X139540650Y-126631844D01*
X139635838Y-126705932D01*
X139732956Y-126781522D01*
X139732958Y-126781523D01*
X139732961Y-126781525D01*
X139753535Y-126792659D01*
X139947282Y-126897509D01*
X140177776Y-126976638D01*
X140418151Y-127016749D01*
X140661849Y-127016749D01*
X140902224Y-126976638D01*
X141132718Y-126897509D01*
X141347044Y-126781522D01*
X141539356Y-126631839D01*
X141704408Y-126452544D01*
X141837699Y-126248528D01*
X141935591Y-126025356D01*
X141995416Y-125789115D01*
X141996049Y-125781479D01*
X142015540Y-125546255D01*
X142015540Y-125546242D01*
X141995417Y-125303390D01*
X141995416Y-125303387D01*
X141995416Y-125303383D01*
X141935591Y-125067142D01*
X141837699Y-124843970D01*
X141704408Y-124639954D01*
X141539356Y-124460659D01*
X141539351Y-124460655D01*
X141539349Y-124460653D01*
X141347047Y-124310978D01*
X141347038Y-124310972D01*
X141335558Y-124304760D01*
X141285967Y-124255541D01*
X141270859Y-124187325D01*
X141295029Y-124121769D01*
X141306887Y-124108031D01*
X142777139Y-122637782D01*
X142825532Y-122565356D01*
X142886632Y-122473914D01*
X142917871Y-122398495D01*
X142930811Y-122367256D01*
X142930811Y-122367255D01*
X142962051Y-122291836D01*
X143000500Y-122098541D01*
X143000500Y-121901460D01*
X143000500Y-121112692D01*
X143020185Y-121045653D01*
X143036814Y-121025015D01*
X143317139Y-120744692D01*
X143336411Y-120715849D01*
X143426632Y-120580824D01*
X143482626Y-120445640D01*
X143509503Y-120405415D01*
X144137778Y-119777141D01*
X144137782Y-119777139D01*
X144277139Y-119637782D01*
X144386632Y-119473914D01*
X144462051Y-119291835D01*
X144462991Y-119287112D01*
X144477615Y-119213589D01*
X144481275Y-119195191D01*
X144481275Y-119195188D01*
X144500500Y-119098541D01*
X144500500Y-105901459D01*
X144500500Y-104714782D01*
X144520185Y-104647743D01*
X144572989Y-104601988D01*
X144642147Y-104592044D01*
X144705703Y-104621069D01*
X144712181Y-104627101D01*
X145219735Y-105134655D01*
X145219764Y-105134686D01*
X145362214Y-105277136D01*
X145362218Y-105277139D01*
X145526079Y-105386628D01*
X145526092Y-105386635D01*
X145654833Y-105439961D01*
X145697744Y-105457735D01*
X145708164Y-105462051D01*
X145804812Y-105481275D01*
X145853135Y-105490887D01*
X145901458Y-105500500D01*
X145901459Y-105500500D01*
X145901460Y-105500500D01*
X146098540Y-105500500D01*
X151875500Y-105500500D01*
X151942539Y-105520185D01*
X151988294Y-105572989D01*
X151999500Y-105624500D01*
X151999500Y-125098544D01*
X152030341Y-125253591D01*
X152037946Y-125291828D01*
X152037949Y-125291837D01*
X152113364Y-125473907D01*
X152113371Y-125473920D01*
X152222860Y-125637781D01*
X152222863Y-125637785D01*
X152366537Y-125781459D01*
X152366559Y-125781479D01*
X158719735Y-132134655D01*
X158719764Y-132134686D01*
X158862214Y-132277136D01*
X158862218Y-132277139D01*
X159026079Y-132386628D01*
X159026092Y-132386635D01*
X159154833Y-132439961D01*
X159197744Y-132457735D01*
X159208164Y-132462051D01*
X159304812Y-132481275D01*
X159353135Y-132490887D01*
X159401458Y-132500500D01*
X159401459Y-132500500D01*
X159401460Y-132500500D01*
X159598540Y-132500500D01*
X164660950Y-132500500D01*
X164696944Y-132505838D01*
X164794066Y-132535300D01*
X164794065Y-132535300D01*
X164812529Y-132537118D01*
X165000000Y-132555583D01*
X165205934Y-132535300D01*
X165303055Y-132505838D01*
X165339050Y-132500500D01*
X196660950Y-132500500D01*
X196696944Y-132505838D01*
X196794066Y-132535300D01*
X196794065Y-132535300D01*
X196812529Y-132537118D01*
X197000000Y-132555583D01*
X197205934Y-132535300D01*
X197403954Y-132475232D01*
X197586450Y-132377685D01*
X197746410Y-132246410D01*
X197877685Y-132086450D01*
X197975232Y-131903954D01*
X198035300Y-131705934D01*
X198055583Y-131500000D01*
X198035300Y-131294066D01*
X197975232Y-131096046D01*
X197877685Y-130913550D01*
X197825702Y-130850209D01*
X197746410Y-130753589D01*
X197705912Y-130720354D01*
X197666577Y-130662608D01*
X197664706Y-130592763D01*
X197700893Y-130532995D01*
X197763649Y-130502279D01*
X197784576Y-130500500D01*
X210598542Y-130500500D01*
X210617870Y-130496655D01*
X210695188Y-130481275D01*
X210791836Y-130462051D01*
X210868064Y-130430476D01*
X210973914Y-130386632D01*
X211137782Y-130277139D01*
X211277139Y-130137782D01*
X211277139Y-130137780D01*
X211287347Y-130127573D01*
X211287348Y-130127570D01*
X213967719Y-127447200D01*
X213996939Y-127425529D01*
X214086450Y-127377685D01*
X214246410Y-127246410D01*
X214377685Y-127086450D01*
X214475232Y-126903954D01*
X214535300Y-126705934D01*
X214555583Y-126500000D01*
X214535300Y-126294066D01*
X214521487Y-126248529D01*
X214505839Y-126196943D01*
X214500500Y-126160949D01*
X214500500Y-120599983D01*
X216399500Y-120599983D01*
X216399500Y-122400001D01*
X216399501Y-122400018D01*
X216410000Y-122502796D01*
X216410001Y-122502799D01*
X216454731Y-122637782D01*
X216465186Y-122669334D01*
X216557288Y-122818656D01*
X216681344Y-122942712D01*
X216830666Y-123034814D01*
X216997203Y-123089999D01*
X217099991Y-123100500D01*
X218900008Y-123100499D01*
X219002797Y-123089999D01*
X219169334Y-123034814D01*
X219318656Y-122942712D01*
X219442712Y-122818656D01*
X219534814Y-122669334D01*
X219589999Y-122502797D01*
X219600500Y-122400009D01*
X219600499Y-120599992D01*
X219589999Y-120497203D01*
X219534814Y-120330666D01*
X219442712Y-120181344D01*
X219318656Y-120057288D01*
X219169334Y-119965186D01*
X219002797Y-119910001D01*
X219002795Y-119910000D01*
X218900010Y-119899500D01*
X217099998Y-119899500D01*
X217099981Y-119899501D01*
X216997203Y-119910000D01*
X216997200Y-119910001D01*
X216830668Y-119965185D01*
X216830663Y-119965187D01*
X216681342Y-120057289D01*
X216557289Y-120181342D01*
X216465187Y-120330663D01*
X216465185Y-120330668D01*
X216441728Y-120401456D01*
X216410001Y-120497203D01*
X216410001Y-120497204D01*
X216410000Y-120497204D01*
X216399500Y-120599983D01*
X214500500Y-120599983D01*
X214500500Y-109099983D01*
X216399500Y-109099983D01*
X216399500Y-110900001D01*
X216399501Y-110900018D01*
X216410000Y-111002796D01*
X216410001Y-111002799D01*
X216454222Y-111136247D01*
X216465186Y-111169334D01*
X216557288Y-111318656D01*
X216681344Y-111442712D01*
X216830666Y-111534814D01*
X216997203Y-111589999D01*
X217099991Y-111600500D01*
X218900008Y-111600499D01*
X219002797Y-111589999D01*
X219169334Y-111534814D01*
X219318656Y-111442712D01*
X219442712Y-111318656D01*
X219534814Y-111169334D01*
X219589999Y-111002797D01*
X219600500Y-110900009D01*
X219600499Y-109099992D01*
X219589999Y-108997203D01*
X219534814Y-108830666D01*
X219442712Y-108681344D01*
X219318656Y-108557288D01*
X219169334Y-108465186D01*
X219002797Y-108410001D01*
X219002795Y-108410000D01*
X218900010Y-108399500D01*
X217099998Y-108399500D01*
X217099981Y-108399501D01*
X216997203Y-108410000D01*
X216997200Y-108410001D01*
X216830668Y-108465185D01*
X216830663Y-108465187D01*
X216681342Y-108557289D01*
X216557289Y-108681342D01*
X216465187Y-108830663D01*
X216465185Y-108830668D01*
X216437349Y-108914670D01*
X216410001Y-108997203D01*
X216410001Y-108997204D01*
X216410000Y-108997204D01*
X216399500Y-109099983D01*
X214500500Y-109099983D01*
X214500500Y-104104674D01*
X214500501Y-104104653D01*
X214500501Y-103896349D01*
X214500500Y-103896323D01*
X214500500Y-95099983D01*
X216399500Y-95099983D01*
X216399500Y-96900001D01*
X216399501Y-96900018D01*
X216410000Y-97002796D01*
X216410001Y-97002799D01*
X216450691Y-97125592D01*
X216465186Y-97169334D01*
X216557288Y-97318656D01*
X216681344Y-97442712D01*
X216830666Y-97534814D01*
X216997203Y-97589999D01*
X217099991Y-97600500D01*
X218900008Y-97600499D01*
X219002797Y-97589999D01*
X219169334Y-97534814D01*
X219318656Y-97442712D01*
X219442712Y-97318656D01*
X219534814Y-97169334D01*
X219589999Y-97002797D01*
X219600500Y-96900009D01*
X219600499Y-95099992D01*
X219589999Y-94997203D01*
X219534814Y-94830666D01*
X219442712Y-94681344D01*
X219318656Y-94557288D01*
X219183494Y-94473920D01*
X219169336Y-94465187D01*
X219169331Y-94465185D01*
X219106657Y-94444417D01*
X219002797Y-94410001D01*
X219002795Y-94410000D01*
X218900010Y-94399500D01*
X217099998Y-94399500D01*
X217099981Y-94399501D01*
X216997203Y-94410000D01*
X216997200Y-94410001D01*
X216830668Y-94465185D01*
X216830663Y-94465187D01*
X216681342Y-94557289D01*
X216557289Y-94681342D01*
X216465187Y-94830663D01*
X216465186Y-94830666D01*
X216410001Y-94997203D01*
X216410001Y-94997204D01*
X216410000Y-94997204D01*
X216399500Y-95099983D01*
X214500500Y-95099983D01*
X214500500Y-84099983D01*
X215899500Y-84099983D01*
X215899500Y-85900001D01*
X215899501Y-85900018D01*
X215910000Y-86002796D01*
X215910001Y-86002799D01*
X215965185Y-86169331D01*
X215965187Y-86169336D01*
X215993218Y-86214781D01*
X216057288Y-86318656D01*
X216181344Y-86442712D01*
X216330666Y-86534814D01*
X216497203Y-86589999D01*
X216599991Y-86600500D01*
X218400008Y-86600499D01*
X218502797Y-86589999D01*
X218669334Y-86534814D01*
X218818656Y-86442712D01*
X218942712Y-86318656D01*
X219034814Y-86169334D01*
X219089999Y-86002797D01*
X219100500Y-85900009D01*
X219100499Y-84099992D01*
X219089999Y-83997203D01*
X219034814Y-83830666D01*
X218942712Y-83681344D01*
X218818656Y-83557288D01*
X218669334Y-83465186D01*
X218502797Y-83410001D01*
X218502795Y-83410000D01*
X218400010Y-83399500D01*
X216599998Y-83399500D01*
X216599981Y-83399501D01*
X216497203Y-83410000D01*
X216497200Y-83410001D01*
X216330668Y-83465185D01*
X216330663Y-83465187D01*
X216181342Y-83557289D01*
X216057289Y-83681342D01*
X215965187Y-83830663D01*
X215965185Y-83830668D01*
X215953115Y-83867093D01*
X215910001Y-83997203D01*
X215910001Y-83997204D01*
X215910000Y-83997204D01*
X215899500Y-84099983D01*
X214500500Y-84099983D01*
X214500500Y-83000000D01*
X220499500Y-83000000D01*
X220499500Y-133375500D01*
X220479815Y-133442539D01*
X220427011Y-133488294D01*
X220375500Y-133499500D01*
X121624500Y-133499500D01*
X121557461Y-133479815D01*
X121511706Y-133427011D01*
X121500500Y-133375500D01*
X121500500Y-130599983D01*
X121899500Y-130599983D01*
X121899500Y-132400001D01*
X121899501Y-132400018D01*
X121910000Y-132502796D01*
X121910001Y-132502799D01*
X121965185Y-132669331D01*
X121965186Y-132669334D01*
X122057288Y-132818656D01*
X122181344Y-132942712D01*
X122330666Y-133034814D01*
X122497203Y-133089999D01*
X122599991Y-133100500D01*
X124400008Y-133100499D01*
X124502797Y-133089999D01*
X124669334Y-133034814D01*
X124818656Y-132942712D01*
X124942712Y-132818656D01*
X125034814Y-132669334D01*
X125089999Y-132502797D01*
X125100500Y-132400009D01*
X125100499Y-130599992D01*
X125089999Y-130497203D01*
X125034814Y-130330666D01*
X124942712Y-130181344D01*
X124818656Y-130057288D01*
X124669334Y-129965186D01*
X124502797Y-129910001D01*
X124502795Y-129910000D01*
X124400010Y-129899500D01*
X122599998Y-129899500D01*
X122599981Y-129899501D01*
X122497203Y-129910000D01*
X122497200Y-129910001D01*
X122330668Y-129965185D01*
X122330663Y-129965187D01*
X122181342Y-130057289D01*
X122057289Y-130181342D01*
X121965187Y-130330663D01*
X121965186Y-130330666D01*
X121910001Y-130497203D01*
X121910001Y-130497204D01*
X121910000Y-130497204D01*
X121899500Y-130599983D01*
X121500500Y-130599983D01*
X121500500Y-126599983D01*
X121899500Y-126599983D01*
X121899500Y-128400001D01*
X121899501Y-128400018D01*
X121910000Y-128502796D01*
X121910001Y-128502799D01*
X121949605Y-128622315D01*
X121965186Y-128669334D01*
X122057288Y-128818656D01*
X122181344Y-128942712D01*
X122330666Y-129034814D01*
X122497203Y-129089999D01*
X122599991Y-129100500D01*
X124400008Y-129100499D01*
X124502797Y-129089999D01*
X124669334Y-129034814D01*
X124818656Y-128942712D01*
X124942712Y-128818656D01*
X125034814Y-128669334D01*
X125089999Y-128502797D01*
X125100500Y-128400009D01*
X125100499Y-126599992D01*
X125089999Y-126497203D01*
X125034814Y-126330666D01*
X124942712Y-126181344D01*
X124818656Y-126057288D01*
X124669334Y-125965186D01*
X124502797Y-125910001D01*
X124502795Y-125910000D01*
X124400010Y-125899500D01*
X122599998Y-125899500D01*
X122599981Y-125899501D01*
X122497203Y-125910000D01*
X122497200Y-125910001D01*
X122330668Y-125965185D01*
X122330663Y-125965187D01*
X122181342Y-126057289D01*
X122057289Y-126181342D01*
X121965187Y-126330663D01*
X121965186Y-126330666D01*
X121910001Y-126497203D01*
X121910001Y-126497204D01*
X121910000Y-126497204D01*
X121899500Y-126599983D01*
X121500500Y-126599983D01*
X121500500Y-117006242D01*
X126024460Y-117006242D01*
X126024460Y-117006255D01*
X126044582Y-117249107D01*
X126044584Y-117249115D01*
X126104408Y-117485355D01*
X126202301Y-117708529D01*
X126335590Y-117912541D01*
X126335592Y-117912544D01*
X126500644Y-118091839D01*
X126559669Y-118137780D01*
X126611852Y-118178396D01*
X126652665Y-118235106D01*
X126656339Y-118304879D01*
X126621707Y-118365562D01*
X126611852Y-118374102D01*
X126500646Y-118460657D01*
X126500644Y-118460658D01*
X126500644Y-118460659D01*
X126482176Y-118480721D01*
X126335593Y-118639952D01*
X126335590Y-118639956D01*
X126202301Y-118843968D01*
X126104408Y-119067142D01*
X126044584Y-119303382D01*
X126044582Y-119303390D01*
X126024460Y-119546242D01*
X126024460Y-119546255D01*
X126044582Y-119789107D01*
X126044584Y-119789115D01*
X126104408Y-120025355D01*
X126202301Y-120248529D01*
X126271911Y-120355074D01*
X126335592Y-120452544D01*
X126500644Y-120631839D01*
X126608576Y-120715846D01*
X126611852Y-120718396D01*
X126652665Y-120775106D01*
X126656339Y-120844879D01*
X126621707Y-120905562D01*
X126611852Y-120914102D01*
X126500646Y-121000657D01*
X126335593Y-121179952D01*
X126335590Y-121179956D01*
X126202301Y-121383968D01*
X126104408Y-121607142D01*
X126044584Y-121843382D01*
X126044582Y-121843390D01*
X126024460Y-122086242D01*
X126024460Y-122086255D01*
X126044582Y-122329107D01*
X126044584Y-122329115D01*
X126097468Y-122537949D01*
X126104409Y-122565356D01*
X126125467Y-122613364D01*
X126202301Y-122788529D01*
X126303035Y-122942712D01*
X126335592Y-122992544D01*
X126500644Y-123171839D01*
X126692956Y-123321522D01*
X126692958Y-123321523D01*
X126692961Y-123321525D01*
X126817557Y-123388952D01*
X126907282Y-123437509D01*
X127137776Y-123516638D01*
X127378151Y-123556749D01*
X127621849Y-123556749D01*
X127862224Y-123516638D01*
X128092718Y-123437509D01*
X128307044Y-123321522D01*
X128499356Y-123171839D01*
X128664408Y-122992544D01*
X128797699Y-122788528D01*
X128895591Y-122565356D01*
X128902532Y-122537949D01*
X128911433Y-122502797D01*
X128955416Y-122329115D01*
X128958505Y-122291836D01*
X128975540Y-122086255D01*
X128975540Y-122086242D01*
X128955417Y-121843390D01*
X128955416Y-121843387D01*
X128955416Y-121843383D01*
X128895591Y-121607142D01*
X128797699Y-121383970D01*
X128738961Y-121294066D01*
X128731053Y-121281962D01*
X128664408Y-121179954D01*
X128499356Y-121000659D01*
X128388148Y-120914102D01*
X128347335Y-120857392D01*
X128343661Y-120787619D01*
X128378293Y-120726936D01*
X128388148Y-120718396D01*
X128391424Y-120715846D01*
X128499356Y-120631839D01*
X128664408Y-120452544D01*
X128797699Y-120248528D01*
X128895591Y-120025356D01*
X128955416Y-119789115D01*
X128955417Y-119789107D01*
X128975540Y-119546255D01*
X128975540Y-119546242D01*
X128955417Y-119303390D01*
X128955416Y-119303387D01*
X128955416Y-119303383D01*
X128895591Y-119067142D01*
X128797699Y-118843970D01*
X128664408Y-118639954D01*
X128499356Y-118460659D01*
X128388148Y-118374102D01*
X128347335Y-118317392D01*
X128343661Y-118247619D01*
X128378293Y-118186936D01*
X128388148Y-118178396D01*
X128389313Y-118177488D01*
X128499356Y-118091839D01*
X128664408Y-117912544D01*
X128797699Y-117708528D01*
X128895591Y-117485356D01*
X128955416Y-117249115D01*
X128965923Y-117122315D01*
X128975540Y-117006255D01*
X128975540Y-117006242D01*
X128955417Y-116763390D01*
X128955416Y-116763387D01*
X128955416Y-116763383D01*
X128895591Y-116527142D01*
X128797699Y-116303970D01*
X128664408Y-116099954D01*
X128499356Y-115920659D01*
X128499351Y-115920655D01*
X128499349Y-115920653D01*
X128307047Y-115770978D01*
X128307038Y-115770972D01*
X128092724Y-115654992D01*
X128092721Y-115654991D01*
X128092718Y-115654989D01*
X128092712Y-115654987D01*
X128092710Y-115654986D01*
X127862226Y-115575860D01*
X127621849Y-115535749D01*
X127378151Y-115535749D01*
X127137773Y-115575860D01*
X126907289Y-115654986D01*
X126907275Y-115654992D01*
X126692961Y-115770972D01*
X126692952Y-115770978D01*
X126500650Y-115920653D01*
X126500647Y-115920656D01*
X126335593Y-116099952D01*
X126335590Y-116099956D01*
X126202301Y-116303968D01*
X126104408Y-116527142D01*
X126044584Y-116763382D01*
X126044582Y-116763390D01*
X126024460Y-117006242D01*
X121500500Y-117006242D01*
X121500500Y-108646232D01*
X121899500Y-108646232D01*
X121899500Y-110446250D01*
X121899501Y-110446267D01*
X121910000Y-110549045D01*
X121910001Y-110549048D01*
X121947632Y-110662608D01*
X121965186Y-110715583D01*
X122057288Y-110864905D01*
X122181344Y-110988961D01*
X122330666Y-111081063D01*
X122497203Y-111136248D01*
X122599991Y-111146749D01*
X124400008Y-111146748D01*
X124502797Y-111136248D01*
X124669334Y-111081063D01*
X124818656Y-110988961D01*
X124942712Y-110864905D01*
X125034814Y-110715583D01*
X125089999Y-110549046D01*
X125100500Y-110446258D01*
X125100499Y-108646241D01*
X125089999Y-108543452D01*
X125034814Y-108376915D01*
X124942712Y-108227593D01*
X124818656Y-108103537D01*
X124669334Y-108011435D01*
X124502797Y-107956250D01*
X124502795Y-107956249D01*
X124400010Y-107945749D01*
X122599998Y-107945749D01*
X122599981Y-107945750D01*
X122497203Y-107956249D01*
X122497200Y-107956250D01*
X122330668Y-108011434D01*
X122330663Y-108011436D01*
X122181342Y-108103538D01*
X122057289Y-108227591D01*
X121965187Y-108376912D01*
X121965185Y-108376917D01*
X121910001Y-108543452D01*
X121899500Y-108646232D01*
X121500500Y-108646232D01*
X121500500Y-90959993D01*
X126524460Y-90959993D01*
X126524460Y-90960006D01*
X126544582Y-91202858D01*
X126544584Y-91202866D01*
X126604408Y-91439106D01*
X126702301Y-91662280D01*
X126835590Y-91866292D01*
X126835592Y-91866295D01*
X127000644Y-92045590D01*
X127109096Y-92130002D01*
X127111852Y-92132147D01*
X127152665Y-92188857D01*
X127156339Y-92258630D01*
X127121707Y-92319313D01*
X127111852Y-92327853D01*
X127000646Y-92414408D01*
X126835593Y-92593703D01*
X126835590Y-92593707D01*
X126702301Y-92797719D01*
X126604408Y-93020893D01*
X126544584Y-93257133D01*
X126544582Y-93257141D01*
X126524460Y-93499993D01*
X126524460Y-93500006D01*
X126544582Y-93742858D01*
X126544584Y-93742866D01*
X126604408Y-93979106D01*
X126702301Y-94202280D01*
X126760811Y-94291835D01*
X126835592Y-94406295D01*
X127000644Y-94585590D01*
X127047831Y-94622317D01*
X127111852Y-94672147D01*
X127152665Y-94728857D01*
X127156339Y-94798630D01*
X127121707Y-94859313D01*
X127111852Y-94867853D01*
X127000646Y-94954408D01*
X126835593Y-95133703D01*
X126835590Y-95133707D01*
X126702301Y-95337719D01*
X126604408Y-95560893D01*
X126544584Y-95797133D01*
X126544582Y-95797141D01*
X126524460Y-96039993D01*
X126524460Y-96040006D01*
X126544582Y-96282858D01*
X126544584Y-96282866D01*
X126604408Y-96519106D01*
X126702301Y-96742280D01*
X126835590Y-96946292D01*
X126835592Y-96946295D01*
X127000644Y-97125590D01*
X127000647Y-97125592D01*
X127000650Y-97125595D01*
X127106736Y-97208165D01*
X127192956Y-97275273D01*
X127192958Y-97275274D01*
X127192961Y-97275276D01*
X127196404Y-97277139D01*
X127407282Y-97391260D01*
X127637776Y-97470389D01*
X127878151Y-97510500D01*
X128121849Y-97510500D01*
X128362224Y-97470389D01*
X128592718Y-97391260D01*
X128807044Y-97275273D01*
X128999356Y-97125590D01*
X129164408Y-96946295D01*
X129297699Y-96742279D01*
X129395591Y-96519107D01*
X129455416Y-96282866D01*
X129475540Y-96040000D01*
X129475540Y-96039993D01*
X129455417Y-95797141D01*
X129455416Y-95797138D01*
X129455416Y-95797134D01*
X129395591Y-95560893D01*
X129297699Y-95337721D01*
X129164408Y-95133705D01*
X128999356Y-94954410D01*
X128888148Y-94867853D01*
X128847335Y-94811143D01*
X128843661Y-94741370D01*
X128878293Y-94680687D01*
X128888148Y-94672147D01*
X128902535Y-94660949D01*
X128999356Y-94585590D01*
X129164408Y-94406295D01*
X129297699Y-94202279D01*
X129395591Y-93979107D01*
X129455416Y-93742866D01*
X129455417Y-93742858D01*
X129475540Y-93500006D01*
X129475540Y-93499993D01*
X129455417Y-93257141D01*
X129455416Y-93257138D01*
X129455416Y-93257134D01*
X129395591Y-93020893D01*
X129297699Y-92797721D01*
X129164408Y-92593705D01*
X128999356Y-92414410D01*
X128888148Y-92327853D01*
X128847335Y-92271143D01*
X128843661Y-92201370D01*
X128878293Y-92140687D01*
X128888148Y-92132147D01*
X128889313Y-92131239D01*
X128999356Y-92045590D01*
X129164408Y-91866295D01*
X129297699Y-91662279D01*
X129395591Y-91439107D01*
X129455416Y-91202866D01*
X129475540Y-90960000D01*
X129475540Y-90959993D01*
X129455417Y-90717141D01*
X129455416Y-90717138D01*
X129455416Y-90717134D01*
X129395591Y-90480893D01*
X129297699Y-90257721D01*
X129164408Y-90053705D01*
X128999356Y-89874410D01*
X128999351Y-89874406D01*
X128999349Y-89874404D01*
X128807047Y-89724729D01*
X128807038Y-89724723D01*
X128592724Y-89608743D01*
X128592721Y-89608742D01*
X128592718Y-89608740D01*
X128592712Y-89608738D01*
X128592710Y-89608737D01*
X128362226Y-89529611D01*
X128121849Y-89489500D01*
X127878151Y-89489500D01*
X127637773Y-89529611D01*
X127407289Y-89608737D01*
X127407275Y-89608743D01*
X127192961Y-89724723D01*
X127192952Y-89724729D01*
X127000650Y-89874404D01*
X127000647Y-89874407D01*
X126835593Y-90053703D01*
X126835590Y-90053707D01*
X126702301Y-90257719D01*
X126604408Y-90480893D01*
X126544584Y-90717133D01*
X126544582Y-90717141D01*
X126524460Y-90959993D01*
X121500500Y-90959993D01*
X121500500Y-84099983D01*
X121899500Y-84099983D01*
X121899500Y-85900001D01*
X121899501Y-85900018D01*
X121910000Y-86002796D01*
X121910001Y-86002799D01*
X121965185Y-86169331D01*
X121965187Y-86169336D01*
X121993218Y-86214781D01*
X122057288Y-86318656D01*
X122181344Y-86442712D01*
X122330666Y-86534814D01*
X122497203Y-86589999D01*
X122599991Y-86600500D01*
X124400008Y-86600499D01*
X124502797Y-86589999D01*
X124669334Y-86534814D01*
X124818656Y-86442712D01*
X124942712Y-86318656D01*
X125034814Y-86169334D01*
X125089999Y-86002797D01*
X125100500Y-85900009D01*
X125100499Y-84099992D01*
X125089999Y-83997203D01*
X125034814Y-83830666D01*
X124942712Y-83681344D01*
X124818656Y-83557288D01*
X124669334Y-83465186D01*
X124502797Y-83410001D01*
X124502795Y-83410000D01*
X124400010Y-83399500D01*
X122599998Y-83399500D01*
X122599981Y-83399501D01*
X122497203Y-83410000D01*
X122497200Y-83410001D01*
X122330668Y-83465185D01*
X122330663Y-83465187D01*
X122181342Y-83557289D01*
X122057289Y-83681342D01*
X121965187Y-83830663D01*
X121965185Y-83830668D01*
X121953115Y-83867093D01*
X121910001Y-83997203D01*
X121910001Y-83997204D01*
X121910000Y-83997204D01*
X121899500Y-84099983D01*
X121500500Y-84099983D01*
X121500500Y-83124000D01*
X121520185Y-83056961D01*
X121572989Y-83011206D01*
X121624500Y-83000000D01*
X144526000Y-83000000D01*
X144593039Y-83019685D01*
G37*
%TD.AperFunction*%
%TA.AperFunction,Conductor*%
G36*
X166041768Y-102020185D02*
G01*
X166048697Y-102025228D01*
X166051556Y-102027138D01*
X166051557Y-102027139D01*
X166215425Y-102136632D01*
X166322084Y-102180811D01*
X166397503Y-102212051D01*
X166590793Y-102250499D01*
X166590796Y-102250500D01*
X166590798Y-102250500D01*
X167409203Y-102250500D01*
X167428531Y-102246655D01*
X167505849Y-102231275D01*
X167602497Y-102212051D01*
X167655826Y-102189961D01*
X167784575Y-102136632D01*
X167948443Y-102027139D01*
X167948442Y-102027139D01*
X167953508Y-102023755D01*
X167954528Y-102025282D01*
X168010916Y-102001334D01*
X168025271Y-102000500D01*
X169285217Y-102000500D01*
X169352256Y-102020185D01*
X169398011Y-102072989D01*
X169407955Y-102142147D01*
X169378930Y-102205703D01*
X169372898Y-102212181D01*
X162362221Y-109222858D01*
X162362219Y-109222860D01*
X161362219Y-110222861D01*
X156862221Y-114722858D01*
X156862218Y-114722861D01*
X156793251Y-114791828D01*
X156722859Y-114862219D01*
X156613371Y-115026079D01*
X156613364Y-115026092D01*
X156569615Y-115131716D01*
X156559914Y-115155136D01*
X156546195Y-115188257D01*
X156537949Y-115208163D01*
X156537947Y-115208171D01*
X156499500Y-115401454D01*
X156499500Y-121160949D01*
X156494161Y-121196943D01*
X156464699Y-121294066D01*
X156444417Y-121500000D01*
X156464699Y-121705932D01*
X156464700Y-121705934D01*
X156524768Y-121903954D01*
X156622315Y-122086450D01*
X156632241Y-122098545D01*
X156753589Y-122246410D01*
X156913549Y-122377684D01*
X156913551Y-122377686D01*
X156952869Y-122398701D01*
X157003057Y-122425528D01*
X157032284Y-122447204D01*
X161219735Y-126634655D01*
X161219764Y-126634686D01*
X161362217Y-126777139D01*
X161512691Y-126877682D01*
X161526086Y-126886632D01*
X161616142Y-126923934D01*
X161708164Y-126962051D01*
X161781498Y-126976638D01*
X161811488Y-126982603D01*
X161901456Y-127000500D01*
X161901459Y-127000500D01*
X161901460Y-127000500D01*
X162098540Y-127000500D01*
X187660950Y-127000500D01*
X187696944Y-127005838D01*
X187794066Y-127035300D01*
X187794065Y-127035300D01*
X187812529Y-127037118D01*
X188000000Y-127055583D01*
X188205934Y-127035300D01*
X188403954Y-126975232D01*
X188586450Y-126877685D01*
X188746410Y-126746410D01*
X188877685Y-126586450D01*
X188925530Y-126496937D01*
X188947201Y-126467717D01*
X192777139Y-122637782D01*
X192825532Y-122565356D01*
X192886632Y-122473914D01*
X192946609Y-122329115D01*
X192962051Y-122291836D01*
X192992694Y-122137782D01*
X193000500Y-122098541D01*
X193000500Y-120965782D01*
X193020185Y-120898743D01*
X193036819Y-120878101D01*
X195777137Y-118137784D01*
X195777137Y-118137783D01*
X195777140Y-118137781D01*
X195886632Y-117973914D01*
X195962052Y-117791835D01*
X196000500Y-117598540D01*
X196000500Y-117401459D01*
X196000500Y-112604675D01*
X196000501Y-112604654D01*
X196000501Y-112401457D01*
X196000500Y-112401455D01*
X195962053Y-112208172D01*
X195962052Y-112208165D01*
X195886632Y-112026086D01*
X195886631Y-112026085D01*
X195886628Y-112026079D01*
X195777140Y-111862219D01*
X195777137Y-111862215D01*
X194947204Y-111032284D01*
X194925528Y-111003057D01*
X194877685Y-110913550D01*
X194837763Y-110864905D01*
X194746410Y-110753589D01*
X194705912Y-110720354D01*
X194666577Y-110662608D01*
X194664706Y-110592763D01*
X194700893Y-110532995D01*
X194763649Y-110502279D01*
X194784576Y-110500500D01*
X206034218Y-110500500D01*
X206101257Y-110520185D01*
X206121899Y-110536819D01*
X211552794Y-115967715D01*
X211574470Y-115996941D01*
X211622315Y-116086451D01*
X211753589Y-116246410D01*
X211823725Y-116303968D01*
X211913550Y-116377685D01*
X212096046Y-116475232D01*
X212294066Y-116535300D01*
X212387653Y-116544517D01*
X212452441Y-116570677D01*
X212492800Y-116627712D01*
X212499500Y-116667920D01*
X212499500Y-126034217D01*
X212479815Y-126101256D01*
X212463181Y-126121898D01*
X210121899Y-128463181D01*
X210060576Y-128496666D01*
X210034218Y-128499500D01*
X184339050Y-128499500D01*
X184303055Y-128494161D01*
X184205934Y-128464700D01*
X184205932Y-128464699D01*
X184205934Y-128464699D01*
X184000000Y-128444417D01*
X183794067Y-128464699D01*
X183596043Y-128524769D01*
X183485898Y-128583643D01*
X183413550Y-128622315D01*
X183413548Y-128622316D01*
X183413547Y-128622317D01*
X183253589Y-128753589D01*
X183122317Y-128913547D01*
X183122315Y-128913550D01*
X183083643Y-128985898D01*
X183024769Y-129096043D01*
X182964699Y-129294067D01*
X182944417Y-129500000D01*
X182964699Y-129705932D01*
X182964700Y-129705934D01*
X183024768Y-129903954D01*
X183122315Y-130086450D01*
X183122317Y-130086452D01*
X183253589Y-130246410D01*
X183294088Y-130279646D01*
X183333423Y-130337392D01*
X183335294Y-130407237D01*
X183299107Y-130467005D01*
X183236351Y-130497721D01*
X183215424Y-130499500D01*
X165339050Y-130499500D01*
X165303055Y-130494161D01*
X165260575Y-130481275D01*
X165205934Y-130464700D01*
X165205932Y-130464699D01*
X165205934Y-130464699D01*
X165000000Y-130444417D01*
X164794067Y-130464699D01*
X164696945Y-130494161D01*
X164660950Y-130499500D01*
X159965782Y-130499500D01*
X159898743Y-130479815D01*
X159878101Y-130463181D01*
X154036819Y-124621899D01*
X154003334Y-124560576D01*
X154000500Y-124534218D01*
X154000500Y-105624500D01*
X154020185Y-105557461D01*
X154072989Y-105511706D01*
X154124500Y-105500500D01*
X155901459Y-105500500D01*
X161160950Y-105500500D01*
X161196944Y-105505838D01*
X161294066Y-105535300D01*
X161294065Y-105535300D01*
X161312529Y-105537118D01*
X161500000Y-105555583D01*
X161705934Y-105535300D01*
X161903954Y-105475232D01*
X162086450Y-105377685D01*
X162246410Y-105246410D01*
X162377685Y-105086450D01*
X162425530Y-104996937D01*
X162447201Y-104967717D01*
X165378102Y-102036819D01*
X165439425Y-102003334D01*
X165465783Y-102000500D01*
X165974729Y-102000500D01*
X166041768Y-102020185D01*
G37*
%TD.AperFunction*%
%TA.AperFunction,Conductor*%
G36*
X209999500Y-83034217D02*
G01*
X209979815Y-83101256D01*
X209963181Y-83121898D01*
X205121899Y-87963181D01*
X205060576Y-87996666D01*
X205034218Y-87999500D01*
X181465782Y-87999500D01*
X181398743Y-87979815D01*
X181378101Y-87963181D01*
X179947204Y-86532284D01*
X179925528Y-86503057D01*
X179898701Y-86452869D01*
X179877686Y-86413551D01*
X179877684Y-86413549D01*
X179877682Y-86413547D01*
X179779628Y-86294066D01*
X179746410Y-86253589D01*
X179608573Y-86140471D01*
X179586450Y-86122315D01*
X179403954Y-86024768D01*
X179205934Y-85964700D01*
X179205932Y-85964699D01*
X179205934Y-85964699D01*
X179000000Y-85944417D01*
X178794067Y-85964699D01*
X178596043Y-86024769D01*
X178485898Y-86083643D01*
X178413550Y-86122315D01*
X178413548Y-86122316D01*
X178413547Y-86122317D01*
X178253589Y-86253589D01*
X178122317Y-86413547D01*
X178122315Y-86413550D01*
X178083643Y-86485898D01*
X178024769Y-86596043D01*
X177964699Y-86794067D01*
X177944417Y-87000000D01*
X177964699Y-87205932D01*
X177964700Y-87205934D01*
X178024768Y-87403954D01*
X178122315Y-87586450D01*
X178122317Y-87586452D01*
X178253589Y-87746410D01*
X178413549Y-87877684D01*
X178413551Y-87877686D01*
X178452869Y-87898701D01*
X178503057Y-87925528D01*
X178532284Y-87947204D01*
X180219735Y-89634655D01*
X180219764Y-89634686D01*
X180362214Y-89777136D01*
X180362218Y-89777139D01*
X180526079Y-89886628D01*
X180526092Y-89886635D01*
X180654833Y-89939961D01*
X180697744Y-89957735D01*
X180708164Y-89962051D01*
X180804812Y-89981275D01*
X180853135Y-89990887D01*
X180901458Y-90000500D01*
X180901459Y-90000500D01*
X205598542Y-90000500D01*
X205617870Y-89996655D01*
X205695188Y-89981275D01*
X205791836Y-89962051D01*
X205845165Y-89939961D01*
X205973914Y-89886632D01*
X206137782Y-89777139D01*
X206277139Y-89637782D01*
X206277139Y-89637780D01*
X206287347Y-89627573D01*
X206287348Y-89627570D01*
X209787821Y-86127098D01*
X209849142Y-86093615D01*
X209918834Y-86098599D01*
X209974767Y-86140471D01*
X209999184Y-86205935D01*
X209999500Y-86214781D01*
X209999500Y-94660949D01*
X209994161Y-94696943D01*
X209964699Y-94794066D01*
X209944417Y-95000000D01*
X209964699Y-95205932D01*
X209994161Y-95303054D01*
X209999500Y-95339049D01*
X209999500Y-103034217D01*
X209979815Y-103101256D01*
X209963181Y-103121898D01*
X209621899Y-103463181D01*
X209560576Y-103496666D01*
X209534218Y-103499500D01*
X181901455Y-103499500D01*
X181804812Y-103518724D01*
X181708167Y-103537947D01*
X181708161Y-103537949D01*
X181654834Y-103560037D01*
X181654834Y-103560038D01*
X181609315Y-103578892D01*
X181526089Y-103613366D01*
X181526079Y-103613371D01*
X181362219Y-103722859D01*
X181293257Y-103791822D01*
X181222861Y-103862218D01*
X181222858Y-103862221D01*
X179362221Y-105722858D01*
X179362218Y-105722861D01*
X179292538Y-105792540D01*
X179222859Y-105862219D01*
X179113371Y-106026079D01*
X179113366Y-106026089D01*
X179060037Y-106154837D01*
X179046199Y-106188249D01*
X179046196Y-106188257D01*
X179037948Y-106208167D01*
X179037947Y-106208171D01*
X178999500Y-106401454D01*
X178999500Y-114598544D01*
X179037947Y-114791828D01*
X179037949Y-114791836D01*
X179052561Y-114827112D01*
X179052561Y-114827113D01*
X179113364Y-114973907D01*
X179113371Y-114973920D01*
X179222860Y-115137781D01*
X179222863Y-115137785D01*
X179366537Y-115281459D01*
X179366559Y-115281479D01*
X179552793Y-115467713D01*
X179574469Y-115496938D01*
X179622315Y-115586450D01*
X179622317Y-115586453D01*
X179622318Y-115586454D01*
X179753589Y-115746410D01*
X179850209Y-115825702D01*
X179913550Y-115877685D01*
X180096046Y-115975232D01*
X180294066Y-116035300D01*
X180294065Y-116035300D01*
X180312529Y-116037118D01*
X180500000Y-116055583D01*
X180705934Y-116035300D01*
X180803055Y-116005838D01*
X180839050Y-116000500D01*
X182098542Y-116000500D01*
X182117870Y-115996655D01*
X182195188Y-115981275D01*
X182291836Y-115962051D01*
X182345165Y-115939961D01*
X182473914Y-115886632D01*
X182637782Y-115777139D01*
X182777139Y-115637782D01*
X182777139Y-115637780D01*
X182787347Y-115627573D01*
X182787348Y-115627570D01*
X187878102Y-110536819D01*
X187939425Y-110503334D01*
X187965783Y-110500500D01*
X193215424Y-110500500D01*
X193282463Y-110520185D01*
X193328218Y-110572989D01*
X193338162Y-110642147D01*
X193309137Y-110705703D01*
X193294088Y-110720354D01*
X193253589Y-110753589D01*
X193133420Y-110900018D01*
X193122315Y-110913550D01*
X193083643Y-110985898D01*
X193024769Y-111096043D01*
X192964699Y-111294067D01*
X192944417Y-111500000D01*
X192964699Y-111705932D01*
X192980805Y-111759027D01*
X193024768Y-111903954D01*
X193122315Y-112086450D01*
X193122317Y-112086452D01*
X193253589Y-112246410D01*
X193413549Y-112377684D01*
X193413551Y-112377686D01*
X193452869Y-112398701D01*
X193503057Y-112425528D01*
X193532284Y-112447204D01*
X193963181Y-112878101D01*
X193996666Y-112939424D01*
X193999500Y-112965782D01*
X193999500Y-117034217D01*
X193979815Y-117101256D01*
X193963181Y-117121898D01*
X191362220Y-119722859D01*
X191362218Y-119722861D01*
X191307940Y-119777139D01*
X191222859Y-119862219D01*
X191113371Y-120026080D01*
X191113364Y-120026093D01*
X191100443Y-120057289D01*
X191077215Y-120113368D01*
X191049059Y-120181344D01*
X191037949Y-120208165D01*
X191037947Y-120208169D01*
X190999500Y-120401456D01*
X190999500Y-121534217D01*
X190979815Y-121601256D01*
X190963181Y-121621898D01*
X187621899Y-124963181D01*
X187560576Y-124996666D01*
X187534218Y-124999500D01*
X162465782Y-124999500D01*
X162398743Y-124979815D01*
X162378101Y-124963181D01*
X158536819Y-121121899D01*
X158503334Y-121060576D01*
X158500500Y-121034218D01*
X158500500Y-115965781D01*
X158520185Y-115898742D01*
X158536814Y-115878105D01*
X162627392Y-111787526D01*
X162688713Y-111754043D01*
X162758405Y-111759027D01*
X162793732Y-111779354D01*
X162881527Y-111851405D01*
X162894704Y-111862219D01*
X162913550Y-111877685D01*
X163096046Y-111975232D01*
X163294066Y-112035300D01*
X163294065Y-112035300D01*
X163312529Y-112037118D01*
X163500000Y-112055583D01*
X163705934Y-112035300D01*
X163903954Y-111975232D01*
X164086450Y-111877685D01*
X164246410Y-111746410D01*
X164377685Y-111586450D01*
X164475232Y-111403954D01*
X164535300Y-111205934D01*
X164555583Y-111000000D01*
X164535300Y-110794066D01*
X164475232Y-110596046D01*
X164377685Y-110413550D01*
X164279355Y-110293734D01*
X164252043Y-110229426D01*
X164263834Y-110160559D01*
X164287525Y-110127393D01*
X171378102Y-103036819D01*
X171439425Y-103003334D01*
X171465783Y-103000500D01*
X189598542Y-103000500D01*
X189617870Y-102996655D01*
X189695188Y-102981275D01*
X189791836Y-102962051D01*
X189845165Y-102939961D01*
X189973914Y-102886632D01*
X190137782Y-102777139D01*
X190277139Y-102637782D01*
X190277140Y-102637779D01*
X190284206Y-102630714D01*
X190284209Y-102630710D01*
X192137778Y-100777141D01*
X192137782Y-100777139D01*
X192277139Y-100637782D01*
X192386632Y-100473914D01*
X192462051Y-100291835D01*
X192462051Y-100291832D01*
X192462053Y-100291828D01*
X192469659Y-100253591D01*
X192495177Y-100125300D01*
X192500500Y-100098540D01*
X192500500Y-99901460D01*
X192500500Y-97604675D01*
X192500501Y-97604654D01*
X192500501Y-97401457D01*
X192500500Y-97401455D01*
X192497552Y-97386635D01*
X192462052Y-97208165D01*
X192386632Y-97026086D01*
X192386631Y-97026085D01*
X192386628Y-97026079D01*
X192277140Y-96862219D01*
X192277137Y-96862215D01*
X191284209Y-95869289D01*
X191284206Y-95869285D01*
X191284206Y-95869286D01*
X191277139Y-95862219D01*
X191277139Y-95862218D01*
X191137782Y-95722861D01*
X191137781Y-95722860D01*
X191137780Y-95722859D01*
X190973920Y-95613371D01*
X190973911Y-95613366D01*
X190901315Y-95583296D01*
X190845165Y-95560038D01*
X190791836Y-95537949D01*
X190791832Y-95537948D01*
X190791828Y-95537946D01*
X190695188Y-95518724D01*
X190598544Y-95499500D01*
X190598541Y-95499500D01*
X189839050Y-95499500D01*
X189803055Y-95494161D01*
X189755762Y-95479815D01*
X189705934Y-95464700D01*
X189705932Y-95464699D01*
X189705934Y-95464699D01*
X189500000Y-95444417D01*
X189294067Y-95464699D01*
X189196945Y-95494161D01*
X189160950Y-95499500D01*
X179465782Y-95499500D01*
X179398743Y-95479815D01*
X179378101Y-95463181D01*
X177536819Y-93621899D01*
X177503334Y-93560576D01*
X177500500Y-93534218D01*
X177500500Y-85965782D01*
X177520185Y-85898743D01*
X177536819Y-85878101D01*
X178378102Y-85036819D01*
X178439425Y-85003334D01*
X178465783Y-85000500D01*
X193375500Y-85000500D01*
X193442539Y-85020185D01*
X193488294Y-85072989D01*
X193499500Y-85124500D01*
X193499500Y-86160949D01*
X193494161Y-86196943D01*
X193464699Y-86294066D01*
X193444417Y-86500000D01*
X193464699Y-86705932D01*
X193494161Y-86803054D01*
X193524768Y-86903954D01*
X193622315Y-87086450D01*
X193622317Y-87086452D01*
X193753589Y-87246410D01*
X193850209Y-87325702D01*
X193913550Y-87377685D01*
X194096046Y-87475232D01*
X194294066Y-87535300D01*
X194294065Y-87535300D01*
X194312529Y-87537118D01*
X194500000Y-87555583D01*
X194705934Y-87535300D01*
X194903954Y-87475232D01*
X195086450Y-87377685D01*
X195246410Y-87246410D01*
X195377685Y-87086450D01*
X195475232Y-86903954D01*
X195535300Y-86705934D01*
X195555583Y-86500000D01*
X195535300Y-86294066D01*
X195511250Y-86214781D01*
X195505839Y-86196943D01*
X195500500Y-86160949D01*
X195500500Y-84339049D01*
X195505839Y-84303054D01*
X195535300Y-84205934D01*
X195555583Y-84000000D01*
X195535300Y-83794066D01*
X195475232Y-83596046D01*
X195377685Y-83413550D01*
X195263981Y-83275000D01*
X195246410Y-83253589D01*
X195086452Y-83122317D01*
X195086453Y-83122317D01*
X195086450Y-83122315D01*
X194903954Y-83024768D01*
X194822304Y-83000000D01*
X209999500Y-83000000D01*
X209999500Y-83034217D01*
G37*
%TD.AperFunction*%
%TA.AperFunction,Conductor*%
G36*
X212499500Y-103534217D02*
G01*
X212479815Y-103601256D01*
X212463181Y-103621898D01*
X212167882Y-103917196D01*
X212106559Y-103950681D01*
X212036867Y-103945697D01*
X211980934Y-103903825D01*
X211956517Y-103838361D01*
X211961056Y-103797848D01*
X211960864Y-103797810D01*
X211961315Y-103795540D01*
X211961543Y-103793510D01*
X211962044Y-103791852D01*
X211962052Y-103791835D01*
X212000501Y-103598540D01*
X212000501Y-103401459D01*
X212000501Y-103396349D01*
X212000500Y-103396323D01*
X212000500Y-95339049D01*
X212005839Y-95303054D01*
X212008565Y-95294067D01*
X212035300Y-95205934D01*
X212055583Y-95000000D01*
X212035300Y-94794066D01*
X212017466Y-94735273D01*
X212005839Y-94696943D01*
X212000500Y-94660949D01*
X212000500Y-83604674D01*
X212000501Y-83604653D01*
X212000501Y-83396349D01*
X212000500Y-83396323D01*
X212000500Y-83000000D01*
X212499500Y-83000000D01*
X212499500Y-103534217D01*
G37*
%TD.AperFunction*%
%TA.AperFunction,Conductor*%
G36*
X177708171Y-83037946D02*
G01*
X177708167Y-83037948D01*
X177708165Y-83037948D01*
X177708164Y-83037949D01*
X177632745Y-83069188D01*
X177632743Y-83069189D01*
X177526088Y-83113366D01*
X177476598Y-83146435D01*
X177476597Y-83146435D01*
X177362222Y-83222857D01*
X177362214Y-83222863D01*
X176121898Y-84463181D01*
X175862220Y-84722859D01*
X175862218Y-84722861D01*
X175722861Y-84862218D01*
X175722860Y-84862218D01*
X175613371Y-85026079D01*
X175613364Y-85026092D01*
X175537950Y-85208160D01*
X175537947Y-85208170D01*
X175499500Y-85401456D01*
X175499500Y-94098544D01*
X175530341Y-94253591D01*
X175537946Y-94291828D01*
X175537949Y-94291837D01*
X175613364Y-94473907D01*
X175613371Y-94473920D01*
X175722860Y-94637781D01*
X175722863Y-94637785D01*
X175866537Y-94781459D01*
X175866559Y-94781479D01*
X178219735Y-97134655D01*
X178219764Y-97134686D01*
X178362214Y-97277136D01*
X178362218Y-97277139D01*
X178526079Y-97386628D01*
X178526092Y-97386635D01*
X178654833Y-97439961D01*
X178697744Y-97457735D01*
X178708164Y-97462051D01*
X178804812Y-97481275D01*
X178853135Y-97490887D01*
X178901458Y-97500500D01*
X178901459Y-97500500D01*
X178901460Y-97500500D01*
X179098540Y-97500500D01*
X189160950Y-97500500D01*
X189196944Y-97505838D01*
X189294066Y-97535300D01*
X189294065Y-97535300D01*
X189309488Y-97536819D01*
X189500000Y-97555583D01*
X189705934Y-97535300D01*
X189803055Y-97505838D01*
X189839050Y-97500500D01*
X190034218Y-97500500D01*
X190101257Y-97520185D01*
X190121899Y-97536819D01*
X190463181Y-97878101D01*
X190496666Y-97939424D01*
X190499500Y-97965782D01*
X190499500Y-99534217D01*
X190479815Y-99601256D01*
X190463181Y-99621898D01*
X189872608Y-100212470D01*
X189811285Y-100245955D01*
X189741593Y-100240971D01*
X189706263Y-100220642D01*
X189615525Y-100146176D01*
X189586453Y-100122317D01*
X189586451Y-100122316D01*
X189586450Y-100122315D01*
X189403954Y-100024768D01*
X189205934Y-99964700D01*
X189205932Y-99964699D01*
X189205934Y-99964699D01*
X189000000Y-99944417D01*
X188794067Y-99964699D01*
X188696945Y-99994161D01*
X188660950Y-99999500D01*
X167462117Y-99999500D01*
X167268832Y-100037947D01*
X167268824Y-100037949D01*
X167211379Y-100061744D01*
X167211378Y-100061744D01*
X167086748Y-100113366D01*
X167068888Y-100125300D01*
X167002210Y-100146176D01*
X166934830Y-100127689D01*
X166931112Y-100125300D01*
X166913259Y-100113372D01*
X166913258Y-100113371D01*
X166913253Y-100113368D01*
X166913250Y-100113367D01*
X166913249Y-100113366D01*
X166780453Y-100058361D01*
X166780450Y-100058359D01*
X166731177Y-100037949D01*
X166731168Y-100037946D01*
X166634527Y-100018724D01*
X166537883Y-99999500D01*
X166537880Y-99999500D01*
X165098540Y-99999500D01*
X164901459Y-99999500D01*
X164901456Y-99999500D01*
X164708171Y-100037947D01*
X164708163Y-100037949D01*
X164650718Y-100061744D01*
X164650717Y-100061744D01*
X164526088Y-100113366D01*
X164372714Y-100215846D01*
X164372715Y-100215847D01*
X164362216Y-100222862D01*
X162412181Y-102172897D01*
X162350858Y-102206382D01*
X162281166Y-102201398D01*
X162225233Y-102159526D01*
X162200816Y-102094062D01*
X162200500Y-102085216D01*
X162200500Y-89965782D01*
X162220185Y-89898743D01*
X162236819Y-89878101D01*
X164368511Y-87746410D01*
X166522114Y-85592807D01*
X166534499Y-85574271D01*
X166558769Y-85537950D01*
X166558769Y-85537949D01*
X166631607Y-85428939D01*
X166707026Y-85246860D01*
X166731365Y-85124500D01*
X166745475Y-85053568D01*
X166745475Y-83710757D01*
X166765160Y-83643718D01*
X166781794Y-83623076D01*
X167368551Y-83036319D01*
X167429874Y-83002834D01*
X167456232Y-83000000D01*
X167499999Y-83000000D01*
X167500000Y-83000000D01*
X177898942Y-83000000D01*
X177708171Y-83037946D01*
G37*
%TD.AperFunction*%
%TD*%
%TA.AperFunction,Conductor*%
%TO.N,VIN_GND*%
G36*
X161443039Y-47520185D02*
G01*
X161488794Y-47572989D01*
X161500000Y-47624500D01*
X161500000Y-79876000D01*
X161480315Y-79943039D01*
X161427511Y-79988794D01*
X161376000Y-80000000D01*
X147429804Y-80000000D01*
X147362765Y-79980315D01*
X147317010Y-79927511D01*
X147310029Y-79908094D01*
X147273432Y-79771513D01*
X147273429Y-79771507D01*
X147173600Y-79557422D01*
X147173599Y-79557420D01*
X147038113Y-79363926D01*
X147038108Y-79363920D01*
X146871082Y-79196894D01*
X146677578Y-79061399D01*
X146463492Y-78961570D01*
X146463486Y-78961567D01*
X146250000Y-78904364D01*
X146250000Y-79801988D01*
X146192993Y-79769075D01*
X146065826Y-79735000D01*
X145934174Y-79735000D01*
X145807007Y-79769075D01*
X145750000Y-79801988D01*
X145750000Y-78904364D01*
X145749999Y-78904364D01*
X145536513Y-78961567D01*
X145536507Y-78961570D01*
X145322422Y-79061399D01*
X145322420Y-79061400D01*
X145128926Y-79196886D01*
X145128920Y-79196891D01*
X144961891Y-79363920D01*
X144961886Y-79363926D01*
X144826400Y-79557420D01*
X144826399Y-79557422D01*
X144726570Y-79771507D01*
X144726567Y-79771513D01*
X144689971Y-79908094D01*
X144653606Y-79967754D01*
X144590759Y-79998283D01*
X144570196Y-80000000D01*
X121624500Y-80000000D01*
X121557461Y-79980315D01*
X121511706Y-79927511D01*
X121500500Y-79876000D01*
X121500500Y-70499999D01*
X131144341Y-70499999D01*
X131144341Y-70500000D01*
X131164936Y-70735403D01*
X131164938Y-70735413D01*
X131226094Y-70963655D01*
X131226096Y-70963659D01*
X131226097Y-70963663D01*
X131310499Y-71144663D01*
X131325965Y-71177830D01*
X131325967Y-71177834D01*
X131434281Y-71332521D01*
X131461505Y-71371401D01*
X131628599Y-71538495D01*
X131725384Y-71606265D01*
X131822165Y-71674032D01*
X131822167Y-71674033D01*
X131822170Y-71674035D01*
X132036337Y-71773903D01*
X132264592Y-71835063D01*
X132441034Y-71850500D01*
X132499999Y-71855659D01*
X132500000Y-71855659D01*
X132500001Y-71855659D01*
X132558966Y-71850500D01*
X132735408Y-71835063D01*
X132963663Y-71773903D01*
X133177830Y-71674035D01*
X133371401Y-71538495D01*
X133493329Y-71416566D01*
X133554648Y-71383084D01*
X133624340Y-71388068D01*
X133680274Y-71429939D01*
X133697189Y-71460917D01*
X133746202Y-71592328D01*
X133746206Y-71592335D01*
X133832452Y-71707544D01*
X133832455Y-71707547D01*
X133947664Y-71793793D01*
X133947671Y-71793797D01*
X134082517Y-71844091D01*
X134082516Y-71844091D01*
X134089444Y-71844835D01*
X134142127Y-71850500D01*
X135937872Y-71850499D01*
X135997483Y-71844091D01*
X136132331Y-71793796D01*
X136247546Y-71707546D01*
X136333796Y-71592331D01*
X136384091Y-71457483D01*
X136390500Y-71397873D01*
X136390499Y-69602128D01*
X136384091Y-69542517D01*
X136382810Y-69539083D01*
X136333797Y-69407671D01*
X136333793Y-69407664D01*
X136247547Y-69292455D01*
X136247544Y-69292452D01*
X136132335Y-69206206D01*
X136132328Y-69206202D01*
X135997482Y-69155908D01*
X135997483Y-69155908D01*
X135937883Y-69149501D01*
X135937881Y-69149500D01*
X135937873Y-69149500D01*
X135937864Y-69149500D01*
X134142129Y-69149500D01*
X134142123Y-69149501D01*
X134082516Y-69155908D01*
X133947671Y-69206202D01*
X133947664Y-69206206D01*
X133832455Y-69292452D01*
X133832452Y-69292455D01*
X133746206Y-69407664D01*
X133746203Y-69407669D01*
X133697189Y-69539083D01*
X133655317Y-69595016D01*
X133589853Y-69619433D01*
X133521580Y-69604581D01*
X133493326Y-69583430D01*
X133371402Y-69461506D01*
X133371395Y-69461501D01*
X133177834Y-69325967D01*
X133177830Y-69325965D01*
X133177828Y-69325964D01*
X132963663Y-69226097D01*
X132963659Y-69226096D01*
X132963655Y-69226094D01*
X132735413Y-69164938D01*
X132735403Y-69164936D01*
X132500001Y-69144341D01*
X132499999Y-69144341D01*
X132264596Y-69164936D01*
X132264586Y-69164938D01*
X132036344Y-69226094D01*
X132036335Y-69226098D01*
X131822171Y-69325964D01*
X131822169Y-69325965D01*
X131628597Y-69461505D01*
X131461505Y-69628597D01*
X131325965Y-69822169D01*
X131325964Y-69822171D01*
X131226098Y-70036335D01*
X131226094Y-70036344D01*
X131164938Y-70264586D01*
X131164936Y-70264596D01*
X131144341Y-70499999D01*
X121500500Y-70499999D01*
X121500500Y-68102155D01*
X123650000Y-68102155D01*
X123650000Y-68750000D01*
X124566988Y-68750000D01*
X124534075Y-68807007D01*
X124500000Y-68934174D01*
X124500000Y-69065826D01*
X124534075Y-69192993D01*
X124566988Y-69250000D01*
X123650000Y-69250000D01*
X123650000Y-69897844D01*
X123656401Y-69957372D01*
X123656403Y-69957379D01*
X123706645Y-70092086D01*
X123706649Y-70092093D01*
X123792809Y-70207187D01*
X123792812Y-70207190D01*
X123907906Y-70293350D01*
X123907913Y-70293354D01*
X124042620Y-70343596D01*
X124042627Y-70343598D01*
X124102155Y-70349999D01*
X124102172Y-70350000D01*
X124750000Y-70350000D01*
X124750000Y-69433012D01*
X124807007Y-69465925D01*
X124934174Y-69500000D01*
X125065826Y-69500000D01*
X125192993Y-69465925D01*
X125250000Y-69433012D01*
X125250000Y-70350000D01*
X125897828Y-70350000D01*
X125897844Y-70349999D01*
X125957372Y-70343598D01*
X125957379Y-70343596D01*
X126092086Y-70293354D01*
X126092093Y-70293350D01*
X126207187Y-70207190D01*
X126207190Y-70207187D01*
X126293350Y-70092093D01*
X126293354Y-70092086D01*
X126343596Y-69957379D01*
X126343598Y-69957372D01*
X126349999Y-69897844D01*
X126350000Y-69897827D01*
X126350000Y-69250000D01*
X125433012Y-69250000D01*
X125465925Y-69192993D01*
X125500000Y-69065826D01*
X125500000Y-68934174D01*
X125465925Y-68807007D01*
X125433012Y-68750000D01*
X126350000Y-68750000D01*
X126350000Y-68102172D01*
X126349999Y-68102155D01*
X126343598Y-68042627D01*
X126343596Y-68042620D01*
X126293354Y-67907913D01*
X126293350Y-67907906D01*
X126207190Y-67792812D01*
X126207187Y-67792809D01*
X126092093Y-67706649D01*
X126092086Y-67706645D01*
X125957379Y-67656403D01*
X125957372Y-67656401D01*
X125897844Y-67650000D01*
X125250000Y-67650000D01*
X125250000Y-68566988D01*
X125192993Y-68534075D01*
X125065826Y-68500000D01*
X124934174Y-68500000D01*
X124807007Y-68534075D01*
X124750000Y-68566988D01*
X124750000Y-67650000D01*
X124102155Y-67650000D01*
X124042627Y-67656401D01*
X124042620Y-67656403D01*
X123907913Y-67706645D01*
X123907906Y-67706649D01*
X123792812Y-67792809D01*
X123792809Y-67792812D01*
X123706649Y-67907906D01*
X123706645Y-67907913D01*
X123656403Y-68042620D01*
X123656401Y-68042627D01*
X123650000Y-68102155D01*
X121500500Y-68102155D01*
X121500500Y-54744999D01*
X131144341Y-54744999D01*
X131144341Y-54745000D01*
X131164936Y-54980403D01*
X131164938Y-54980413D01*
X131226094Y-55208655D01*
X131226096Y-55208659D01*
X131226097Y-55208663D01*
X131310499Y-55389663D01*
X131325965Y-55422830D01*
X131325967Y-55422834D01*
X131434281Y-55577521D01*
X131461505Y-55616401D01*
X131628599Y-55783495D01*
X131725384Y-55851265D01*
X131822165Y-55919032D01*
X131822167Y-55919033D01*
X131822170Y-55919035D01*
X132036337Y-56018903D01*
X132264592Y-56080063D01*
X132441034Y-56095500D01*
X132499999Y-56100659D01*
X132500000Y-56100659D01*
X132500001Y-56100659D01*
X132558966Y-56095500D01*
X132735408Y-56080063D01*
X132963663Y-56018903D01*
X133177830Y-55919035D01*
X133371401Y-55783495D01*
X133493329Y-55661566D01*
X133554648Y-55628084D01*
X133624340Y-55633068D01*
X133680274Y-55674939D01*
X133697189Y-55705917D01*
X133746202Y-55837328D01*
X133746206Y-55837335D01*
X133832452Y-55952544D01*
X133832455Y-55952547D01*
X133947664Y-56038793D01*
X133947671Y-56038797D01*
X134082517Y-56089091D01*
X134082516Y-56089091D01*
X134089444Y-56089835D01*
X134142127Y-56095500D01*
X135937872Y-56095499D01*
X135997483Y-56089091D01*
X136132331Y-56038796D01*
X136247546Y-55952546D01*
X136333796Y-55837331D01*
X136384091Y-55702483D01*
X136390500Y-55642873D01*
X136390499Y-53847128D01*
X136384091Y-53787517D01*
X136382810Y-53784083D01*
X136333797Y-53652671D01*
X136333793Y-53652664D01*
X136247547Y-53537455D01*
X136247544Y-53537452D01*
X136132335Y-53451206D01*
X136132328Y-53451202D01*
X135997482Y-53400908D01*
X135997483Y-53400908D01*
X135937883Y-53394501D01*
X135937881Y-53394500D01*
X135937873Y-53394500D01*
X135937864Y-53394500D01*
X134142129Y-53394500D01*
X134142123Y-53394501D01*
X134082516Y-53400908D01*
X133947671Y-53451202D01*
X133947664Y-53451206D01*
X133832455Y-53537452D01*
X133832452Y-53537455D01*
X133746206Y-53652664D01*
X133746203Y-53652669D01*
X133697189Y-53784083D01*
X133655317Y-53840016D01*
X133589853Y-53864433D01*
X133521580Y-53849581D01*
X133493326Y-53828430D01*
X133371402Y-53706506D01*
X133371395Y-53706501D01*
X133177834Y-53570967D01*
X133177830Y-53570965D01*
X133177828Y-53570964D01*
X132963663Y-53471097D01*
X132963659Y-53471096D01*
X132963655Y-53471094D01*
X132735413Y-53409938D01*
X132735403Y-53409936D01*
X132500001Y-53389341D01*
X132499999Y-53389341D01*
X132264596Y-53409936D01*
X132264586Y-53409938D01*
X132036344Y-53471094D01*
X132036335Y-53471098D01*
X131822171Y-53570964D01*
X131822169Y-53570965D01*
X131628597Y-53706505D01*
X131461505Y-53873597D01*
X131325965Y-54067169D01*
X131325964Y-54067171D01*
X131226098Y-54281335D01*
X131226094Y-54281344D01*
X131164938Y-54509586D01*
X131164936Y-54509596D01*
X131144341Y-54744999D01*
X121500500Y-54744999D01*
X121500500Y-51102135D01*
X123649500Y-51102135D01*
X123649500Y-52897870D01*
X123649501Y-52897876D01*
X123655908Y-52957483D01*
X123706202Y-53092328D01*
X123706206Y-53092335D01*
X123792452Y-53207544D01*
X123792455Y-53207547D01*
X123907664Y-53293793D01*
X123907671Y-53293797D01*
X124042517Y-53344091D01*
X124042516Y-53344091D01*
X124049444Y-53344835D01*
X124102127Y-53350500D01*
X125897872Y-53350499D01*
X125957483Y-53344091D01*
X126092331Y-53293796D01*
X126207546Y-53207546D01*
X126293796Y-53092331D01*
X126344091Y-52957483D01*
X126350500Y-52897873D01*
X126350499Y-51102128D01*
X126344091Y-51042517D01*
X126293796Y-50907669D01*
X126293795Y-50907668D01*
X126293793Y-50907664D01*
X126207547Y-50792455D01*
X126207544Y-50792452D01*
X126092335Y-50706206D01*
X126092328Y-50706202D01*
X125957482Y-50655908D01*
X125957483Y-50655908D01*
X125897883Y-50649501D01*
X125897881Y-50649500D01*
X125897873Y-50649500D01*
X125897864Y-50649500D01*
X124102129Y-50649500D01*
X124102123Y-50649501D01*
X124042516Y-50655908D01*
X123907671Y-50706202D01*
X123907664Y-50706206D01*
X123792455Y-50792452D01*
X123792452Y-50792455D01*
X123706206Y-50907664D01*
X123706202Y-50907671D01*
X123655908Y-51042517D01*
X123649501Y-51102116D01*
X123649501Y-51102123D01*
X123649500Y-51102135D01*
X121500500Y-51102135D01*
X121500500Y-47624500D01*
X121520185Y-47557461D01*
X121572989Y-47511706D01*
X121624500Y-47500500D01*
X161376000Y-47500500D01*
X161443039Y-47520185D01*
G37*
%TD.AperFunction*%
%TD*%
M02*
