%TF.GenerationSoftware,KiCad,Pcbnew,8.0.8*%
%TF.CreationDate,2025-02-22T00:09:07-08:00*%
%TF.ProjectId,deflection_board,6465666c-6563-4746-996f-6e5f626f6172,rev?*%
%TF.SameCoordinates,Original*%
%TF.FileFunction,Soldermask,Top*%
%TF.FilePolarity,Negative*%
%FSLAX46Y46*%
G04 Gerber Fmt 4.6, Leading zero omitted, Abs format (unit mm)*
G04 Created by KiCad (PCBNEW 8.0.8) date 2025-02-22 00:09:07*
%MOMM*%
%LPD*%
G01*
G04 APERTURE LIST*
G04 Aperture macros list*
%AMRoundRect*
0 Rectangle with rounded corners*
0 $1 Rounding radius*
0 $2 $3 $4 $5 $6 $7 $8 $9 X,Y pos of 4 corners*
0 Add a 4 corners polygon primitive as box body*
4,1,4,$2,$3,$4,$5,$6,$7,$8,$9,$2,$3,0*
0 Add four circle primitives for the rounded corners*
1,1,$1+$1,$2,$3*
1,1,$1+$1,$4,$5*
1,1,$1+$1,$6,$7*
1,1,$1+$1,$8,$9*
0 Add four rect primitives between the rounded corners*
20,1,$1+$1,$2,$3,$4,$5,0*
20,1,$1+$1,$4,$5,$6,$7,0*
20,1,$1+$1,$6,$7,$8,$9,0*
20,1,$1+$1,$8,$9,$2,$3,0*%
%AMFreePoly0*
4,1,9,3.862500,-0.866500,0.737500,-0.866500,0.737500,-0.450000,-0.737500,-0.450000,-0.737500,0.450000,0.737500,0.450000,0.737500,0.866500,3.862500,0.866500,3.862500,-0.866500,3.862500,-0.866500,$1*%
G04 Aperture macros list end*
%ADD10RoundRect,0.237500X-0.237500X0.300000X-0.237500X-0.300000X0.237500X-0.300000X0.237500X0.300000X0*%
%ADD11RoundRect,0.250000X0.400000X0.625000X-0.400000X0.625000X-0.400000X-0.625000X0.400000X-0.625000X0*%
%ADD12C,1.440000*%
%ADD13RoundRect,0.150000X-0.150000X0.587500X-0.150000X-0.587500X0.150000X-0.587500X0.150000X0.587500X0*%
%ADD14RoundRect,0.102000X0.940000X-0.585000X0.940000X0.585000X-0.940000X0.585000X-0.940000X-0.585000X0*%
%ADD15RoundRect,0.237500X-0.237500X0.250000X-0.237500X-0.250000X0.237500X-0.250000X0.237500X0.250000X0*%
%ADD16RoundRect,0.250000X-0.400000X-0.625000X0.400000X-0.625000X0.400000X0.625000X-0.400000X0.625000X0*%
%ADD17RoundRect,0.250000X0.625000X-0.400000X0.625000X0.400000X-0.625000X0.400000X-0.625000X-0.400000X0*%
%ADD18RoundRect,0.065500X0.466500X0.196500X-0.466500X0.196500X-0.466500X-0.196500X0.466500X-0.196500X0*%
%ADD19RoundRect,0.102000X0.990000X1.500000X-0.990000X1.500000X-0.990000X-1.500000X0.990000X-1.500000X0*%
%ADD20RoundRect,0.237500X-0.300000X-0.237500X0.300000X-0.237500X0.300000X0.237500X-0.300000X0.237500X0*%
%ADD21RoundRect,0.150000X-0.587500X-0.150000X0.587500X-0.150000X0.587500X0.150000X-0.587500X0.150000X0*%
%ADD22R,1.700000X1.700000*%
%ADD23RoundRect,0.237500X0.237500X-0.300000X0.237500X0.300000X-0.237500X0.300000X-0.237500X-0.300000X0*%
%ADD24RoundRect,0.250000X0.475000X-0.337500X0.475000X0.337500X-0.475000X0.337500X-0.475000X-0.337500X0*%
%ADD25RoundRect,0.150000X0.150000X-0.587500X0.150000X0.587500X-0.150000X0.587500X-0.150000X-0.587500X0*%
%ADD26RoundRect,0.250000X-0.412500X-1.100000X0.412500X-1.100000X0.412500X1.100000X-0.412500X1.100000X0*%
%ADD27O,1.700000X1.700000*%
%ADD28RoundRect,0.150000X0.512500X0.150000X-0.512500X0.150000X-0.512500X-0.150000X0.512500X-0.150000X0*%
%ADD29RoundRect,0.237500X0.250000X0.237500X-0.250000X0.237500X-0.250000X-0.237500X0.250000X-0.237500X0*%
%ADD30RoundRect,0.250000X1.450000X-0.537500X1.450000X0.537500X-1.450000X0.537500X-1.450000X-0.537500X0*%
%ADD31RoundRect,0.150000X-0.825000X-0.150000X0.825000X-0.150000X0.825000X0.150000X-0.825000X0.150000X0*%
%ADD32RoundRect,0.250000X0.350000X0.450000X-0.350000X0.450000X-0.350000X-0.450000X0.350000X-0.450000X0*%
%ADD33RoundRect,0.243750X0.243750X0.456250X-0.243750X0.456250X-0.243750X-0.456250X0.243750X-0.456250X0*%
%ADD34RoundRect,0.250000X-0.650000X0.412500X-0.650000X-0.412500X0.650000X-0.412500X0.650000X0.412500X0*%
%ADD35RoundRect,0.237500X0.300000X0.237500X-0.300000X0.237500X-0.300000X-0.237500X0.300000X-0.237500X0*%
%ADD36RoundRect,0.225000X-0.375000X0.225000X-0.375000X-0.225000X0.375000X-0.225000X0.375000X0.225000X0*%
%ADD37RoundRect,0.102000X1.040000X-0.535000X1.040000X0.535000X-1.040000X0.535000X-1.040000X-0.535000X0*%
%ADD38RoundRect,0.237500X0.237500X-0.250000X0.237500X0.250000X-0.237500X0.250000X-0.237500X-0.250000X0*%
%ADD39RoundRect,0.250000X0.412500X1.100000X-0.412500X1.100000X-0.412500X-1.100000X0.412500X-1.100000X0*%
%ADD40RoundRect,0.225000X-0.425000X-0.225000X0.425000X-0.225000X0.425000X0.225000X-0.425000X0.225000X0*%
%ADD41FreePoly0,0.000000*%
%ADD42RoundRect,0.237500X-0.250000X-0.237500X0.250000X-0.237500X0.250000X0.237500X-0.250000X0.237500X0*%
%ADD43RoundRect,0.250000X-0.300000X-0.300000X0.300000X-0.300000X0.300000X0.300000X-0.300000X0.300000X0*%
%ADD44RoundRect,0.250000X0.300000X0.300000X-0.300000X0.300000X-0.300000X-0.300000X0.300000X-0.300000X0*%
%ADD45RoundRect,0.250000X-0.550000X1.412500X-0.550000X-1.412500X0.550000X-1.412500X0.550000X1.412500X0*%
%ADD46RoundRect,0.225000X0.375000X-0.225000X0.375000X0.225000X-0.375000X0.225000X-0.375000X-0.225000X0*%
G04 APERTURE END LIST*
D10*
%TO.C,C8*%
X157000000Y-112200000D03*
X157000000Y-113925000D03*
%TD*%
D11*
%TO.C,R1*%
X202737500Y-93562500D03*
X199637500Y-93562500D03*
%TD*%
D12*
%TO.C,RV2*%
X128000000Y-90960000D03*
X128000000Y-93500000D03*
X128000000Y-96040000D03*
%TD*%
D13*
%TO.C,Q32*%
X165950000Y-121562500D03*
X164050000Y-121562500D03*
X165000000Y-123437500D03*
%TD*%
D14*
%TO.C,T1*%
X157100000Y-60245000D03*
X157100000Y-57745000D03*
X157100000Y-55245000D03*
X157100000Y-52745000D03*
X157100000Y-50245000D03*
X173460000Y-50245000D03*
X173460000Y-52745000D03*
X173460000Y-55245000D03*
X173460000Y-57745000D03*
X173460000Y-60245000D03*
%TD*%
D15*
%TO.C,R38*%
X165000000Y-127087500D03*
X165000000Y-128912500D03*
%TD*%
D16*
%TO.C,R27*%
X199400000Y-128062500D03*
X202500000Y-128062500D03*
%TD*%
D17*
%TO.C,R39*%
X159500000Y-114612500D03*
X159500000Y-111512500D03*
%TD*%
D18*
%TO.C,U8*%
X147935000Y-73200000D03*
X147935000Y-72400000D03*
X147935000Y-71600000D03*
X147935000Y-70800000D03*
X144065000Y-70800000D03*
X144065000Y-71600000D03*
X144065000Y-72400000D03*
X144065000Y-73200000D03*
D19*
X146000000Y-72000000D03*
%TD*%
D20*
%TO.C,C35*%
X136677500Y-121546249D03*
X138402500Y-121546249D03*
%TD*%
D21*
%TO.C,Q11*%
X168500000Y-88112500D03*
X168500000Y-90012500D03*
X170375000Y-89062500D03*
%TD*%
D15*
%TO.C,R14*%
X165000000Y-102587500D03*
X165000000Y-104412500D03*
%TD*%
D22*
%TO.C,J2*%
X123500000Y-109546249D03*
%TD*%
D20*
%TO.C,C26*%
X159075000Y-101562500D03*
X160800000Y-101562500D03*
%TD*%
D23*
%TO.C,C25*%
X162500000Y-104362500D03*
X162500000Y-102637500D03*
%TD*%
D24*
%TO.C,C22*%
X146780000Y-68037500D03*
X146780000Y-65962500D03*
%TD*%
D25*
%TO.C,Q23*%
X205000000Y-115000000D03*
X206900000Y-115000000D03*
X205950000Y-113125000D03*
%TD*%
D17*
%TO.C,R9*%
X191687500Y-90112500D03*
X191687500Y-87012500D03*
%TD*%
D26*
%TO.C,C19*%
X174437500Y-66000000D03*
X177562500Y-66000000D03*
%TD*%
D22*
%TO.C,J19*%
X195000000Y-58500000D03*
D27*
X192460000Y-58500000D03*
%TD*%
D28*
%TO.C,U4*%
X161775000Y-123012500D03*
X161775000Y-122062500D03*
X161775000Y-121112500D03*
X159500000Y-121112500D03*
X159500000Y-122062500D03*
X159500000Y-123012500D03*
%TD*%
D25*
%TO.C,Q26*%
X173050000Y-123437500D03*
X174950000Y-123437500D03*
X174000000Y-121562500D03*
%TD*%
D12*
%TO.C,RV3*%
X141000000Y-100500000D03*
X138460000Y-100500000D03*
X135920000Y-100500000D03*
%TD*%
D11*
%TO.C,R31*%
X180550000Y-113062500D03*
X177450000Y-113062500D03*
%TD*%
D15*
%TO.C,R37*%
X162000000Y-112650000D03*
X162000000Y-114475000D03*
%TD*%
D16*
%TO.C,R8*%
X209450000Y-99325000D03*
X212550000Y-99325000D03*
%TD*%
D21*
%TO.C,Q29*%
X168500000Y-112562500D03*
X168500000Y-114462500D03*
X170375000Y-113512500D03*
%TD*%
D24*
%TO.C,C11*%
X145280000Y-52037500D03*
X145280000Y-49962500D03*
%TD*%
D29*
%TO.C,R45*%
X130392500Y-87000000D03*
X128567500Y-87000000D03*
%TD*%
D23*
%TO.C,C7*%
X164500000Y-118925000D03*
X164500000Y-117200000D03*
%TD*%
D21*
%TO.C,Q2*%
X200750000Y-88112500D03*
X200750000Y-90012500D03*
X202625000Y-89062500D03*
%TD*%
D22*
%TO.C,J4*%
X217500000Y-85000000D03*
%TD*%
D16*
%TO.C,R17*%
X167387500Y-103062500D03*
X170487500Y-103062500D03*
%TD*%
D11*
%TO.C,R33*%
X180550000Y-116562500D03*
X177450000Y-116562500D03*
%TD*%
D30*
%TO.C,C9*%
X183280000Y-61382500D03*
X183280000Y-57107500D03*
%TD*%
D15*
%TO.C,R47*%
X141500000Y-73087500D03*
X141500000Y-74912500D03*
%TD*%
D16*
%TO.C,R20*%
X177387500Y-99562500D03*
X180487500Y-99562500D03*
%TD*%
D15*
%TO.C,R23*%
X193950000Y-113150000D03*
X193950000Y-114975000D03*
%TD*%
D31*
%TO.C,U10*%
X136005000Y-91055000D03*
X136005000Y-92325000D03*
X136005000Y-93595000D03*
X136005000Y-94865000D03*
X140955000Y-94865000D03*
X140955000Y-93595000D03*
X140955000Y-92325000D03*
X140955000Y-91055000D03*
%TD*%
D24*
%TO.C,C12*%
X147780000Y-52037500D03*
X147780000Y-49962500D03*
%TD*%
D22*
%TO.C,J14*%
X217500000Y-78000000D03*
%TD*%
D25*
%TO.C,Q5*%
X205100000Y-94500000D03*
X207000000Y-94500000D03*
X206050000Y-92625000D03*
%TD*%
D12*
%TO.C,RV5*%
X140540000Y-125546249D03*
X138000000Y-125546249D03*
X135460000Y-125546249D03*
%TD*%
D22*
%TO.C,J10*%
X123500000Y-127500000D03*
%TD*%
D32*
%TO.C,R41*%
X139500000Y-63000000D03*
X137500000Y-63000000D03*
%TD*%
D33*
%TO.C,D9*%
X135000000Y-63000000D03*
X133125000Y-63000000D03*
%TD*%
D28*
%TO.C,U2*%
X161575000Y-98512500D03*
X161575000Y-97562500D03*
X161575000Y-96612500D03*
X159300000Y-96612500D03*
X159300000Y-97562500D03*
X159300000Y-98512500D03*
%TD*%
D25*
%TO.C,Q6*%
X205100000Y-90125000D03*
X207000000Y-90125000D03*
X206050000Y-88250000D03*
%TD*%
D10*
%TO.C,C5*%
X188950000Y-112200000D03*
X188950000Y-113925000D03*
%TD*%
D22*
%TO.C,J11*%
X217500000Y-70500000D03*
%TD*%
%TO.C,J13*%
X217500000Y-63500000D03*
%TD*%
D34*
%TO.C,C16*%
X187100000Y-73437500D03*
X187100000Y-76562500D03*
%TD*%
D35*
%TO.C,C30*%
X157225000Y-123062500D03*
X155500000Y-123062500D03*
%TD*%
D20*
%TO.C,C38*%
X137617500Y-96500000D03*
X139342500Y-96500000D03*
%TD*%
D22*
%TO.C,J17*%
X194875000Y-67500000D03*
D27*
X192335000Y-67500000D03*
%TD*%
D36*
%TO.C,D8*%
X153280000Y-56095000D03*
X153280000Y-59395000D03*
%TD*%
D22*
%TO.C,J6*%
X218000000Y-110000000D03*
%TD*%
D13*
%TO.C,Q10*%
X165887500Y-97125000D03*
X163987500Y-97125000D03*
X164937500Y-99000000D03*
%TD*%
D25*
%TO.C,Q27*%
X173050000Y-119000000D03*
X174950000Y-119000000D03*
X174000000Y-117125000D03*
%TD*%
D37*
%TO.C,T2*%
X157220000Y-75735000D03*
X157220000Y-73245000D03*
X157220000Y-70755000D03*
X157220000Y-68265000D03*
X170780000Y-68265000D03*
X170780000Y-70755000D03*
X170780000Y-73245000D03*
X170780000Y-75735000D03*
%TD*%
D13*
%TO.C,Q18*%
X197850000Y-122062500D03*
X195950000Y-122062500D03*
X196900000Y-123937500D03*
%TD*%
D38*
%TO.C,R44*%
X150280000Y-57657500D03*
X150280000Y-55832500D03*
%TD*%
D21*
%TO.C,Q12*%
X168500000Y-97062500D03*
X168500000Y-98962500D03*
X170375000Y-98012500D03*
%TD*%
D25*
%TO.C,Q25*%
X173050000Y-114500000D03*
X174950000Y-114500000D03*
X174000000Y-112625000D03*
%TD*%
D21*
%TO.C,Q19*%
X200512500Y-113112500D03*
X200512500Y-115012500D03*
X202387500Y-114062500D03*
%TD*%
D25*
%TO.C,Q28*%
X173050000Y-128000000D03*
X174950000Y-128000000D03*
X174000000Y-126125000D03*
%TD*%
D39*
%TO.C,C18*%
X177562500Y-78000000D03*
X174437500Y-78000000D03*
%TD*%
D40*
%TO.C,U7*%
X180650000Y-67500000D03*
D41*
X180737500Y-69000000D03*
D40*
X180650000Y-70500000D03*
%TD*%
D11*
%TO.C,R19*%
X180487500Y-88562500D03*
X177387500Y-88562500D03*
%TD*%
D23*
%TO.C,C13*%
X141280000Y-54362500D03*
X141280000Y-52637500D03*
%TD*%
%TO.C,C33*%
X132540000Y-118408749D03*
X132540000Y-116683749D03*
%TD*%
D11*
%TO.C,R15*%
X180487500Y-92062500D03*
X177387500Y-92062500D03*
%TD*%
D42*
%TO.C,R54*%
X140587500Y-112500000D03*
X142412500Y-112500000D03*
%TD*%
D24*
%TO.C,C21*%
X150280000Y-68037500D03*
X150280000Y-65962500D03*
%TD*%
D15*
%TO.C,R4*%
X197500000Y-102587500D03*
X197500000Y-104412500D03*
%TD*%
D11*
%TO.C,R16*%
X170487500Y-93272500D03*
X167387500Y-93272500D03*
%TD*%
D28*
%TO.C,U1*%
X194325000Y-98512500D03*
X194325000Y-97562500D03*
X194325000Y-96612500D03*
X192050000Y-96612500D03*
X192050000Y-97562500D03*
X192050000Y-98512500D03*
%TD*%
D18*
%TO.C,U5*%
X147715000Y-56945000D03*
X147715000Y-56145000D03*
X147715000Y-55345000D03*
X147715000Y-54545000D03*
X143845000Y-54545000D03*
X143845000Y-55345000D03*
X143845000Y-56145000D03*
X143845000Y-56945000D03*
D19*
X145780000Y-55745000D03*
%TD*%
D22*
%TO.C,J7*%
X218000000Y-121500000D03*
%TD*%
D11*
%TO.C,R5*%
X212550000Y-92562500D03*
X209450000Y-92562500D03*
%TD*%
D43*
%TO.C,D1*%
X176380000Y-52745000D03*
X179180000Y-52745000D03*
%TD*%
D16*
%TO.C,R35*%
X167450000Y-127562500D03*
X170550000Y-127562500D03*
%TD*%
D25*
%TO.C,Q15*%
X172987500Y-90000000D03*
X174887500Y-90000000D03*
X173937500Y-88125000D03*
%TD*%
D15*
%TO.C,R43*%
X141280000Y-56332500D03*
X141280000Y-58157500D03*
%TD*%
D22*
%TO.C,J1*%
X217500000Y-55000000D03*
%TD*%
D25*
%TO.C,Q22*%
X205000000Y-128387500D03*
X206900000Y-128387500D03*
X205950000Y-126512500D03*
%TD*%
D23*
%TO.C,C4*%
X164437500Y-94425000D03*
X164437500Y-92700000D03*
%TD*%
%TO.C,C15*%
X195500000Y-104362500D03*
X195500000Y-102637500D03*
%TD*%
D10*
%TO.C,C37*%
X143480000Y-91637500D03*
X143480000Y-93362500D03*
%TD*%
D25*
%TO.C,Q31*%
X164050000Y-114500000D03*
X165950000Y-114500000D03*
X165000000Y-112625000D03*
%TD*%
D10*
%TO.C,C2*%
X189187500Y-87200000D03*
X189187500Y-88925000D03*
%TD*%
D25*
%TO.C,Q13*%
X172987500Y-94500000D03*
X174887500Y-94500000D03*
X173937500Y-92625000D03*
%TD*%
D15*
%TO.C,R3*%
X194187500Y-88150000D03*
X194187500Y-89975000D03*
%TD*%
D23*
%TO.C,C1*%
X196687500Y-94425000D03*
X196687500Y-92700000D03*
%TD*%
D28*
%TO.C,U3*%
X193587500Y-123512500D03*
X193587500Y-122562500D03*
X193587500Y-121612500D03*
X191312500Y-121612500D03*
X191312500Y-122562500D03*
X191312500Y-123512500D03*
%TD*%
D40*
%TO.C,U6*%
X180650000Y-73500000D03*
D41*
X180737500Y-75000000D03*
D40*
X180650000Y-76500000D03*
%TD*%
D16*
%TO.C,R32*%
X177450000Y-124062500D03*
X180550000Y-124062500D03*
%TD*%
D23*
%TO.C,C6*%
X196450000Y-119425000D03*
X196450000Y-117700000D03*
%TD*%
D11*
%TO.C,R26*%
X202500000Y-118562500D03*
X199400000Y-118562500D03*
%TD*%
D44*
%TO.C,D2*%
X179180000Y-57745000D03*
X176380000Y-57745000D03*
%TD*%
D16*
%TO.C,R18*%
X177387500Y-103062500D03*
X180487500Y-103062500D03*
%TD*%
D11*
%TO.C,R34*%
X170550000Y-118062500D03*
X167450000Y-118062500D03*
%TD*%
D16*
%TO.C,R2*%
X199637500Y-103062500D03*
X202737500Y-103062500D03*
%TD*%
D20*
%TO.C,C29*%
X191087500Y-126562500D03*
X192812500Y-126562500D03*
%TD*%
D25*
%TO.C,Q17*%
X196000000Y-115000000D03*
X197900000Y-115000000D03*
X196950000Y-113125000D03*
%TD*%
D15*
%TO.C,R24*%
X197000000Y-127087500D03*
X197000000Y-128912500D03*
%TD*%
D16*
%TO.C,R11*%
X158387500Y-92562500D03*
X161487500Y-92562500D03*
%TD*%
D22*
%TO.C,J16*%
X194875000Y-76500000D03*
D27*
X192335000Y-76500000D03*
%TD*%
D35*
%TO.C,C24*%
X156800000Y-98562500D03*
X155075000Y-98562500D03*
%TD*%
D45*
%TO.C,C39*%
X125000000Y-57962500D03*
X125000000Y-63037500D03*
%TD*%
D25*
%TO.C,Q7*%
X205050000Y-103500000D03*
X206950000Y-103500000D03*
X206000000Y-101625000D03*
%TD*%
D36*
%TO.C,D5*%
X153500000Y-73000000D03*
X153500000Y-76300000D03*
%TD*%
D17*
%TO.C,R22*%
X191450000Y-115112500D03*
X191450000Y-112012500D03*
%TD*%
D29*
%TO.C,R49*%
X139392500Y-88000000D03*
X137567500Y-88000000D03*
%TD*%
D25*
%TO.C,Q14*%
X172987500Y-103437500D03*
X174887500Y-103437500D03*
X173937500Y-101562500D03*
%TD*%
D16*
%TO.C,R36*%
X177450000Y-127562500D03*
X180550000Y-127562500D03*
%TD*%
D25*
%TO.C,Q9*%
X163987500Y-90000000D03*
X165887500Y-90000000D03*
X164937500Y-88125000D03*
%TD*%
D22*
%TO.C,J5*%
X218000000Y-96000000D03*
%TD*%
D25*
%TO.C,Q24*%
X205000000Y-123950000D03*
X206900000Y-123950000D03*
X205950000Y-122075000D03*
%TD*%
D16*
%TO.C,R10*%
X190637500Y-92562500D03*
X193737500Y-92562500D03*
%TD*%
D30*
%TO.C,C10*%
X183280000Y-54382500D03*
X183280000Y-50107500D03*
%TD*%
D11*
%TO.C,R29*%
X212500000Y-113562500D03*
X209400000Y-113562500D03*
%TD*%
D22*
%TO.C,J9*%
X125000000Y-69000000D03*
%TD*%
D16*
%TO.C,R21*%
X190400000Y-117562500D03*
X193500000Y-117562500D03*
%TD*%
D12*
%TO.C,RV4*%
X127500000Y-117006249D03*
X127500000Y-119546249D03*
X127500000Y-122086249D03*
%TD*%
D10*
%TO.C,C34*%
X142540000Y-116183749D03*
X142540000Y-117908749D03*
%TD*%
D12*
%TO.C,RV1*%
X211000000Y-57550000D03*
X211000000Y-55010000D03*
X211000000Y-52470000D03*
%TD*%
D25*
%TO.C,Q8*%
X205050000Y-99062500D03*
X206950000Y-99062500D03*
X206000000Y-97187500D03*
%TD*%
D22*
%TO.C,J18*%
X195040000Y-52500000D03*
D27*
X192500000Y-52500000D03*
%TD*%
D11*
%TO.C,R6*%
X212550000Y-89062500D03*
X209450000Y-89062500D03*
%TD*%
D23*
%TO.C,C28*%
X195000000Y-128862500D03*
X195000000Y-127137500D03*
%TD*%
D21*
%TO.C,Q4*%
X200750000Y-97112500D03*
X200750000Y-99012500D03*
X202625000Y-98062500D03*
%TD*%
D46*
%TO.C,D7*%
X153280000Y-53895000D03*
X153280000Y-50595000D03*
%TD*%
D42*
%TO.C,R50*%
X141567500Y-88000000D03*
X143392500Y-88000000D03*
%TD*%
D22*
%TO.C,J12*%
X123500000Y-131500000D03*
%TD*%
D29*
%TO.C,R53*%
X138452500Y-112546249D03*
X136627500Y-112546249D03*
%TD*%
D43*
%TO.C,D4*%
X174200000Y-70500000D03*
X177000000Y-70500000D03*
%TD*%
D23*
%TO.C,C20*%
X141500000Y-70862500D03*
X141500000Y-69137500D03*
%TD*%
D42*
%TO.C,R51*%
X127547500Y-113046249D03*
X129372500Y-113046249D03*
%TD*%
D22*
%TO.C,J8*%
X125000000Y-52000000D03*
%TD*%
D17*
%TO.C,R12*%
X159437500Y-90112500D03*
X159437500Y-87012500D03*
%TD*%
D31*
%TO.C,U9*%
X135065000Y-115641249D03*
X135065000Y-116911249D03*
X135065000Y-118181249D03*
X135065000Y-119451249D03*
X140015000Y-119451249D03*
X140015000Y-118181249D03*
X140015000Y-116911249D03*
X140015000Y-115641249D03*
%TD*%
D34*
%TO.C,C17*%
X187100000Y-67437500D03*
X187100000Y-70562500D03*
%TD*%
D21*
%TO.C,Q30*%
X168562500Y-121562500D03*
X168562500Y-123462500D03*
X170437500Y-122512500D03*
%TD*%
D16*
%TO.C,R40*%
X158450000Y-117062500D03*
X161550000Y-117062500D03*
%TD*%
D23*
%TO.C,C36*%
X133480000Y-93500000D03*
X133480000Y-91775000D03*
%TD*%
D22*
%TO.C,J21*%
X135040000Y-54745000D03*
D27*
X132500000Y-54745000D03*
%TD*%
D44*
%TO.C,D3*%
X177000000Y-73500000D03*
X174200000Y-73500000D03*
%TD*%
D42*
%TO.C,R52*%
X127547500Y-126046249D03*
X129372500Y-126046249D03*
%TD*%
D38*
%TO.C,R46*%
X150500000Y-74412500D03*
X150500000Y-72587500D03*
%TD*%
D23*
%TO.C,C31*%
X163000000Y-128862500D03*
X163000000Y-127137500D03*
%TD*%
D25*
%TO.C,Q16*%
X172987500Y-99000000D03*
X174887500Y-99000000D03*
X173937500Y-97125000D03*
%TD*%
D35*
%TO.C,C27*%
X188812500Y-123562500D03*
X187087500Y-123562500D03*
%TD*%
D20*
%TO.C,C23*%
X191325000Y-101562500D03*
X193050000Y-101562500D03*
%TD*%
D25*
%TO.C,Q1*%
X196237500Y-90000000D03*
X198137500Y-90000000D03*
X197187500Y-88125000D03*
%TD*%
D22*
%TO.C,J20*%
X135040000Y-70500000D03*
D27*
X132500000Y-70500000D03*
%TD*%
D16*
%TO.C,R30*%
X209400000Y-124512500D03*
X212500000Y-124512500D03*
%TD*%
%TO.C,R28*%
X209400000Y-128012500D03*
X212500000Y-128012500D03*
%TD*%
D21*
%TO.C,Q20*%
X200512500Y-122112500D03*
X200512500Y-124012500D03*
X202387500Y-123062500D03*
%TD*%
D35*
%TO.C,C14*%
X189550000Y-98562500D03*
X187825000Y-98562500D03*
%TD*%
D16*
%TO.C,R7*%
X209450000Y-103062500D03*
X212550000Y-103062500D03*
%TD*%
D22*
%TO.C,J15*%
X146000000Y-82775000D03*
D27*
X146000000Y-80235000D03*
%TD*%
D11*
%TO.C,R25*%
X212500000Y-117062500D03*
X209400000Y-117062500D03*
%TD*%
D22*
%TO.C,J3*%
X123500000Y-85000000D03*
%TD*%
D10*
%TO.C,C3*%
X156937500Y-87337500D03*
X156937500Y-89062500D03*
%TD*%
D13*
%TO.C,Q3*%
X198450000Y-97125000D03*
X196550000Y-97125000D03*
X197500000Y-99000000D03*
%TD*%
D15*
%TO.C,R13*%
X161937500Y-88150000D03*
X161937500Y-89975000D03*
%TD*%
D25*
%TO.C,Q21*%
X205000000Y-119500000D03*
X206900000Y-119500000D03*
X205950000Y-117625000D03*
%TD*%
D46*
%TO.C,D6*%
X153500000Y-70800000D03*
X153500000Y-67500000D03*
%TD*%
D20*
%TO.C,C32*%
X159137500Y-126062500D03*
X160862500Y-126062500D03*
%TD*%
D42*
%TO.C,R48*%
X128155000Y-100000000D03*
X129980000Y-100000000D03*
%TD*%
M02*
