M48
; DRILL file {KiCad 8.0.8} date 2025-02-22T00:09:21-0800
; FORMAT={-:-/ absolute / inch / decimal}
; #@! TF.CreationDate,2025-02-22T00:09:21-08:00
; #@! TF.GenerationSoftware,Kicad,Pcbnew,8.0.8
; #@! TF.FileFunction,Plated,1,2,PTH
FMAT,2
INCH
; #@! TA.AperFunction,Plated,PTH,ViaDrill
T1C0.0118
; #@! TA.AperFunction,Plated,PTH,ComponentDrill
T2C0.0315
; #@! TA.AperFunction,Plated,PTH,ComponentDrill
T3C0.0394
%
G90
G05
T1
X4.8425Y-4.626
X4.8622Y-3.563
X4.9016Y-3.0118
X5.0Y-4.3701
X5.0787Y-2.6575
X5.1575Y-4.6457
X5.1753Y-4.9625
X5.1969Y-3.4055
X5.1969Y-3.6614
X5.2362Y-4.4882
X5.2559Y-1.9488
X5.2756Y-3.5433
X5.374Y-3.0118
X5.4134Y-2.3228
X5.4134Y-4.5866
X5.4134Y-5.1772
X5.4528Y-3.622
X5.5118Y-5.1772
X5.5709Y-4.1732
X5.5906Y-4.5079
X5.6102Y-3.3071
X5.6118Y-4.7228
X5.6299Y-3.5433
X5.6496Y-3.7598
X5.748Y-2.4213
X5.7874Y-4.6654
X5.8071Y-3.4843
X5.8465Y-3.0709
X5.9055Y-4.252
X5.9252Y-3.9764
X5.9252Y-4.9409
X6.063Y-5.1772
X6.0827Y-2.5
X6.1024Y-4.4882
X6.122Y-3.7598
X6.2008Y-4.7835
X6.2303Y-3.9469
X6.2992Y-5.0787
X6.3583Y-4.1142
X6.378Y-3.4055
X6.378Y-4.7047
X6.4173Y-3.7598
X6.437Y-4.3701
X6.4961Y-5.1772
X6.5551Y-3.9173
X6.7126Y-3.7795
X6.752Y-4.7441
X7.0472Y-3.4252
X7.0472Y-5.1181
X7.1063Y-4.5276
X7.185Y-4.1732
X7.2441Y-5.0984
X7.3622Y-4.7441
X7.4016Y-4.9606
X7.4409Y-3.9764
X7.4606Y-3.7992
X7.6378Y-4.0551
X7.6378Y-4.3898
X7.6575Y-3.3071
X7.6575Y-3.4055
X7.6575Y-4.7441
X7.6772Y-3.7598
X7.7559Y-5.1772
X7.815Y-3.3071
X7.8346Y-2.7362
X7.8346Y-4.9606
X7.8543Y-2.4409
X8.0118Y-3.7795
X8.0118Y-4.7638
X8.1102Y-3.1299
X8.3071Y-3.7402
X8.3661Y-4.1339
X8.3661Y-4.5472
X8.4055Y-4.9803
X8.6024Y-3.5236
X8.622Y-4.1535
X8.622Y-5.1969
T2
X5.0197Y-4.6065
X5.0197Y-4.7065
X5.0197Y-4.8065
X5.0394Y-3.5811
X5.0394Y-3.6811
X5.0394Y-3.7811
X5.3331Y-4.9428
X5.3512Y-3.9567
X5.4331Y-4.9428
X5.4512Y-3.9567
X5.5331Y-4.9428
X5.5512Y-3.9567
X8.3071Y-2.0657
X8.3071Y-2.1657
X8.3071Y-2.2657
T3
X4.8622Y-3.3465
X4.8622Y-4.3128
X4.8622Y-5.0197
X4.8622Y-5.1772
X4.9213Y-2.0472
X4.9213Y-2.7165
X5.2165Y-2.1553
X5.2165Y-2.7756
X5.3165Y-2.1553
X5.3165Y-2.7756
X5.748Y-3.1589
X5.748Y-3.2589
X7.5722Y-2.6575
X7.5722Y-3.0118
X7.5772Y-2.3031
X7.5787Y-2.0669
X7.6722Y-2.6575
X7.6722Y-3.0118
X7.6772Y-2.3031
X7.6787Y-2.0669
X8.563Y-2.1654
X8.563Y-2.5
X8.563Y-2.7756
X8.563Y-3.0709
X8.563Y-3.3465
X8.5827Y-3.7795
X8.5827Y-4.3307
X8.5827Y-4.7835
M30
