%TF.GenerationSoftware,KiCad,Pcbnew,9.0.0*%
%TF.CreationDate,2025-10-26T21:30:55-07:00*%
%TF.ProjectId,main_supply_3,6d61696e-5f73-4757-9070-6c795f332e6b,rev?*%
%TF.SameCoordinates,Original*%
%TF.FileFunction,Soldermask,Top*%
%TF.FilePolarity,Negative*%
%FSLAX46Y46*%
G04 Gerber Fmt 4.6, Leading zero omitted, Abs format (unit mm)*
G04 Created by KiCad (PCBNEW 9.0.0) date 2025-10-26 21:30:55*
%MOMM*%
%LPD*%
G01*
G04 APERTURE LIST*
G04 Aperture macros list*
%AMRoundRect*
0 Rectangle with rounded corners*
0 $1 Rounding radius*
0 $2 $3 $4 $5 $6 $7 $8 $9 X,Y pos of 4 corners*
0 Add a 4 corners polygon primitive as box body*
4,1,4,$2,$3,$4,$5,$6,$7,$8,$9,$2,$3,0*
0 Add four circle primitives for the rounded corners*
1,1,$1+$1,$2,$3*
1,1,$1+$1,$4,$5*
1,1,$1+$1,$6,$7*
1,1,$1+$1,$8,$9*
0 Add four rect primitives between the rounded corners*
20,1,$1+$1,$2,$3,$4,$5,0*
20,1,$1+$1,$4,$5,$6,$7,0*
20,1,$1+$1,$6,$7,$8,$9,0*
20,1,$1+$1,$8,$9,$2,$3,0*%
%AMFreePoly0*
4,1,17,1.371000,0.720000,0.950000,0.720000,0.950000,0.580000,1.370000,0.580000,1.370000,0.080000,0.950000,0.080000,0.950000,-0.080000,1.370000,-0.080000,1.370000,-0.580000,0.950000,-0.580000,0.950000,-0.720000,1.370000,-0.720000,1.370000,-1.225000,-0.950000,-1.225000,-0.950000,1.225000,1.371000,1.225000,1.371000,0.720000,1.371000,0.720000,$1*%
G04 Aperture macros list end*
%ADD10RoundRect,0.225000X0.225000X0.250000X-0.225000X0.250000X-0.225000X-0.250000X0.225000X-0.250000X0*%
%ADD11RoundRect,0.225000X-0.225000X-0.250000X0.225000X-0.250000X0.225000X0.250000X-0.225000X0.250000X0*%
%ADD12RoundRect,0.250000X-0.650000X-2.450000X0.650000X-2.450000X0.650000X2.450000X-0.650000X2.450000X0*%
%ADD13RoundRect,0.225000X0.250000X-0.225000X0.250000X0.225000X-0.250000X0.225000X-0.250000X-0.225000X0*%
%ADD14RoundRect,0.200000X-0.275000X0.200000X-0.275000X-0.200000X0.275000X-0.200000X0.275000X0.200000X0*%
%ADD15RoundRect,0.250000X-0.312500X-0.625000X0.312500X-0.625000X0.312500X0.625000X-0.312500X0.625000X0*%
%ADD16RoundRect,0.250000X-0.475000X0.250000X-0.475000X-0.250000X0.475000X-0.250000X0.475000X0.250000X0*%
%ADD17RoundRect,0.200000X-0.200000X-0.275000X0.200000X-0.275000X0.200000X0.275000X-0.200000X0.275000X0*%
%ADD18RoundRect,0.150000X-0.750000X-0.150000X0.750000X-0.150000X0.750000X0.150000X-0.750000X0.150000X0*%
%ADD19RoundRect,0.102000X-0.950000X-0.800000X0.950000X-0.800000X0.950000X0.800000X-0.950000X0.800000X0*%
%ADD20RoundRect,0.250000X0.312500X0.625000X-0.312500X0.625000X-0.312500X-0.625000X0.312500X-0.625000X0*%
%ADD21RoundRect,0.225000X-0.250000X0.225000X-0.250000X-0.225000X0.250000X-0.225000X0.250000X0.225000X0*%
%ADD22RoundRect,0.249999X-0.450001X-1.450001X0.450001X-1.450001X0.450001X1.450001X-0.450001X1.450001X0*%
%ADD23RoundRect,0.200000X0.275000X-0.200000X0.275000X0.200000X-0.275000X0.200000X-0.275000X-0.200000X0*%
%ADD24C,1.440000*%
%ADD25RoundRect,0.250000X1.000000X0.650000X-1.000000X0.650000X-1.000000X-0.650000X1.000000X-0.650000X0*%
%ADD26RoundRect,0.190500X-0.824500X-0.444500X0.824500X-0.444500X0.824500X0.444500X-0.824500X0.444500X0*%
%ADD27RoundRect,0.200000X0.200000X0.275000X-0.200000X0.275000X-0.200000X-0.275000X0.200000X-0.275000X0*%
%ADD28RoundRect,0.218750X0.218750X0.256250X-0.218750X0.256250X-0.218750X-0.256250X0.218750X-0.256250X0*%
%ADD29RoundRect,0.250000X-1.000000X-0.650000X1.000000X-0.650000X1.000000X0.650000X-1.000000X0.650000X0*%
%ADD30RoundRect,0.125000X-0.190000X-0.125000X0.190000X-0.125000X0.190000X0.125000X-0.190000X0.125000X0*%
%ADD31FreePoly0,0.000000*%
%ADD32RoundRect,0.250000X0.475000X-0.250000X0.475000X0.250000X-0.475000X0.250000X-0.475000X-0.250000X0*%
%ADD33RoundRect,0.250000X0.325000X0.650000X-0.325000X0.650000X-0.325000X-0.650000X0.325000X-0.650000X0*%
%ADD34RoundRect,0.218750X-0.218750X-0.256250X0.218750X-0.256250X0.218750X0.256250X-0.218750X0.256250X0*%
%ADD35RoundRect,0.050000X-0.075000X0.200000X-0.075000X-0.200000X0.075000X-0.200000X0.075000X0.200000X0*%
%ADD36R,2.650000X1.000000*%
%ADD37RoundRect,0.250000X-1.850000X1.330000X-1.850000X-1.330000X1.850000X-1.330000X1.850000X1.330000X0*%
%ADD38O,4.200000X3.160000*%
%ADD39R,1.700000X1.700000*%
%ADD40O,1.700000X1.700000*%
%ADD41RoundRect,0.150000X-0.512500X-0.150000X0.512500X-0.150000X0.512500X0.150000X-0.512500X0.150000X0*%
%ADD42RoundRect,0.150000X-0.150000X0.587500X-0.150000X-0.587500X0.150000X-0.587500X0.150000X0.587500X0*%
%ADD43RoundRect,0.375000X0.375000X-0.625000X0.375000X0.625000X-0.375000X0.625000X-0.375000X-0.625000X0*%
%ADD44RoundRect,0.500000X1.400000X-0.500000X1.400000X0.500000X-1.400000X0.500000X-1.400000X-0.500000X0*%
%ADD45RoundRect,0.243750X-0.243750X-0.456250X0.243750X-0.456250X0.243750X0.456250X-0.243750X0.456250X0*%
%ADD46RoundRect,0.150000X-0.150000X0.512500X-0.150000X-0.512500X0.150000X-0.512500X0.150000X0.512500X0*%
%ADD47RoundRect,0.150000X0.150000X-0.512500X0.150000X0.512500X-0.150000X0.512500X-0.150000X-0.512500X0*%
%ADD48RoundRect,0.250000X0.550000X0.550000X-0.550000X0.550000X-0.550000X-0.550000X0.550000X-0.550000X0*%
%ADD49C,1.600000*%
%ADD50RoundRect,0.250000X0.250000X0.475000X-0.250000X0.475000X-0.250000X-0.475000X0.250000X-0.475000X0*%
%ADD51RoundRect,0.250000X-0.550000X1.500000X-0.550000X-1.500000X0.550000X-1.500000X0.550000X1.500000X0*%
%ADD52RoundRect,0.250000X1.850000X-1.330000X1.850000X1.330000X-1.850000X1.330000X-1.850000X-1.330000X0*%
G04 APERTURE END LIST*
D10*
%TO.C,C31*%
X142675000Y-111865000D03*
X141125000Y-111865000D03*
%TD*%
D11*
%TO.C,C58*%
X110425000Y-83000000D03*
X111975000Y-83000000D03*
%TD*%
D12*
%TO.C,C19*%
X162050000Y-58600000D03*
X167150000Y-58600000D03*
%TD*%
D13*
%TO.C,C57*%
X123005000Y-122815000D03*
X123005000Y-121265000D03*
%TD*%
D10*
%TO.C,C14*%
X113575000Y-103100000D03*
X112025000Y-103100000D03*
%TD*%
D14*
%TO.C,R11*%
X115800000Y-100975000D03*
X115800000Y-102625000D03*
%TD*%
D10*
%TO.C,C55*%
X149225000Y-137627500D03*
X147675000Y-137627500D03*
%TD*%
D15*
%TO.C,R43*%
X151337500Y-52400000D03*
X154262500Y-52400000D03*
%TD*%
D16*
%TO.C,C36*%
X117305000Y-109590000D03*
X117305000Y-111490000D03*
%TD*%
D17*
%TO.C,R56*%
X116780000Y-118340000D03*
X118430000Y-118340000D03*
%TD*%
D10*
%TO.C,C41*%
X116875000Y-130265000D03*
X115325000Y-130265000D03*
%TD*%
D18*
%TO.C,U9*%
X125025000Y-136460000D03*
X125025000Y-137730000D03*
X125025000Y-139000000D03*
X125025000Y-140270000D03*
X135675000Y-140270000D03*
X135675000Y-139000000D03*
X135675000Y-137730000D03*
X135675000Y-136460000D03*
%TD*%
D19*
%TO.C,T3*%
X126255000Y-108405000D03*
X126255000Y-110895000D03*
X126255000Y-113385000D03*
X126255000Y-115875000D03*
X134355000Y-115875000D03*
X134355000Y-113385000D03*
X134355000Y-110895000D03*
X134355000Y-108405000D03*
%TD*%
D20*
%TO.C,R40*%
X170262500Y-52400000D03*
X167337500Y-52400000D03*
%TD*%
D10*
%TO.C,C27*%
X115875000Y-77000000D03*
X114325000Y-77000000D03*
%TD*%
D15*
%TO.C,R20*%
X153900000Y-78000000D03*
X156825000Y-78000000D03*
%TD*%
D21*
%TO.C,C56*%
X122000000Y-137790000D03*
X122000000Y-139340000D03*
%TD*%
D22*
%TO.C,C7*%
X149287500Y-100200000D03*
X153387500Y-100200000D03*
%TD*%
D17*
%TO.C,R12*%
X121750000Y-105500000D03*
X123400000Y-105500000D03*
%TD*%
D23*
%TO.C,R54*%
X137100000Y-127625000D03*
X137100000Y-125975000D03*
%TD*%
D16*
%TO.C,C49*%
X119500000Y-144250000D03*
X119500000Y-146150000D03*
%TD*%
D17*
%TO.C,R15*%
X106975000Y-83100000D03*
X108625000Y-83100000D03*
%TD*%
D10*
%TO.C,C12*%
X113575000Y-100900000D03*
X112025000Y-100900000D03*
%TD*%
D24*
%TO.C,RV3*%
X103600000Y-73400000D03*
X103600000Y-70860000D03*
X103600000Y-68320000D03*
%TD*%
D25*
%TO.C,D17*%
X142900000Y-108365000D03*
X138900000Y-108365000D03*
%TD*%
D12*
%TO.C,C4*%
X148837500Y-85300000D03*
X153937500Y-85300000D03*
%TD*%
D26*
%TO.C,T1*%
X123495000Y-83550000D03*
X123495000Y-86050000D03*
X123495000Y-88550000D03*
X123495000Y-91050000D03*
X137205000Y-91050000D03*
X137205000Y-88550000D03*
X137205000Y-86050000D03*
X137205000Y-83550000D03*
%TD*%
D27*
%TO.C,R67*%
X109950000Y-128200000D03*
X108300000Y-128200000D03*
%TD*%
D25*
%TO.C,D10*%
X170000000Y-67500000D03*
X166000000Y-67500000D03*
%TD*%
D17*
%TO.C,R72*%
X138375000Y-137265000D03*
X140025000Y-137265000D03*
%TD*%
D14*
%TO.C,R2*%
X124300000Y-99875000D03*
X124300000Y-101525000D03*
%TD*%
D15*
%TO.C,R18*%
X164000000Y-78000000D03*
X166925000Y-78000000D03*
%TD*%
D17*
%TO.C,R73*%
X158550000Y-131990000D03*
X160200000Y-131990000D03*
%TD*%
D28*
%TO.C,D18*%
X106387500Y-117665000D03*
X104812500Y-117665000D03*
%TD*%
D13*
%TO.C,C11*%
X119800000Y-97800000D03*
X119800000Y-96250000D03*
%TD*%
D15*
%TO.C,R64*%
X152175000Y-146000000D03*
X155100000Y-146000000D03*
%TD*%
D29*
%TO.C,D2*%
X145637500Y-94500000D03*
X149637500Y-94500000D03*
%TD*%
D30*
%TO.C,Q3*%
X120955000Y-115960000D03*
X120955000Y-116600000D03*
X120955000Y-117260000D03*
X120955000Y-117900000D03*
D31*
X122780000Y-116930000D03*
%TD*%
D15*
%TO.C,R21*%
X148900000Y-78000000D03*
X151825000Y-78000000D03*
%TD*%
D32*
%TO.C,C22*%
X118200000Y-54350000D03*
X118200000Y-52450000D03*
%TD*%
D33*
%TO.C,C54*%
X186368750Y-145500000D03*
X183418750Y-145500000D03*
%TD*%
D22*
%TO.C,C16*%
X162050000Y-72900000D03*
X166150000Y-72900000D03*
%TD*%
D15*
%TO.C,R66*%
X162137500Y-146000000D03*
X165062500Y-146000000D03*
%TD*%
D10*
%TO.C,C13*%
X116575000Y-105500000D03*
X115025000Y-105500000D03*
%TD*%
D20*
%TO.C,R13*%
X188025000Y-78000000D03*
X185100000Y-78000000D03*
%TD*%
D34*
%TO.C,D16*%
X107412500Y-78500000D03*
X108987500Y-78500000D03*
%TD*%
D14*
%TO.C,R49*%
X112005000Y-113115000D03*
X112005000Y-114765000D03*
%TD*%
%TO.C,R47*%
X112005000Y-109715000D03*
X112005000Y-111365000D03*
%TD*%
D35*
%TO.C,U5*%
X121405000Y-126140000D03*
X120905000Y-126140000D03*
X120405000Y-126140000D03*
X119905000Y-126140000D03*
X119405000Y-126140000D03*
X118905000Y-126140000D03*
X118905000Y-128040000D03*
X119405000Y-128040000D03*
X119905000Y-128040000D03*
X120405000Y-128040000D03*
X120905000Y-128040000D03*
X121405000Y-128040000D03*
D36*
X120155000Y-127090000D03*
%TD*%
D20*
%TO.C,R14*%
X182800000Y-78000000D03*
X179875000Y-78000000D03*
%TD*%
D10*
%TO.C,C37*%
X165175000Y-112765000D03*
X163625000Y-112765000D03*
%TD*%
D37*
%TO.C,J1*%
X105800000Y-57700000D03*
D38*
X105800000Y-61660000D03*
%TD*%
D17*
%TO.C,R34*%
X114275000Y-75200000D03*
X115925000Y-75200000D03*
%TD*%
D21*
%TO.C,C1*%
X120400000Y-83525000D03*
X120400000Y-85075000D03*
%TD*%
D16*
%TO.C,C48*%
X111200000Y-144150000D03*
X111200000Y-146050000D03*
%TD*%
D17*
%TO.C,R33*%
X107375000Y-76800000D03*
X109025000Y-76800000D03*
%TD*%
D20*
%TO.C,R17*%
X172162500Y-78000000D03*
X169237500Y-78000000D03*
%TD*%
D21*
%TO.C,C44*%
X180600000Y-124650000D03*
X180600000Y-126200000D03*
%TD*%
D24*
%TO.C,RV4*%
X103400000Y-130820000D03*
X103400000Y-133360000D03*
X103400000Y-135900000D03*
%TD*%
%TO.C,RV1*%
X194200000Y-91800000D03*
X194200000Y-89260000D03*
X194200000Y-86720000D03*
%TD*%
D15*
%TO.C,R61*%
X137275000Y-146000000D03*
X140200000Y-146000000D03*
%TD*%
D39*
%TO.C,J8*%
X186760000Y-141800000D03*
D40*
X189300000Y-141800000D03*
%TD*%
D35*
%TO.C,U3*%
X121900000Y-73400000D03*
X121400000Y-73400000D03*
X120900000Y-73400000D03*
X120400000Y-73400000D03*
X119900000Y-73400000D03*
X119400000Y-73400000D03*
X119400000Y-75300000D03*
X119900000Y-75300000D03*
X120400000Y-75300000D03*
X120900000Y-75300000D03*
X121400000Y-75300000D03*
X121900000Y-75300000D03*
D36*
X120650000Y-74350000D03*
%TD*%
D30*
%TO.C,Q1*%
X117920000Y-91572500D03*
X117920000Y-92212500D03*
X117920000Y-92872500D03*
X117920000Y-93512500D03*
D31*
X119745000Y-92542500D03*
%TD*%
D15*
%TO.C,R24*%
X181637500Y-67000000D03*
X184562500Y-67000000D03*
%TD*%
%TO.C,R41*%
X161975000Y-52400000D03*
X164900000Y-52400000D03*
%TD*%
D22*
%TO.C,C18*%
X146000000Y-72900000D03*
X150100000Y-72900000D03*
%TD*%
D25*
%TO.C,D11*%
X162300000Y-67500000D03*
X158300000Y-67500000D03*
%TD*%
D27*
%TO.C,R46*%
X109050000Y-75000000D03*
X107400000Y-75000000D03*
%TD*%
D17*
%TO.C,R69*%
X147475000Y-130927500D03*
X149125000Y-130927500D03*
%TD*%
D35*
%TO.C,U1*%
X120800000Y-101300000D03*
X120300000Y-101300000D03*
X119800000Y-101300000D03*
X119300000Y-101300000D03*
X118800000Y-101300000D03*
X118300000Y-101300000D03*
X118300000Y-103200000D03*
X118800000Y-103200000D03*
X119300000Y-103200000D03*
X119800000Y-103200000D03*
X120300000Y-103200000D03*
X120800000Y-103200000D03*
D36*
X119550000Y-102250000D03*
%TD*%
D14*
%TO.C,R30*%
X120500000Y-58475000D03*
X120500000Y-60125000D03*
%TD*%
D25*
%TO.C,D9*%
X177500000Y-67600000D03*
X173500000Y-67600000D03*
%TD*%
D13*
%TO.C,C24*%
X123700000Y-69975000D03*
X123700000Y-68425000D03*
%TD*%
D15*
%TO.C,R5*%
X150275000Y-91100000D03*
X153200000Y-91100000D03*
%TD*%
D27*
%TO.C,R55*%
X160925000Y-112765000D03*
X159275000Y-112765000D03*
%TD*%
D10*
%TO.C,C40*%
X116875000Y-128265000D03*
X115325000Y-128265000D03*
%TD*%
D14*
%TO.C,R29*%
X114400000Y-60075000D03*
X114400000Y-61725000D03*
%TD*%
D27*
%TO.C,R50*%
X143425000Y-128000000D03*
X141775000Y-128000000D03*
%TD*%
D17*
%TO.C,R60*%
X121575000Y-130265000D03*
X123225000Y-130265000D03*
%TD*%
D22*
%TO.C,C9*%
X166287500Y-100700000D03*
X170387500Y-100700000D03*
%TD*%
D32*
%TO.C,C21*%
X115200000Y-54350000D03*
X115200000Y-52450000D03*
%TD*%
D41*
%TO.C,U7*%
X172862500Y-124650000D03*
X172862500Y-125600000D03*
X172862500Y-126550000D03*
X175137500Y-126550000D03*
X175137500Y-124650000D03*
%TD*%
D15*
%TO.C,R28*%
X147037500Y-64000000D03*
X149962500Y-64000000D03*
%TD*%
D29*
%TO.C,D6*%
X170037500Y-94500000D03*
X174037500Y-94500000D03*
%TD*%
D42*
%TO.C,U6*%
X163100000Y-116165000D03*
X161200000Y-116165000D03*
X162150000Y-118040000D03*
%TD*%
D39*
%TO.C,J4*%
X194900000Y-104500000D03*
%TD*%
D11*
%TO.C,C28*%
X121225000Y-77700000D03*
X122775000Y-77700000D03*
%TD*%
D10*
%TO.C,C15*%
X105275000Y-83100000D03*
X103725000Y-83100000D03*
%TD*%
D21*
%TO.C,C53*%
X165300000Y-130415000D03*
X165300000Y-131965000D03*
%TD*%
D12*
%TO.C,C17*%
X179650000Y-58700000D03*
X184750000Y-58700000D03*
%TD*%
%TO.C,C23*%
X146200000Y-58600000D03*
X151300000Y-58600000D03*
%TD*%
D23*
%TO.C,R31*%
X119700000Y-70025000D03*
X119700000Y-68375000D03*
%TD*%
D20*
%TO.C,R39*%
X175562500Y-52400000D03*
X172637500Y-52400000D03*
%TD*%
D43*
%TO.C,Q4*%
X172300000Y-136340000D03*
X174600000Y-136340000D03*
D44*
X174600000Y-130040000D03*
D43*
X176900000Y-136340000D03*
%TD*%
D45*
%TO.C,F1*%
X109162500Y-65300000D03*
X111037500Y-65300000D03*
%TD*%
D46*
%TO.C,U11*%
X164700000Y-134115000D03*
X163750000Y-134115000D03*
X162800000Y-134115000D03*
X162800000Y-136390000D03*
X164700000Y-136390000D03*
%TD*%
D15*
%TO.C,R25*%
X162837500Y-63800000D03*
X165762500Y-63800000D03*
%TD*%
D47*
%TO.C,U2*%
X108300000Y-88937500D03*
X109250000Y-88937500D03*
X110200000Y-88937500D03*
X110200000Y-86662500D03*
X108300000Y-86662500D03*
%TD*%
D14*
%TO.C,R52*%
X123700000Y-124975000D03*
X123700000Y-126625000D03*
%TD*%
D32*
%TO.C,C42*%
X170300000Y-126650000D03*
X170300000Y-124750000D03*
%TD*%
D15*
%TO.C,R44*%
X146275000Y-52400000D03*
X149200000Y-52400000D03*
%TD*%
D14*
%TO.C,R59*%
X156400000Y-114615000D03*
X156400000Y-116265000D03*
%TD*%
D24*
%TO.C,RV2*%
X103700000Y-87000000D03*
X103700000Y-89540000D03*
X103700000Y-92080000D03*
%TD*%
D20*
%TO.C,R37*%
X186062500Y-52400000D03*
X183137500Y-52400000D03*
%TD*%
D39*
%TO.C,J2*%
X108325000Y-52700000D03*
D40*
X110865000Y-52700000D03*
%TD*%
D39*
%TO.C,J5*%
X114925000Y-80400000D03*
D40*
X117465000Y-80400000D03*
%TD*%
D10*
%TO.C,C45*%
X164550000Y-138390000D03*
X163000000Y-138390000D03*
%TD*%
D20*
%TO.C,RS1*%
X116062500Y-92900000D03*
X113137500Y-92900000D03*
%TD*%
D14*
%TO.C,R4*%
X120400000Y-86775000D03*
X120400000Y-88425000D03*
%TD*%
D15*
%TO.C,R19*%
X159062500Y-78000000D03*
X161987500Y-78000000D03*
%TD*%
D23*
%TO.C,R3*%
X126300000Y-101525000D03*
X126300000Y-99875000D03*
%TD*%
%TO.C,R8*%
X114300000Y-97925000D03*
X114300000Y-96275000D03*
%TD*%
D21*
%TO.C,C50*%
X122600000Y-144425000D03*
X122600000Y-145975000D03*
%TD*%
D27*
%TO.C,R58*%
X106425000Y-115165000D03*
X104775000Y-115165000D03*
%TD*%
D24*
%TO.C,RV5*%
X164550000Y-123000000D03*
X162010000Y-123000000D03*
X159470000Y-123000000D03*
%TD*%
D20*
%TO.C,RS2*%
X116062500Y-63800000D03*
X113137500Y-63800000D03*
%TD*%
D16*
%TO.C,C3*%
X116200000Y-84650000D03*
X116200000Y-86550000D03*
%TD*%
D12*
%TO.C,C8*%
X177187500Y-85400000D03*
X182287500Y-85400000D03*
%TD*%
D46*
%TO.C,U10*%
X151250000Y-133152500D03*
X150300000Y-133152500D03*
X149350000Y-133152500D03*
X149350000Y-135427500D03*
X151250000Y-135427500D03*
%TD*%
D25*
%TO.C,D13*%
X146200000Y-67400000D03*
X142200000Y-67400000D03*
%TD*%
D39*
%TO.C,J3*%
X195200000Y-62900000D03*
%TD*%
D10*
%TO.C,C46*%
X124275000Y-133665000D03*
X122725000Y-133665000D03*
%TD*%
D13*
%TO.C,C51*%
X153500000Y-135065000D03*
X153500000Y-133515000D03*
%TD*%
D21*
%TO.C,C30*%
X122705000Y-108440000D03*
X122705000Y-109990000D03*
%TD*%
D15*
%TO.C,R6*%
X166775000Y-91200000D03*
X169700000Y-91200000D03*
%TD*%
D29*
%TO.C,D3*%
X153937500Y-94500000D03*
X157937500Y-94500000D03*
%TD*%
D39*
%TO.C,J6*%
X102925000Y-110865000D03*
D40*
X105465000Y-110865000D03*
%TD*%
D14*
%TO.C,R27*%
X114400000Y-56675000D03*
X114400000Y-58325000D03*
%TD*%
D20*
%TO.C,RS3*%
X118867500Y-114640000D03*
X115942500Y-114640000D03*
%TD*%
D23*
%TO.C,R7*%
X117900000Y-97850000D03*
X117900000Y-96200000D03*
%TD*%
D10*
%TO.C,C52*%
X153025000Y-130927500D03*
X151475000Y-130927500D03*
%TD*%
D15*
%TO.C,R22*%
X143675000Y-78000000D03*
X146600000Y-78000000D03*
%TD*%
%TO.C,R45*%
X141137500Y-52400000D03*
X144062500Y-52400000D03*
%TD*%
D48*
%TO.C,U4*%
X134105000Y-128040000D03*
D49*
X134105000Y-125500000D03*
X126485000Y-125500000D03*
X126485000Y-128040000D03*
%TD*%
D50*
%TO.C,C32*%
X142900000Y-114265000D03*
X141000000Y-114265000D03*
%TD*%
D15*
%TO.C,R63*%
X147275000Y-146000000D03*
X150200000Y-146000000D03*
%TD*%
D29*
%TO.C,D7*%
X178137500Y-94500000D03*
X182137500Y-94500000D03*
%TD*%
D50*
%TO.C,C33*%
X142900000Y-116665000D03*
X141000000Y-116665000D03*
%TD*%
D17*
%TO.C,R10*%
X104487500Y-101780000D03*
X106137500Y-101780000D03*
%TD*%
D16*
%TO.C,C2*%
X113600000Y-84650000D03*
X113600000Y-86550000D03*
%TD*%
D17*
%TO.C,R23*%
X108475000Y-91100000D03*
X110125000Y-91100000D03*
%TD*%
D10*
%TO.C,C38*%
X114780000Y-118340000D03*
X113230000Y-118340000D03*
%TD*%
D15*
%TO.C,R65*%
X157175000Y-146000000D03*
X160100000Y-146000000D03*
%TD*%
D21*
%TO.C,C20*%
X120500000Y-55125000D03*
X120500000Y-56675000D03*
%TD*%
D13*
%TO.C,C39*%
X121205000Y-122815000D03*
X121205000Y-121265000D03*
%TD*%
D23*
%TO.C,R68*%
X162200000Y-132015000D03*
X162200000Y-130365000D03*
%TD*%
D27*
%TO.C,R57*%
X116925000Y-126265000D03*
X115275000Y-126265000D03*
%TD*%
D20*
%TO.C,R16*%
X177400000Y-78000000D03*
X174475000Y-78000000D03*
%TD*%
D41*
%TO.C,U8*%
X114225000Y-144200000D03*
X114225000Y-145150000D03*
X114225000Y-146100000D03*
X116500000Y-146100000D03*
X116500000Y-144200000D03*
%TD*%
D12*
%TO.C,C6*%
X162737500Y-85400000D03*
X167837500Y-85400000D03*
%TD*%
D23*
%TO.C,R53*%
X119305000Y-122865000D03*
X119305000Y-121215000D03*
%TD*%
D20*
%TO.C,R38*%
X180862500Y-52400000D03*
X177937500Y-52400000D03*
%TD*%
D34*
%TO.C,D1*%
X108425000Y-97600000D03*
X110000000Y-97600000D03*
%TD*%
%TO.C,D8*%
X104512500Y-104100000D03*
X106087500Y-104100000D03*
%TD*%
D28*
%TO.C,D14*%
X112387500Y-69400000D03*
X110812500Y-69400000D03*
%TD*%
D13*
%TO.C,C25*%
X114700000Y-69975000D03*
X114700000Y-68425000D03*
%TD*%
%TO.C,C26*%
X121700000Y-69975000D03*
X121700000Y-68425000D03*
%TD*%
D20*
%TO.C,R35*%
X191262500Y-52400000D03*
X188337500Y-52400000D03*
%TD*%
D15*
%TO.C,R74*%
X172175000Y-146000000D03*
X175100000Y-146000000D03*
%TD*%
D14*
%TO.C,R48*%
X122705000Y-111690000D03*
X122705000Y-113340000D03*
%TD*%
D17*
%TO.C,R75*%
X138375000Y-139465000D03*
X140025000Y-139465000D03*
%TD*%
D25*
%TO.C,D12*%
X154100000Y-67500000D03*
X150100000Y-67500000D03*
%TD*%
D17*
%TO.C,R76*%
X151425000Y-137627500D03*
X153075000Y-137627500D03*
%TD*%
D16*
%TO.C,C35*%
X114305000Y-109590000D03*
X114305000Y-111490000D03*
%TD*%
D14*
%TO.C,R51*%
X156400000Y-109315000D03*
X156400000Y-110965000D03*
%TD*%
D16*
%TO.C,C43*%
X177500000Y-124650000D03*
X177500000Y-126550000D03*
%TD*%
D15*
%TO.C,R62*%
X142275000Y-146000000D03*
X145200000Y-146000000D03*
%TD*%
D51*
%TO.C,C34*%
X151000000Y-109265000D03*
X151000000Y-114665000D03*
%TD*%
D15*
%TO.C,R42*%
X156637500Y-52400000D03*
X159562500Y-52400000D03*
%TD*%
D17*
%TO.C,R77*%
X177575000Y-146000000D03*
X179225000Y-146000000D03*
%TD*%
D15*
%TO.C,R71*%
X188631250Y-145500000D03*
X191556250Y-145500000D03*
%TD*%
D26*
%TO.C,T2*%
X123445000Y-55550000D03*
X123445000Y-58050000D03*
X123445000Y-60550000D03*
X123445000Y-63050000D03*
X137155000Y-63050000D03*
X137155000Y-60550000D03*
X137155000Y-58050000D03*
X137155000Y-55550000D03*
%TD*%
D15*
%TO.C,R70*%
X167175000Y-146000000D03*
X170100000Y-146000000D03*
%TD*%
D27*
%TO.C,R26*%
X112425000Y-67700000D03*
X110775000Y-67700000D03*
%TD*%
D30*
%TO.C,Q2*%
X117920000Y-63357500D03*
X117920000Y-63997500D03*
X117920000Y-64657500D03*
X117920000Y-65297500D03*
D31*
X119745000Y-64327500D03*
%TD*%
D29*
%TO.C,D5*%
X161937500Y-94500000D03*
X165937500Y-94500000D03*
%TD*%
D13*
%TO.C,C10*%
X112600000Y-97875000D03*
X112600000Y-96325000D03*
%TD*%
D52*
%TO.C,J7*%
X193725000Y-136420000D03*
D38*
X193725000Y-132460000D03*
X193725000Y-128500000D03*
X193725000Y-124540000D03*
X193725000Y-120580000D03*
%TD*%
D13*
%TO.C,C5*%
X121600000Y-97800000D03*
X121600000Y-96250000D03*
%TD*%
D17*
%TO.C,R1*%
X108350000Y-95800000D03*
X110000000Y-95800000D03*
%TD*%
D10*
%TO.C,C29*%
X115875000Y-73600000D03*
X114325000Y-73600000D03*
%TD*%
D17*
%TO.C,R36*%
X124250000Y-76000000D03*
X125900000Y-76000000D03*
%TD*%
D23*
%TO.C,R32*%
X116800000Y-70000000D03*
X116800000Y-68350000D03*
%TD*%
D15*
%TO.C,R9*%
X184975000Y-94500000D03*
X187900000Y-94500000D03*
%TD*%
D11*
%TO.C,C47*%
X136325000Y-133665000D03*
X137875000Y-133665000D03*
%TD*%
M02*
