M48
; DRILL file {KiCad 9.0.0} date 2025-10-26T21:30:55-0700
; FORMAT={-:-/ absolute / inch / decimal}
; #@! TF.CreationDate,2025-10-26T21:30:55-07:00
; #@! TF.GenerationSoftware,Kicad,Pcbnew,9.0.0
; #@! TF.FileFunction,Plated,1,2,PTH
FMAT,2
INCH
; #@! TA.AperFunction,Plated,PTH,ViaDrill
T1C0.0118
; #@! TA.AperFunction,Plated,PTH,ComponentDrill
T2C0.0315
; #@! TA.AperFunction,Plated,PTH,ComponentDrill
T3C0.0394
; #@! TA.AperFunction,Plated,PTH,ComponentDrill
T4C0.0709
%
G90
G05
T1
X4.0Y-3.7913
X4.0354Y-2.3465
X4.0354Y-2.437
X4.0669Y-2.5157
X4.0827Y-2.5433
X4.1299Y-3.685
X4.1457Y-2.5591
X4.1693Y-3.8701
X4.2362Y-3.4094
X4.2598Y-2.8465
X4.2638Y-3.5472
X4.2756Y-4.0236
X4.2756Y-4.1575
X4.2992Y-3.6417
X4.3019Y-3.3752
X4.3268Y-5.8189
X4.3465Y-3.0433
X4.3504Y-2.815
X4.3504Y-2.9764
X4.3504Y-3.0984
X4.3504Y-4.5354
X4.3583Y-4.0079
X4.3583Y-4.6299
X4.3701Y-3.311
X4.378Y-3.815
X4.378Y-3.8622
X4.3858Y-3.7323
X4.3996Y-5.1398
X4.4094Y-4.4213
X4.4094Y-5.563
X4.4134Y-2.815
X4.4173Y-5.8189
X4.4488Y-3.9094
X4.4685Y-3.5157
X4.4685Y-4.5984
X4.4803Y-2.626
X4.4882Y-4.1339
X4.4921Y-4.5197
X4.4921Y-5.0079
X4.4921Y-5.0906
X4.4961Y-4.4528
X4.5Y-4.7598
X4.5118Y-2.4961
X4.5157Y-2.5276
X4.5157Y-3.5276
X4.5157Y-3.6496
X4.5236Y-2.626
X4.5551Y-2.4409
X4.5551Y-3.5079
X4.5906Y-2.1398
X4.5984Y-3.5276
X4.5984Y-4.0748
X4.6083Y-2.3878
X4.6181Y-2.8307
X4.622Y-4.4528
X4.6417Y-2.9843
X4.6496Y-3.4094
X4.6575Y-5.815
X4.6577Y-4.9228
X4.6732Y-5.0866
X4.6811Y-2.2717
X4.685Y-2.2362
X4.689Y-3.0079
X4.7264Y-3.9154
X4.7283Y-4.7323
X4.7346Y-4.2693
X4.7441Y-5.815
X4.748Y-4.1102
X4.7559Y-2.0551
X4.7638Y-5.2795
X4.7677Y-2.0984
X4.7835Y-5.0774
X4.7913Y-2.8031
X4.7913Y-5.3189
X4.7992Y-2.0512
X4.8071Y-4.6969
X4.815Y-5.0774
X4.8169Y-2.8327
X4.8189Y-4.9764
X4.8268Y-3.8898
X4.8316Y-4.871
X4.8425Y-2.0433
X4.8425Y-2.8819
X4.8465Y-5.815
X4.878Y-4.1142
X4.8819Y-5.5787
X4.8858Y-4.7047
X4.8976Y-4.8425
X4.9134Y-3.0591
X4.9213Y-5.5787
X4.9488Y-5.1693
X4.9488Y-5.2126
X4.9882Y-5.1693
X4.9882Y-5.2126
X4.9921Y-4.8701
X5.4094Y-5.3268
X5.5512Y-3.0709
X6.0906Y-5.3504
X6.374Y-5.2791
X6.4764Y-5.5
X6.5354Y-5.374
X6.6417Y-4.9094
X6.9409Y-4.9075
X6.9528Y-5.748
T2
X4.0709Y-5.1504
X4.0709Y-5.2504
X4.0709Y-5.3504
X4.0787Y-2.6898
X4.0787Y-2.7898
X4.0787Y-2.8898
X4.0827Y-3.4252
X4.0827Y-3.5252
X4.0827Y-3.6252
X4.9797Y-4.9409
X4.9797Y-5.0409
X5.2797Y-4.9409
X5.2797Y-5.0409
X6.2783Y-4.8425
X6.3783Y-4.8425
X6.4783Y-4.8425
X7.6457Y-3.4142
X7.6457Y-3.5142
X7.6457Y-3.6142
T3
X4.0522Y-4.3648
X4.1522Y-4.3648
X4.2648Y-2.0748
X4.3648Y-2.0748
X4.5246Y-3.1654
X4.6246Y-3.1654
X7.3528Y-5.5827
X7.4528Y-5.5827
X7.6732Y-4.1142
X7.685Y-2.4764
T4
X4.1654Y-2.2717
X4.1654Y-2.4276
X7.627Y-4.7472
X7.627Y-4.9031
X7.627Y-5.0591
X7.627Y-5.215
X7.627Y-5.3709
M30
