%TF.GenerationSoftware,KiCad,Pcbnew,9.0.0*%
%TF.CreationDate,2025-03-19T20:57:18-07:00*%
%TF.ProjectId,deflection_board_2,6465666c-6563-4746-996f-6e5f626f6172,rev?*%
%TF.SameCoordinates,Original*%
%TF.FileFunction,Soldermask,Top*%
%TF.FilePolarity,Negative*%
%FSLAX46Y46*%
G04 Gerber Fmt 4.6, Leading zero omitted, Abs format (unit mm)*
G04 Created by KiCad (PCBNEW 9.0.0) date 2025-03-19 20:57:18*
%MOMM*%
%LPD*%
G01*
G04 APERTURE LIST*
G04 Aperture macros list*
%AMRoundRect*
0 Rectangle with rounded corners*
0 $1 Rounding radius*
0 $2 $3 $4 $5 $6 $7 $8 $9 X,Y pos of 4 corners*
0 Add a 4 corners polygon primitive as box body*
4,1,4,$2,$3,$4,$5,$6,$7,$8,$9,$2,$3,0*
0 Add four circle primitives for the rounded corners*
1,1,$1+$1,$2,$3*
1,1,$1+$1,$4,$5*
1,1,$1+$1,$6,$7*
1,1,$1+$1,$8,$9*
0 Add four rect primitives between the rounded corners*
20,1,$1+$1,$2,$3,$4,$5,0*
20,1,$1+$1,$4,$5,$6,$7,0*
20,1,$1+$1,$6,$7,$8,$9,0*
20,1,$1+$1,$8,$9,$2,$3,0*%
G04 Aperture macros list end*
%ADD10RoundRect,0.200000X-0.275000X0.200000X-0.275000X-0.200000X0.275000X-0.200000X0.275000X0.200000X0*%
%ADD11C,3.820000*%
%ADD12C,2.754000*%
%ADD13RoundRect,0.237500X-0.250000X-0.237500X0.250000X-0.237500X0.250000X0.237500X-0.250000X0.237500X0*%
%ADD14RoundRect,0.150000X-0.587500X-0.150000X0.587500X-0.150000X0.587500X0.150000X-0.587500X0.150000X0*%
%ADD15RoundRect,0.250000X0.400000X0.625000X-0.400000X0.625000X-0.400000X-0.625000X0.400000X-0.625000X0*%
%ADD16RoundRect,0.250000X-0.400000X-0.625000X0.400000X-0.625000X0.400000X0.625000X-0.400000X0.625000X0*%
%ADD17RoundRect,0.250000X-0.450000X0.262500X-0.450000X-0.262500X0.450000X-0.262500X0.450000X0.262500X0*%
%ADD18RoundRect,0.150000X0.150000X-0.587500X0.150000X0.587500X-0.150000X0.587500X-0.150000X-0.587500X0*%
%ADD19RoundRect,0.237500X0.250000X0.237500X-0.250000X0.237500X-0.250000X-0.237500X0.250000X-0.237500X0*%
%ADD20RoundRect,0.150000X-0.150000X0.587500X-0.150000X-0.587500X0.150000X-0.587500X0.150000X0.587500X0*%
%ADD21RoundRect,0.200000X0.275000X-0.200000X0.275000X0.200000X-0.275000X0.200000X-0.275000X-0.200000X0*%
%ADD22RoundRect,0.250000X0.625000X-0.400000X0.625000X0.400000X-0.625000X0.400000X-0.625000X-0.400000X0*%
%ADD23C,1.440000*%
%ADD24R,1.700000X1.700000*%
%ADD25O,1.700000X1.700000*%
%ADD26RoundRect,0.250000X-0.625000X0.400000X-0.625000X-0.400000X0.625000X-0.400000X0.625000X0.400000X0*%
%ADD27RoundRect,0.225000X0.250000X-0.225000X0.250000X0.225000X-0.250000X0.225000X-0.250000X-0.225000X0*%
%ADD28RoundRect,0.150000X-0.512500X-0.150000X0.512500X-0.150000X0.512500X0.150000X-0.512500X0.150000X0*%
%ADD29RoundRect,0.237500X-0.237500X0.300000X-0.237500X-0.300000X0.237500X-0.300000X0.237500X0.300000X0*%
%ADD30RoundRect,0.225000X-0.250000X0.225000X-0.250000X-0.225000X0.250000X-0.225000X0.250000X0.225000X0*%
%ADD31RoundRect,0.237500X-0.300000X-0.237500X0.300000X-0.237500X0.300000X0.237500X-0.300000X0.237500X0*%
%ADD32RoundRect,0.150000X0.512500X0.150000X-0.512500X0.150000X-0.512500X-0.150000X0.512500X-0.150000X0*%
%ADD33RoundRect,0.150000X0.150000X-0.825000X0.150000X0.825000X-0.150000X0.825000X-0.150000X-0.825000X0*%
%ADD34RoundRect,0.225000X-0.225000X-0.250000X0.225000X-0.250000X0.225000X0.250000X-0.225000X0.250000X0*%
%ADD35RoundRect,0.237500X-0.237500X0.250000X-0.237500X-0.250000X0.237500X-0.250000X0.237500X0.250000X0*%
%ADD36RoundRect,0.237500X0.237500X-0.300000X0.237500X0.300000X-0.237500X0.300000X-0.237500X-0.300000X0*%
%ADD37RoundRect,0.237500X0.237500X-0.250000X0.237500X0.250000X-0.237500X0.250000X-0.237500X-0.250000X0*%
%ADD38RoundRect,0.250000X-1.600000X0.300000X-1.600000X-0.300000X1.600000X-0.300000X1.600000X0.300000X0*%
%ADD39RoundRect,0.200000X0.200000X0.275000X-0.200000X0.275000X-0.200000X-0.275000X0.200000X-0.275000X0*%
%ADD40RoundRect,0.250000X-1.850000X1.330000X-1.850000X-1.330000X1.850000X-1.330000X1.850000X1.330000X0*%
%ADD41O,4.200000X3.160000*%
G04 APERTURE END LIST*
D10*
%TO.C,R46*%
X151150000Y-135395000D03*
X151150000Y-137045000D03*
%TD*%
D11*
%TO.C,J6*%
X143750000Y-98750000D03*
X143750000Y-108750000D03*
X139250000Y-103750000D03*
D12*
X143750000Y-103750000D03*
%TD*%
D13*
%TO.C,R33*%
X186012500Y-135745000D03*
X187837500Y-135745000D03*
%TD*%
D14*
%TO.C,Q12*%
X194068750Y-99384045D03*
X194068750Y-101284045D03*
X195943750Y-100334045D03*
%TD*%
%TO.C,Q19*%
X193737500Y-113545000D03*
X193737500Y-115445000D03*
X195612500Y-114495000D03*
%TD*%
D15*
%TO.C,R39*%
X205225000Y-137745000D03*
X202125000Y-137745000D03*
%TD*%
D16*
%TO.C,R38*%
X202125000Y-150495000D03*
X205225000Y-150495000D03*
%TD*%
D17*
%TO.C,R52*%
X165000000Y-119000000D03*
X165000000Y-120825000D03*
%TD*%
D18*
%TO.C,Q30*%
X197975000Y-150620000D03*
X199875000Y-150620000D03*
X198925000Y-148745000D03*
%TD*%
D15*
%TO.C,R19*%
X205306250Y-92834045D03*
X202206250Y-92834045D03*
%TD*%
D19*
%TO.C,R59*%
X158662500Y-81750000D03*
X156837500Y-81750000D03*
%TD*%
D20*
%TO.C,Q3*%
X192093750Y-76902252D03*
X190193750Y-76902252D03*
X191143750Y-78777252D03*
%TD*%
D21*
%TO.C,R53*%
X147750000Y-107575000D03*
X147750000Y-105925000D03*
%TD*%
D22*
%TO.C,R32*%
X183675000Y-141995000D03*
X183675000Y-138895000D03*
%TD*%
D15*
%TO.C,R29*%
X205225000Y-115245000D03*
X202125000Y-115245000D03*
%TD*%
D18*
%TO.C,Q29*%
X197975000Y-142120000D03*
X199875000Y-142120000D03*
X198925000Y-140245000D03*
%TD*%
D15*
%TO.C,R35*%
X205225000Y-141995000D03*
X202125000Y-141995000D03*
%TD*%
D23*
%TO.C,RV8*%
X152400000Y-126720000D03*
X152400000Y-129260000D03*
X152400000Y-131800000D03*
%TD*%
D24*
%TO.C,J4*%
X176750000Y-142975000D03*
D25*
X176750000Y-145515000D03*
X176750000Y-148055000D03*
%TD*%
D26*
%TO.C,R1*%
X186643750Y-71489752D03*
X186643750Y-74589752D03*
%TD*%
%TO.C,R21*%
X186425000Y-116395000D03*
X186425000Y-119495000D03*
%TD*%
D11*
%TO.C,J7*%
X143750000Y-116500000D03*
X143750000Y-126500000D03*
X139250000Y-121500000D03*
D12*
X143750000Y-121500000D03*
%TD*%
D27*
%TO.C,C21*%
X156650000Y-92245000D03*
X156650000Y-90695000D03*
%TD*%
D15*
%TO.C,R36*%
X195725000Y-140745000D03*
X192625000Y-140745000D03*
%TD*%
D28*
%TO.C,U5*%
X159862500Y-106962500D03*
X159862500Y-107912500D03*
X159862500Y-108862500D03*
X162137500Y-108862500D03*
X162137500Y-106962500D03*
%TD*%
D20*
%TO.C,Q26*%
X191875000Y-144307500D03*
X189975000Y-144307500D03*
X190925000Y-146182500D03*
%TD*%
D15*
%TO.C,R16*%
X195806250Y-95834045D03*
X192706250Y-95834045D03*
%TD*%
D29*
%TO.C,C16*%
X183425000Y-145770000D03*
X183425000Y-147495000D03*
%TD*%
D30*
%TO.C,C30*%
X167250000Y-117475000D03*
X167250000Y-119025000D03*
%TD*%
D13*
%TO.C,R62*%
X163337500Y-94500000D03*
X165162500Y-94500000D03*
%TD*%
D31*
%TO.C,C15*%
X188812500Y-119745000D03*
X190537500Y-119745000D03*
%TD*%
D32*
%TO.C,U1*%
X188031250Y-78789752D03*
X188031250Y-77839752D03*
X188031250Y-76889752D03*
X185756250Y-76889752D03*
X185756250Y-77839752D03*
X185756250Y-78789752D03*
%TD*%
D18*
%TO.C,Q31*%
X197975000Y-137870000D03*
X199875000Y-137870000D03*
X198925000Y-135995000D03*
%TD*%
D29*
%TO.C,C2*%
X181643750Y-72427252D03*
X181643750Y-74152252D03*
%TD*%
D33*
%TO.C,U6*%
X162095000Y-91475000D03*
X163365000Y-91475000D03*
X164635000Y-91475000D03*
X165905000Y-91475000D03*
X165905000Y-86525000D03*
X164635000Y-86525000D03*
X163365000Y-86525000D03*
X162095000Y-86525000D03*
%TD*%
D16*
%TO.C,R42*%
X183956250Y-105084045D03*
X187056250Y-105084045D03*
%TD*%
D22*
%TO.C,R17*%
X195506250Y-106384045D03*
X195506250Y-103284045D03*
%TD*%
D14*
%TO.C,Q2*%
X193956250Y-68639752D03*
X193956250Y-70539752D03*
X195831250Y-69589752D03*
%TD*%
D34*
%TO.C,C25*%
X153475000Y-111750000D03*
X155025000Y-111750000D03*
%TD*%
D31*
%TO.C,C10*%
X188893750Y-97334045D03*
X190618750Y-97334045D03*
%TD*%
%TO.C,C20*%
X188812500Y-142245000D03*
X190537500Y-142245000D03*
%TD*%
D35*
%TO.C,R14*%
X189256250Y-104671545D03*
X189256250Y-106496545D03*
%TD*%
D15*
%TO.C,R25*%
X205225000Y-119495000D03*
X202125000Y-119495000D03*
%TD*%
D23*
%TO.C,RV7*%
X154700000Y-98500000D03*
X157240000Y-98500000D03*
X159780000Y-98500000D03*
%TD*%
D13*
%TO.C,R70*%
X162837500Y-128750000D03*
X164662500Y-128750000D03*
%TD*%
D18*
%TO.C,Q13*%
X198056250Y-97209045D03*
X199956250Y-97209045D03*
X199006250Y-95334045D03*
%TD*%
D36*
%TO.C,C13*%
X193175000Y-128857500D03*
X193175000Y-127132500D03*
%TD*%
D19*
%TO.C,R61*%
X160162500Y-94500000D03*
X158337500Y-94500000D03*
%TD*%
D18*
%TO.C,Q23*%
X197975000Y-115370000D03*
X199875000Y-115370000D03*
X198925000Y-113495000D03*
%TD*%
D29*
%TO.C,C14*%
X181425000Y-117332500D03*
X181425000Y-119057500D03*
%TD*%
D18*
%TO.C,Q6*%
X198193750Y-70464752D03*
X200093750Y-70464752D03*
X199143750Y-68589752D03*
%TD*%
%TO.C,Q25*%
X189725000Y-137932500D03*
X191625000Y-137932500D03*
X190675000Y-136057500D03*
%TD*%
D16*
%TO.C,R10*%
X202343750Y-78839752D03*
X205443750Y-78839752D03*
%TD*%
D19*
%TO.C,R65*%
X159912500Y-139250000D03*
X158087500Y-139250000D03*
%TD*%
D16*
%TO.C,R40*%
X202125000Y-146245000D03*
X205225000Y-146245000D03*
%TD*%
D22*
%TO.C,R4*%
X195643750Y-83889752D03*
X195643750Y-80789752D03*
%TD*%
D17*
%TO.C,R51*%
X165000000Y-115250000D03*
X165000000Y-117075000D03*
%TD*%
D32*
%TO.C,U2*%
X187893750Y-101284045D03*
X187893750Y-100334045D03*
X187893750Y-99384045D03*
X185618750Y-99384045D03*
X185618750Y-100334045D03*
X185618750Y-101284045D03*
%TD*%
%TO.C,U3*%
X187812500Y-123695000D03*
X187812500Y-122745000D03*
X187812500Y-121795000D03*
X185537500Y-121795000D03*
X185537500Y-122745000D03*
X185537500Y-123695000D03*
%TD*%
D13*
%TO.C,R23*%
X186012500Y-113245000D03*
X187837500Y-113245000D03*
%TD*%
D22*
%TO.C,R27*%
X195425000Y-128795000D03*
X195425000Y-125695000D03*
%TD*%
D27*
%TO.C,C22*%
X156400000Y-136995000D03*
X156400000Y-135445000D03*
%TD*%
D13*
%TO.C,R5*%
X186231250Y-68339752D03*
X188056250Y-68339752D03*
%TD*%
D14*
%TO.C,Q4*%
X194206250Y-76889752D03*
X194206250Y-78789752D03*
X196081250Y-77839752D03*
%TD*%
D16*
%TO.C,R8*%
X202343750Y-83089752D03*
X205443750Y-83089752D03*
%TD*%
%TO.C,R44*%
X183875000Y-149995000D03*
X186975000Y-149995000D03*
%TD*%
D26*
%TO.C,R11*%
X186506250Y-93984045D03*
X186506250Y-97084045D03*
%TD*%
D16*
%TO.C,R28*%
X202125000Y-127995000D03*
X205225000Y-127995000D03*
%TD*%
D37*
%TO.C,R69*%
X156500000Y-131162500D03*
X156500000Y-129337500D03*
%TD*%
D15*
%TO.C,R3*%
X195943750Y-73339752D03*
X192843750Y-73339752D03*
%TD*%
D22*
%TO.C,R22*%
X183675000Y-119495000D03*
X183675000Y-116395000D03*
%TD*%
D34*
%TO.C,C27*%
X153475000Y-104500000D03*
X155025000Y-104500000D03*
%TD*%
D14*
%TO.C,Q20*%
X193987500Y-121795000D03*
X193987500Y-123695000D03*
X195862500Y-122745000D03*
%TD*%
D16*
%TO.C,R41*%
X184093750Y-82589752D03*
X187193750Y-82589752D03*
%TD*%
D18*
%TO.C,Q16*%
X198056250Y-101396545D03*
X199956250Y-101396545D03*
X199006250Y-99521545D03*
%TD*%
D29*
%TO.C,C9*%
X181506250Y-94921545D03*
X181506250Y-96646545D03*
%TD*%
D30*
%TO.C,C26*%
X167250000Y-107137500D03*
X167250000Y-108687500D03*
%TD*%
D22*
%TO.C,R37*%
X195425000Y-151295000D03*
X195425000Y-148195000D03*
%TD*%
D36*
%TO.C,C4*%
X191393750Y-83952252D03*
X191393750Y-82227252D03*
%TD*%
D24*
%TO.C,J1*%
X177000000Y-75725000D03*
D25*
X177000000Y-78265000D03*
X177000000Y-80805000D03*
%TD*%
D33*
%TO.C,U7*%
X161845000Y-136225000D03*
X163115000Y-136225000D03*
X164385000Y-136225000D03*
X165655000Y-136225000D03*
X165655000Y-131275000D03*
X164385000Y-131275000D03*
X163115000Y-131275000D03*
X161845000Y-131275000D03*
%TD*%
D21*
%TO.C,R48*%
X153900000Y-137045000D03*
X153900000Y-135395000D03*
%TD*%
D29*
%TO.C,C3*%
X183643750Y-78364752D03*
X183643750Y-80089752D03*
%TD*%
%TO.C,C6*%
X183506250Y-100859045D03*
X183506250Y-102584045D03*
%TD*%
D38*
%TO.C,L1*%
X153500000Y-106500000D03*
X153500000Y-109500000D03*
%TD*%
D24*
%TO.C,J3*%
X176750000Y-120725000D03*
D25*
X176750000Y-123265000D03*
X176750000Y-125805000D03*
%TD*%
D32*
%TO.C,U4*%
X187812500Y-146195000D03*
X187812500Y-145245000D03*
X187812500Y-144295000D03*
X185537500Y-144295000D03*
X185537500Y-145245000D03*
X185537500Y-146195000D03*
%TD*%
D18*
%TO.C,Q15*%
X198056250Y-92959045D03*
X199956250Y-92959045D03*
X199006250Y-91084045D03*
%TD*%
D27*
%TO.C,C24*%
X167750000Y-134775000D03*
X167750000Y-133225000D03*
%TD*%
D35*
%TO.C,R24*%
X189175000Y-127082500D03*
X189175000Y-128907500D03*
%TD*%
D29*
%TO.C,C19*%
X181425000Y-139832500D03*
X181425000Y-141557500D03*
%TD*%
D15*
%TO.C,R7*%
X205443750Y-74589752D03*
X202343750Y-74589752D03*
%TD*%
D14*
%TO.C,Q28*%
X193987500Y-144295000D03*
X193987500Y-146195000D03*
X195862500Y-145245000D03*
%TD*%
D18*
%TO.C,Q1*%
X189943750Y-70527252D03*
X191843750Y-70527252D03*
X190893750Y-68652252D03*
%TD*%
D36*
%TO.C,C18*%
X193175000Y-151357500D03*
X193175000Y-149632500D03*
%TD*%
D18*
%TO.C,Q7*%
X198193750Y-83214752D03*
X200093750Y-83214752D03*
X199143750Y-81339752D03*
%TD*%
%TO.C,Q17*%
X189725000Y-115432500D03*
X191625000Y-115432500D03*
X190675000Y-113557500D03*
%TD*%
D23*
%TO.C,RV6*%
X152650000Y-81970000D03*
X152650000Y-84510000D03*
X152650000Y-87050000D03*
%TD*%
D18*
%TO.C,Q9*%
X189806250Y-93021545D03*
X191706250Y-93021545D03*
X190756250Y-91146545D03*
%TD*%
D35*
%TO.C,R34*%
X189175000Y-149582500D03*
X189175000Y-151407500D03*
%TD*%
D27*
%TO.C,C23*%
X168000000Y-90025000D03*
X168000000Y-88475000D03*
%TD*%
D20*
%TO.C,Q10*%
X191956250Y-99396545D03*
X190056250Y-99396545D03*
X191006250Y-101271545D03*
%TD*%
D13*
%TO.C,R68*%
X163087500Y-84000000D03*
X164912500Y-84000000D03*
%TD*%
D31*
%TO.C,C1*%
X189031250Y-74839752D03*
X190756250Y-74839752D03*
%TD*%
D29*
%TO.C,C11*%
X183425000Y-123270000D03*
X183425000Y-124995000D03*
%TD*%
D36*
%TO.C,C5*%
X193393750Y-83952252D03*
X193393750Y-82227252D03*
%TD*%
D22*
%TO.C,R12*%
X183756250Y-97084045D03*
X183756250Y-93984045D03*
%TD*%
D14*
%TO.C,Q11*%
X193818750Y-91134045D03*
X193818750Y-93034045D03*
X195693750Y-92084045D03*
%TD*%
D18*
%TO.C,Q14*%
X198056250Y-105709045D03*
X199956250Y-105709045D03*
X199006250Y-103834045D03*
%TD*%
D35*
%TO.C,R6*%
X189393750Y-82177252D03*
X189393750Y-84002252D03*
%TD*%
D26*
%TO.C,R31*%
X186425000Y-138895000D03*
X186425000Y-141995000D03*
%TD*%
D13*
%TO.C,R13*%
X186093750Y-90834045D03*
X187918750Y-90834045D03*
%TD*%
D18*
%TO.C,Q32*%
X197975000Y-146307500D03*
X199875000Y-146307500D03*
X198925000Y-144432500D03*
%TD*%
D36*
%TO.C,C17*%
X191175000Y-151357500D03*
X191175000Y-149632500D03*
%TD*%
D10*
%TO.C,R45*%
X151400000Y-90645000D03*
X151400000Y-92295000D03*
%TD*%
D13*
%TO.C,R66*%
X163087500Y-139250000D03*
X164912500Y-139250000D03*
%TD*%
D16*
%TO.C,R20*%
X202206250Y-101334045D03*
X205306250Y-101334045D03*
%TD*%
D36*
%TO.C,C7*%
X191256250Y-106446545D03*
X191256250Y-104721545D03*
%TD*%
D19*
%TO.C,R63*%
X158412500Y-126500000D03*
X156587500Y-126500000D03*
%TD*%
D15*
%TO.C,R26*%
X195725000Y-118245000D03*
X192625000Y-118245000D03*
%TD*%
D18*
%TO.C,Q5*%
X198193750Y-74714752D03*
X200093750Y-74714752D03*
X199143750Y-72839752D03*
%TD*%
D36*
%TO.C,C8*%
X193256250Y-106446545D03*
X193256250Y-104721545D03*
%TD*%
D24*
%TO.C,J2*%
X176750000Y-98225000D03*
D25*
X176750000Y-100765000D03*
X176750000Y-103305000D03*
%TD*%
D39*
%TO.C,R54*%
X148825000Y-120500000D03*
X147175000Y-120500000D03*
%TD*%
D21*
%TO.C,R47*%
X154150000Y-92295000D03*
X154150000Y-90645000D03*
%TD*%
D18*
%TO.C,Q8*%
X198193750Y-78902252D03*
X200093750Y-78902252D03*
X199143750Y-77027252D03*
%TD*%
D16*
%TO.C,R30*%
X202125000Y-123745000D03*
X205225000Y-123745000D03*
%TD*%
D15*
%TO.C,R15*%
X205306250Y-97084045D03*
X202206250Y-97084045D03*
%TD*%
D37*
%TO.C,R67*%
X156750000Y-86412500D03*
X156750000Y-84587500D03*
%TD*%
D18*
%TO.C,Q21*%
X197975000Y-119620000D03*
X199875000Y-119620000D03*
X198925000Y-117745000D03*
%TD*%
D28*
%TO.C,U8*%
X160112500Y-116875000D03*
X160112500Y-117825000D03*
X160112500Y-118775000D03*
X162387500Y-118775000D03*
X162387500Y-116875000D03*
%TD*%
D22*
%TO.C,R2*%
X183893750Y-74589752D03*
X183893750Y-71489752D03*
%TD*%
D15*
%TO.C,R9*%
X205443750Y-70339752D03*
X202343750Y-70339752D03*
%TD*%
D18*
%TO.C,Q24*%
X197975000Y-123807500D03*
X199875000Y-123807500D03*
X198925000Y-121932500D03*
%TD*%
D17*
%TO.C,R50*%
X165000000Y-108750000D03*
X165000000Y-110575000D03*
%TD*%
D14*
%TO.C,Q27*%
X193737500Y-136045000D03*
X193737500Y-137945000D03*
X195612500Y-136995000D03*
%TD*%
D17*
%TO.C,R49*%
X165000000Y-105000000D03*
X165000000Y-106825000D03*
%TD*%
D20*
%TO.C,Q18*%
X191875000Y-121807500D03*
X189975000Y-121807500D03*
X190925000Y-123682500D03*
%TD*%
D36*
%TO.C,C12*%
X191175000Y-128857500D03*
X191175000Y-127132500D03*
%TD*%
D23*
%TO.C,RV9*%
X154450000Y-143250000D03*
X156990000Y-143250000D03*
X159530000Y-143250000D03*
%TD*%
D16*
%TO.C,R18*%
X202206250Y-105584045D03*
X205306250Y-105584045D03*
%TD*%
D18*
%TO.C,Q22*%
X197975000Y-128120000D03*
X199875000Y-128120000D03*
X198925000Y-126245000D03*
%TD*%
D16*
%TO.C,R43*%
X183875000Y-127495000D03*
X186975000Y-127495000D03*
%TD*%
D40*
%TO.C,J5*%
X219000000Y-94660000D03*
D41*
X219000000Y-98620000D03*
X219000000Y-102580000D03*
X219000000Y-106540000D03*
X219000000Y-110500000D03*
X219000000Y-114460000D03*
X219000000Y-118420000D03*
X219000000Y-122380000D03*
X219000000Y-126340000D03*
%TD*%
M02*
