%TF.GenerationSoftware,KiCad,Pcbnew,9.0.0*%
%TF.CreationDate,2025-03-19T20:57:18-07:00*%
%TF.ProjectId,deflection_board_2,6465666c-6563-4746-996f-6e5f626f6172,rev?*%
%TF.SameCoordinates,Original*%
%TF.FileFunction,Copper,L2,Bot*%
%TF.FilePolarity,Positive*%
%FSLAX46Y46*%
G04 Gerber Fmt 4.6, Leading zero omitted, Abs format (unit mm)*
G04 Created by KiCad (PCBNEW 9.0.0) date 2025-03-19 20:57:18*
%MOMM*%
%LPD*%
G01*
G04 APERTURE LIST*
G04 Aperture macros list*
%AMRoundRect*
0 Rectangle with rounded corners*
0 $1 Rounding radius*
0 $2 $3 $4 $5 $6 $7 $8 $9 X,Y pos of 4 corners*
0 Add a 4 corners polygon primitive as box body*
4,1,4,$2,$3,$4,$5,$6,$7,$8,$9,$2,$3,0*
0 Add four circle primitives for the rounded corners*
1,1,$1+$1,$2,$3*
1,1,$1+$1,$4,$5*
1,1,$1+$1,$6,$7*
1,1,$1+$1,$8,$9*
0 Add four rect primitives between the rounded corners*
20,1,$1+$1,$2,$3,$4,$5,0*
20,1,$1+$1,$4,$5,$6,$7,0*
20,1,$1+$1,$6,$7,$8,$9,0*
20,1,$1+$1,$8,$9,$2,$3,0*%
G04 Aperture macros list end*
%TA.AperFunction,ComponentPad*%
%ADD10C,3.616000*%
%TD*%
%TA.AperFunction,ComponentPad*%
%ADD11C,2.550000*%
%TD*%
%TA.AperFunction,ComponentPad*%
%ADD12C,1.440000*%
%TD*%
%TA.AperFunction,ComponentPad*%
%ADD13R,1.700000X1.700000*%
%TD*%
%TA.AperFunction,ComponentPad*%
%ADD14O,1.700000X1.700000*%
%TD*%
%TA.AperFunction,ComponentPad*%
%ADD15RoundRect,0.250000X-1.850000X1.330000X-1.850000X-1.330000X1.850000X-1.330000X1.850000X1.330000X0*%
%TD*%
%TA.AperFunction,ComponentPad*%
%ADD16O,4.200000X3.160000*%
%TD*%
%TA.AperFunction,ViaPad*%
%ADD17C,0.600000*%
%TD*%
%TA.AperFunction,Conductor*%
%ADD18C,0.500000*%
%TD*%
G04 APERTURE END LIST*
D10*
%TO.P,J6,1A,1*%
%TO.N,GND*%
X143750000Y-98750000D03*
%TO.P,J6,1B,1*%
X143750000Y-108750000D03*
%TO.P,J6,1C,1*%
X139250000Y-103750000D03*
D11*
%TO.P,J6,2,2*%
%TO.N,/X Pre-amp/INPUT*%
X143750000Y-103750000D03*
%TD*%
D12*
%TO.P,RV8,1,1*%
%TO.N,Net-(R63-Pad2)*%
X152400000Y-126720000D03*
%TO.P,RV8,2,2*%
%TO.N,Net-(R69-Pad2)*%
X152400000Y-129260000D03*
%TO.P,RV8,3,3*%
%TO.N,Net-(R46-Pad1)*%
X152400000Y-131800000D03*
%TD*%
D13*
%TO.P,J4,1,Pin_1*%
%TO.N,Y2_INPUT*%
X176750000Y-142975000D03*
D14*
%TO.P,J4,2,Pin_2*%
%TO.N,/Deflection Amp Y2/INPUT*%
X176750000Y-145515000D03*
%TO.P,J4,3,Pin_3*%
%TO.N,/Y Pre-amp/INV OUTPUT*%
X176750000Y-148055000D03*
%TD*%
D10*
%TO.P,J7,1A,1*%
%TO.N,GND*%
X143750000Y-116500000D03*
%TO.P,J7,1B,1*%
X143750000Y-126500000D03*
%TO.P,J7,1C,1*%
X139250000Y-121500000D03*
D11*
%TO.P,J7,2,2*%
%TO.N,/Y Pre-amp/INPUT*%
X143750000Y-121500000D03*
%TD*%
D12*
%TO.P,RV7,1,1*%
%TO.N,/X Pre-amp/INPUT*%
X154700000Y-98500000D03*
%TO.P,RV7,2,2*%
%TO.N,Net-(R61-Pad2)*%
X157240000Y-98500000D03*
%TO.P,RV7,3,3*%
%TO.N,GND*%
X159780000Y-98500000D03*
%TD*%
D13*
%TO.P,J1,1,Pin_1*%
%TO.N,X1_INPUT*%
X177000000Y-75725000D03*
D14*
%TO.P,J1,2,Pin_2*%
%TO.N,/Deflection Amp X1/INPUT*%
X177000000Y-78265000D03*
%TO.P,J1,3,Pin_3*%
%TO.N,/X Pre-amp/OUTPUT*%
X177000000Y-80805000D03*
%TD*%
D13*
%TO.P,J3,1,Pin_1*%
%TO.N,Y1_INPUT*%
X176750000Y-120725000D03*
D14*
%TO.P,J3,2,Pin_2*%
%TO.N,/Deflection Amp Y1/INPUT*%
X176750000Y-123265000D03*
%TO.P,J3,3,Pin_3*%
%TO.N,/Y Pre-amp/OUTPUT*%
X176750000Y-125805000D03*
%TD*%
D12*
%TO.P,RV6,1,1*%
%TO.N,Net-(R59-Pad2)*%
X152650000Y-81970000D03*
%TO.P,RV6,2,2*%
%TO.N,Net-(R67-Pad2)*%
X152650000Y-84510000D03*
%TO.P,RV6,3,3*%
%TO.N,Net-(R45-Pad1)*%
X152650000Y-87050000D03*
%TD*%
D13*
%TO.P,J2,1,Pin_1*%
%TO.N,X2_INPUT*%
X176750000Y-98225000D03*
D14*
%TO.P,J2,2,Pin_2*%
%TO.N,/Deflection Amp X2/INPUT*%
X176750000Y-100765000D03*
%TO.P,J2,3,Pin_3*%
%TO.N,/X Pre-amp/INV OUTPUT*%
X176750000Y-103305000D03*
%TD*%
D12*
%TO.P,RV9,1,1*%
%TO.N,/Y Pre-amp/INPUT*%
X154450000Y-143250000D03*
%TO.P,RV9,2,2*%
%TO.N,Net-(R65-Pad2)*%
X156990000Y-143250000D03*
%TO.P,RV9,3,3*%
%TO.N,GND*%
X159530000Y-143250000D03*
%TD*%
D15*
%TO.P,J5,1,Pin_1*%
%TO.N,+12V*%
X219000000Y-94660000D03*
D16*
%TO.P,J5,2,Pin_2*%
%TO.N,GND*%
X219000000Y-98620000D03*
%TO.P,J5,3,Pin_3*%
%TO.N,unconnected-(J5-Pin_3-Pad3)*%
X219000000Y-102580000D03*
%TO.P,J5,4,Pin_4*%
%TO.N,+300V*%
X219000000Y-106540000D03*
%TO.P,J5,5,Pin_5*%
%TO.N,unconnected-(J5-Pin_5-Pad5)*%
X219000000Y-110500000D03*
%TO.P,J5,6,Pin_6*%
%TO.N,/Deflection Amp X1/OUTPUT*%
X219000000Y-114460000D03*
%TO.P,J5,7,Pin_7*%
%TO.N,/Deflection Amp X2/OUTPUT*%
X219000000Y-118420000D03*
%TO.P,J5,8,Pin_8*%
%TO.N,/Deflection Amp Y1/OUTPUT*%
X219000000Y-122380000D03*
%TO.P,J5,9,Pin_9*%
%TO.N,/Deflection Amp Y2/OUTPUT*%
X219000000Y-126340000D03*
%TD*%
D17*
%TO.N,+5V*%
X197031250Y-153155248D03*
X197059104Y-108190896D03*
X197250000Y-85750000D03*
X194031250Y-142405248D03*
X194250000Y-75000000D03*
X196938001Y-130561999D03*
X194031250Y-119905248D03*
X169250000Y-107000000D03*
X174750000Y-107000000D03*
%TO.N,/Deflection Amp X2/OUTPUT*%
X209000000Y-101250000D03*
%TO.N,GND*%
X179000000Y-88000000D03*
X188500000Y-72250000D03*
X188500000Y-139750000D03*
X211500000Y-89500000D03*
X163500000Y-99250000D03*
X158750000Y-104500000D03*
X165000000Y-148750000D03*
X171250000Y-93750000D03*
X188250000Y-131750000D03*
X188750000Y-95000000D03*
X151500000Y-111750000D03*
X189000000Y-122500000D03*
X218000000Y-139750000D03*
X158500000Y-88750000D03*
X175000000Y-134500000D03*
X189000000Y-145000000D03*
X150500000Y-118500000D03*
X223000000Y-149000000D03*
X189000000Y-100000000D03*
X189250000Y-77500000D03*
X211750000Y-124500000D03*
X153750000Y-139500000D03*
X158250000Y-133500000D03*
X161250000Y-113000000D03*
X145250000Y-147750000D03*
X142000000Y-86750000D03*
X200500000Y-131250000D03*
X218500000Y-72250000D03*
X181500000Y-78250000D03*
X192500000Y-102500000D03*
X213750000Y-150750000D03*
X188000000Y-86500000D03*
X220250000Y-134250000D03*
X158000000Y-71500000D03*
X202500000Y-86750000D03*
X188500000Y-117250000D03*
X202250000Y-107750000D03*
%TO.N,+10V*%
X182750000Y-76750000D03*
X184781250Y-135655248D03*
X192781250Y-152905248D03*
X182684103Y-99315897D03*
X184781250Y-113155248D03*
X192781250Y-130405248D03*
X182593249Y-121593249D03*
X184862500Y-90744293D03*
X193000000Y-85500000D03*
X185000000Y-68250000D03*
X182593249Y-144093249D03*
X192809103Y-107940897D03*
%TO.N,+300V*%
X204862500Y-90744293D03*
X204781250Y-135655248D03*
X204781250Y-113155248D03*
X205000000Y-68250000D03*
%TO.N,/X Pre-amp/OUTPUT*%
X167750000Y-85750000D03*
%TO.N,/Y Pre-amp/OUTPUT*%
X167500000Y-130500000D03*
%TO.N,+5V*%
X194112500Y-97494293D03*
%TD*%
D18*
%TO.N,+5V*%
X194250000Y-82750000D02*
X197250000Y-85750000D01*
X169250000Y-107000000D02*
X174750000Y-107000000D01*
X197250000Y-94356793D02*
X194112500Y-97494293D01*
X194250000Y-75000000D02*
X194250000Y-82750000D01*
X194031250Y-127655248D02*
X197031250Y-130655248D01*
X197112500Y-116823998D02*
X194031250Y-119905248D01*
X194112500Y-105244293D02*
X197112500Y-108244293D01*
X196938001Y-130561999D02*
X196938001Y-139498497D01*
X196938001Y-139498497D02*
X194031250Y-142405248D01*
X197112500Y-108244293D02*
X197112500Y-116823998D01*
X194031250Y-150155248D02*
X197031250Y-153155248D01*
X194031250Y-142405248D02*
X194031250Y-150155248D01*
X196938001Y-130561999D02*
X197031250Y-130655248D01*
X194112500Y-97494293D02*
X194112500Y-105244293D01*
X197250000Y-85750000D02*
X197250000Y-94356793D01*
X194031250Y-119905248D02*
X194031250Y-127655248D01*
X194031250Y-119905248D02*
X194031250Y-127655248D01*
X194031250Y-127655248D02*
X196938001Y-130561999D01*
%TO.N,/Deflection Amp X2/OUTPUT*%
X216170000Y-118420000D02*
X211500000Y-113750000D01*
X211500000Y-113750000D02*
X211500000Y-103750000D01*
X211500000Y-103750000D02*
X209000000Y-101250000D01*
X219000000Y-118420000D02*
X216170000Y-118420000D01*
%TO.N,+10V*%
X184781250Y-141655248D02*
X184781250Y-141905248D01*
X182593249Y-121593249D02*
X182531250Y-121655248D01*
X184781250Y-141655248D02*
X184781250Y-144905248D01*
X184781250Y-119405248D02*
X182593249Y-121593249D01*
X184781250Y-141655248D02*
X184781250Y-141905248D01*
X184781250Y-141905248D02*
X182593249Y-144093249D01*
X185000000Y-74500000D02*
X182750000Y-76750000D01*
X184725000Y-100131793D02*
X184862500Y-99994293D01*
X184862500Y-96744293D02*
X184862500Y-99994293D01*
X184781250Y-135655248D02*
X184781250Y-141655248D01*
X184781250Y-135655248D02*
X184781250Y-122405248D01*
X192809103Y-107940897D02*
X192862500Y-107994293D01*
X184781250Y-141655248D02*
X184781250Y-144905248D01*
X184781250Y-119155248D02*
X184781250Y-119405248D01*
X184781250Y-122405248D02*
X192781250Y-130405248D01*
X184781250Y-141905248D02*
X182531250Y-144155248D01*
X184781250Y-113155248D02*
X184781250Y-119155248D01*
X184862500Y-77637500D02*
X184862500Y-91000000D01*
X184781250Y-100218750D02*
X184781250Y-113155248D01*
X185000000Y-68250000D02*
X185000000Y-74250000D01*
X185000000Y-74250000D02*
X185000000Y-74500000D01*
X184781250Y-119405248D02*
X182531250Y-121655248D01*
X184781250Y-113155248D02*
X184781250Y-119155248D01*
X185000000Y-77500000D02*
X193000000Y-85500000D01*
X184781250Y-119155248D02*
X184781250Y-119405248D01*
X184862500Y-96994293D02*
X182612500Y-99244293D01*
X184862500Y-77637500D02*
X185000000Y-77500000D01*
X184781250Y-119155248D02*
X184781250Y-122405248D01*
X182593249Y-144093249D02*
X182531250Y-144155248D01*
X184781250Y-135655248D02*
X184781250Y-141655248D01*
X184862500Y-96744293D02*
X184862500Y-96994293D01*
X184862500Y-91000000D02*
X184862500Y-96744293D01*
X184781250Y-119155248D02*
X184781250Y-122405248D01*
X184781250Y-144905248D02*
X192781250Y-152905248D01*
X184781250Y-122405248D02*
X192781250Y-130405248D01*
X184934103Y-100065897D02*
X192809103Y-107940897D01*
X184862500Y-99994293D02*
X184934103Y-100065897D01*
X185000000Y-74250000D02*
X185000000Y-77500000D01*
X184781250Y-144905248D02*
X192781250Y-152905248D01*
X184862500Y-90744293D02*
X184862500Y-91000000D01*
%TO.N,+300V*%
X204862500Y-90744293D02*
X204862500Y-113073998D01*
X205000000Y-90606793D02*
X204862500Y-90744293D01*
X224750000Y-88500000D02*
X208750000Y-72500000D01*
X205000000Y-68250000D02*
X205000000Y-72500000D01*
X224750000Y-105000000D02*
X224750000Y-88500000D01*
X204862500Y-113073998D02*
X204781250Y-113155248D01*
X204781250Y-113155248D02*
X204781250Y-129405248D01*
X219000000Y-106540000D02*
X223210000Y-106540000D01*
X223210000Y-106540000D02*
X224750000Y-105000000D01*
X205000000Y-72500000D02*
X205000000Y-90606793D01*
X204781250Y-129405248D02*
X204781250Y-135512041D01*
X208750000Y-72500000D02*
X205000000Y-72500000D01*
X204781250Y-113155248D02*
X204781250Y-129405248D01*
%TO.N,/X Pre-amp/OUTPUT*%
X167750000Y-85750000D02*
X172055000Y-85750000D01*
X172055000Y-85750000D02*
X177000000Y-80805000D01*
%TO.N,/Y Pre-amp/OUTPUT*%
X167500000Y-130500000D02*
X172055000Y-130500000D01*
X172055000Y-130500000D02*
X176750000Y-125805000D01*
%TD*%
%TA.AperFunction,Conductor*%
%TO.N,GND*%
G36*
X226442539Y-65270185D02*
G01*
X226488294Y-65322989D01*
X226499500Y-65374500D01*
X226499500Y-154375500D01*
X226479815Y-154442539D01*
X226427011Y-154488294D01*
X226375500Y-154499500D01*
X136124500Y-154499500D01*
X136057461Y-154479815D01*
X136011706Y-154427011D01*
X136000500Y-154375500D01*
X136000500Y-143134269D01*
X152979500Y-143134269D01*
X152979500Y-143365730D01*
X153015709Y-143594344D01*
X153087232Y-143814473D01*
X153087233Y-143814476D01*
X153146391Y-143930577D01*
X153176558Y-143989784D01*
X153192318Y-144020713D01*
X153328359Y-144207959D01*
X153328363Y-144207964D01*
X153492035Y-144371636D01*
X153492040Y-144371640D01*
X153655366Y-144490302D01*
X153679290Y-144507684D01*
X153796877Y-144567598D01*
X153885523Y-144612766D01*
X153885526Y-144612767D01*
X153995590Y-144648528D01*
X154105657Y-144684291D01*
X154334269Y-144720500D01*
X154334270Y-144720500D01*
X154565730Y-144720500D01*
X154565731Y-144720500D01*
X154794343Y-144684291D01*
X155014476Y-144612766D01*
X155220710Y-144507684D01*
X155407966Y-144371635D01*
X155571635Y-144207966D01*
X155575817Y-144202209D01*
X155619682Y-144141836D01*
X155675012Y-144099170D01*
X155744625Y-144093191D01*
X155806420Y-144125796D01*
X155820318Y-144141836D01*
X155868359Y-144207959D01*
X155868363Y-144207964D01*
X156032035Y-144371636D01*
X156032040Y-144371640D01*
X156195366Y-144490302D01*
X156219290Y-144507684D01*
X156336877Y-144567598D01*
X156425523Y-144612766D01*
X156425526Y-144612767D01*
X156535590Y-144648528D01*
X156645657Y-144684291D01*
X156874269Y-144720500D01*
X156874270Y-144720500D01*
X157105730Y-144720500D01*
X157105731Y-144720500D01*
X157334343Y-144684291D01*
X157554476Y-144612766D01*
X157760710Y-144507684D01*
X157947966Y-144371635D01*
X158111635Y-144207966D01*
X158114480Y-144204049D01*
X158152257Y-144152056D01*
X158247683Y-144020711D01*
X158260381Y-143995791D01*
X158293609Y-143930576D01*
X158341583Y-143879780D01*
X158409404Y-143862985D01*
X158475539Y-143885522D01*
X158504413Y-143913987D01*
X158507798Y-143918646D01*
X159130000Y-143296445D01*
X159130000Y-143302661D01*
X159157259Y-143404394D01*
X159209920Y-143495606D01*
X159284394Y-143570080D01*
X159375606Y-143622741D01*
X159477339Y-143650000D01*
X159483554Y-143650000D01*
X158861351Y-144272200D01*
X158861352Y-144272201D01*
X158890577Y-144293434D01*
X159061678Y-144380616D01*
X159244315Y-144439959D01*
X159433985Y-144470000D01*
X159626015Y-144470000D01*
X159815684Y-144439959D01*
X159998321Y-144380616D01*
X160169419Y-144293436D01*
X160198646Y-144272201D01*
X160198646Y-144272200D01*
X159576447Y-143650000D01*
X159582661Y-143650000D01*
X159684394Y-143622741D01*
X159775606Y-143570080D01*
X159850080Y-143495606D01*
X159902741Y-143404394D01*
X159930000Y-143302661D01*
X159930000Y-143296446D01*
X160552200Y-143918646D01*
X160552201Y-143918646D01*
X160573436Y-143889419D01*
X160660616Y-143718321D01*
X160719959Y-143535684D01*
X160750000Y-143346015D01*
X160750000Y-143153984D01*
X160719959Y-142964315D01*
X160660616Y-142781678D01*
X160573434Y-142610577D01*
X160552201Y-142581352D01*
X160552200Y-142581351D01*
X159930000Y-143203552D01*
X159930000Y-143197339D01*
X159902741Y-143095606D01*
X159850080Y-143004394D01*
X159775606Y-142929920D01*
X159684394Y-142877259D01*
X159582661Y-142850000D01*
X159576447Y-142850000D01*
X160198646Y-142227798D01*
X160169415Y-142206561D01*
X160121837Y-142182319D01*
X159998321Y-142119383D01*
X159861673Y-142074983D01*
X175149500Y-142074983D01*
X175149500Y-143875001D01*
X175149501Y-143875018D01*
X175160000Y-143977796D01*
X175160001Y-143977799D01*
X175198239Y-144093191D01*
X175215186Y-144144334D01*
X175307152Y-144293436D01*
X175307289Y-144293657D01*
X175436128Y-144422496D01*
X175469613Y-144483819D01*
X175464629Y-144553511D01*
X175448765Y-144583062D01*
X175381132Y-144676151D01*
X175266760Y-144900616D01*
X175188910Y-145140214D01*
X175188910Y-145140215D01*
X175149500Y-145389038D01*
X175149500Y-145640962D01*
X175157181Y-145689457D01*
X175188910Y-145889785D01*
X175266760Y-146129383D01*
X175381132Y-146353848D01*
X175529201Y-146557649D01*
X175529205Y-146557654D01*
X175668870Y-146697319D01*
X175702355Y-146758642D01*
X175697371Y-146828334D01*
X175668870Y-146872681D01*
X175529205Y-147012345D01*
X175529201Y-147012350D01*
X175381132Y-147216151D01*
X175266760Y-147440616D01*
X175188910Y-147680214D01*
X175149500Y-147929038D01*
X175149500Y-148180961D01*
X175188910Y-148429785D01*
X175266760Y-148669383D01*
X175381132Y-148893848D01*
X175529201Y-149097649D01*
X175529205Y-149097654D01*
X175707345Y-149275794D01*
X175707350Y-149275798D01*
X175885117Y-149404952D01*
X175911155Y-149423870D01*
X176054184Y-149496747D01*
X176135616Y-149538239D01*
X176135618Y-149538239D01*
X176135621Y-149538241D01*
X176375215Y-149616090D01*
X176624038Y-149655500D01*
X176624039Y-149655500D01*
X176875961Y-149655500D01*
X176875962Y-149655500D01*
X177124785Y-149616090D01*
X177364379Y-149538241D01*
X177588845Y-149423870D01*
X177792656Y-149275793D01*
X177970793Y-149097656D01*
X178118870Y-148893845D01*
X178233241Y-148669379D01*
X178311090Y-148429785D01*
X178350500Y-148180962D01*
X178350500Y-147929038D01*
X178311090Y-147680215D01*
X178233241Y-147440621D01*
X178233239Y-147440618D01*
X178233239Y-147440616D01*
X178191747Y-147359184D01*
X178118870Y-147216155D01*
X178099952Y-147190117D01*
X177970798Y-147012350D01*
X177970794Y-147012345D01*
X177831130Y-146872681D01*
X177797645Y-146811358D01*
X177802629Y-146741666D01*
X177831130Y-146697319D01*
X177970793Y-146557656D01*
X178118870Y-146353845D01*
X178233241Y-146129379D01*
X178311090Y-145889785D01*
X178350500Y-145640962D01*
X178350500Y-145389038D01*
X178311090Y-145140215D01*
X178233241Y-144900621D01*
X178233239Y-144900618D01*
X178233239Y-144900616D01*
X178118869Y-144676154D01*
X178118867Y-144676151D01*
X178051233Y-144583060D01*
X178027754Y-144517257D01*
X178043579Y-144449203D01*
X178063871Y-144422495D01*
X178068650Y-144417715D01*
X178068656Y-144417712D01*
X178192712Y-144293656D01*
X178284814Y-144144334D01*
X178339999Y-143977797D01*
X178350500Y-143875009D01*
X178350499Y-142074992D01*
X178339999Y-141972203D01*
X178284814Y-141805666D01*
X178192712Y-141656344D01*
X178068656Y-141532288D01*
X177919334Y-141440186D01*
X177752797Y-141385001D01*
X177752795Y-141385000D01*
X177650010Y-141374500D01*
X175849998Y-141374500D01*
X175849981Y-141374501D01*
X175747203Y-141385000D01*
X175747200Y-141385001D01*
X175580668Y-141440185D01*
X175580663Y-141440187D01*
X175431342Y-141532289D01*
X175307289Y-141656342D01*
X175215187Y-141805663D01*
X175215186Y-141805666D01*
X175160001Y-141972203D01*
X175160001Y-141972204D01*
X175160000Y-141972204D01*
X175149500Y-142074983D01*
X159861673Y-142074983D01*
X159815684Y-142060040D01*
X159626015Y-142030000D01*
X159433985Y-142030000D01*
X159244315Y-142060040D01*
X159061678Y-142119383D01*
X158890578Y-142206564D01*
X158861352Y-142227798D01*
X158861351Y-142227798D01*
X159483554Y-142850000D01*
X159477339Y-142850000D01*
X159375606Y-142877259D01*
X159284394Y-142929920D01*
X159209920Y-143004394D01*
X159157259Y-143095606D01*
X159130000Y-143197339D01*
X159130000Y-143203553D01*
X158507798Y-142581351D01*
X158507796Y-142581352D01*
X158504412Y-142586011D01*
X158449083Y-142628678D01*
X158379470Y-142634658D01*
X158317674Y-142602053D01*
X158293608Y-142569421D01*
X158247683Y-142479288D01*
X158152257Y-142347945D01*
X158152254Y-142347942D01*
X158111635Y-142292035D01*
X158111635Y-142292034D01*
X157947966Y-142128365D01*
X157947964Y-142128363D01*
X157947959Y-142128359D01*
X157760713Y-141992318D01*
X157760712Y-141992317D01*
X157760710Y-141992316D01*
X157694638Y-141958650D01*
X157554476Y-141887233D01*
X157554473Y-141887232D01*
X157334344Y-141815709D01*
X157220037Y-141797604D01*
X157105731Y-141779500D01*
X156874269Y-141779500D01*
X156798065Y-141791569D01*
X156645655Y-141815709D01*
X156425526Y-141887232D01*
X156425523Y-141887233D01*
X156219286Y-141992318D01*
X156032040Y-142128359D01*
X156032035Y-142128363D01*
X155868363Y-142292035D01*
X155820318Y-142358164D01*
X155764988Y-142400829D01*
X155695374Y-142406808D01*
X155633579Y-142374202D01*
X155619682Y-142358164D01*
X155571636Y-142292035D01*
X155407964Y-142128363D01*
X155407959Y-142128359D01*
X155220713Y-141992318D01*
X155220712Y-141992317D01*
X155220710Y-141992316D01*
X155154638Y-141958650D01*
X155014476Y-141887233D01*
X155014473Y-141887232D01*
X154794344Y-141815709D01*
X154680037Y-141797604D01*
X154565731Y-141779500D01*
X154334269Y-141779500D01*
X154258065Y-141791569D01*
X154105655Y-141815709D01*
X153885526Y-141887232D01*
X153885523Y-141887233D01*
X153679286Y-141992318D01*
X153492040Y-142128359D01*
X153492035Y-142128363D01*
X153328363Y-142292035D01*
X153328359Y-142292040D01*
X153192318Y-142479286D01*
X153087233Y-142685523D01*
X153087232Y-142685526D01*
X153015709Y-142905655D01*
X152979500Y-143134269D01*
X136000500Y-143134269D01*
X136000500Y-126348718D01*
X141442000Y-126348718D01*
X141442000Y-126651281D01*
X141481491Y-126951233D01*
X141559796Y-127243472D01*
X141559799Y-127243483D01*
X141675574Y-127522989D01*
X141675576Y-127522993D01*
X141826851Y-127785006D01*
X141826852Y-127785007D01*
X141950412Y-127946033D01*
X142670523Y-127225921D01*
X142758415Y-127346893D01*
X142903107Y-127491585D01*
X143024076Y-127579474D01*
X142303965Y-128299585D01*
X142303965Y-128299586D01*
X142464992Y-128423147D01*
X142464993Y-128423148D01*
X142727006Y-128574423D01*
X142727010Y-128574425D01*
X143006516Y-128690200D01*
X143006527Y-128690203D01*
X143298766Y-128768508D01*
X143598718Y-128807999D01*
X143598733Y-128808000D01*
X143901267Y-128808000D01*
X143901281Y-128807999D01*
X144201233Y-128768508D01*
X144493472Y-128690203D01*
X144493483Y-128690200D01*
X144772989Y-128574425D01*
X144772993Y-128574423D01*
X145035006Y-128423148D01*
X145035017Y-128423141D01*
X145196033Y-128299587D01*
X145196033Y-128299585D01*
X144475922Y-127579475D01*
X144596893Y-127491585D01*
X144741585Y-127346893D01*
X144829475Y-127225923D01*
X145549585Y-127946033D01*
X145549587Y-127946033D01*
X145673141Y-127785017D01*
X145673148Y-127785006D01*
X145824423Y-127522993D01*
X145824425Y-127522989D01*
X145940200Y-127243483D01*
X145940203Y-127243472D01*
X146018508Y-126951233D01*
X146057999Y-126651281D01*
X146058000Y-126651267D01*
X146058000Y-126604269D01*
X150929500Y-126604269D01*
X150929500Y-126835731D01*
X150931389Y-126847656D01*
X150965709Y-127064344D01*
X151037232Y-127284473D01*
X151037233Y-127284476D01*
X151142318Y-127490713D01*
X151278359Y-127677959D01*
X151278363Y-127677964D01*
X151442035Y-127841636D01*
X151508164Y-127889682D01*
X151550829Y-127945012D01*
X151556808Y-128014626D01*
X151524202Y-128076421D01*
X151508164Y-128090318D01*
X151442035Y-128138363D01*
X151278363Y-128302035D01*
X151278359Y-128302040D01*
X151142318Y-128489286D01*
X151037233Y-128695523D01*
X151037232Y-128695526D01*
X150965709Y-128915655D01*
X150929500Y-129144269D01*
X150929500Y-129375730D01*
X150965709Y-129604344D01*
X151037232Y-129824473D01*
X151037233Y-129824476D01*
X151079613Y-129907650D01*
X151127892Y-130002402D01*
X151142318Y-130030713D01*
X151278359Y-130217959D01*
X151278363Y-130217964D01*
X151442035Y-130381636D01*
X151508164Y-130429682D01*
X151550829Y-130485012D01*
X151556808Y-130554626D01*
X151524202Y-130616421D01*
X151508164Y-130630318D01*
X151442035Y-130678363D01*
X151278363Y-130842035D01*
X151278359Y-130842040D01*
X151142318Y-131029286D01*
X151037233Y-131235523D01*
X151037232Y-131235526D01*
X150965709Y-131455655D01*
X150929500Y-131684269D01*
X150929500Y-131915730D01*
X150965709Y-132144344D01*
X151037232Y-132364473D01*
X151037233Y-132364476D01*
X151142318Y-132570713D01*
X151278359Y-132757959D01*
X151278363Y-132757964D01*
X151442035Y-132921636D01*
X151442040Y-132921640D01*
X151605366Y-133040302D01*
X151629290Y-133057684D01*
X151764106Y-133126376D01*
X151835523Y-133162766D01*
X151835526Y-133162767D01*
X151945590Y-133198528D01*
X152055657Y-133234291D01*
X152284269Y-133270500D01*
X152284270Y-133270500D01*
X152515730Y-133270500D01*
X152515731Y-133270500D01*
X152744343Y-133234291D01*
X152964476Y-133162766D01*
X153170710Y-133057684D01*
X153357966Y-132921635D01*
X153521635Y-132757966D01*
X153657684Y-132570710D01*
X153762766Y-132364476D01*
X153834291Y-132144343D01*
X153870500Y-131915731D01*
X153870500Y-131684269D01*
X153834291Y-131455657D01*
X153788906Y-131315975D01*
X153762767Y-131235526D01*
X153762766Y-131235523D01*
X153695775Y-131104048D01*
X153657684Y-131029290D01*
X153637438Y-131001423D01*
X153521640Y-130842040D01*
X153521636Y-130842035D01*
X153357964Y-130678363D01*
X153357959Y-130678359D01*
X153291836Y-130630318D01*
X153277932Y-130612288D01*
X153260667Y-130597444D01*
X153257004Y-130585148D01*
X153249170Y-130574988D01*
X153247221Y-130552303D01*
X153240722Y-130530482D01*
X153244288Y-130518157D01*
X153243191Y-130505375D01*
X153253816Y-130485237D01*
X153260146Y-130463366D01*
X153272009Y-130450755D01*
X153275796Y-130443580D01*
X153283155Y-130436603D01*
X153287343Y-130432945D01*
X153337465Y-130396530D01*
X166449500Y-130396530D01*
X166449500Y-130603469D01*
X166489868Y-130806412D01*
X166489870Y-130806420D01*
X166529809Y-130902842D01*
X166569059Y-130997598D01*
X166590232Y-131029286D01*
X166684024Y-131169657D01*
X166830342Y-131315975D01*
X166830345Y-131315977D01*
X167002402Y-131430941D01*
X167193580Y-131510130D01*
X167396530Y-131550499D01*
X167396534Y-131550500D01*
X167396535Y-131550500D01*
X167603466Y-131550500D01*
X167603467Y-131550499D01*
X167806420Y-131510130D01*
X167806884Y-131509938D01*
X167807371Y-131509840D01*
X167812247Y-131508362D01*
X167812392Y-131508842D01*
X167854334Y-131500500D01*
X172153542Y-131500500D01*
X172183153Y-131494609D01*
X172250188Y-131481275D01*
X172346836Y-131462051D01*
X172418448Y-131432388D01*
X172528914Y-131386632D01*
X172692782Y-131277139D01*
X172832139Y-131137782D01*
X172832139Y-131137780D01*
X172842347Y-131127573D01*
X172842348Y-131127570D01*
X176528350Y-127441569D01*
X176589671Y-127408086D01*
X176619166Y-127406087D01*
X176619166Y-127405500D01*
X176875961Y-127405500D01*
X176875962Y-127405500D01*
X177124785Y-127366090D01*
X177364379Y-127288241D01*
X177588845Y-127173870D01*
X177792656Y-127025793D01*
X177970793Y-126847656D01*
X178118870Y-126643845D01*
X178233241Y-126419379D01*
X178311090Y-126179785D01*
X178350500Y-125930962D01*
X178350500Y-125679038D01*
X178311090Y-125430215D01*
X178233241Y-125190621D01*
X178233239Y-125190618D01*
X178233239Y-125190616D01*
X178157752Y-125042466D01*
X178118870Y-124966155D01*
X177998223Y-124800098D01*
X177970798Y-124762350D01*
X177970794Y-124762345D01*
X177831130Y-124622681D01*
X177797645Y-124561358D01*
X177802629Y-124491666D01*
X177831130Y-124447319D01*
X177890651Y-124387798D01*
X177970793Y-124307656D01*
X178118870Y-124103845D01*
X178233241Y-123879379D01*
X178311090Y-123639785D01*
X178350500Y-123390962D01*
X178350500Y-123139038D01*
X178311090Y-122890215D01*
X178233241Y-122650621D01*
X178233239Y-122650618D01*
X178233239Y-122650616D01*
X178122045Y-122432387D01*
X178118870Y-122426155D01*
X178051233Y-122333060D01*
X178027754Y-122267257D01*
X178043579Y-122199203D01*
X178063871Y-122172495D01*
X178068650Y-122167715D01*
X178068656Y-122167712D01*
X178192712Y-122043656D01*
X178284814Y-121894334D01*
X178339999Y-121727797D01*
X178350500Y-121625009D01*
X178350500Y-121556708D01*
X181530750Y-121556708D01*
X181530750Y-121561722D01*
X181530750Y-121753792D01*
X181569197Y-121947076D01*
X181569199Y-121947084D01*
X181644617Y-122129158D01*
X181644622Y-122129168D01*
X181754110Y-122293028D01*
X181754113Y-122293032D01*
X181893465Y-122432384D01*
X181893469Y-122432387D01*
X182057329Y-122541875D01*
X182057333Y-122541877D01*
X182057336Y-122541879D01*
X182239414Y-122617299D01*
X182406910Y-122650616D01*
X182432705Y-122655747D01*
X182432708Y-122655748D01*
X182432710Y-122655748D01*
X182629791Y-122655748D01*
X182655590Y-122650616D01*
X182678134Y-122646131D01*
X182690706Y-122644893D01*
X182690653Y-122644346D01*
X182696708Y-122643749D01*
X182696714Y-122643749D01*
X182899669Y-122603379D01*
X183090847Y-122524190D01*
X183262904Y-122409226D01*
X183409226Y-122262904D01*
X183524190Y-122090847D01*
X183524377Y-122090395D01*
X183524650Y-122089985D01*
X183527063Y-122085473D01*
X183527507Y-122085710D01*
X183529012Y-122083457D01*
X183530111Y-122078407D01*
X183551257Y-122050160D01*
X183569073Y-122032344D01*
X183630395Y-121998863D01*
X183700087Y-122003849D01*
X183756019Y-122045722D01*
X183780434Y-122111187D01*
X183780750Y-122120030D01*
X183780750Y-135300914D01*
X183772407Y-135342855D01*
X183772888Y-135343001D01*
X183771409Y-135347876D01*
X183771312Y-135348364D01*
X183771121Y-135348824D01*
X183771118Y-135348835D01*
X183730750Y-135551778D01*
X183730750Y-135758717D01*
X183771118Y-135961661D01*
X183771121Y-135961672D01*
X183771309Y-135962125D01*
X183771404Y-135962605D01*
X183772889Y-135967499D01*
X183772407Y-135967645D01*
X183780750Y-136009582D01*
X183780750Y-141439464D01*
X183761065Y-141506503D01*
X183744431Y-141527145D01*
X182136338Y-143135237D01*
X182100785Y-143158996D01*
X182101021Y-143159437D01*
X182096547Y-143161827D01*
X182096126Y-143162110D01*
X182095656Y-143162304D01*
X182095647Y-143162309D01*
X181923598Y-143277268D01*
X181923590Y-143277274D01*
X181777273Y-143423591D01*
X181662307Y-143595652D01*
X181583119Y-143786828D01*
X181583117Y-143786836D01*
X181542749Y-143989779D01*
X181542152Y-143995845D01*
X181541604Y-143995791D01*
X181540366Y-144008365D01*
X181530750Y-144056705D01*
X181530750Y-144253792D01*
X181569197Y-144447076D01*
X181569199Y-144447084D01*
X181644617Y-144629158D01*
X181644622Y-144629168D01*
X181754110Y-144793028D01*
X181754113Y-144793032D01*
X181893465Y-144932384D01*
X181893469Y-144932387D01*
X182057329Y-145041875D01*
X182057333Y-145041877D01*
X182057336Y-145041879D01*
X182239414Y-145117299D01*
X182432705Y-145155747D01*
X182432708Y-145155748D01*
X182432710Y-145155748D01*
X182629791Y-145155748D01*
X182646697Y-145152384D01*
X182678134Y-145146131D01*
X182690706Y-145144893D01*
X182690653Y-145144346D01*
X182696708Y-145143749D01*
X182696714Y-145143749D01*
X182899669Y-145103379D01*
X183090847Y-145024190D01*
X183262904Y-144909226D01*
X183409226Y-144762904D01*
X183524190Y-144590847D01*
X183524377Y-144590395D01*
X183524650Y-144589985D01*
X183527063Y-144585473D01*
X183527507Y-144585710D01*
X183529012Y-144583457D01*
X183530111Y-144578407D01*
X183551257Y-144550160D01*
X183569073Y-144532344D01*
X183630395Y-144498863D01*
X183700087Y-144503849D01*
X183756019Y-144545722D01*
X183780434Y-144611187D01*
X183780750Y-144620030D01*
X183780750Y-145003789D01*
X183780750Y-145003791D01*
X183780749Y-145003791D01*
X183819197Y-145197077D01*
X183819200Y-145197087D01*
X183894614Y-145379155D01*
X183894621Y-145379168D01*
X184004109Y-145543028D01*
X184004110Y-145543029D01*
X184004111Y-145543030D01*
X184143468Y-145682387D01*
X184143469Y-145682387D01*
X184150536Y-145689454D01*
X184150535Y-145689454D01*
X184150539Y-145689457D01*
X191823238Y-153362157D01*
X191847000Y-153397717D01*
X191847442Y-153397481D01*
X191849836Y-153401960D01*
X191850115Y-153402378D01*
X191850307Y-153402842D01*
X191850313Y-153402853D01*
X191965272Y-153574903D01*
X192111592Y-153721223D01*
X192111595Y-153721225D01*
X192283652Y-153836189D01*
X192474830Y-153915378D01*
X192677780Y-153955747D01*
X192677784Y-153955748D01*
X192677785Y-153955748D01*
X192884716Y-153955748D01*
X192884717Y-153955747D01*
X193087670Y-153915378D01*
X193278848Y-153836189D01*
X193450905Y-153721225D01*
X193597227Y-153574903D01*
X193712191Y-153402846D01*
X193791380Y-153211668D01*
X193831750Y-153008713D01*
X193831750Y-152801783D01*
X193791380Y-152598828D01*
X193712191Y-152407650D01*
X193597227Y-152235593D01*
X193597225Y-152235590D01*
X193450905Y-152089270D01*
X193278855Y-151974311D01*
X193278844Y-151974305D01*
X193278380Y-151974113D01*
X193277962Y-151973834D01*
X193273483Y-151971440D01*
X193273719Y-151970998D01*
X193238159Y-151947236D01*
X185818069Y-144527146D01*
X185784584Y-144465823D01*
X185781750Y-144439465D01*
X185781750Y-142003793D01*
X185781751Y-142003788D01*
X185781751Y-141806707D01*
X185781750Y-141806701D01*
X185781750Y-141556707D01*
X185781750Y-136009582D01*
X185790092Y-135967645D01*
X185789611Y-135967499D01*
X185791095Y-135962605D01*
X185791191Y-135962125D01*
X185791378Y-135961672D01*
X185791380Y-135961668D01*
X185831750Y-135758713D01*
X185831750Y-135551783D01*
X185791380Y-135348828D01*
X185791188Y-135348364D01*
X185791090Y-135347876D01*
X185789612Y-135343001D01*
X185790092Y-135342855D01*
X185781750Y-135300914D01*
X185781750Y-125120030D01*
X185801435Y-125052991D01*
X185854239Y-125007236D01*
X185923397Y-124997292D01*
X185986953Y-125026317D01*
X185993430Y-125032348D01*
X188926456Y-127965375D01*
X191823238Y-130862157D01*
X191847000Y-130897717D01*
X191847442Y-130897481D01*
X191849836Y-130901960D01*
X191850115Y-130902378D01*
X191850307Y-130902842D01*
X191850313Y-130902853D01*
X191965272Y-131074903D01*
X192111592Y-131221223D01*
X192111595Y-131221225D01*
X192283652Y-131336189D01*
X192474830Y-131415378D01*
X192677317Y-131455655D01*
X192677780Y-131455747D01*
X192677784Y-131455748D01*
X192677785Y-131455748D01*
X192884716Y-131455748D01*
X192884717Y-131455747D01*
X193087670Y-131415378D01*
X193278848Y-131336189D01*
X193450905Y-131221225D01*
X193597227Y-131074903D01*
X193712191Y-130902846D01*
X193791380Y-130711668D01*
X193831750Y-130508713D01*
X193831750Y-130301783D01*
X193791380Y-130098828D01*
X193712191Y-129907650D01*
X193597227Y-129735593D01*
X193597225Y-129735590D01*
X193450905Y-129589270D01*
X193278855Y-129474311D01*
X193278844Y-129474305D01*
X193278380Y-129474113D01*
X193277962Y-129473834D01*
X193273483Y-129471440D01*
X193273719Y-129470998D01*
X193238159Y-129447236D01*
X185818069Y-122027146D01*
X185784584Y-121965823D01*
X185781750Y-121939465D01*
X185781750Y-119801778D01*
X192980750Y-119801778D01*
X192980750Y-120008717D01*
X193021118Y-120211661D01*
X193021121Y-120211672D01*
X193021309Y-120212125D01*
X193021404Y-120212605D01*
X193022889Y-120217499D01*
X193022407Y-120217645D01*
X193030750Y-120259582D01*
X193030750Y-127753789D01*
X193030750Y-127753791D01*
X193030749Y-127753791D01*
X193045055Y-127825706D01*
X193047654Y-127838772D01*
X193053965Y-127870499D01*
X193053965Y-127870500D01*
X193069196Y-127947076D01*
X193069199Y-127947085D01*
X193144614Y-128129155D01*
X193144621Y-128129168D01*
X193254109Y-128293028D01*
X193254110Y-128293029D01*
X193254111Y-128293030D01*
X193393468Y-128432387D01*
X193393469Y-128432387D01*
X193400536Y-128439454D01*
X193400535Y-128439454D01*
X193400539Y-128439457D01*
X194823616Y-129862535D01*
X195901182Y-130940100D01*
X195934667Y-131001423D01*
X195937501Y-131027781D01*
X195937501Y-139032714D01*
X195917816Y-139099753D01*
X195901182Y-139120395D01*
X193574340Y-141447236D01*
X193538787Y-141470995D01*
X193539023Y-141471436D01*
X193534549Y-141473826D01*
X193534128Y-141474109D01*
X193533658Y-141474303D01*
X193533656Y-141474304D01*
X193361592Y-141589272D01*
X193215274Y-141735590D01*
X193100308Y-141907651D01*
X193021120Y-142098827D01*
X193021118Y-142098835D01*
X192980750Y-142301778D01*
X192980750Y-142508717D01*
X193021118Y-142711661D01*
X193021121Y-142711672D01*
X193021309Y-142712125D01*
X193021404Y-142712605D01*
X193022889Y-142717499D01*
X193022407Y-142717645D01*
X193030750Y-142759582D01*
X193030750Y-150253789D01*
X193030750Y-150253791D01*
X193030749Y-150253791D01*
X193069197Y-150447077D01*
X193069200Y-150447087D01*
X193144614Y-150629155D01*
X193144621Y-150629168D01*
X193254109Y-150793028D01*
X193254110Y-150793029D01*
X193254111Y-150793030D01*
X193393468Y-150932387D01*
X193393469Y-150932387D01*
X193400536Y-150939454D01*
X193400535Y-150939454D01*
X193400539Y-150939457D01*
X196073238Y-153612157D01*
X196097000Y-153647717D01*
X196097442Y-153647481D01*
X196099836Y-153651960D01*
X196100115Y-153652378D01*
X196100307Y-153652842D01*
X196100313Y-153652853D01*
X196215272Y-153824903D01*
X196361592Y-153971223D01*
X196361595Y-153971225D01*
X196533652Y-154086189D01*
X196724830Y-154165378D01*
X196927780Y-154205747D01*
X196927784Y-154205748D01*
X196927785Y-154205748D01*
X197134716Y-154205748D01*
X197134717Y-154205747D01*
X197337670Y-154165378D01*
X197528848Y-154086189D01*
X197700905Y-153971225D01*
X197847227Y-153824903D01*
X197962191Y-153652846D01*
X198041380Y-153461668D01*
X198081750Y-153258713D01*
X198081750Y-153051783D01*
X198041380Y-152848828D01*
X197962191Y-152657650D01*
X197847227Y-152485593D01*
X197847225Y-152485590D01*
X197700905Y-152339270D01*
X197528855Y-152224311D01*
X197528844Y-152224305D01*
X197528380Y-152224113D01*
X197527962Y-152223834D01*
X197523483Y-152221440D01*
X197523719Y-152220998D01*
X197488159Y-152197236D01*
X195068069Y-149777146D01*
X195034584Y-149715823D01*
X195031750Y-149689465D01*
X195031750Y-142871030D01*
X195051435Y-142803991D01*
X195068069Y-142783349D01*
X196377112Y-141474307D01*
X197715141Y-140136278D01*
X197824633Y-139972411D01*
X197900053Y-139790332D01*
X197938501Y-139597037D01*
X197938501Y-139399956D01*
X197938501Y-131104048D01*
X197947940Y-131056595D01*
X197993302Y-130947084D01*
X198031750Y-130753789D01*
X198031750Y-130556708D01*
X197993302Y-130363413D01*
X197917882Y-130181334D01*
X197917880Y-130181331D01*
X197917369Y-130180097D01*
X197913308Y-130171510D01*
X197868943Y-130064404D01*
X197868942Y-130064401D01*
X197753978Y-129892344D01*
X197753976Y-129892341D01*
X197607656Y-129746021D01*
X197435606Y-129631062D01*
X197435595Y-129631056D01*
X197435131Y-129630864D01*
X197434713Y-129630585D01*
X197430234Y-129628191D01*
X197430470Y-129627749D01*
X197394910Y-129603987D01*
X196234119Y-128443197D01*
X195068069Y-127277146D01*
X195034584Y-127215823D01*
X195031750Y-127189465D01*
X195031750Y-120371030D01*
X195051435Y-120303991D01*
X195068069Y-120283349D01*
X196475786Y-118875633D01*
X197889640Y-117461779D01*
X197999132Y-117297912D01*
X198074552Y-117115833D01*
X198113001Y-116922538D01*
X198113001Y-116725457D01*
X198113001Y-116720347D01*
X198113000Y-116720321D01*
X198113000Y-113051778D01*
X203730750Y-113051778D01*
X203730750Y-113258717D01*
X203771118Y-113461661D01*
X203771121Y-113461672D01*
X203771309Y-113462125D01*
X203771404Y-113462605D01*
X203772889Y-113467499D01*
X203772407Y-113467645D01*
X203780750Y-113509582D01*
X203780750Y-135300914D01*
X203772407Y-135342855D01*
X203772888Y-135343001D01*
X203771409Y-135347876D01*
X203771312Y-135348364D01*
X203771121Y-135348824D01*
X203771118Y-135348835D01*
X203730750Y-135551778D01*
X203730750Y-135758717D01*
X203771118Y-135961660D01*
X203771120Y-135961668D01*
X203850308Y-136152844D01*
X203965274Y-136324905D01*
X204111592Y-136471223D01*
X204111595Y-136471225D01*
X204283652Y-136586189D01*
X204474830Y-136665378D01*
X204677780Y-136705747D01*
X204677784Y-136705748D01*
X204677785Y-136705748D01*
X204884716Y-136705748D01*
X204884717Y-136705747D01*
X205087670Y-136665378D01*
X205278848Y-136586189D01*
X205450905Y-136471225D01*
X205597227Y-136324903D01*
X205712191Y-136152846D01*
X205791380Y-135961668D01*
X205831750Y-135758713D01*
X205831750Y-135551783D01*
X205791380Y-135348828D01*
X205791188Y-135348364D01*
X205791090Y-135347876D01*
X205789612Y-135343001D01*
X205790092Y-135342855D01*
X205781750Y-135300914D01*
X205781750Y-113509582D01*
X205785712Y-113478488D01*
X205787880Y-113470115D01*
X205791380Y-113461668D01*
X205795717Y-113439861D01*
X205796605Y-113436435D01*
X205797649Y-113434689D01*
X205802078Y-113420086D01*
X205824551Y-113365833D01*
X205863000Y-113172539D01*
X205863000Y-91153689D01*
X205873567Y-91103599D01*
X205877914Y-91093753D01*
X205886632Y-91080707D01*
X205930811Y-90974048D01*
X205962051Y-90898629D01*
X206000500Y-90705334D01*
X206000500Y-90508253D01*
X206000500Y-73624500D01*
X206020185Y-73557461D01*
X206072989Y-73511706D01*
X206124500Y-73500500D01*
X208284218Y-73500500D01*
X208351257Y-73520185D01*
X208371899Y-73536819D01*
X223713181Y-88878101D01*
X223746666Y-88939424D01*
X223749500Y-88965782D01*
X223749500Y-104534218D01*
X223729815Y-104601257D01*
X223713181Y-104621899D01*
X222831899Y-105503181D01*
X222770576Y-105536666D01*
X222744218Y-105539500D01*
X221704981Y-105539500D01*
X221637942Y-105519815D01*
X221597594Y-105477500D01*
X221519846Y-105342837D01*
X221461897Y-105242466D01*
X221275922Y-105000098D01*
X221275917Y-105000092D01*
X221059907Y-104784082D01*
X221059900Y-104784076D01*
X220971486Y-104716234D01*
X220896082Y-104658375D01*
X220854880Y-104601949D01*
X220850725Y-104532203D01*
X220884937Y-104471282D01*
X220896078Y-104461627D01*
X221059902Y-104335922D01*
X221275922Y-104119902D01*
X221461897Y-103877534D01*
X221614646Y-103612965D01*
X221731555Y-103330722D01*
X221810624Y-103035633D01*
X221850500Y-102732749D01*
X221850500Y-102427251D01*
X221810624Y-102124367D01*
X221731555Y-101829278D01*
X221638179Y-101603848D01*
X221614650Y-101547044D01*
X221614642Y-101547027D01*
X221517852Y-101379383D01*
X221461897Y-101282466D01*
X221275922Y-101040098D01*
X221275917Y-101040092D01*
X221059907Y-100824082D01*
X221059900Y-100824076D01*
X220817541Y-100638108D01*
X220817539Y-100638106D01*
X220817534Y-100638103D01*
X220717489Y-100580342D01*
X220686640Y-100562531D01*
X220638425Y-100511963D01*
X220625203Y-100443356D01*
X220651171Y-100378491D01*
X220675271Y-100356195D01*
X220674845Y-100355640D01*
X220894382Y-100187181D01*
X220894391Y-100187174D01*
X221087174Y-99994391D01*
X221087181Y-99994382D01*
X221253168Y-99778066D01*
X221389496Y-99541937D01*
X221389500Y-99541927D01*
X221493840Y-99290029D01*
X221564411Y-99026655D01*
X221585035Y-98870000D01*
X219867904Y-98870000D01*
X219900000Y-98708642D01*
X219900000Y-98531358D01*
X219867904Y-98370000D01*
X221585034Y-98370000D01*
X221564411Y-98213344D01*
X221493840Y-97949970D01*
X221389500Y-97698072D01*
X221389496Y-97698062D01*
X221253168Y-97461933D01*
X221087181Y-97245617D01*
X221087174Y-97245609D01*
X221016222Y-97174657D01*
X220982737Y-97113334D01*
X220987721Y-97043642D01*
X221029593Y-96987709D01*
X221069785Y-96967763D01*
X221223049Y-96923909D01*
X221403407Y-96829698D01*
X221561109Y-96701109D01*
X221689698Y-96543407D01*
X221783909Y-96363049D01*
X221839886Y-96167418D01*
X221850500Y-96048037D01*
X221850499Y-93271964D01*
X221839886Y-93152582D01*
X221783909Y-92956951D01*
X221689698Y-92776593D01*
X221637684Y-92712803D01*
X221561109Y-92618890D01*
X221403409Y-92490304D01*
X221403410Y-92490304D01*
X221403407Y-92490302D01*
X221223049Y-92396091D01*
X221223048Y-92396090D01*
X221223045Y-92396089D01*
X221105829Y-92362550D01*
X221027418Y-92340114D01*
X221027415Y-92340113D01*
X221027413Y-92340113D01*
X220961102Y-92334217D01*
X220908037Y-92329500D01*
X220908032Y-92329500D01*
X217091971Y-92329500D01*
X217091965Y-92329500D01*
X217091964Y-92329501D01*
X217080316Y-92330536D01*
X216972584Y-92340113D01*
X216776954Y-92396089D01*
X216686772Y-92443196D01*
X216596593Y-92490302D01*
X216596591Y-92490303D01*
X216596590Y-92490304D01*
X216438890Y-92618890D01*
X216310304Y-92776590D01*
X216216089Y-92956954D01*
X216160114Y-93152583D01*
X216160113Y-93152586D01*
X216149500Y-93271966D01*
X216149500Y-96048028D01*
X216149501Y-96048034D01*
X216160113Y-96167415D01*
X216216089Y-96363045D01*
X216216090Y-96363048D01*
X216216091Y-96363049D01*
X216310302Y-96543407D01*
X216324224Y-96560481D01*
X216438890Y-96701109D01*
X216532803Y-96777684D01*
X216596593Y-96829698D01*
X216776951Y-96923909D01*
X216930209Y-96967761D01*
X216989245Y-97005127D01*
X217018709Y-97068480D01*
X217009244Y-97137706D01*
X216983778Y-97174657D01*
X216912818Y-97245617D01*
X216746831Y-97461933D01*
X216610503Y-97698062D01*
X216610499Y-97698072D01*
X216506159Y-97949970D01*
X216435588Y-98213344D01*
X216414965Y-98370000D01*
X218132096Y-98370000D01*
X218100000Y-98531358D01*
X218100000Y-98708642D01*
X218132096Y-98870000D01*
X216414965Y-98870000D01*
X216435588Y-99026655D01*
X216506159Y-99290029D01*
X216610499Y-99541927D01*
X216610503Y-99541937D01*
X216746831Y-99778066D01*
X216912818Y-99994382D01*
X216912826Y-99994391D01*
X217105609Y-100187174D01*
X217105617Y-100187181D01*
X217325155Y-100355640D01*
X217324243Y-100356827D01*
X217365049Y-100405644D01*
X217373763Y-100474968D01*
X217343614Y-100537998D01*
X217313359Y-100562530D01*
X217182464Y-100638104D01*
X216940099Y-100824076D01*
X216940092Y-100824082D01*
X216724082Y-101040092D01*
X216724076Y-101040099D01*
X216538106Y-101282461D01*
X216385357Y-101547027D01*
X216385349Y-101547044D01*
X216268445Y-101829277D01*
X216189375Y-102124369D01*
X216149500Y-102427243D01*
X216149500Y-102732756D01*
X216189375Y-103035630D01*
X216268445Y-103330722D01*
X216385349Y-103612955D01*
X216385357Y-103612972D01*
X216464471Y-103750000D01*
X216538103Y-103877534D01*
X216538105Y-103877537D01*
X216538106Y-103877538D01*
X216724076Y-104119900D01*
X216724082Y-104119907D01*
X216940092Y-104335917D01*
X216940099Y-104335923D01*
X217103916Y-104461624D01*
X217145119Y-104518052D01*
X217149274Y-104587798D01*
X217115062Y-104648718D01*
X217103916Y-104658376D01*
X216940099Y-104784076D01*
X216940092Y-104784082D01*
X216724082Y-105000092D01*
X216724076Y-105000099D01*
X216538106Y-105242461D01*
X216385357Y-105507027D01*
X216385349Y-105507044D01*
X216268445Y-105789277D01*
X216189375Y-106084369D01*
X216149500Y-106387243D01*
X216149500Y-106692756D01*
X216189375Y-106995630D01*
X216268445Y-107290722D01*
X216385349Y-107572955D01*
X216385357Y-107572972D01*
X216441178Y-107669655D01*
X216538103Y-107837534D01*
X216538105Y-107837537D01*
X216538106Y-107837538D01*
X216724076Y-108079900D01*
X216724082Y-108079907D01*
X216940092Y-108295917D01*
X216940099Y-108295923D01*
X217103916Y-108421624D01*
X217145119Y-108478052D01*
X217149274Y-108547798D01*
X217115062Y-108608718D01*
X217103916Y-108618376D01*
X216940099Y-108744076D01*
X216940092Y-108744082D01*
X216724082Y-108960092D01*
X216724076Y-108960099D01*
X216538106Y-109202461D01*
X216385357Y-109467027D01*
X216385349Y-109467044D01*
X216268445Y-109749277D01*
X216189375Y-110044369D01*
X216149500Y-110347243D01*
X216149500Y-110652756D01*
X216189375Y-110955630D01*
X216268445Y-111250722D01*
X216385349Y-111532955D01*
X216385357Y-111532972D01*
X216477202Y-111692050D01*
X216538103Y-111797534D01*
X216538105Y-111797537D01*
X216538106Y-111797538D01*
X216724076Y-112039900D01*
X216724082Y-112039907D01*
X216940092Y-112255917D01*
X216940099Y-112255923D01*
X217103916Y-112381624D01*
X217145119Y-112438052D01*
X217149274Y-112507798D01*
X217115062Y-112568718D01*
X217103916Y-112578376D01*
X216940099Y-112704076D01*
X216940092Y-112704082D01*
X216724082Y-112920092D01*
X216724076Y-112920099D01*
X216538106Y-113162461D01*
X216385357Y-113427027D01*
X216385349Y-113427044D01*
X216268445Y-113709277D01*
X216189375Y-114004369D01*
X216149500Y-114307243D01*
X216149500Y-114612756D01*
X216189375Y-114915630D01*
X216268445Y-115210722D01*
X216385349Y-115492955D01*
X216385357Y-115492972D01*
X216477202Y-115652050D01*
X216538103Y-115757534D01*
X216538105Y-115757537D01*
X216538106Y-115757538D01*
X216724076Y-115999900D01*
X216724082Y-115999907D01*
X216940092Y-116215917D01*
X216940099Y-116215923D01*
X217103916Y-116341624D01*
X217145119Y-116398052D01*
X217149274Y-116467798D01*
X217115062Y-116528718D01*
X217103916Y-116538376D01*
X216940099Y-116664076D01*
X216940092Y-116664082D01*
X216724082Y-116880092D01*
X216724076Y-116880099D01*
X216538109Y-117122457D01*
X216538099Y-117122472D01*
X216527133Y-117141466D01*
X216476565Y-117189681D01*
X216407958Y-117202902D01*
X216343094Y-117176933D01*
X216332066Y-117167145D01*
X212536819Y-113371898D01*
X212503334Y-113310575D01*
X212500500Y-113284217D01*
X212500500Y-103651456D01*
X212462052Y-103458170D01*
X212462051Y-103458169D01*
X212462051Y-103458165D01*
X212462049Y-103458160D01*
X212386635Y-103276092D01*
X212386628Y-103276079D01*
X212277139Y-103112218D01*
X212277136Y-103112214D01*
X212134686Y-102969764D01*
X212134655Y-102969735D01*
X209958012Y-100793092D01*
X209934257Y-100757538D01*
X209933814Y-100757776D01*
X209931405Y-100753270D01*
X209931129Y-100752857D01*
X209930941Y-100752402D01*
X209815977Y-100580345D01*
X209815975Y-100580342D01*
X209669657Y-100434024D01*
X209552346Y-100355640D01*
X209497598Y-100319059D01*
X209425937Y-100289376D01*
X209306420Y-100239870D01*
X209306412Y-100239868D01*
X209103469Y-100199500D01*
X209103465Y-100199500D01*
X208896535Y-100199500D01*
X208896530Y-100199500D01*
X208693587Y-100239868D01*
X208693579Y-100239870D01*
X208502403Y-100319058D01*
X208330342Y-100434024D01*
X208184024Y-100580342D01*
X208069058Y-100752403D01*
X207989870Y-100943579D01*
X207989868Y-100943587D01*
X207949500Y-101146530D01*
X207949500Y-101353469D01*
X207989868Y-101556412D01*
X207989870Y-101556420D01*
X208039225Y-101675574D01*
X208069059Y-101747598D01*
X208109184Y-101807649D01*
X208184024Y-101919657D01*
X208330342Y-102065975D01*
X208330345Y-102065977D01*
X208502402Y-102180941D01*
X208502857Y-102181129D01*
X208503270Y-102181405D01*
X208507776Y-102183814D01*
X208507538Y-102184257D01*
X208543092Y-102208012D01*
X210463181Y-104128101D01*
X210496666Y-104189424D01*
X210499500Y-104215782D01*
X210499500Y-113848541D01*
X210500728Y-113854712D01*
X210537949Y-114041836D01*
X210543712Y-114055748D01*
X210547832Y-114065694D01*
X210547833Y-114065699D01*
X210613368Y-114223914D01*
X210613369Y-114223917D01*
X210722859Y-114387780D01*
X210722860Y-114387781D01*
X210722861Y-114387782D01*
X210862218Y-114527139D01*
X210862219Y-114527139D01*
X210869286Y-114534206D01*
X210869285Y-114534206D01*
X210869288Y-114534208D01*
X215392860Y-119057781D01*
X215392861Y-119057782D01*
X215470079Y-119135000D01*
X215532219Y-119197140D01*
X215659654Y-119282289D01*
X215696086Y-119306632D01*
X215802745Y-119350811D01*
X215878164Y-119382051D01*
X216071454Y-119420499D01*
X216071457Y-119420500D01*
X216071459Y-119420500D01*
X216295019Y-119420500D01*
X216362058Y-119440185D01*
X216402406Y-119482500D01*
X216538103Y-119717534D01*
X216538105Y-119717537D01*
X216538106Y-119717538D01*
X216724076Y-119959900D01*
X216724082Y-119959907D01*
X216940092Y-120175917D01*
X216940099Y-120175923D01*
X217103916Y-120301624D01*
X217145119Y-120358052D01*
X217149274Y-120427798D01*
X217115062Y-120488718D01*
X217103916Y-120498376D01*
X216940099Y-120624076D01*
X216940092Y-120624082D01*
X216724082Y-120840092D01*
X216724076Y-120840099D01*
X216538106Y-121082461D01*
X216385357Y-121347027D01*
X216385349Y-121347044D01*
X216268445Y-121629277D01*
X216189375Y-121924369D01*
X216149500Y-122227243D01*
X216149500Y-122532756D01*
X216189375Y-122835630D01*
X216268445Y-123130722D01*
X216385349Y-123412955D01*
X216385357Y-123412972D01*
X216450325Y-123525498D01*
X216538103Y-123677534D01*
X216538105Y-123677537D01*
X216538106Y-123677538D01*
X216724076Y-123919900D01*
X216724082Y-123919907D01*
X216940092Y-124135917D01*
X216940099Y-124135923D01*
X217103916Y-124261624D01*
X217145119Y-124318052D01*
X217149274Y-124387798D01*
X217115062Y-124448718D01*
X217103916Y-124458376D01*
X216940099Y-124584076D01*
X216940092Y-124584082D01*
X216724082Y-124800092D01*
X216724076Y-124800099D01*
X216538106Y-125042461D01*
X216385357Y-125307027D01*
X216385349Y-125307044D01*
X216268445Y-125589277D01*
X216189375Y-125884369D01*
X216149500Y-126187243D01*
X216149500Y-126492756D01*
X216189375Y-126795630D01*
X216268445Y-127090722D01*
X216385349Y-127372955D01*
X216385357Y-127372972D01*
X216453334Y-127490710D01*
X216538103Y-127637534D01*
X216538105Y-127637537D01*
X216538106Y-127637538D01*
X216724076Y-127879900D01*
X216724082Y-127879907D01*
X216940092Y-128095917D01*
X216940098Y-128095922D01*
X217182466Y-128281897D01*
X217352506Y-128380070D01*
X217447027Y-128434642D01*
X217447032Y-128434644D01*
X217447035Y-128434646D01*
X217447039Y-128434647D01*
X217447044Y-128434650D01*
X217536555Y-128471726D01*
X217729278Y-128551555D01*
X218024367Y-128630624D01*
X218327251Y-128670500D01*
X218327258Y-128670500D01*
X219672742Y-128670500D01*
X219672749Y-128670500D01*
X219975633Y-128630624D01*
X220270722Y-128551555D01*
X220552965Y-128434646D01*
X220817534Y-128281897D01*
X221059902Y-128095922D01*
X221275922Y-127879902D01*
X221461897Y-127637534D01*
X221614646Y-127372965D01*
X221731555Y-127090722D01*
X221810624Y-126795633D01*
X221850500Y-126492749D01*
X221850500Y-126187251D01*
X221810624Y-125884367D01*
X221731555Y-125589278D01*
X221614646Y-125307035D01*
X221614644Y-125307032D01*
X221614642Y-125307027D01*
X221547431Y-125190616D01*
X221461897Y-125042466D01*
X221275922Y-124800098D01*
X221275917Y-124800092D01*
X221059907Y-124584082D01*
X221059900Y-124584076D01*
X220931814Y-124485793D01*
X220896082Y-124458375D01*
X220854880Y-124401949D01*
X220850725Y-124332203D01*
X220884937Y-124271282D01*
X220896078Y-124261627D01*
X221059902Y-124135922D01*
X221275922Y-123919902D01*
X221461897Y-123677534D01*
X221614646Y-123412965D01*
X221731555Y-123130722D01*
X221810624Y-122835633D01*
X221850500Y-122532749D01*
X221850500Y-122227251D01*
X221810624Y-121924367D01*
X221731555Y-121629278D01*
X221614646Y-121347035D01*
X221614644Y-121347032D01*
X221614642Y-121347027D01*
X221527205Y-121195583D01*
X221461897Y-121082466D01*
X221339988Y-120923591D01*
X221275923Y-120840099D01*
X221275917Y-120840092D01*
X221059907Y-120624082D01*
X221059900Y-120624076D01*
X220971486Y-120556234D01*
X220896082Y-120498375D01*
X220854880Y-120441949D01*
X220850725Y-120372203D01*
X220884937Y-120311282D01*
X220896078Y-120301627D01*
X221059902Y-120175922D01*
X221275922Y-119959902D01*
X221461897Y-119717534D01*
X221614646Y-119452965D01*
X221731555Y-119170722D01*
X221810624Y-118875633D01*
X221850500Y-118572749D01*
X221850500Y-118267251D01*
X221810624Y-117964367D01*
X221731555Y-117669278D01*
X221614646Y-117387035D01*
X221614644Y-117387032D01*
X221614642Y-117387027D01*
X221531760Y-117243472D01*
X221461897Y-117122466D01*
X221330506Y-116951233D01*
X221275923Y-116880099D01*
X221275917Y-116880092D01*
X221059907Y-116664082D01*
X221059900Y-116664076D01*
X220971486Y-116596234D01*
X220896082Y-116538375D01*
X220854880Y-116481949D01*
X220850725Y-116412203D01*
X220884937Y-116351282D01*
X220896078Y-116341627D01*
X221059902Y-116215922D01*
X221275922Y-115999902D01*
X221461897Y-115757534D01*
X221614646Y-115492965D01*
X221731555Y-115210722D01*
X221810624Y-114915633D01*
X221850500Y-114612749D01*
X221850500Y-114307251D01*
X221810624Y-114004367D01*
X221731555Y-113709278D01*
X221628993Y-113461672D01*
X221614650Y-113427044D01*
X221614642Y-113427027D01*
X221532190Y-113284217D01*
X221461897Y-113162466D01*
X221275922Y-112920098D01*
X221275917Y-112920092D01*
X221059907Y-112704082D01*
X221059900Y-112704076D01*
X220971486Y-112636234D01*
X220896082Y-112578375D01*
X220854880Y-112521949D01*
X220850725Y-112452203D01*
X220884937Y-112391282D01*
X220896078Y-112381627D01*
X221059902Y-112255922D01*
X221275922Y-112039902D01*
X221461897Y-111797534D01*
X221614646Y-111532965D01*
X221731555Y-111250722D01*
X221810624Y-110955633D01*
X221850500Y-110652749D01*
X221850500Y-110347251D01*
X221810624Y-110044367D01*
X221731555Y-109749278D01*
X221614646Y-109467035D01*
X221614644Y-109467032D01*
X221614642Y-109467027D01*
X221560070Y-109372506D01*
X221461897Y-109202466D01*
X221302545Y-108994794D01*
X221275923Y-108960099D01*
X221275917Y-108960092D01*
X221059907Y-108744082D01*
X221059900Y-108744076D01*
X220913926Y-108632067D01*
X220896082Y-108618375D01*
X220854880Y-108561949D01*
X220850725Y-108492203D01*
X220884937Y-108431282D01*
X220896078Y-108421627D01*
X221059902Y-108295922D01*
X221275922Y-108079902D01*
X221461897Y-107837534D01*
X221597594Y-107602500D01*
X221648161Y-107554284D01*
X221704981Y-107540500D01*
X223308543Y-107540500D01*
X223373046Y-107527668D01*
X223409740Y-107520370D01*
X223501836Y-107502051D01*
X223586084Y-107467154D01*
X223683914Y-107426632D01*
X223847782Y-107317139D01*
X223987139Y-107177782D01*
X223987140Y-107177779D01*
X223994206Y-107170714D01*
X223994209Y-107170710D01*
X225387778Y-105777141D01*
X225387782Y-105777139D01*
X225527139Y-105637782D01*
X225636632Y-105473914D01*
X225690927Y-105342833D01*
X225712051Y-105291836D01*
X225750500Y-105098540D01*
X225750500Y-104901460D01*
X225750500Y-88401459D01*
X225750500Y-88401456D01*
X225712052Y-88208170D01*
X225712051Y-88208169D01*
X225712051Y-88208165D01*
X225696920Y-88171635D01*
X225636635Y-88026092D01*
X225636628Y-88026079D01*
X225527139Y-87862218D01*
X225527136Y-87862214D01*
X225384686Y-87719764D01*
X225384655Y-87719735D01*
X209531479Y-71866559D01*
X209531459Y-71866537D01*
X209387785Y-71722863D01*
X209387781Y-71722860D01*
X209223920Y-71613371D01*
X209223911Y-71613366D01*
X209151315Y-71583296D01*
X209095165Y-71560038D01*
X209041836Y-71537949D01*
X209041832Y-71537948D01*
X209041828Y-71537946D01*
X208945188Y-71518724D01*
X208848544Y-71499500D01*
X208848541Y-71499500D01*
X206124500Y-71499500D01*
X206057461Y-71479815D01*
X206011706Y-71427011D01*
X206000500Y-71375500D01*
X206000500Y-68604334D01*
X206008842Y-68562397D01*
X206008361Y-68562251D01*
X206009845Y-68557357D01*
X206009941Y-68556877D01*
X206010128Y-68556424D01*
X206010130Y-68556420D01*
X206050500Y-68353465D01*
X206050500Y-68146535D01*
X206010130Y-67943580D01*
X205930941Y-67752402D01*
X205815977Y-67580345D01*
X205815975Y-67580342D01*
X205669657Y-67434024D01*
X205583626Y-67376541D01*
X205497598Y-67319059D01*
X205306420Y-67239870D01*
X205306412Y-67239868D01*
X205103469Y-67199500D01*
X205103465Y-67199500D01*
X204896535Y-67199500D01*
X204896530Y-67199500D01*
X204693587Y-67239868D01*
X204693579Y-67239870D01*
X204502403Y-67319058D01*
X204330342Y-67434024D01*
X204184024Y-67580342D01*
X204069058Y-67752403D01*
X203989870Y-67943579D01*
X203989868Y-67943587D01*
X203949500Y-68146530D01*
X203949500Y-68353469D01*
X203989868Y-68556413D01*
X203989871Y-68556424D01*
X203990059Y-68556877D01*
X203990154Y-68557357D01*
X203991639Y-68562251D01*
X203991157Y-68562397D01*
X203999500Y-68604334D01*
X203999500Y-90107398D01*
X203979815Y-90174437D01*
X203978603Y-90176288D01*
X203931558Y-90246696D01*
X203852370Y-90437872D01*
X203852368Y-90437880D01*
X203812000Y-90640823D01*
X203812000Y-90847762D01*
X203852368Y-91050706D01*
X203852371Y-91050717D01*
X203852559Y-91051170D01*
X203852654Y-91051650D01*
X203854139Y-91056544D01*
X203853657Y-91056690D01*
X203862000Y-91098627D01*
X203862000Y-112604759D01*
X203852561Y-112652212D01*
X203771120Y-112848827D01*
X203771118Y-112848835D01*
X203730750Y-113051778D01*
X198113000Y-113051778D01*
X198113000Y-108145751D01*
X198112999Y-108145750D01*
X198111987Y-108140658D01*
X198109604Y-108116466D01*
X198109604Y-108087430D01*
X198109603Y-108087426D01*
X198094228Y-108010129D01*
X198069234Y-107884476D01*
X197990045Y-107693298D01*
X197875081Y-107521241D01*
X197875079Y-107521238D01*
X197728761Y-107374920D01*
X197556699Y-107259953D01*
X197556229Y-107259759D01*
X197555804Y-107259475D01*
X197551329Y-107257083D01*
X197551564Y-107256642D01*
X197516011Y-107232883D01*
X195149319Y-104866191D01*
X195115834Y-104804868D01*
X195113000Y-104778510D01*
X195113000Y-97960074D01*
X195132685Y-97893035D01*
X195149314Y-97872398D01*
X197887778Y-95133934D01*
X197887782Y-95133932D01*
X198027139Y-94994575D01*
X198136632Y-94830707D01*
X198212051Y-94648628D01*
X198250500Y-94455334D01*
X198250500Y-86104334D01*
X198258842Y-86062397D01*
X198258361Y-86062251D01*
X198259845Y-86057357D01*
X198259941Y-86056877D01*
X198260128Y-86056424D01*
X198260130Y-86056420D01*
X198300500Y-85853465D01*
X198300500Y-85646535D01*
X198260130Y-85443580D01*
X198180941Y-85252402D01*
X198065977Y-85080345D01*
X198065975Y-85080342D01*
X197919655Y-84934022D01*
X197747605Y-84819063D01*
X197747594Y-84819057D01*
X197747130Y-84818865D01*
X197746712Y-84818586D01*
X197742233Y-84816192D01*
X197742469Y-84815750D01*
X197706909Y-84791988D01*
X195286819Y-82371898D01*
X195253334Y-82310575D01*
X195250500Y-82284217D01*
X195250500Y-75354334D01*
X195258842Y-75312397D01*
X195258361Y-75312251D01*
X195259845Y-75307357D01*
X195259941Y-75306877D01*
X195260128Y-75306424D01*
X195260130Y-75306420D01*
X195300500Y-75103465D01*
X195300500Y-74896535D01*
X195260130Y-74693580D01*
X195180941Y-74502402D01*
X195065977Y-74330345D01*
X195065975Y-74330342D01*
X194919657Y-74184024D01*
X194772322Y-74085579D01*
X194747598Y-74069059D01*
X194556420Y-73989870D01*
X194556412Y-73989868D01*
X194353469Y-73949500D01*
X194353465Y-73949500D01*
X194146535Y-73949500D01*
X194146530Y-73949500D01*
X193943587Y-73989868D01*
X193943579Y-73989870D01*
X193752403Y-74069058D01*
X193580342Y-74184024D01*
X193434024Y-74330342D01*
X193319058Y-74502403D01*
X193239870Y-74693579D01*
X193239868Y-74693587D01*
X193199500Y-74896530D01*
X193199500Y-75103469D01*
X193239868Y-75306413D01*
X193239871Y-75306424D01*
X193240059Y-75306877D01*
X193240154Y-75307357D01*
X193241639Y-75312251D01*
X193241157Y-75312397D01*
X193249500Y-75354334D01*
X193249500Y-82848544D01*
X193287481Y-83039488D01*
X193287948Y-83041834D01*
X193287948Y-83041836D01*
X193363364Y-83223907D01*
X193363371Y-83223920D01*
X193472859Y-83387780D01*
X193472860Y-83387781D01*
X193472861Y-83387782D01*
X193612218Y-83527139D01*
X193612219Y-83527139D01*
X193619286Y-83534206D01*
X193619285Y-83534206D01*
X193619289Y-83534209D01*
X196213181Y-86128101D01*
X196246666Y-86189424D01*
X196249500Y-86215782D01*
X196249500Y-93891010D01*
X196229815Y-93958049D01*
X196213181Y-93978691D01*
X193655590Y-96536281D01*
X193620037Y-96560040D01*
X193620273Y-96560481D01*
X193615799Y-96562871D01*
X193615378Y-96563154D01*
X193614908Y-96563348D01*
X193614906Y-96563349D01*
X193442842Y-96678317D01*
X193296524Y-96824635D01*
X193181558Y-96996696D01*
X193102370Y-97187872D01*
X193102368Y-97187880D01*
X193062000Y-97390823D01*
X193062000Y-97597762D01*
X193102368Y-97800706D01*
X193102371Y-97800717D01*
X193102559Y-97801170D01*
X193102654Y-97801650D01*
X193104139Y-97806544D01*
X193103657Y-97806690D01*
X193112000Y-97848627D01*
X193112000Y-105342837D01*
X193150447Y-105536121D01*
X193150450Y-105536133D01*
X193164691Y-105570513D01*
X193164692Y-105570515D01*
X193225864Y-105718200D01*
X193225871Y-105718213D01*
X193335359Y-105882073D01*
X193335360Y-105882074D01*
X193335361Y-105882075D01*
X193474718Y-106021432D01*
X193474719Y-106021432D01*
X193481786Y-106028499D01*
X193481785Y-106028499D01*
X193481789Y-106028502D01*
X196075681Y-108622394D01*
X196109166Y-108683717D01*
X196112000Y-108710075D01*
X196112000Y-116358215D01*
X196092315Y-116425254D01*
X196075681Y-116445896D01*
X193574340Y-118947236D01*
X193538787Y-118970995D01*
X193539023Y-118971436D01*
X193534549Y-118973826D01*
X193534128Y-118974109D01*
X193533658Y-118974303D01*
X193533656Y-118974304D01*
X193361592Y-119089272D01*
X193215274Y-119235590D01*
X193100308Y-119407651D01*
X193021120Y-119598827D01*
X193021118Y-119598835D01*
X192980750Y-119801778D01*
X185781750Y-119801778D01*
X185781750Y-119503793D01*
X185781751Y-119503788D01*
X185781751Y-119306707D01*
X185781750Y-119306701D01*
X185781750Y-119056707D01*
X185781750Y-113509582D01*
X185790092Y-113467645D01*
X185789611Y-113467499D01*
X185791095Y-113462605D01*
X185791191Y-113462125D01*
X185791378Y-113461672D01*
X185791380Y-113461668D01*
X185831750Y-113258713D01*
X185831750Y-113051783D01*
X185791380Y-112848828D01*
X185791188Y-112848364D01*
X185791090Y-112847876D01*
X185789612Y-112843001D01*
X185790092Y-112842855D01*
X185781750Y-112800914D01*
X185781750Y-102627826D01*
X185801435Y-102560787D01*
X185854239Y-102515032D01*
X185923397Y-102505088D01*
X185986953Y-102534113D01*
X185993431Y-102540145D01*
X191851090Y-108397804D01*
X191874849Y-108433357D01*
X191875290Y-108433122D01*
X191877682Y-108437597D01*
X191877966Y-108438022D01*
X191878160Y-108438492D01*
X191993127Y-108610554D01*
X192139445Y-108756872D01*
X192139448Y-108756874D01*
X192311505Y-108871838D01*
X192502683Y-108951027D01*
X192705633Y-108991396D01*
X192705637Y-108991397D01*
X192705638Y-108991397D01*
X192734677Y-108991397D01*
X192758864Y-108993779D01*
X192760840Y-108994171D01*
X192763969Y-108994794D01*
X192961049Y-108994792D01*
X192961051Y-108994792D01*
X192961051Y-108994791D01*
X193154345Y-108956342D01*
X193167179Y-108951026D01*
X193287269Y-108901281D01*
X193336423Y-108880920D01*
X193500289Y-108771426D01*
X193639645Y-108632067D01*
X193749136Y-108468199D01*
X193824554Y-108286120D01*
X193863001Y-108092824D01*
X193862999Y-107895743D01*
X193861985Y-107890649D01*
X193859603Y-107866457D01*
X193859603Y-107837431D01*
X193859602Y-107837427D01*
X193855335Y-107815975D01*
X193819233Y-107634477D01*
X193740044Y-107443299D01*
X193625080Y-107271242D01*
X193625078Y-107271239D01*
X193478760Y-107124921D01*
X193306698Y-107009954D01*
X193306228Y-107009760D01*
X193305803Y-107009476D01*
X193301328Y-107007084D01*
X193301563Y-107006643D01*
X193266010Y-106982884D01*
X185899319Y-99616193D01*
X185865834Y-99554870D01*
X185863000Y-99528512D01*
X185863000Y-97092838D01*
X185863001Y-97092833D01*
X185863001Y-96895752D01*
X185863000Y-96895746D01*
X185863000Y-96645752D01*
X185863000Y-91098627D01*
X185871342Y-91056690D01*
X185870861Y-91056544D01*
X185872345Y-91051650D01*
X185872441Y-91051170D01*
X185872628Y-91050717D01*
X185872630Y-91050713D01*
X185913000Y-90847758D01*
X185913000Y-90640828D01*
X185872630Y-90437873D01*
X185872438Y-90437409D01*
X185872340Y-90436921D01*
X185870862Y-90432046D01*
X185871342Y-90431900D01*
X185863000Y-90389959D01*
X185863000Y-80077282D01*
X185882685Y-80010243D01*
X185935489Y-79964488D01*
X186004647Y-79954544D01*
X186068203Y-79983569D01*
X186074680Y-79989600D01*
X189124567Y-83039488D01*
X192041988Y-85956909D01*
X192065750Y-85992469D01*
X192066192Y-85992233D01*
X192068586Y-85996712D01*
X192068865Y-85997130D01*
X192069057Y-85997594D01*
X192069063Y-85997605D01*
X192184022Y-86169655D01*
X192330342Y-86315975D01*
X192330345Y-86315977D01*
X192502402Y-86430941D01*
X192693580Y-86510130D01*
X192896530Y-86550499D01*
X192896534Y-86550500D01*
X192896535Y-86550500D01*
X193103466Y-86550500D01*
X193103467Y-86550499D01*
X193306420Y-86510130D01*
X193497598Y-86430941D01*
X193669655Y-86315977D01*
X193815977Y-86169655D01*
X193930941Y-85997598D01*
X194010130Y-85806420D01*
X194050500Y-85603465D01*
X194050500Y-85396535D01*
X194010130Y-85193580D01*
X193930941Y-85002402D01*
X193815977Y-84830345D01*
X193815975Y-84830342D01*
X193669655Y-84684022D01*
X193497605Y-84569063D01*
X193497594Y-84569057D01*
X193497130Y-84568865D01*
X193496712Y-84568586D01*
X193492233Y-84566192D01*
X193492469Y-84565750D01*
X193456909Y-84541988D01*
X186036819Y-77121898D01*
X186003334Y-77060575D01*
X186000500Y-77034217D01*
X186000500Y-74598545D01*
X186000501Y-74598540D01*
X186000501Y-74401459D01*
X186000500Y-74401453D01*
X186000500Y-74151459D01*
X186000500Y-68604334D01*
X186008842Y-68562397D01*
X186008361Y-68562251D01*
X186009845Y-68557357D01*
X186009941Y-68556877D01*
X186010128Y-68556424D01*
X186010130Y-68556420D01*
X186050500Y-68353465D01*
X186050500Y-68146535D01*
X186010130Y-67943580D01*
X185930941Y-67752402D01*
X185815977Y-67580345D01*
X185815975Y-67580342D01*
X185669657Y-67434024D01*
X185583626Y-67376541D01*
X185497598Y-67319059D01*
X185306420Y-67239870D01*
X185306412Y-67239868D01*
X185103469Y-67199500D01*
X185103465Y-67199500D01*
X184896535Y-67199500D01*
X184896530Y-67199500D01*
X184693587Y-67239868D01*
X184693579Y-67239870D01*
X184502403Y-67319058D01*
X184330342Y-67434024D01*
X184184024Y-67580342D01*
X184069058Y-67752403D01*
X183989870Y-67943579D01*
X183989868Y-67943587D01*
X183949500Y-68146530D01*
X183949500Y-68353469D01*
X183989868Y-68556413D01*
X183989871Y-68556424D01*
X183990059Y-68556877D01*
X183990154Y-68557357D01*
X183991639Y-68562251D01*
X183991157Y-68562397D01*
X183999500Y-68604334D01*
X183999500Y-74034216D01*
X183979815Y-74101255D01*
X183963181Y-74121897D01*
X182293089Y-75791988D01*
X182257536Y-75815747D01*
X182257772Y-75816188D01*
X182253298Y-75818578D01*
X182252877Y-75818861D01*
X182252407Y-75819055D01*
X182252398Y-75819060D01*
X182080349Y-75934019D01*
X182080341Y-75934025D01*
X181934024Y-76080342D01*
X181819058Y-76252403D01*
X181739870Y-76443579D01*
X181739868Y-76443587D01*
X181699500Y-76646530D01*
X181699500Y-76853469D01*
X181739868Y-77056412D01*
X181739870Y-77056420D01*
X181813351Y-77233819D01*
X181819059Y-77247598D01*
X181884584Y-77345664D01*
X181934023Y-77419655D01*
X181934025Y-77419658D01*
X182080342Y-77565975D01*
X182080345Y-77565977D01*
X182252402Y-77680941D01*
X182443580Y-77760130D01*
X182646530Y-77800499D01*
X182646534Y-77800500D01*
X182646535Y-77800500D01*
X182853466Y-77800500D01*
X182853467Y-77800499D01*
X183056420Y-77760130D01*
X183247598Y-77680941D01*
X183419655Y-77565977D01*
X183565977Y-77419655D01*
X183674932Y-77256591D01*
X183683577Y-77249365D01*
X183688801Y-77239380D01*
X183709905Y-77227362D01*
X183728543Y-77211786D01*
X183739725Y-77210381D01*
X183749517Y-77204806D01*
X183773769Y-77206105D01*
X183797868Y-77203079D01*
X183808032Y-77207941D01*
X183819286Y-77208545D01*
X183838987Y-77222751D01*
X183860896Y-77233233D01*
X183866817Y-77242819D01*
X183875959Y-77249411D01*
X183884851Y-77272012D01*
X183897616Y-77292676D01*
X183898078Y-77305631D01*
X183901540Y-77314429D01*
X183899651Y-77349673D01*
X183885731Y-77419655D01*
X183884439Y-77426151D01*
X183862000Y-77538957D01*
X183862000Y-90389959D01*
X183853657Y-90431900D01*
X183854138Y-90432046D01*
X183852659Y-90436921D01*
X183852562Y-90437409D01*
X183852371Y-90437869D01*
X183852368Y-90437880D01*
X183812000Y-90640823D01*
X183812000Y-90847762D01*
X183852368Y-91050706D01*
X183852371Y-91050717D01*
X183852559Y-91051170D01*
X183852654Y-91051650D01*
X183854139Y-91056544D01*
X183853657Y-91056690D01*
X183862000Y-91098627D01*
X183862000Y-96528510D01*
X183842315Y-96595549D01*
X183825681Y-96616191D01*
X181835363Y-98606508D01*
X181835360Y-98606512D01*
X181725872Y-98770372D01*
X181725867Y-98770382D01*
X181650449Y-98952456D01*
X181650447Y-98952464D01*
X181612000Y-99145748D01*
X181612000Y-99342837D01*
X181650447Y-99536126D01*
X181650451Y-99536138D01*
X181658050Y-99554484D01*
X181665105Y-99577740D01*
X181673971Y-99622313D01*
X181673972Y-99622315D01*
X181753161Y-99813493D01*
X181868127Y-99985554D01*
X182014445Y-100131872D01*
X182014448Y-100131874D01*
X182186505Y-100246838D01*
X182377683Y-100326027D01*
X182580633Y-100366396D01*
X182580637Y-100366397D01*
X182580638Y-100366397D01*
X182787569Y-100366397D01*
X182787570Y-100366396D01*
X182990523Y-100326027D01*
X183181701Y-100246838D01*
X183353758Y-100131874D01*
X183500080Y-99985552D01*
X183500082Y-99985548D01*
X183503944Y-99980844D01*
X183505910Y-99982457D01*
X183550991Y-99944770D01*
X183620314Y-99936050D01*
X183683347Y-99966194D01*
X183720076Y-100025631D01*
X183724500Y-100058457D01*
X183724500Y-100230337D01*
X183762947Y-100423622D01*
X183762950Y-100423633D01*
X183771310Y-100443814D01*
X183780750Y-100491269D01*
X183780750Y-112800914D01*
X183772407Y-112842855D01*
X183772888Y-112843001D01*
X183771409Y-112847876D01*
X183771312Y-112848364D01*
X183771121Y-112848824D01*
X183771118Y-112848835D01*
X183730750Y-113051778D01*
X183730750Y-113258717D01*
X183771118Y-113461661D01*
X183771121Y-113461672D01*
X183771309Y-113462125D01*
X183771404Y-113462605D01*
X183772889Y-113467499D01*
X183772407Y-113467645D01*
X183780750Y-113509582D01*
X183780750Y-118939464D01*
X183761065Y-119006503D01*
X183744431Y-119027145D01*
X182136338Y-120635237D01*
X182100785Y-120658996D01*
X182101021Y-120659437D01*
X182096547Y-120661827D01*
X182096126Y-120662110D01*
X182095656Y-120662304D01*
X182095647Y-120662309D01*
X181923598Y-120777268D01*
X181923590Y-120777274D01*
X181777273Y-120923591D01*
X181662307Y-121095652D01*
X181583119Y-121286828D01*
X181583117Y-121286836D01*
X181542749Y-121489779D01*
X181542152Y-121495845D01*
X181541604Y-121495791D01*
X181540887Y-121503067D01*
X181540775Y-121506210D01*
X181540580Y-121507284D01*
X181530750Y-121556708D01*
X178350500Y-121556708D01*
X178350499Y-119824992D01*
X178349197Y-119812251D01*
X178339999Y-119722203D01*
X178339998Y-119722200D01*
X178325842Y-119679481D01*
X178284814Y-119555666D01*
X178192712Y-119406344D01*
X178068656Y-119282288D01*
X177975888Y-119225069D01*
X177919336Y-119190187D01*
X177919331Y-119190185D01*
X177917862Y-119189698D01*
X177752797Y-119135001D01*
X177752795Y-119135000D01*
X177650010Y-119124500D01*
X175849998Y-119124500D01*
X175849981Y-119124501D01*
X175747203Y-119135000D01*
X175747200Y-119135001D01*
X175580668Y-119190185D01*
X175580663Y-119190187D01*
X175431342Y-119282289D01*
X175307289Y-119406342D01*
X175215187Y-119555663D01*
X175215185Y-119555668D01*
X175200881Y-119598835D01*
X175160001Y-119722203D01*
X175160001Y-119722204D01*
X175160000Y-119722204D01*
X175149500Y-119824983D01*
X175149500Y-121625001D01*
X175149501Y-121625018D01*
X175160000Y-121727796D01*
X175160001Y-121727799D01*
X175215185Y-121894331D01*
X175215187Y-121894336D01*
X175307289Y-122043657D01*
X175436128Y-122172496D01*
X175469613Y-122233819D01*
X175464629Y-122303511D01*
X175448765Y-122333062D01*
X175381132Y-122426151D01*
X175266760Y-122650616D01*
X175188910Y-122890214D01*
X175167385Y-123026119D01*
X175149500Y-123139038D01*
X175149500Y-123390962D01*
X175152985Y-123412965D01*
X175188910Y-123639785D01*
X175266760Y-123879383D01*
X175381132Y-124103848D01*
X175529201Y-124307649D01*
X175529205Y-124307654D01*
X175668870Y-124447319D01*
X175702355Y-124508642D01*
X175697371Y-124578334D01*
X175668870Y-124622681D01*
X175529205Y-124762345D01*
X175529201Y-124762350D01*
X175381132Y-124966151D01*
X175266760Y-125190616D01*
X175188910Y-125430214D01*
X175149500Y-125679038D01*
X175149500Y-125935834D01*
X175147985Y-125935834D01*
X175134986Y-125997643D01*
X175113427Y-126026650D01*
X171676899Y-129463181D01*
X171615576Y-129496666D01*
X171589218Y-129499500D01*
X167854334Y-129499500D01*
X167812392Y-129491157D01*
X167812247Y-129491638D01*
X167807371Y-129490159D01*
X167806884Y-129490062D01*
X167806423Y-129489871D01*
X167806421Y-129489870D01*
X167806420Y-129489870D01*
X167806417Y-129489869D01*
X167806412Y-129489868D01*
X167603469Y-129449500D01*
X167603465Y-129449500D01*
X167396535Y-129449500D01*
X167396530Y-129449500D01*
X167193587Y-129489868D01*
X167193579Y-129489870D01*
X167002403Y-129569058D01*
X166830342Y-129684024D01*
X166684024Y-129830342D01*
X166569058Y-130002403D01*
X166489870Y-130193579D01*
X166489868Y-130193587D01*
X166449500Y-130396530D01*
X153337465Y-130396530D01*
X153357966Y-130381635D01*
X153521635Y-130217966D01*
X153657684Y-130030710D01*
X153762766Y-129824476D01*
X153834291Y-129604343D01*
X153870500Y-129375731D01*
X153870500Y-129144269D01*
X153834291Y-128915657D01*
X153762766Y-128695524D01*
X153762766Y-128695523D01*
X153726376Y-128624106D01*
X153657684Y-128489290D01*
X153617980Y-128434642D01*
X153521640Y-128302040D01*
X153521636Y-128302035D01*
X153357964Y-128138363D01*
X153357959Y-128138359D01*
X153291836Y-128090318D01*
X153249170Y-128034988D01*
X153243191Y-127965375D01*
X153275796Y-127903580D01*
X153291836Y-127889682D01*
X153357959Y-127841640D01*
X153357957Y-127841640D01*
X153357966Y-127841635D01*
X153521635Y-127677966D01*
X153657684Y-127490710D01*
X153762766Y-127284476D01*
X153834291Y-127064343D01*
X153870500Y-126835731D01*
X153870500Y-126604269D01*
X153834291Y-126375657D01*
X153762766Y-126155524D01*
X153762766Y-126155523D01*
X153697101Y-126026650D01*
X153657684Y-125949290D01*
X153562770Y-125818651D01*
X153521640Y-125762040D01*
X153521636Y-125762035D01*
X153357964Y-125598363D01*
X153357959Y-125598359D01*
X153170713Y-125462318D01*
X153170712Y-125462317D01*
X153170710Y-125462316D01*
X153104638Y-125428650D01*
X152964476Y-125357233D01*
X152964473Y-125357232D01*
X152744344Y-125285709D01*
X152630037Y-125267604D01*
X152515731Y-125249500D01*
X152284269Y-125249500D01*
X152208065Y-125261569D01*
X152055655Y-125285709D01*
X151835526Y-125357232D01*
X151835523Y-125357233D01*
X151629286Y-125462318D01*
X151442040Y-125598359D01*
X151442035Y-125598363D01*
X151278363Y-125762035D01*
X151278359Y-125762040D01*
X151142318Y-125949286D01*
X151037233Y-126155523D01*
X151037232Y-126155526D01*
X150965709Y-126375655D01*
X150929810Y-126602312D01*
X150929500Y-126604269D01*
X146058000Y-126604269D01*
X146058000Y-126348732D01*
X146057999Y-126348718D01*
X146018508Y-126048766D01*
X145940203Y-125756527D01*
X145940200Y-125756516D01*
X145824425Y-125477010D01*
X145824423Y-125477006D01*
X145673148Y-125214993D01*
X145673147Y-125214992D01*
X145549586Y-125053965D01*
X145549585Y-125053965D01*
X144829474Y-125774076D01*
X144741585Y-125653107D01*
X144596893Y-125508415D01*
X144475921Y-125420523D01*
X145196033Y-124700412D01*
X145035007Y-124576852D01*
X145035006Y-124576851D01*
X144772993Y-124425576D01*
X144772989Y-124425574D01*
X144493483Y-124309799D01*
X144493472Y-124309796D01*
X144201233Y-124231491D01*
X143901281Y-124192000D01*
X143598718Y-124192000D01*
X143298766Y-124231491D01*
X143006527Y-124309796D01*
X143006516Y-124309799D01*
X142727010Y-124425574D01*
X142727006Y-124425576D01*
X142464993Y-124576851D01*
X142464984Y-124576857D01*
X142303965Y-124700411D01*
X142303965Y-124700412D01*
X143024077Y-125420524D01*
X142903107Y-125508415D01*
X142758415Y-125653107D01*
X142670524Y-125774077D01*
X141950412Y-125053965D01*
X141950411Y-125053965D01*
X141826857Y-125214984D01*
X141826851Y-125214993D01*
X141675576Y-125477006D01*
X141675574Y-125477010D01*
X141559799Y-125756516D01*
X141559796Y-125756527D01*
X141481491Y-126048766D01*
X141442000Y-126348718D01*
X136000500Y-126348718D01*
X136000500Y-121348718D01*
X136942000Y-121348718D01*
X136942000Y-121651281D01*
X136981491Y-121951233D01*
X137059796Y-122243472D01*
X137059799Y-122243483D01*
X137175574Y-122522989D01*
X137175576Y-122522993D01*
X137326851Y-122785006D01*
X137326852Y-122785007D01*
X137450412Y-122946033D01*
X138170523Y-122225921D01*
X138258415Y-122346893D01*
X138403107Y-122491585D01*
X138524076Y-122579474D01*
X137803965Y-123299585D01*
X137803965Y-123299586D01*
X137964992Y-123423147D01*
X137964993Y-123423148D01*
X138227006Y-123574423D01*
X138227010Y-123574425D01*
X138506516Y-123690200D01*
X138506527Y-123690203D01*
X138798766Y-123768508D01*
X139098718Y-123807999D01*
X139098733Y-123808000D01*
X139401267Y-123808000D01*
X139401281Y-123807999D01*
X139701233Y-123768508D01*
X139993472Y-123690203D01*
X139993483Y-123690200D01*
X140272989Y-123574425D01*
X140272993Y-123574423D01*
X140535006Y-123423148D01*
X140535017Y-123423141D01*
X140696033Y-123299587D01*
X140696033Y-123299585D01*
X139975922Y-122579475D01*
X140096893Y-122491585D01*
X140241585Y-122346893D01*
X140329475Y-122225923D01*
X141049585Y-122946033D01*
X141049587Y-122946033D01*
X141173141Y-122785017D01*
X141173148Y-122785006D01*
X141324423Y-122522993D01*
X141324425Y-122522989D01*
X141440200Y-122243483D01*
X141440203Y-122243472D01*
X141518507Y-121951237D01*
X141521298Y-121930039D01*
X141549562Y-121866142D01*
X141607886Y-121827668D01*
X141677750Y-121826834D01*
X141736975Y-121863904D01*
X141764013Y-121914126D01*
X141821633Y-122129168D01*
X141827880Y-122152480D01*
X141929481Y-122397768D01*
X141929489Y-122397785D01*
X142062240Y-122627714D01*
X142062251Y-122627730D01*
X142223879Y-122838368D01*
X142223885Y-122838375D01*
X142411624Y-123026114D01*
X142411630Y-123026119D01*
X142622278Y-123187755D01*
X142622285Y-123187759D01*
X142852214Y-123320510D01*
X142852219Y-123320512D01*
X142852222Y-123320514D01*
X142852226Y-123320515D01*
X142852231Y-123320518D01*
X143097522Y-123422120D01*
X143097520Y-123422120D01*
X143097526Y-123422121D01*
X143097527Y-123422122D01*
X143353997Y-123490843D01*
X143617242Y-123525500D01*
X143617249Y-123525500D01*
X143882751Y-123525500D01*
X143882758Y-123525500D01*
X144146003Y-123490843D01*
X144402473Y-123422122D01*
X144647778Y-123320514D01*
X144877722Y-123187755D01*
X145088370Y-123026119D01*
X145276119Y-122838370D01*
X145437755Y-122627722D01*
X145570514Y-122397778D01*
X145672122Y-122152473D01*
X145740843Y-121896003D01*
X145775500Y-121632758D01*
X145775500Y-121367242D01*
X145740843Y-121103997D01*
X145672122Y-120847527D01*
X145669045Y-120840099D01*
X145570518Y-120602231D01*
X145570510Y-120602214D01*
X145437759Y-120372285D01*
X145437755Y-120372278D01*
X145314509Y-120211661D01*
X145276120Y-120161631D01*
X145276114Y-120161624D01*
X145088375Y-119973885D01*
X145088368Y-119973879D01*
X144877730Y-119812251D01*
X144877728Y-119812249D01*
X144877722Y-119812245D01*
X144877717Y-119812242D01*
X144877714Y-119812240D01*
X144647785Y-119679489D01*
X144647768Y-119679481D01*
X144402477Y-119577879D01*
X144402479Y-119577879D01*
X144146001Y-119509156D01*
X143882767Y-119474501D01*
X143882764Y-119474500D01*
X143882758Y-119474500D01*
X143617242Y-119474500D01*
X143617236Y-119474500D01*
X143617232Y-119474501D01*
X143353998Y-119509156D01*
X143097521Y-119577879D01*
X142852231Y-119679481D01*
X142852214Y-119679489D01*
X142622285Y-119812240D01*
X142622269Y-119812251D01*
X142411631Y-119973879D01*
X142411624Y-119973885D01*
X142223885Y-120161624D01*
X142223879Y-120161631D01*
X142062251Y-120372269D01*
X142062240Y-120372285D01*
X141929489Y-120602214D01*
X141929481Y-120602231D01*
X141827880Y-120847519D01*
X141764013Y-121085873D01*
X141727648Y-121145533D01*
X141664801Y-121176062D01*
X141595425Y-121167767D01*
X141541547Y-121123282D01*
X141521298Y-121069960D01*
X141518507Y-121048762D01*
X141440203Y-120756527D01*
X141440200Y-120756516D01*
X141324425Y-120477010D01*
X141324423Y-120477006D01*
X141173148Y-120214993D01*
X141173147Y-120214992D01*
X141049586Y-120053965D01*
X141049585Y-120053965D01*
X140329474Y-120774076D01*
X140241585Y-120653107D01*
X140096893Y-120508415D01*
X139975921Y-120420523D01*
X140696033Y-119700412D01*
X140535007Y-119576852D01*
X140535006Y-119576851D01*
X140272993Y-119425576D01*
X140272989Y-119425574D01*
X139993483Y-119309799D01*
X139993472Y-119309796D01*
X139701233Y-119231491D01*
X139401281Y-119192000D01*
X139098718Y-119192000D01*
X138798766Y-119231491D01*
X138506527Y-119309796D01*
X138506516Y-119309799D01*
X138227010Y-119425574D01*
X138227006Y-119425576D01*
X137964993Y-119576851D01*
X137964984Y-119576857D01*
X137803965Y-119700411D01*
X137803965Y-119700412D01*
X138524077Y-120420524D01*
X138403107Y-120508415D01*
X138258415Y-120653107D01*
X138170524Y-120774077D01*
X137450412Y-120053965D01*
X137450411Y-120053965D01*
X137326857Y-120214984D01*
X137326851Y-120214993D01*
X137175576Y-120477006D01*
X137175574Y-120477010D01*
X137059799Y-120756516D01*
X137059796Y-120756527D01*
X136981491Y-121048766D01*
X136942000Y-121348718D01*
X136000500Y-121348718D01*
X136000500Y-116348718D01*
X141442000Y-116348718D01*
X141442000Y-116651281D01*
X141481491Y-116951233D01*
X141559796Y-117243472D01*
X141559799Y-117243483D01*
X141675574Y-117522989D01*
X141675576Y-117522993D01*
X141826851Y-117785006D01*
X141826852Y-117785007D01*
X141950412Y-117946033D01*
X142670523Y-117225921D01*
X142758415Y-117346893D01*
X142903107Y-117491585D01*
X143024076Y-117579474D01*
X142303965Y-118299585D01*
X142303965Y-118299586D01*
X142464992Y-118423147D01*
X142464993Y-118423148D01*
X142727006Y-118574423D01*
X142727010Y-118574425D01*
X143006516Y-118690200D01*
X143006527Y-118690203D01*
X143298766Y-118768508D01*
X143598718Y-118807999D01*
X143598733Y-118808000D01*
X143901267Y-118808000D01*
X143901281Y-118807999D01*
X144201233Y-118768508D01*
X144493472Y-118690203D01*
X144493483Y-118690200D01*
X144772989Y-118574425D01*
X144772993Y-118574423D01*
X145035006Y-118423148D01*
X145035017Y-118423141D01*
X145196033Y-118299587D01*
X145196033Y-118299585D01*
X144475922Y-117579475D01*
X144596893Y-117491585D01*
X144741585Y-117346893D01*
X144829475Y-117225923D01*
X145549585Y-117946033D01*
X145549587Y-117946033D01*
X145673141Y-117785017D01*
X145673148Y-117785006D01*
X145824423Y-117522993D01*
X145824425Y-117522989D01*
X145940200Y-117243483D01*
X145940203Y-117243472D01*
X146018508Y-116951233D01*
X146057999Y-116651281D01*
X146058000Y-116651267D01*
X146058000Y-116348732D01*
X146057999Y-116348718D01*
X146018508Y-116048766D01*
X145940203Y-115756527D01*
X145940200Y-115756516D01*
X145824425Y-115477010D01*
X145824423Y-115477006D01*
X145673148Y-115214993D01*
X145673147Y-115214992D01*
X145549586Y-115053965D01*
X145549585Y-115053965D01*
X144829474Y-115774076D01*
X144741585Y-115653107D01*
X144596893Y-115508415D01*
X144475921Y-115420523D01*
X145196033Y-114700412D01*
X145035007Y-114576852D01*
X145035006Y-114576851D01*
X144772993Y-114425576D01*
X144772989Y-114425574D01*
X144493483Y-114309799D01*
X144493472Y-114309796D01*
X144201233Y-114231491D01*
X143901281Y-114192000D01*
X143598718Y-114192000D01*
X143298766Y-114231491D01*
X143006527Y-114309796D01*
X143006516Y-114309799D01*
X142727010Y-114425574D01*
X142727006Y-114425576D01*
X142464993Y-114576851D01*
X142464984Y-114576857D01*
X142303965Y-114700411D01*
X142303965Y-114700412D01*
X143024077Y-115420524D01*
X142903107Y-115508415D01*
X142758415Y-115653107D01*
X142670524Y-115774077D01*
X141950412Y-115053965D01*
X141950411Y-115053965D01*
X141826857Y-115214984D01*
X141826851Y-115214993D01*
X141675576Y-115477006D01*
X141675574Y-115477010D01*
X141559799Y-115756516D01*
X141559796Y-115756527D01*
X141481491Y-116048766D01*
X141442000Y-116348718D01*
X136000500Y-116348718D01*
X136000500Y-108598718D01*
X141442000Y-108598718D01*
X141442000Y-108901281D01*
X141481491Y-109201233D01*
X141559796Y-109493472D01*
X141559799Y-109493483D01*
X141675574Y-109772989D01*
X141675576Y-109772993D01*
X141826851Y-110035006D01*
X141826852Y-110035007D01*
X141950412Y-110196033D01*
X142670523Y-109475921D01*
X142758415Y-109596893D01*
X142903107Y-109741585D01*
X143024076Y-109829474D01*
X142303965Y-110549585D01*
X142303965Y-110549586D01*
X142464992Y-110673147D01*
X142464993Y-110673148D01*
X142727006Y-110824423D01*
X142727010Y-110824425D01*
X143006516Y-110940200D01*
X143006527Y-110940203D01*
X143298766Y-111018508D01*
X143598718Y-111057999D01*
X143598733Y-111058000D01*
X143901267Y-111058000D01*
X143901281Y-111057999D01*
X144201233Y-111018508D01*
X144493472Y-110940203D01*
X144493483Y-110940200D01*
X144772989Y-110824425D01*
X144772993Y-110824423D01*
X145035006Y-110673148D01*
X145035017Y-110673141D01*
X145196033Y-110549587D01*
X145196033Y-110549585D01*
X144475922Y-109829475D01*
X144596893Y-109741585D01*
X144741585Y-109596893D01*
X144829475Y-109475923D01*
X145549585Y-110196033D01*
X145549587Y-110196033D01*
X145673141Y-110035017D01*
X145673148Y-110035006D01*
X145824423Y-109772993D01*
X145824425Y-109772989D01*
X145940200Y-109493483D01*
X145940203Y-109493472D01*
X146018508Y-109201233D01*
X146057999Y-108901281D01*
X146058000Y-108901267D01*
X146058000Y-108598732D01*
X146057999Y-108598718D01*
X146018508Y-108298766D01*
X145940203Y-108006527D01*
X145940200Y-108006516D01*
X145824425Y-107727010D01*
X145824423Y-107727006D01*
X145673148Y-107464993D01*
X145673147Y-107464992D01*
X145549586Y-107303965D01*
X145549585Y-107303965D01*
X144829474Y-108024076D01*
X144741585Y-107903107D01*
X144596893Y-107758415D01*
X144475921Y-107670523D01*
X145196033Y-106950412D01*
X145125813Y-106896530D01*
X168199500Y-106896530D01*
X168199500Y-107103469D01*
X168239868Y-107306412D01*
X168239870Y-107306420D01*
X168306448Y-107467154D01*
X168319059Y-107497598D01*
X168334275Y-107520370D01*
X168434024Y-107669657D01*
X168580342Y-107815975D01*
X168580345Y-107815977D01*
X168752402Y-107930941D01*
X168943580Y-108010130D01*
X169146530Y-108050499D01*
X169146534Y-108050500D01*
X169146535Y-108050500D01*
X169353466Y-108050500D01*
X169353467Y-108050499D01*
X169556420Y-108010130D01*
X169556884Y-108009938D01*
X169557371Y-108009840D01*
X169562247Y-108008362D01*
X169562392Y-108008842D01*
X169604334Y-108000500D01*
X174395666Y-108000500D01*
X174437607Y-108008842D01*
X174437753Y-108008362D01*
X174442628Y-108009840D01*
X174443116Y-108009938D01*
X174443580Y-108010130D01*
X174646530Y-108050499D01*
X174646534Y-108050500D01*
X174646535Y-108050500D01*
X174853466Y-108050500D01*
X174853467Y-108050499D01*
X175056420Y-108010130D01*
X175247598Y-107930941D01*
X175419655Y-107815977D01*
X175565977Y-107669655D01*
X175680941Y-107497598D01*
X175760130Y-107306420D01*
X175800500Y-107103465D01*
X175800500Y-106896535D01*
X175760130Y-106693580D01*
X175680941Y-106502402D01*
X175565977Y-106330345D01*
X175565975Y-106330342D01*
X175419657Y-106184024D01*
X175270508Y-106084367D01*
X175247598Y-106069059D01*
X175220899Y-106058000D01*
X175056420Y-105989870D01*
X175056412Y-105989868D01*
X174853469Y-105949500D01*
X174853465Y-105949500D01*
X174646535Y-105949500D01*
X174646530Y-105949500D01*
X174443587Y-105989868D01*
X174443576Y-105989871D01*
X174443116Y-105990062D01*
X174442628Y-105990159D01*
X174437753Y-105991638D01*
X174437607Y-105991157D01*
X174395666Y-105999500D01*
X169604334Y-105999500D01*
X169562392Y-105991157D01*
X169562247Y-105991638D01*
X169557371Y-105990159D01*
X169556884Y-105990062D01*
X169556423Y-105989871D01*
X169556421Y-105989870D01*
X169556420Y-105989870D01*
X169556417Y-105989869D01*
X169556412Y-105989868D01*
X169353469Y-105949500D01*
X169353465Y-105949500D01*
X169146535Y-105949500D01*
X169146530Y-105949500D01*
X168943587Y-105989868D01*
X168943579Y-105989870D01*
X168752403Y-106069058D01*
X168580342Y-106184024D01*
X168434024Y-106330342D01*
X168319058Y-106502403D01*
X168239870Y-106693579D01*
X168239868Y-106693587D01*
X168199500Y-106896530D01*
X145125813Y-106896530D01*
X145035007Y-106826852D01*
X145035006Y-106826851D01*
X144772993Y-106675576D01*
X144772989Y-106675574D01*
X144493483Y-106559799D01*
X144493472Y-106559796D01*
X144201233Y-106481491D01*
X143901281Y-106442000D01*
X143598718Y-106442000D01*
X143298766Y-106481491D01*
X143006527Y-106559796D01*
X143006516Y-106559799D01*
X142727010Y-106675574D01*
X142727006Y-106675576D01*
X142464993Y-106826851D01*
X142464984Y-106826857D01*
X142303965Y-106950411D01*
X142303965Y-106950412D01*
X143024077Y-107670524D01*
X142903107Y-107758415D01*
X142758415Y-107903107D01*
X142670524Y-108024077D01*
X141950412Y-107303965D01*
X141950411Y-107303965D01*
X141826857Y-107464984D01*
X141826851Y-107464993D01*
X141675576Y-107727006D01*
X141675574Y-107727010D01*
X141559799Y-108006516D01*
X141559796Y-108006527D01*
X141481491Y-108298766D01*
X141442000Y-108598718D01*
X136000500Y-108598718D01*
X136000500Y-103598718D01*
X136942000Y-103598718D01*
X136942000Y-103901281D01*
X136981491Y-104201233D01*
X137059796Y-104493472D01*
X137059799Y-104493483D01*
X137175574Y-104772989D01*
X137175576Y-104772993D01*
X137326851Y-105035006D01*
X137326852Y-105035007D01*
X137450412Y-105196033D01*
X138170523Y-104475921D01*
X138258415Y-104596893D01*
X138403107Y-104741585D01*
X138524076Y-104829474D01*
X137803965Y-105549585D01*
X137803965Y-105549586D01*
X137964992Y-105673147D01*
X137964993Y-105673148D01*
X138227006Y-105824423D01*
X138227010Y-105824425D01*
X138506516Y-105940200D01*
X138506527Y-105940203D01*
X138798766Y-106018508D01*
X139098718Y-106057999D01*
X139098733Y-106058000D01*
X139401267Y-106058000D01*
X139401281Y-106057999D01*
X139701233Y-106018508D01*
X139993472Y-105940203D01*
X139993483Y-105940200D01*
X140272989Y-105824425D01*
X140272993Y-105824423D01*
X140535006Y-105673148D01*
X140535017Y-105673141D01*
X140696033Y-105549587D01*
X140696033Y-105549585D01*
X139975922Y-104829475D01*
X140096893Y-104741585D01*
X140241585Y-104596893D01*
X140329475Y-104475923D01*
X141049585Y-105196033D01*
X141049587Y-105196033D01*
X141173141Y-105035017D01*
X141173148Y-105035006D01*
X141324423Y-104772993D01*
X141324425Y-104772989D01*
X141440200Y-104493483D01*
X141440203Y-104493472D01*
X141518507Y-104201237D01*
X141521298Y-104180039D01*
X141549562Y-104116142D01*
X141607886Y-104077668D01*
X141677750Y-104076834D01*
X141736975Y-104113904D01*
X141764013Y-104164126D01*
X141827880Y-104402480D01*
X141929481Y-104647768D01*
X141929489Y-104647785D01*
X142062240Y-104877714D01*
X142062251Y-104877730D01*
X142223879Y-105088368D01*
X142223885Y-105088375D01*
X142411624Y-105276114D01*
X142411631Y-105276120D01*
X142561633Y-105391221D01*
X142622278Y-105437755D01*
X142622285Y-105437759D01*
X142852214Y-105570510D01*
X142852219Y-105570512D01*
X142852222Y-105570514D01*
X142852226Y-105570515D01*
X142852231Y-105570518D01*
X143097522Y-105672120D01*
X143097520Y-105672120D01*
X143097526Y-105672121D01*
X143097527Y-105672122D01*
X143353997Y-105740843D01*
X143617242Y-105775500D01*
X143617249Y-105775500D01*
X143882751Y-105775500D01*
X143882758Y-105775500D01*
X144146003Y-105740843D01*
X144402473Y-105672122D01*
X144647778Y-105570514D01*
X144877722Y-105437755D01*
X145088370Y-105276119D01*
X145276119Y-105088370D01*
X145437755Y-104877722D01*
X145570514Y-104647778D01*
X145672122Y-104402473D01*
X145740843Y-104146003D01*
X145775500Y-103882758D01*
X145775500Y-103617242D01*
X145740843Y-103353997D01*
X145672122Y-103097527D01*
X145660161Y-103068651D01*
X145570518Y-102852231D01*
X145570510Y-102852214D01*
X145437759Y-102622285D01*
X145437755Y-102622278D01*
X145317958Y-102466155D01*
X145276120Y-102411631D01*
X145276114Y-102411624D01*
X145088375Y-102223885D01*
X145088368Y-102223879D01*
X144877730Y-102062251D01*
X144877728Y-102062249D01*
X144877722Y-102062245D01*
X144877717Y-102062242D01*
X144877714Y-102062240D01*
X144647785Y-101929489D01*
X144647768Y-101929481D01*
X144402477Y-101827879D01*
X144402479Y-101827879D01*
X144146001Y-101759156D01*
X143882767Y-101724501D01*
X143882764Y-101724500D01*
X143882758Y-101724500D01*
X143617242Y-101724500D01*
X143617236Y-101724500D01*
X143617232Y-101724501D01*
X143353998Y-101759156D01*
X143097521Y-101827879D01*
X142852231Y-101929481D01*
X142852214Y-101929489D01*
X142622285Y-102062240D01*
X142622269Y-102062251D01*
X142411631Y-102223879D01*
X142411624Y-102223885D01*
X142223885Y-102411624D01*
X142223879Y-102411631D01*
X142062251Y-102622269D01*
X142062240Y-102622285D01*
X141929489Y-102852214D01*
X141929481Y-102852231D01*
X141827880Y-103097519D01*
X141764013Y-103335873D01*
X141727648Y-103395533D01*
X141664801Y-103426062D01*
X141595425Y-103417767D01*
X141541547Y-103373282D01*
X141521298Y-103319960D01*
X141518507Y-103298762D01*
X141440203Y-103006527D01*
X141440200Y-103006516D01*
X141324425Y-102727010D01*
X141324423Y-102727006D01*
X141173148Y-102464993D01*
X141173147Y-102464992D01*
X141049586Y-102303965D01*
X141049585Y-102303965D01*
X140329474Y-103024076D01*
X140241585Y-102903107D01*
X140096893Y-102758415D01*
X139975921Y-102670523D01*
X140696033Y-101950412D01*
X140535007Y-101826852D01*
X140535006Y-101826851D01*
X140272993Y-101675576D01*
X140272989Y-101675574D01*
X139993483Y-101559799D01*
X139993472Y-101559796D01*
X139701233Y-101481491D01*
X139401281Y-101442000D01*
X139098718Y-101442000D01*
X138798766Y-101481491D01*
X138506527Y-101559796D01*
X138506516Y-101559799D01*
X138227010Y-101675574D01*
X138227006Y-101675576D01*
X137964993Y-101826851D01*
X137964984Y-101826857D01*
X137803965Y-101950411D01*
X137803965Y-101950412D01*
X138524077Y-102670524D01*
X138403107Y-102758415D01*
X138258415Y-102903107D01*
X138170524Y-103024077D01*
X137450412Y-102303965D01*
X137450411Y-102303965D01*
X137326857Y-102464984D01*
X137326851Y-102464993D01*
X137175576Y-102727006D01*
X137175574Y-102727010D01*
X137059799Y-103006516D01*
X137059796Y-103006527D01*
X136981491Y-103298766D01*
X136942000Y-103598718D01*
X136000500Y-103598718D01*
X136000500Y-98598718D01*
X141442000Y-98598718D01*
X141442000Y-98901281D01*
X141481491Y-99201233D01*
X141559796Y-99493472D01*
X141559799Y-99493483D01*
X141675574Y-99772989D01*
X141675576Y-99772993D01*
X141826851Y-100035006D01*
X141826852Y-100035007D01*
X141950412Y-100196033D01*
X142670523Y-99475921D01*
X142758415Y-99596893D01*
X142903107Y-99741585D01*
X143024076Y-99829474D01*
X142303965Y-100549585D01*
X142303965Y-100549586D01*
X142464992Y-100673147D01*
X142464993Y-100673148D01*
X142727006Y-100824423D01*
X142727010Y-100824425D01*
X143006516Y-100940200D01*
X143006527Y-100940203D01*
X143298766Y-101018508D01*
X143598718Y-101057999D01*
X143598733Y-101058000D01*
X143901267Y-101058000D01*
X143901281Y-101057999D01*
X144201233Y-101018508D01*
X144493472Y-100940203D01*
X144493483Y-100940200D01*
X144772989Y-100824425D01*
X144772993Y-100824423D01*
X145035006Y-100673148D01*
X145035017Y-100673141D01*
X145196033Y-100549587D01*
X145196033Y-100549585D01*
X144475922Y-99829475D01*
X144596893Y-99741585D01*
X144741585Y-99596893D01*
X144829475Y-99475923D01*
X145549585Y-100196033D01*
X145549587Y-100196033D01*
X145673141Y-100035017D01*
X145673148Y-100035006D01*
X145824423Y-99772993D01*
X145824425Y-99772989D01*
X145940200Y-99493483D01*
X145940203Y-99493472D01*
X146018508Y-99201233D01*
X146057999Y-98901281D01*
X146058000Y-98901267D01*
X146058000Y-98598732D01*
X146057999Y-98598718D01*
X146031255Y-98395583D01*
X146031255Y-98395582D01*
X146029766Y-98384269D01*
X153229500Y-98384269D01*
X153229500Y-98615730D01*
X153265709Y-98844344D01*
X153337232Y-99064473D01*
X153337233Y-99064476D01*
X153442318Y-99270713D01*
X153578359Y-99457959D01*
X153578363Y-99457964D01*
X153742035Y-99621636D01*
X153742040Y-99621640D01*
X153905366Y-99740302D01*
X153929290Y-99757684D01*
X154038821Y-99813493D01*
X154135523Y-99862766D01*
X154135526Y-99862767D01*
X154245590Y-99898528D01*
X154355657Y-99934291D01*
X154584269Y-99970500D01*
X154584270Y-99970500D01*
X154815730Y-99970500D01*
X154815731Y-99970500D01*
X155044343Y-99934291D01*
X155264476Y-99862766D01*
X155470710Y-99757684D01*
X155657966Y-99621635D01*
X155821635Y-99457966D01*
X155825817Y-99452209D01*
X155869682Y-99391836D01*
X155925012Y-99349170D01*
X155994625Y-99343191D01*
X156056420Y-99375796D01*
X156070318Y-99391836D01*
X156118359Y-99457959D01*
X156118363Y-99457964D01*
X156282035Y-99621636D01*
X156282040Y-99621640D01*
X156445366Y-99740302D01*
X156469290Y-99757684D01*
X156578821Y-99813493D01*
X156675523Y-99862766D01*
X156675526Y-99862767D01*
X156785590Y-99898528D01*
X156895657Y-99934291D01*
X157124269Y-99970500D01*
X157124270Y-99970500D01*
X157355730Y-99970500D01*
X157355731Y-99970500D01*
X157584343Y-99934291D01*
X157804476Y-99862766D01*
X158010710Y-99757684D01*
X158197966Y-99621635D01*
X158361635Y-99457966D01*
X158364480Y-99454049D01*
X158402257Y-99402056D01*
X158497683Y-99270711D01*
X158519550Y-99227796D01*
X158543609Y-99180576D01*
X158591583Y-99129780D01*
X158659404Y-99112985D01*
X158725539Y-99135522D01*
X158754413Y-99163987D01*
X158757798Y-99168646D01*
X159380000Y-98546445D01*
X159380000Y-98552661D01*
X159407259Y-98654394D01*
X159459920Y-98745606D01*
X159534394Y-98820080D01*
X159625606Y-98872741D01*
X159727339Y-98900000D01*
X159733554Y-98900000D01*
X159111351Y-99522200D01*
X159111352Y-99522201D01*
X159140577Y-99543434D01*
X159311678Y-99630616D01*
X159494315Y-99689959D01*
X159683985Y-99720000D01*
X159876015Y-99720000D01*
X160065684Y-99689959D01*
X160248321Y-99630616D01*
X160419419Y-99543436D01*
X160448646Y-99522201D01*
X160448646Y-99522200D01*
X159826447Y-98900000D01*
X159832661Y-98900000D01*
X159934394Y-98872741D01*
X160025606Y-98820080D01*
X160100080Y-98745606D01*
X160152741Y-98654394D01*
X160180000Y-98552661D01*
X160180000Y-98546446D01*
X160802200Y-99168646D01*
X160802201Y-99168646D01*
X160823436Y-99139419D01*
X160910616Y-98968321D01*
X160969959Y-98785684D01*
X161000000Y-98596015D01*
X161000000Y-98403984D01*
X160969959Y-98214315D01*
X160910616Y-98031678D01*
X160823434Y-97860577D01*
X160802201Y-97831352D01*
X160802200Y-97831351D01*
X160180000Y-98453552D01*
X160180000Y-98447339D01*
X160152741Y-98345606D01*
X160100080Y-98254394D01*
X160025606Y-98179920D01*
X159934394Y-98127259D01*
X159832661Y-98100000D01*
X159826447Y-98100000D01*
X160448646Y-97477798D01*
X160419415Y-97456561D01*
X160371837Y-97432319D01*
X160248321Y-97369383D01*
X160111673Y-97324983D01*
X175149500Y-97324983D01*
X175149500Y-99125001D01*
X175149501Y-99125018D01*
X175160000Y-99227796D01*
X175160001Y-99227799D01*
X175198239Y-99343191D01*
X175215186Y-99394334D01*
X175307152Y-99543436D01*
X175307289Y-99543657D01*
X175436128Y-99672496D01*
X175469613Y-99733819D01*
X175464629Y-99803511D01*
X175448765Y-99833062D01*
X175381132Y-99926151D01*
X175266760Y-100150616D01*
X175192719Y-100378491D01*
X175188910Y-100390215D01*
X175149500Y-100639038D01*
X175149500Y-100890962D01*
X175173120Y-101040092D01*
X175188910Y-101139785D01*
X175266760Y-101379383D01*
X175345413Y-101533747D01*
X175358687Y-101559799D01*
X175381132Y-101603848D01*
X175529201Y-101807649D01*
X175529205Y-101807654D01*
X175668870Y-101947319D01*
X175702355Y-102008642D01*
X175697371Y-102078334D01*
X175668870Y-102122681D01*
X175529205Y-102262345D01*
X175529201Y-102262350D01*
X175381132Y-102466151D01*
X175266760Y-102690616D01*
X175188910Y-102930214D01*
X175149500Y-103179038D01*
X175149500Y-103430961D01*
X175188910Y-103679785D01*
X175266760Y-103919383D01*
X175335564Y-104054417D01*
X175368930Y-104119902D01*
X175381132Y-104143848D01*
X175529201Y-104347649D01*
X175529205Y-104347654D01*
X175707345Y-104525794D01*
X175707350Y-104525798D01*
X175812164Y-104601949D01*
X175911155Y-104673870D01*
X176044053Y-104741585D01*
X176135616Y-104788239D01*
X176135618Y-104788239D01*
X176135621Y-104788241D01*
X176375215Y-104866090D01*
X176624038Y-104905500D01*
X176624039Y-104905500D01*
X176875961Y-104905500D01*
X176875962Y-104905500D01*
X177124785Y-104866090D01*
X177364379Y-104788241D01*
X177588845Y-104673870D01*
X177792656Y-104525793D01*
X177970793Y-104347656D01*
X178118870Y-104143845D01*
X178233241Y-103919379D01*
X178311090Y-103679785D01*
X178350500Y-103430962D01*
X178350500Y-103179038D01*
X178311090Y-102930215D01*
X178233241Y-102690621D01*
X178233239Y-102690618D01*
X178233239Y-102690616D01*
X178159167Y-102545243D01*
X178118870Y-102466155D01*
X178018832Y-102328464D01*
X177970798Y-102262350D01*
X177970794Y-102262345D01*
X177831130Y-102122681D01*
X177797645Y-102061358D01*
X177802629Y-101991666D01*
X177831130Y-101947319D01*
X177858794Y-101919655D01*
X177970793Y-101807656D01*
X178118870Y-101603845D01*
X178233241Y-101379379D01*
X178311090Y-101139785D01*
X178350500Y-100890962D01*
X178350500Y-100639038D01*
X178311090Y-100390215D01*
X178233241Y-100150621D01*
X178233239Y-100150618D01*
X178233239Y-100150616D01*
X178133443Y-99954757D01*
X178118870Y-99926155D01*
X178051233Y-99833060D01*
X178027754Y-99767257D01*
X178043579Y-99699203D01*
X178063871Y-99672495D01*
X178068650Y-99667715D01*
X178068656Y-99667712D01*
X178192712Y-99543656D01*
X178284814Y-99394334D01*
X178339999Y-99227797D01*
X178350500Y-99125009D01*
X178350499Y-97324992D01*
X178339999Y-97222203D01*
X178284814Y-97055666D01*
X178192712Y-96906344D01*
X178068656Y-96782288D01*
X177919334Y-96690186D01*
X177752797Y-96635001D01*
X177752795Y-96635000D01*
X177650010Y-96624500D01*
X175849998Y-96624500D01*
X175849981Y-96624501D01*
X175747203Y-96635000D01*
X175747200Y-96635001D01*
X175580668Y-96690185D01*
X175580663Y-96690187D01*
X175431342Y-96782289D01*
X175307289Y-96906342D01*
X175215187Y-97055663D01*
X175215186Y-97055666D01*
X175160001Y-97222203D01*
X175160001Y-97222204D01*
X175160000Y-97222204D01*
X175149500Y-97324983D01*
X160111673Y-97324983D01*
X160065684Y-97310040D01*
X159876015Y-97280000D01*
X159683985Y-97280000D01*
X159494315Y-97310040D01*
X159311678Y-97369383D01*
X159140578Y-97456564D01*
X159111352Y-97477798D01*
X159111351Y-97477798D01*
X159733554Y-98100000D01*
X159727339Y-98100000D01*
X159625606Y-98127259D01*
X159534394Y-98179920D01*
X159459920Y-98254394D01*
X159407259Y-98345606D01*
X159380000Y-98447339D01*
X159380000Y-98453553D01*
X158757798Y-97831351D01*
X158757796Y-97831352D01*
X158754412Y-97836011D01*
X158699083Y-97878678D01*
X158629470Y-97884658D01*
X158567674Y-97852053D01*
X158543608Y-97819421D01*
X158497683Y-97729288D01*
X158402257Y-97597945D01*
X158402254Y-97597942D01*
X158402123Y-97597762D01*
X158361635Y-97542034D01*
X158197966Y-97378365D01*
X158197964Y-97378363D01*
X158197959Y-97378359D01*
X158010713Y-97242318D01*
X158010712Y-97242317D01*
X158010710Y-97242316D01*
X157903874Y-97187880D01*
X157804476Y-97137233D01*
X157804473Y-97137232D01*
X157584344Y-97065709D01*
X157445019Y-97043642D01*
X157355731Y-97029500D01*
X157124269Y-97029500D01*
X157048065Y-97041569D01*
X156895655Y-97065709D01*
X156675526Y-97137232D01*
X156675523Y-97137233D01*
X156469286Y-97242318D01*
X156282040Y-97378359D01*
X156282035Y-97378363D01*
X156118363Y-97542035D01*
X156070318Y-97608164D01*
X156014988Y-97650829D01*
X155945374Y-97656808D01*
X155883579Y-97624202D01*
X155869682Y-97608164D01*
X155821636Y-97542035D01*
X155657964Y-97378363D01*
X155657959Y-97378359D01*
X155470713Y-97242318D01*
X155470712Y-97242317D01*
X155470710Y-97242316D01*
X155363874Y-97187880D01*
X155264476Y-97137233D01*
X155264473Y-97137232D01*
X155044344Y-97065709D01*
X154905019Y-97043642D01*
X154815731Y-97029500D01*
X154584269Y-97029500D01*
X154508065Y-97041569D01*
X154355655Y-97065709D01*
X154135526Y-97137232D01*
X154135523Y-97137233D01*
X153929286Y-97242318D01*
X153742040Y-97378359D01*
X153742035Y-97378363D01*
X153578363Y-97542035D01*
X153578359Y-97542040D01*
X153442318Y-97729286D01*
X153337233Y-97935523D01*
X153337232Y-97935526D01*
X153265709Y-98155655D01*
X153229500Y-98384269D01*
X146029766Y-98384269D01*
X146018509Y-98298766D01*
X145940203Y-98006527D01*
X145940200Y-98006516D01*
X145824425Y-97727010D01*
X145824423Y-97727006D01*
X145673148Y-97464993D01*
X145673147Y-97464992D01*
X145549586Y-97303965D01*
X145549585Y-97303965D01*
X144829474Y-98024076D01*
X144741585Y-97903107D01*
X144596893Y-97758415D01*
X144475921Y-97670523D01*
X145196033Y-96950412D01*
X145035007Y-96826852D01*
X145035006Y-96826851D01*
X144772993Y-96675576D01*
X144772989Y-96675574D01*
X144493483Y-96559799D01*
X144493472Y-96559796D01*
X144201233Y-96481491D01*
X143901281Y-96442000D01*
X143598718Y-96442000D01*
X143298766Y-96481491D01*
X143006527Y-96559796D01*
X143006516Y-96559799D01*
X142727010Y-96675574D01*
X142727006Y-96675576D01*
X142464993Y-96826851D01*
X142464984Y-96826857D01*
X142303965Y-96950411D01*
X142303965Y-96950412D01*
X143024077Y-97670524D01*
X142903107Y-97758415D01*
X142758415Y-97903107D01*
X142670524Y-98024077D01*
X141950412Y-97303965D01*
X141950411Y-97303965D01*
X141826857Y-97464984D01*
X141826851Y-97464993D01*
X141675576Y-97727006D01*
X141675574Y-97727010D01*
X141559799Y-98006516D01*
X141559796Y-98006527D01*
X141481491Y-98298766D01*
X141442000Y-98598718D01*
X136000500Y-98598718D01*
X136000500Y-81854269D01*
X151179500Y-81854269D01*
X151179500Y-82085730D01*
X151215709Y-82314344D01*
X151287232Y-82534473D01*
X151287233Y-82534476D01*
X151392318Y-82740713D01*
X151528359Y-82927959D01*
X151528363Y-82927964D01*
X151692035Y-83091636D01*
X151758164Y-83139682D01*
X151800829Y-83195012D01*
X151806808Y-83264626D01*
X151774202Y-83326421D01*
X151758164Y-83340318D01*
X151692035Y-83388363D01*
X151528363Y-83552035D01*
X151528359Y-83552040D01*
X151392318Y-83739286D01*
X151287233Y-83945523D01*
X151287232Y-83945526D01*
X151215709Y-84165655D01*
X151215709Y-84165657D01*
X151179500Y-84394269D01*
X151179500Y-84625731D01*
X151188733Y-84684023D01*
X151215709Y-84854344D01*
X151287232Y-85074473D01*
X151287233Y-85074476D01*
X151347920Y-85193579D01*
X151377892Y-85252402D01*
X151392318Y-85280713D01*
X151528359Y-85467959D01*
X151528363Y-85467964D01*
X151692035Y-85631636D01*
X151758164Y-85679682D01*
X151800829Y-85735012D01*
X151806808Y-85804626D01*
X151774202Y-85866421D01*
X151758164Y-85880318D01*
X151692035Y-85928363D01*
X151528363Y-86092035D01*
X151528359Y-86092040D01*
X151392318Y-86279286D01*
X151287233Y-86485523D01*
X151287232Y-86485526D01*
X151215709Y-86705655D01*
X151179500Y-86934269D01*
X151179500Y-87165730D01*
X151215709Y-87394344D01*
X151287232Y-87614473D01*
X151287233Y-87614476D01*
X151392318Y-87820713D01*
X151528359Y-88007959D01*
X151528363Y-88007964D01*
X151692035Y-88171636D01*
X151692040Y-88171640D01*
X151742313Y-88208165D01*
X151879290Y-88307684D01*
X152014106Y-88376376D01*
X152085523Y-88412766D01*
X152085526Y-88412767D01*
X152195590Y-88448528D01*
X152305657Y-88484291D01*
X152534269Y-88520500D01*
X152534270Y-88520500D01*
X152765730Y-88520500D01*
X152765731Y-88520500D01*
X152994343Y-88484291D01*
X153214476Y-88412766D01*
X153420710Y-88307684D01*
X153607966Y-88171635D01*
X153771635Y-88007966D01*
X153907684Y-87820710D01*
X154012766Y-87614476D01*
X154084291Y-87394343D01*
X154120500Y-87165731D01*
X154120500Y-86934269D01*
X154084291Y-86705657D01*
X154033878Y-86550500D01*
X154012767Y-86485526D01*
X154012766Y-86485523D01*
X153962964Y-86387782D01*
X153907684Y-86279290D01*
X153890302Y-86255366D01*
X153771640Y-86092040D01*
X153771636Y-86092035D01*
X153607964Y-85928363D01*
X153607959Y-85928359D01*
X153541836Y-85880318D01*
X153527932Y-85862288D01*
X153510667Y-85847444D01*
X153507004Y-85835148D01*
X153499170Y-85824988D01*
X153497221Y-85802303D01*
X153490722Y-85780482D01*
X153494288Y-85768157D01*
X153493191Y-85755375D01*
X153503816Y-85735237D01*
X153510146Y-85713366D01*
X153522009Y-85700755D01*
X153525796Y-85693580D01*
X153533155Y-85686603D01*
X153537343Y-85682945D01*
X153587465Y-85646530D01*
X166699500Y-85646530D01*
X166699500Y-85853469D01*
X166739868Y-86056412D01*
X166739870Y-86056420D01*
X166819058Y-86247596D01*
X166934024Y-86419657D01*
X167080342Y-86565975D01*
X167080345Y-86565977D01*
X167252402Y-86680941D01*
X167443580Y-86760130D01*
X167646530Y-86800499D01*
X167646534Y-86800500D01*
X167646535Y-86800500D01*
X167853466Y-86800500D01*
X167853467Y-86800499D01*
X168056420Y-86760130D01*
X168056884Y-86759938D01*
X168057371Y-86759840D01*
X168062247Y-86758362D01*
X168062392Y-86758842D01*
X168104334Y-86750500D01*
X172153542Y-86750500D01*
X172184566Y-86744328D01*
X172250188Y-86731275D01*
X172346836Y-86712051D01*
X172400165Y-86689961D01*
X172528914Y-86636632D01*
X172692782Y-86527139D01*
X172832139Y-86387782D01*
X172832140Y-86387779D01*
X172839206Y-86380714D01*
X172839209Y-86380710D01*
X176778349Y-82441569D01*
X176839670Y-82408086D01*
X176869166Y-82406086D01*
X176869166Y-82405500D01*
X177125961Y-82405500D01*
X177125962Y-82405500D01*
X177374785Y-82366090D01*
X177614379Y-82288241D01*
X177838845Y-82173870D01*
X178042656Y-82025793D01*
X178220793Y-81847656D01*
X178368870Y-81643845D01*
X178483241Y-81419379D01*
X178561090Y-81179785D01*
X178600500Y-80930962D01*
X178600500Y-80679038D01*
X178561090Y-80430215D01*
X178483241Y-80190621D01*
X178483239Y-80190618D01*
X178483239Y-80190616D01*
X178425492Y-80077282D01*
X178368870Y-79966155D01*
X178232110Y-79777920D01*
X178220798Y-79762350D01*
X178220794Y-79762345D01*
X178081130Y-79622681D01*
X178047645Y-79561358D01*
X178052629Y-79491666D01*
X178081130Y-79447319D01*
X178220793Y-79307656D01*
X178368870Y-79103845D01*
X178483241Y-78879379D01*
X178561090Y-78639785D01*
X178600500Y-78390962D01*
X178600500Y-78139038D01*
X178561090Y-77890215D01*
X178483241Y-77650621D01*
X178483239Y-77650618D01*
X178483239Y-77650616D01*
X178368869Y-77426154D01*
X178368867Y-77426151D01*
X178301233Y-77333060D01*
X178277754Y-77267257D01*
X178293579Y-77199203D01*
X178313871Y-77172495D01*
X178318650Y-77167715D01*
X178318656Y-77167712D01*
X178442712Y-77043656D01*
X178534814Y-76894334D01*
X178589999Y-76727797D01*
X178600500Y-76625009D01*
X178600499Y-74824992D01*
X178589999Y-74722203D01*
X178534814Y-74555666D01*
X178442712Y-74406344D01*
X178318656Y-74282288D01*
X178169334Y-74190186D01*
X178002797Y-74135001D01*
X178002795Y-74135000D01*
X177900010Y-74124500D01*
X176099998Y-74124500D01*
X176099981Y-74124501D01*
X175997203Y-74135000D01*
X175997200Y-74135001D01*
X175830668Y-74190185D01*
X175830663Y-74190187D01*
X175681342Y-74282289D01*
X175557289Y-74406342D01*
X175465187Y-74555663D01*
X175465186Y-74555666D01*
X175410001Y-74722203D01*
X175410001Y-74722204D01*
X175410000Y-74722204D01*
X175399500Y-74824983D01*
X175399500Y-76625001D01*
X175399501Y-76625018D01*
X175410000Y-76727796D01*
X175410001Y-76727799D01*
X175465185Y-76894331D01*
X175465187Y-76894336D01*
X175557289Y-77043657D01*
X175686128Y-77172496D01*
X175719613Y-77233819D01*
X175714629Y-77303511D01*
X175698765Y-77333062D01*
X175631132Y-77426151D01*
X175516760Y-77650616D01*
X175438910Y-77890214D01*
X175399500Y-78139038D01*
X175399500Y-78390961D01*
X175438910Y-78639785D01*
X175516760Y-78879383D01*
X175631132Y-79103848D01*
X175779201Y-79307649D01*
X175779205Y-79307654D01*
X175918870Y-79447319D01*
X175952355Y-79508642D01*
X175947371Y-79578334D01*
X175918870Y-79622681D01*
X175779205Y-79762345D01*
X175779201Y-79762350D01*
X175631132Y-79966151D01*
X175516760Y-80190616D01*
X175438910Y-80430214D01*
X175399500Y-80679038D01*
X175399500Y-80935834D01*
X175397986Y-80935834D01*
X175384985Y-80997646D01*
X175363427Y-81026651D01*
X171676899Y-84713181D01*
X171615576Y-84746666D01*
X171589218Y-84749500D01*
X168104334Y-84749500D01*
X168062392Y-84741157D01*
X168062247Y-84741638D01*
X168057371Y-84740159D01*
X168056884Y-84740062D01*
X168056423Y-84739871D01*
X168056421Y-84739870D01*
X168056420Y-84739870D01*
X168056417Y-84739869D01*
X168056412Y-84739868D01*
X167853469Y-84699500D01*
X167853465Y-84699500D01*
X167646535Y-84699500D01*
X167646530Y-84699500D01*
X167443587Y-84739868D01*
X167443579Y-84739870D01*
X167252403Y-84819058D01*
X167080342Y-84934024D01*
X166934024Y-85080342D01*
X166819058Y-85252403D01*
X166739870Y-85443579D01*
X166739868Y-85443587D01*
X166699500Y-85646530D01*
X153587465Y-85646530D01*
X153607966Y-85631635D01*
X153771635Y-85467966D01*
X153907684Y-85280710D01*
X154012766Y-85074476D01*
X154084291Y-84854343D01*
X154120500Y-84625731D01*
X154120500Y-84394269D01*
X154084291Y-84165657D01*
X154012766Y-83945524D01*
X154012766Y-83945523D01*
X153976376Y-83874106D01*
X153907684Y-83739290D01*
X153890302Y-83715366D01*
X153771640Y-83552040D01*
X153771636Y-83552035D01*
X153607964Y-83388363D01*
X153607959Y-83388359D01*
X153541836Y-83340318D01*
X153499170Y-83284988D01*
X153493191Y-83215375D01*
X153525796Y-83153580D01*
X153541836Y-83139682D01*
X153607959Y-83091640D01*
X153607957Y-83091640D01*
X153607966Y-83091635D01*
X153771635Y-82927966D01*
X153907684Y-82740710D01*
X154012766Y-82534476D01*
X154084291Y-82314343D01*
X154120500Y-82085731D01*
X154120500Y-81854269D01*
X154084291Y-81625657D01*
X154012766Y-81405524D01*
X154012766Y-81405523D01*
X153976376Y-81334106D01*
X153907684Y-81199290D01*
X153782255Y-81026651D01*
X153771640Y-81012040D01*
X153771636Y-81012035D01*
X153607964Y-80848363D01*
X153607959Y-80848359D01*
X153420713Y-80712318D01*
X153420712Y-80712317D01*
X153420710Y-80712316D01*
X153354638Y-80678650D01*
X153214476Y-80607233D01*
X153214473Y-80607232D01*
X152994344Y-80535709D01*
X152880037Y-80517604D01*
X152765731Y-80499500D01*
X152534269Y-80499500D01*
X152458065Y-80511569D01*
X152305655Y-80535709D01*
X152085526Y-80607232D01*
X152085523Y-80607233D01*
X151879286Y-80712318D01*
X151692040Y-80848359D01*
X151692035Y-80848363D01*
X151528363Y-81012035D01*
X151528359Y-81012040D01*
X151392318Y-81199286D01*
X151287233Y-81405523D01*
X151287232Y-81405526D01*
X151215709Y-81625655D01*
X151179500Y-81854269D01*
X136000500Y-81854269D01*
X136000500Y-65374500D01*
X136020185Y-65307461D01*
X136072989Y-65261706D01*
X136124500Y-65250500D01*
X226375500Y-65250500D01*
X226442539Y-65270185D01*
G37*
%TD.AperFunction*%
%TD*%
M02*
