%TF.GenerationSoftware,KiCad,Pcbnew,9.0.0*%
%TF.CreationDate,2025-03-19T20:57:18-07:00*%
%TF.ProjectId,deflection_board_2,6465666c-6563-4746-996f-6e5f626f6172,rev?*%
%TF.SameCoordinates,Original*%
%TF.FileFunction,Soldermask,Bot*%
%TF.FilePolarity,Negative*%
%FSLAX46Y46*%
G04 Gerber Fmt 4.6, Leading zero omitted, Abs format (unit mm)*
G04 Created by KiCad (PCBNEW 9.0.0) date 2025-03-19 20:57:18*
%MOMM*%
%LPD*%
G01*
G04 APERTURE LIST*
G04 Aperture macros list*
%AMRoundRect*
0 Rectangle with rounded corners*
0 $1 Rounding radius*
0 $2 $3 $4 $5 $6 $7 $8 $9 X,Y pos of 4 corners*
0 Add a 4 corners polygon primitive as box body*
4,1,4,$2,$3,$4,$5,$6,$7,$8,$9,$2,$3,0*
0 Add four circle primitives for the rounded corners*
1,1,$1+$1,$2,$3*
1,1,$1+$1,$4,$5*
1,1,$1+$1,$6,$7*
1,1,$1+$1,$8,$9*
0 Add four rect primitives between the rounded corners*
20,1,$1+$1,$2,$3,$4,$5,0*
20,1,$1+$1,$4,$5,$6,$7,0*
20,1,$1+$1,$6,$7,$8,$9,0*
20,1,$1+$1,$8,$9,$2,$3,0*%
G04 Aperture macros list end*
%ADD10C,3.616000*%
%ADD11C,2.550000*%
%ADD12C,1.440000*%
%ADD13R,1.700000X1.700000*%
%ADD14O,1.700000X1.700000*%
%ADD15RoundRect,0.250000X-1.850000X1.330000X-1.850000X-1.330000X1.850000X-1.330000X1.850000X1.330000X0*%
%ADD16O,4.200000X3.160000*%
G04 APERTURE END LIST*
D10*
%TO.C,J6*%
X143750000Y-98750000D03*
X143750000Y-108750000D03*
X139250000Y-103750000D03*
D11*
X143750000Y-103750000D03*
%TD*%
D12*
%TO.C,RV8*%
X152400000Y-126720000D03*
X152400000Y-129260000D03*
X152400000Y-131800000D03*
%TD*%
D13*
%TO.C,J4*%
X176750000Y-142975000D03*
D14*
X176750000Y-145515000D03*
X176750000Y-148055000D03*
%TD*%
D10*
%TO.C,J7*%
X143750000Y-116500000D03*
X143750000Y-126500000D03*
X139250000Y-121500000D03*
D11*
X143750000Y-121500000D03*
%TD*%
D12*
%TO.C,RV7*%
X154700000Y-98500000D03*
X157240000Y-98500000D03*
X159780000Y-98500000D03*
%TD*%
D13*
%TO.C,J1*%
X177000000Y-75725000D03*
D14*
X177000000Y-78265000D03*
X177000000Y-80805000D03*
%TD*%
D13*
%TO.C,J3*%
X176750000Y-120725000D03*
D14*
X176750000Y-123265000D03*
X176750000Y-125805000D03*
%TD*%
D12*
%TO.C,RV6*%
X152650000Y-81970000D03*
X152650000Y-84510000D03*
X152650000Y-87050000D03*
%TD*%
D13*
%TO.C,J2*%
X176750000Y-98225000D03*
D14*
X176750000Y-100765000D03*
X176750000Y-103305000D03*
%TD*%
D12*
%TO.C,RV9*%
X154450000Y-143250000D03*
X156990000Y-143250000D03*
X159530000Y-143250000D03*
%TD*%
D15*
%TO.C,J5*%
X219000000Y-94660000D03*
D16*
X219000000Y-98620000D03*
X219000000Y-102580000D03*
X219000000Y-106540000D03*
X219000000Y-110500000D03*
X219000000Y-114460000D03*
X219000000Y-118420000D03*
X219000000Y-122380000D03*
X219000000Y-126340000D03*
%TD*%
M02*
