M48
; DRILL file {KiCad 9.0.0} date 2025-03-19T20:57:20-0700
; FORMAT={-:-/ absolute / inch / decimal}
; #@! TF.CreationDate,2025-03-19T20:57:20-07:00
; #@! TF.GenerationSoftware,Kicad,Pcbnew,9.0.0
; #@! TF.FileFunction,Plated,1,2,PTH
FMAT,2
INCH
; #@! TA.AperFunction,Plated,PTH,ViaDrill
T1C0.0118
; #@! TA.AperFunction,Plated,PTH,ComponentDrill
T2C0.0315
; #@! TA.AperFunction,Plated,PTH,ComponentDrill
T3C0.0394
; #@! TA.AperFunction,Plated,PTH,ComponentDrill
T4C0.0669
; #@! TA.AperFunction,Plated,PTH,ComponentDrill
T5C0.0709
; #@! TA.AperFunction,Plated,PTH,ComponentDrill
T6C0.1024
%
G90
G05
T1
X5.5906Y-3.4154
X5.7185Y-5.8169
X5.9252Y-4.6654
X5.9646Y-4.3996
X6.0531Y-5.4921
X6.2205Y-2.815
X6.2303Y-5.2559
X6.2402Y-3.4941
X6.25Y-4.1142
X6.3484Y-4.4488
X6.437Y-3.9075
X6.4961Y-5.8563
X6.5945Y-5.1378
X6.6043Y-3.376
X6.6634Y-4.2126
X6.7421Y-3.6909
X6.8799Y-4.2126
X6.8898Y-5.2953
X7.0472Y-3.4646
X7.1457Y-3.0807
X7.1887Y-4.7871
X7.1887Y-5.673
X7.1923Y-3.9101
X7.1949Y-3.0217
X7.2749Y-4.4549
X7.2749Y-5.3408
X7.2781Y-3.5726
X7.2835Y-2.687
X7.4016Y-3.4055
X7.4114Y-5.187
X7.4213Y-2.8445
X7.4213Y-4.6161
X7.4213Y-5.502
X7.4311Y-3.7402
X7.4409Y-3.937
X7.4409Y-4.8228
X7.4409Y-5.7087
X7.4508Y-3.0512
X7.5787Y-4.0354
X7.5898Y-5.1341
X7.5898Y-6.0199
X7.5909Y-4.2496
X7.5984Y-3.3661
X7.639Y-4.7207
X7.639Y-5.6065
X7.6422Y-3.8384
X7.6476Y-2.9528
X7.7535Y-5.1402
X7.7571Y-6.0297
X7.7582Y-4.2595
X7.7657Y-3.376
X7.8937Y-5.1673
X7.9626Y-4.2421
X7.9724Y-3.4154
X8.0623Y-4.4549
X8.0623Y-5.3408
X8.0655Y-3.5726
X8.0709Y-2.687
X8.2283Y-3.9862
X8.3268Y-3.5236
X8.3366Y-4.9016
X8.4154Y-5.935
X8.5827Y-5.502
X8.6024Y-2.8445
X8.6713Y-5.2854
X8.7795Y-5.8661
T2
X6.0Y-4.989
X6.0Y-5.089
X6.0Y-5.189
X6.0098Y-3.2272
X6.0098Y-3.3272
X6.0098Y-3.4272
X6.0807Y-5.6398
X6.0906Y-3.878
X6.1807Y-5.6398
X6.1906Y-3.878
X6.2807Y-5.6398
X6.2906Y-3.878
T3
X6.9587Y-3.8671
X6.9587Y-3.9671
X6.9587Y-4.0671
X6.9587Y-4.753
X6.9587Y-4.853
X6.9587Y-4.953
X6.9587Y-5.6289
X6.9587Y-5.7289
X6.9587Y-5.8289
X6.9685Y-2.9813
X6.9685Y-3.0813
X6.9685Y-3.1813
T4
X5.6594Y-4.0846
X5.6594Y-4.7835
T5
X8.622Y-3.7268
X8.622Y-3.8827
X8.622Y-4.0386
X8.622Y-4.1945
X8.622Y-4.3504
X8.622Y-4.5063
X8.622Y-4.6622
X8.622Y-4.8181
X8.622Y-4.974
T6
X5.4823Y-4.0846
X5.4823Y-4.7835
X5.6594Y-3.8878
X5.6594Y-4.2815
X5.6594Y-4.5866
X5.6594Y-4.9803
M30
