%TF.GenerationSoftware,KiCad,Pcbnew,8.0.8*%
%TF.CreationDate,2025-02-22T00:18:49-08:00*%
%TF.ProjectId,CRT_main_supply,4352545f-6d61-4696-9e5f-737570706c79,rev?*%
%TF.SameCoordinates,Original*%
%TF.FileFunction,Copper,L2,Bot*%
%TF.FilePolarity,Positive*%
%FSLAX46Y46*%
G04 Gerber Fmt 4.6, Leading zero omitted, Abs format (unit mm)*
G04 Created by KiCad (PCBNEW 8.0.8) date 2025-02-22 00:18:49*
%MOMM*%
%LPD*%
G01*
G04 APERTURE LIST*
%TA.AperFunction,ComponentPad*%
%ADD10R,1.700000X1.700000*%
%TD*%
%TA.AperFunction,ComponentPad*%
%ADD11C,1.440000*%
%TD*%
%TA.AperFunction,ComponentPad*%
%ADD12O,1.700000X1.700000*%
%TD*%
%TA.AperFunction,ViaPad*%
%ADD13C,0.600000*%
%TD*%
%TA.AperFunction,Conductor*%
%ADD14C,0.600000*%
%TD*%
G04 APERTURE END LIST*
D10*
%TO.P,J4,1,Pin_1*%
%TO.N,focus*%
X182500000Y-94880000D03*
%TD*%
%TO.P,J7,1,Pin_1*%
%TO.N,-75V (grid drive)*%
X182500000Y-70880000D03*
%TD*%
%TO.P,J8,1,Pin_1*%
%TO.N,0V*%
X182500000Y-100880000D03*
%TD*%
%TO.P,J1,1,Pin_1*%
%TO.N,+12V*%
X90500000Y-55000000D03*
%TD*%
%TO.P,J5,1,Pin_1*%
%TO.N,cathode*%
X182500000Y-88880000D03*
%TD*%
D11*
%TO.P,RV2,1,1*%
%TO.N,Net-(R3-Pad2)*%
X165000000Y-69555000D03*
%TO.P,RV2,2,2*%
%TO.N,Net-(C6-Pad1)*%
X165000000Y-67015000D03*
%TO.P,RV2,3,3*%
%TO.N,-1500V*%
X165000000Y-64475000D03*
%TD*%
D10*
%TO.P,J10,1,Pin_1*%
%TO.N,+12V*%
X90960000Y-73500000D03*
D12*
%TO.P,J10,2,Pin_2*%
%TO.N,/Filament_input*%
X93500000Y-73500000D03*
%TD*%
D10*
%TO.P,J12,1,Pin_1*%
%TO.N,GND*%
X182500000Y-56760000D03*
D12*
%TO.P,J12,2,Pin_2*%
%TO.N,Net-(J12-Pin_2)*%
X182500000Y-59300000D03*
%TO.P,J12,3,Pin_3*%
X182500000Y-61840000D03*
%TO.P,J12,4,Pin_4*%
%TO.N,-1500V*%
X182500000Y-64380000D03*
%TD*%
D10*
%TO.P,J9,1,Pin_1*%
%TO.N,+12V*%
X90725000Y-92000000D03*
D12*
%TO.P,J9,2,Pin_2*%
%TO.N,/HV_input*%
X93265000Y-92000000D03*
%TD*%
D10*
%TO.P,J3,1,Pin_1*%
%TO.N,-1500V*%
X182500000Y-76880000D03*
%TD*%
%TO.P,J6,1,Pin_1*%
%TO.N,+6.3V (filament)*%
X182500000Y-82880000D03*
%TD*%
%TO.P,J13,1,Pin_1*%
%TO.N,GND*%
X182500000Y-116000000D03*
D12*
%TO.P,J13,2,Pin_2*%
%TO.N,Net-(J13-Pin_2)*%
X182500000Y-113460000D03*
%TO.P,J13,3,Pin_3*%
X182500000Y-110920000D03*
%TO.P,J13,4,Pin_4*%
%TO.N,0V*%
X182500000Y-108380000D03*
%TD*%
D11*
%TO.P,RV1,1,1*%
%TO.N,Net-(R2-Pad2)*%
X165000000Y-86545000D03*
%TO.P,RV1,2,2*%
%TO.N,Net-(C7-Pad1)*%
X165000000Y-84005000D03*
%TO.P,RV1,3,3*%
%TO.N,Net-(R3-Pad1)*%
X165000000Y-81465000D03*
%TD*%
D10*
%TO.P,J2,1,Pin_1*%
%TO.N,GND*%
X90500000Y-117500000D03*
%TD*%
%TO.P,J11,1,Pin_1*%
%TO.N,+12V*%
X90725000Y-82500000D03*
D12*
%TO.P,J11,2,Pin_2*%
%TO.N,/grid_input*%
X93265000Y-82500000D03*
%TD*%
D13*
%TO.N,+6.3V (filament)*%
X146500000Y-64000000D03*
X179000000Y-82500000D03*
%TO.N,-75V (grid drive)*%
X140500000Y-82000000D03*
X182000000Y-68000000D03*
%TO.N,GND*%
X101000000Y-69000000D03*
X100500000Y-59000000D03*
X121500000Y-119000000D03*
X108000000Y-91500000D03*
X97000000Y-78500000D03*
X121000000Y-53000000D03*
X120500000Y-76000000D03*
X90000000Y-111000000D03*
X96000000Y-105500000D03*
X111000000Y-53000000D03*
X116500000Y-59500000D03*
X104500000Y-75500000D03*
X108500000Y-113500000D03*
X119000000Y-92500000D03*
X98000000Y-88000000D03*
X101500000Y-116500000D03*
X98000000Y-96000000D03*
X90000000Y-100500000D03*
%TD*%
D14*
%TO.N,+6.3V (filament)*%
X151500000Y-62000000D02*
X172500000Y-62000000D01*
X146500000Y-64000000D02*
X149500000Y-64000000D01*
X172500000Y-62000000D02*
X179000000Y-68500000D01*
X149500000Y-64000000D02*
X151500000Y-62000000D01*
X179000000Y-68500000D02*
X179000000Y-82500000D01*
%TO.N,-75V (grid drive)*%
X180500000Y-67500000D02*
X173500000Y-60500000D01*
X144000000Y-78500000D02*
X140500000Y-82000000D01*
X182000000Y-68000000D02*
X181500000Y-67500000D01*
X173500000Y-60500000D02*
X146500000Y-60500000D01*
X144000000Y-63000000D02*
X144000000Y-78500000D01*
X181500000Y-67500000D02*
X180500000Y-67500000D01*
X146500000Y-60500000D02*
X144000000Y-63000000D01*
%TD*%
%TA.AperFunction,Conductor*%
%TO.N,GND*%
G36*
X123943039Y-51520185D02*
G01*
X123988794Y-51572989D01*
X124000000Y-51624500D01*
X124000000Y-120375500D01*
X123980315Y-120442539D01*
X123927511Y-120488294D01*
X123876000Y-120499500D01*
X87624500Y-120499500D01*
X87557461Y-120479815D01*
X87511706Y-120427011D01*
X87500500Y-120375500D01*
X87500500Y-116602155D01*
X89150000Y-116602155D01*
X89150000Y-117250000D01*
X90066988Y-117250000D01*
X90034075Y-117307007D01*
X90000000Y-117434174D01*
X90000000Y-117565826D01*
X90034075Y-117692993D01*
X90066988Y-117750000D01*
X89150000Y-117750000D01*
X89150000Y-118397844D01*
X89156401Y-118457372D01*
X89156403Y-118457379D01*
X89206645Y-118592086D01*
X89206649Y-118592093D01*
X89292809Y-118707187D01*
X89292812Y-118707190D01*
X89407906Y-118793350D01*
X89407913Y-118793354D01*
X89542620Y-118843596D01*
X89542627Y-118843598D01*
X89602155Y-118849999D01*
X89602172Y-118850000D01*
X90250000Y-118850000D01*
X90250000Y-117933012D01*
X90307007Y-117965925D01*
X90434174Y-118000000D01*
X90565826Y-118000000D01*
X90692993Y-117965925D01*
X90750000Y-117933012D01*
X90750000Y-118850000D01*
X91397828Y-118850000D01*
X91397844Y-118849999D01*
X91457372Y-118843598D01*
X91457379Y-118843596D01*
X91592086Y-118793354D01*
X91592093Y-118793350D01*
X91707187Y-118707190D01*
X91707190Y-118707187D01*
X91793350Y-118592093D01*
X91793354Y-118592086D01*
X91843596Y-118457379D01*
X91843598Y-118457372D01*
X91849999Y-118397844D01*
X91850000Y-118397827D01*
X91850000Y-117750000D01*
X90933012Y-117750000D01*
X90965925Y-117692993D01*
X91000000Y-117565826D01*
X91000000Y-117434174D01*
X90965925Y-117307007D01*
X90933012Y-117250000D01*
X91850000Y-117250000D01*
X91850000Y-116602172D01*
X91849999Y-116602155D01*
X91843598Y-116542627D01*
X91843596Y-116542620D01*
X91793354Y-116407913D01*
X91793350Y-116407906D01*
X91707190Y-116292812D01*
X91707187Y-116292809D01*
X91592093Y-116206649D01*
X91592086Y-116206645D01*
X91457379Y-116156403D01*
X91457372Y-116156401D01*
X91397844Y-116150000D01*
X90750000Y-116150000D01*
X90750000Y-117066988D01*
X90692993Y-117034075D01*
X90565826Y-117000000D01*
X90434174Y-117000000D01*
X90307007Y-117034075D01*
X90250000Y-117066988D01*
X90250000Y-116150000D01*
X89602155Y-116150000D01*
X89542627Y-116156401D01*
X89542620Y-116156403D01*
X89407913Y-116206645D01*
X89407906Y-116206649D01*
X89292812Y-116292809D01*
X89292809Y-116292812D01*
X89206649Y-116407906D01*
X89206645Y-116407913D01*
X89156403Y-116542620D01*
X89156401Y-116542627D01*
X89150000Y-116602155D01*
X87500500Y-116602155D01*
X87500500Y-91130247D01*
X89674500Y-91130247D01*
X89674500Y-92869752D01*
X89686131Y-92928229D01*
X89686132Y-92928230D01*
X89730447Y-92994552D01*
X89796769Y-93038867D01*
X89796770Y-93038868D01*
X89855247Y-93050499D01*
X89855250Y-93050500D01*
X89855252Y-93050500D01*
X91594750Y-93050500D01*
X91594751Y-93050499D01*
X91609568Y-93047552D01*
X91653229Y-93038868D01*
X91653229Y-93038867D01*
X91653231Y-93038867D01*
X91719552Y-92994552D01*
X91763867Y-92928231D01*
X91763867Y-92928229D01*
X91763868Y-92928229D01*
X91775499Y-92869752D01*
X91775500Y-92869750D01*
X91775500Y-92000000D01*
X92209417Y-92000000D01*
X92229699Y-92205932D01*
X92229700Y-92205934D01*
X92289768Y-92403954D01*
X92387315Y-92586450D01*
X92387317Y-92586452D01*
X92518589Y-92746410D01*
X92615209Y-92825702D01*
X92678550Y-92877685D01*
X92861046Y-92975232D01*
X93059066Y-93035300D01*
X93059065Y-93035300D01*
X93077529Y-93037118D01*
X93265000Y-93055583D01*
X93470934Y-93035300D01*
X93668954Y-92975232D01*
X93851450Y-92877685D01*
X94011410Y-92746410D01*
X94142685Y-92586450D01*
X94240232Y-92403954D01*
X94300300Y-92205934D01*
X94320583Y-92000000D01*
X94300300Y-91794066D01*
X94240232Y-91596046D01*
X94142685Y-91413550D01*
X94090702Y-91350209D01*
X94011410Y-91253589D01*
X93861121Y-91130252D01*
X93851450Y-91122315D01*
X93668954Y-91024768D01*
X93470934Y-90964700D01*
X93470932Y-90964699D01*
X93470934Y-90964699D01*
X93265000Y-90944417D01*
X93059067Y-90964699D01*
X92861043Y-91024769D01*
X92773114Y-91071769D01*
X92678550Y-91122315D01*
X92678548Y-91122316D01*
X92678547Y-91122317D01*
X92518589Y-91253589D01*
X92387317Y-91413547D01*
X92289769Y-91596043D01*
X92229699Y-91794067D01*
X92209417Y-92000000D01*
X91775500Y-92000000D01*
X91775500Y-91130249D01*
X91775499Y-91130247D01*
X91763868Y-91071770D01*
X91763867Y-91071769D01*
X91719552Y-91005447D01*
X91653230Y-90961132D01*
X91653229Y-90961131D01*
X91594752Y-90949500D01*
X91594748Y-90949500D01*
X89855252Y-90949500D01*
X89855247Y-90949500D01*
X89796770Y-90961131D01*
X89796769Y-90961132D01*
X89730447Y-91005447D01*
X89686132Y-91071769D01*
X89686131Y-91071770D01*
X89674500Y-91130247D01*
X87500500Y-91130247D01*
X87500500Y-81630247D01*
X89674500Y-81630247D01*
X89674500Y-83369752D01*
X89686131Y-83428229D01*
X89686132Y-83428230D01*
X89730447Y-83494552D01*
X89796769Y-83538867D01*
X89796770Y-83538868D01*
X89855247Y-83550499D01*
X89855250Y-83550500D01*
X89855252Y-83550500D01*
X91594750Y-83550500D01*
X91594751Y-83550499D01*
X91609568Y-83547552D01*
X91653229Y-83538868D01*
X91653229Y-83538867D01*
X91653231Y-83538867D01*
X91719552Y-83494552D01*
X91763867Y-83428231D01*
X91763867Y-83428229D01*
X91763868Y-83428229D01*
X91775499Y-83369752D01*
X91775500Y-83369750D01*
X91775500Y-82500000D01*
X92209417Y-82500000D01*
X92229699Y-82705932D01*
X92229700Y-82705934D01*
X92289768Y-82903954D01*
X92387315Y-83086450D01*
X92387317Y-83086452D01*
X92518589Y-83246410D01*
X92615209Y-83325702D01*
X92678550Y-83377685D01*
X92861046Y-83475232D01*
X93059066Y-83535300D01*
X93059065Y-83535300D01*
X93077529Y-83537118D01*
X93265000Y-83555583D01*
X93470934Y-83535300D01*
X93668954Y-83475232D01*
X93851450Y-83377685D01*
X94011410Y-83246410D01*
X94142685Y-83086450D01*
X94240232Y-82903954D01*
X94300300Y-82705934D01*
X94320583Y-82500000D01*
X94300300Y-82294066D01*
X94240232Y-82096046D01*
X94142685Y-81913550D01*
X94090702Y-81850209D01*
X94011410Y-81753589D01*
X93861121Y-81630252D01*
X93851450Y-81622315D01*
X93668954Y-81524768D01*
X93470934Y-81464700D01*
X93470932Y-81464699D01*
X93470934Y-81464699D01*
X93265000Y-81444417D01*
X93059067Y-81464699D01*
X92861043Y-81524769D01*
X92773114Y-81571769D01*
X92678550Y-81622315D01*
X92678548Y-81622316D01*
X92678547Y-81622317D01*
X92518589Y-81753589D01*
X92387317Y-81913547D01*
X92289769Y-82096043D01*
X92229699Y-82294067D01*
X92209417Y-82500000D01*
X91775500Y-82500000D01*
X91775500Y-81630249D01*
X91775499Y-81630247D01*
X91763868Y-81571770D01*
X91763867Y-81571769D01*
X91719552Y-81505447D01*
X91653230Y-81461132D01*
X91653229Y-81461131D01*
X91594752Y-81449500D01*
X91594748Y-81449500D01*
X89855252Y-81449500D01*
X89855247Y-81449500D01*
X89796770Y-81461131D01*
X89796769Y-81461132D01*
X89730447Y-81505447D01*
X89686132Y-81571769D01*
X89686131Y-81571770D01*
X89674500Y-81630247D01*
X87500500Y-81630247D01*
X87500500Y-72630247D01*
X89909500Y-72630247D01*
X89909500Y-74369752D01*
X89921131Y-74428229D01*
X89921132Y-74428230D01*
X89965447Y-74494552D01*
X90031769Y-74538867D01*
X90031770Y-74538868D01*
X90090247Y-74550499D01*
X90090250Y-74550500D01*
X90090252Y-74550500D01*
X91829750Y-74550500D01*
X91829751Y-74550499D01*
X91844568Y-74547552D01*
X91888229Y-74538868D01*
X91888229Y-74538867D01*
X91888231Y-74538867D01*
X91954552Y-74494552D01*
X91998867Y-74428231D01*
X91998867Y-74428229D01*
X91998868Y-74428229D01*
X92010499Y-74369752D01*
X92010500Y-74369750D01*
X92010500Y-73500000D01*
X92444417Y-73500000D01*
X92464699Y-73705932D01*
X92464700Y-73705934D01*
X92524768Y-73903954D01*
X92622315Y-74086450D01*
X92622317Y-74086452D01*
X92753589Y-74246410D01*
X92850209Y-74325702D01*
X92913550Y-74377685D01*
X93096046Y-74475232D01*
X93294066Y-74535300D01*
X93294065Y-74535300D01*
X93312529Y-74537118D01*
X93500000Y-74555583D01*
X93705934Y-74535300D01*
X93903954Y-74475232D01*
X94086450Y-74377685D01*
X94246410Y-74246410D01*
X94377685Y-74086450D01*
X94475232Y-73903954D01*
X94535300Y-73705934D01*
X94555583Y-73500000D01*
X94535300Y-73294066D01*
X94475232Y-73096046D01*
X94377685Y-72913550D01*
X94325702Y-72850209D01*
X94246410Y-72753589D01*
X94096121Y-72630252D01*
X94086450Y-72622315D01*
X93903954Y-72524768D01*
X93705934Y-72464700D01*
X93705932Y-72464699D01*
X93705934Y-72464699D01*
X93500000Y-72444417D01*
X93294067Y-72464699D01*
X93096043Y-72524769D01*
X93008114Y-72571769D01*
X92913550Y-72622315D01*
X92913548Y-72622316D01*
X92913547Y-72622317D01*
X92753589Y-72753589D01*
X92622317Y-72913547D01*
X92524769Y-73096043D01*
X92464699Y-73294067D01*
X92444417Y-73500000D01*
X92010500Y-73500000D01*
X92010500Y-72630249D01*
X92010499Y-72630247D01*
X91998868Y-72571770D01*
X91998867Y-72571769D01*
X91954552Y-72505447D01*
X91888230Y-72461132D01*
X91888229Y-72461131D01*
X91829752Y-72449500D01*
X91829748Y-72449500D01*
X90090252Y-72449500D01*
X90090247Y-72449500D01*
X90031770Y-72461131D01*
X90031769Y-72461132D01*
X89965447Y-72505447D01*
X89921132Y-72571769D01*
X89921131Y-72571770D01*
X89909500Y-72630247D01*
X87500500Y-72630247D01*
X87500500Y-54130247D01*
X89449500Y-54130247D01*
X89449500Y-55869752D01*
X89461131Y-55928229D01*
X89461132Y-55928230D01*
X89505447Y-55994552D01*
X89571769Y-56038867D01*
X89571770Y-56038868D01*
X89630247Y-56050499D01*
X89630250Y-56050500D01*
X89630252Y-56050500D01*
X91369750Y-56050500D01*
X91369751Y-56050499D01*
X91384568Y-56047552D01*
X91428229Y-56038868D01*
X91428229Y-56038867D01*
X91428231Y-56038867D01*
X91494552Y-55994552D01*
X91538867Y-55928231D01*
X91538867Y-55928229D01*
X91538868Y-55928229D01*
X91550499Y-55869752D01*
X91550500Y-55869750D01*
X91550500Y-54130249D01*
X91550499Y-54130247D01*
X91538868Y-54071770D01*
X91538867Y-54071769D01*
X91494552Y-54005447D01*
X91428230Y-53961132D01*
X91428229Y-53961131D01*
X91369752Y-53949500D01*
X91369748Y-53949500D01*
X89630252Y-53949500D01*
X89630247Y-53949500D01*
X89571770Y-53961131D01*
X89571769Y-53961132D01*
X89505447Y-54005447D01*
X89461132Y-54071769D01*
X89461131Y-54071770D01*
X89449500Y-54130247D01*
X87500500Y-54130247D01*
X87500500Y-51624500D01*
X87520185Y-51557461D01*
X87572989Y-51511706D01*
X87624500Y-51500500D01*
X123876000Y-51500500D01*
X123943039Y-51520185D01*
G37*
%TD.AperFunction*%
%TD*%
M02*
