%TF.GenerationSoftware,KiCad,Pcbnew,8.0.8*%
%TF.CreationDate,2025-02-22T00:18:49-08:00*%
%TF.ProjectId,CRT_main_supply,4352545f-6d61-4696-9e5f-737570706c79,rev?*%
%TF.SameCoordinates,Original*%
%TF.FileFunction,Copper,L1,Top*%
%TF.FilePolarity,Positive*%
%FSLAX46Y46*%
G04 Gerber Fmt 4.6, Leading zero omitted, Abs format (unit mm)*
G04 Created by KiCad (PCBNEW 8.0.8) date 2025-02-22 00:18:49*
%MOMM*%
%LPD*%
G01*
G04 APERTURE LIST*
G04 Aperture macros list*
%AMRoundRect*
0 Rectangle with rounded corners*
0 $1 Rounding radius*
0 $2 $3 $4 $5 $6 $7 $8 $9 X,Y pos of 4 corners*
0 Add a 4 corners polygon primitive as box body*
4,1,4,$2,$3,$4,$5,$6,$7,$8,$9,$2,$3,0*
0 Add four circle primitives for the rounded corners*
1,1,$1+$1,$2,$3*
1,1,$1+$1,$4,$5*
1,1,$1+$1,$6,$7*
1,1,$1+$1,$8,$9*
0 Add four rect primitives between the rounded corners*
20,1,$1+$1,$2,$3,$4,$5,0*
20,1,$1+$1,$4,$5,$6,$7,0*
20,1,$1+$1,$6,$7,$8,$9,0*
20,1,$1+$1,$8,$9,$2,$3,0*%
G04 Aperture macros list end*
%TA.AperFunction,SMDPad,CuDef*%
%ADD10RoundRect,0.250000X0.300000X0.300000X-0.300000X0.300000X-0.300000X-0.300000X0.300000X-0.300000X0*%
%TD*%
%TA.AperFunction,ComponentPad*%
%ADD11R,1.700000X1.700000*%
%TD*%
%TA.AperFunction,SMDPad,CuDef*%
%ADD12RoundRect,0.250000X0.625000X-0.400000X0.625000X0.400000X-0.625000X0.400000X-0.625000X-0.400000X0*%
%TD*%
%TA.AperFunction,SMDPad,CuDef*%
%ADD13RoundRect,0.250000X0.250000X-0.250000X0.250000X0.250000X-0.250000X0.250000X-0.250000X-0.250000X0*%
%TD*%
%TA.AperFunction,SMDPad,CuDef*%
%ADD14RoundRect,0.250000X-0.250000X0.250000X-0.250000X-0.250000X0.250000X-0.250000X0.250000X0.250000X0*%
%TD*%
%TA.AperFunction,SMDPad,CuDef*%
%ADD15RoundRect,0.250000X1.412500X0.550000X-1.412500X0.550000X-1.412500X-0.550000X1.412500X-0.550000X0*%
%TD*%
%TA.AperFunction,SMDPad,CuDef*%
%ADD16RoundRect,0.250000X1.100000X-0.412500X1.100000X0.412500X-1.100000X0.412500X-1.100000X-0.412500X0*%
%TD*%
%TA.AperFunction,SMDPad,CuDef*%
%ADD17RoundRect,0.250000X-0.625000X0.400000X-0.625000X-0.400000X0.625000X-0.400000X0.625000X0.400000X0*%
%TD*%
%TA.AperFunction,SMDPad,CuDef*%
%ADD18R,1.900000X1.600000*%
%TD*%
%TA.AperFunction,SMDPad,CuDef*%
%ADD19RoundRect,0.250000X-0.350000X-0.450000X0.350000X-0.450000X0.350000X0.450000X-0.350000X0.450000X0*%
%TD*%
%TA.AperFunction,SMDPad,CuDef*%
%ADD20RoundRect,0.250000X1.500000X0.650000X-1.500000X0.650000X-1.500000X-0.650000X1.500000X-0.650000X0*%
%TD*%
%TA.AperFunction,SMDPad,CuDef*%
%ADD21RoundRect,0.237500X-0.237500X0.250000X-0.237500X-0.250000X0.237500X-0.250000X0.237500X0.250000X0*%
%TD*%
%TA.AperFunction,SMDPad,CuDef*%
%ADD22RoundRect,0.237500X0.300000X0.237500X-0.300000X0.237500X-0.300000X-0.237500X0.300000X-0.237500X0*%
%TD*%
%TA.AperFunction,SMDPad,CuDef*%
%ADD23RoundRect,0.250000X1.450000X-0.537500X1.450000X0.537500X-1.450000X0.537500X-1.450000X-0.537500X0*%
%TD*%
%TA.AperFunction,SMDPad,CuDef*%
%ADD24RoundRect,0.250000X-0.412500X-0.650000X0.412500X-0.650000X0.412500X0.650000X-0.412500X0.650000X0*%
%TD*%
%TA.AperFunction,SMDPad,CuDef*%
%ADD25RoundRect,0.237500X-0.237500X0.300000X-0.237500X-0.300000X0.237500X-0.300000X0.237500X0.300000X0*%
%TD*%
%TA.AperFunction,ComponentPad*%
%ADD26C,1.440000*%
%TD*%
%TA.AperFunction,ComponentPad*%
%ADD27O,1.700000X1.700000*%
%TD*%
%TA.AperFunction,SMDPad,CuDef*%
%ADD28RoundRect,0.250000X0.412500X0.650000X-0.412500X0.650000X-0.412500X-0.650000X0.412500X-0.650000X0*%
%TD*%
%TA.AperFunction,SMDPad,CuDef*%
%ADD29RoundRect,0.250000X-0.400000X-0.625000X0.400000X-0.625000X0.400000X0.625000X-0.400000X0.625000X0*%
%TD*%
%TA.AperFunction,SMDPad,CuDef*%
%ADD30RoundRect,0.325000X-1.175000X0.325000X-1.175000X-0.325000X1.175000X-0.325000X1.175000X0.325000X0*%
%TD*%
%TA.AperFunction,SMDPad,CuDef*%
%ADD31RoundRect,0.250000X-1.412500X-0.550000X1.412500X-0.550000X1.412500X0.550000X-1.412500X0.550000X0*%
%TD*%
%TA.AperFunction,SMDPad,CuDef*%
%ADD32RoundRect,0.250000X-0.450000X0.350000X-0.450000X-0.350000X0.450000X-0.350000X0.450000X0.350000X0*%
%TD*%
%TA.AperFunction,SMDPad,CuDef*%
%ADD33RoundRect,0.040000X0.390000X0.120000X-0.390000X0.120000X-0.390000X-0.120000X0.390000X-0.120000X0*%
%TD*%
%TA.AperFunction,SMDPad,CuDef*%
%ADD34R,1.980000X3.000000*%
%TD*%
%TA.AperFunction,SMDPad,CuDef*%
%ADD35RoundRect,0.237500X0.237500X-0.250000X0.237500X0.250000X-0.237500X0.250000X-0.237500X-0.250000X0*%
%TD*%
%TA.AperFunction,SMDPad,CuDef*%
%ADD36RoundRect,0.243750X0.243750X0.456250X-0.243750X0.456250X-0.243750X-0.456250X0.243750X-0.456250X0*%
%TD*%
%TA.AperFunction,SMDPad,CuDef*%
%ADD37RoundRect,0.250000X-0.300000X-0.300000X0.300000X-0.300000X0.300000X0.300000X-0.300000X0.300000X0*%
%TD*%
%TA.AperFunction,SMDPad,CuDef*%
%ADD38RoundRect,0.250000X0.450000X-0.350000X0.450000X0.350000X-0.450000X0.350000X-0.450000X-0.350000X0*%
%TD*%
%TA.AperFunction,ViaPad*%
%ADD39C,0.600000*%
%TD*%
%TA.AperFunction,Conductor*%
%ADD40C,0.600000*%
%TD*%
%TA.AperFunction,Conductor*%
%ADD41C,0.300000*%
%TD*%
G04 APERTURE END LIST*
D10*
%TO.P,D3,1,K*%
%TO.N,Net-(D3-K)*%
X152787500Y-100855000D03*
%TO.P,D3,2,A*%
%TO.N,Net-(D3-A)*%
X149987500Y-100855000D03*
%TD*%
D11*
%TO.P,J4,1,Pin_1*%
%TO.N,focus*%
X182500000Y-94880000D03*
%TD*%
D12*
%TO.P,R8,1*%
%TO.N,Net-(D12-A)*%
X113500000Y-88050000D03*
%TO.P,R8,2*%
%TO.N,Net-(U3-FB)*%
X113500000Y-84950000D03*
%TD*%
D10*
%TO.P,D2,1,K*%
%TO.N,Net-(D2-K)*%
X152787500Y-106855000D03*
%TO.P,D2,2,A*%
%TO.N,Net-(D2-A)*%
X149987500Y-106855000D03*
%TD*%
D13*
%TO.P,D9,1,K*%
%TO.N,Net-(D10-K)*%
X112500000Y-103250000D03*
%TO.P,D9,2,A*%
%TO.N,/HV_input*%
X112500000Y-100750000D03*
%TD*%
D11*
%TO.P,J7,1,Pin_1*%
%TO.N,-75V (grid drive)*%
X182500000Y-70880000D03*
%TD*%
D14*
%TO.P,D6,1,K*%
%TO.N,Net-(D6-K)*%
X115500000Y-69250000D03*
%TO.P,D6,2,A*%
%TO.N,Net-(D6-A)*%
X115500000Y-71750000D03*
%TD*%
D15*
%TO.P,C4,1*%
%TO.N,+6.3V (filament)*%
X138537500Y-71000000D03*
%TO.P,C4,2*%
%TO.N,-1500V*%
X133462500Y-71000000D03*
%TD*%
D16*
%TO.P,C10,1*%
%TO.N,/grid_input*%
X110500000Y-80600000D03*
%TO.P,C10,2*%
%TO.N,GND*%
X110500000Y-77475000D03*
%TD*%
D12*
%TO.P,R18,1*%
%TO.N,Net-(R17-Pad1)*%
X165000000Y-102555000D03*
%TO.P,R18,2*%
%TO.N,Net-(R18-Pad2)*%
X165000000Y-99455000D03*
%TD*%
D17*
%TO.P,R16,1*%
%TO.N,Net-(R16-Pad1)*%
X164950000Y-111955000D03*
%TO.P,R16,2*%
%TO.N,0V*%
X164950000Y-115055000D03*
%TD*%
D11*
%TO.P,J8,1,Pin_1*%
%TO.N,0V*%
X182500000Y-100880000D03*
%TD*%
D18*
%TO.P,T2,1*%
%TO.N,/Filament_input*%
X119950000Y-64265000D03*
%TO.P,T2,2*%
%TO.N,N/C*%
X119950000Y-66755000D03*
%TO.P,T2,3*%
X119950000Y-69245000D03*
%TO.P,T2,4*%
%TO.N,Net-(D6-A)*%
X119950000Y-71735000D03*
%TO.P,T2,5*%
%TO.N,-1500V*%
X128050000Y-71735000D03*
%TO.P,T2,6*%
X128050000Y-69245000D03*
%TO.P,T2,7*%
%TO.N,Net-(D4-A)*%
X128050000Y-66755000D03*
%TO.P,T2,8*%
X128050000Y-64265000D03*
%TD*%
D19*
%TO.P,R15,1*%
%TO.N,Net-(D8-K)*%
X106000000Y-54000000D03*
%TO.P,R15,2*%
%TO.N,GND*%
X108000000Y-54000000D03*
%TD*%
D20*
%TO.P,D4,1,K*%
%TO.N,+6.3V (filament)*%
X138500000Y-64000000D03*
%TO.P,D4,2,A*%
%TO.N,Net-(D4-A)*%
X133500000Y-64000000D03*
%TD*%
D21*
%TO.P,R11,1*%
%TO.N,Net-(U3-RSET)*%
X104000000Y-86537500D03*
%TO.P,R11,2*%
%TO.N,GND*%
X104000000Y-88362500D03*
%TD*%
D22*
%TO.P,C6,1*%
%TO.N,Net-(C6-Pad1)*%
X159362500Y-68000000D03*
%TO.P,C6,2*%
%TO.N,-1500V*%
X157637500Y-68000000D03*
%TD*%
D23*
%TO.P,C3,1*%
%TO.N,Net-(D3-K)*%
X157500000Y-100142500D03*
%TO.P,C3,2*%
%TO.N,-1500V*%
X157500000Y-95867500D03*
%TD*%
%TO.P,C2,1*%
%TO.N,Net-(D2-K)*%
X157500000Y-107642500D03*
%TO.P,C2,2*%
%TO.N,Net-(D3-K)*%
X157500000Y-103367500D03*
%TD*%
D11*
%TO.P,J1,1,Pin_1*%
%TO.N,+12V*%
X90500000Y-55000000D03*
%TD*%
D24*
%TO.P,C5,1*%
%TO.N,-1500V*%
X131875000Y-82000000D03*
%TO.P,C5,2*%
%TO.N,-75V (grid drive)*%
X135000000Y-82000000D03*
%TD*%
D16*
%TO.P,C8,1*%
%TO.N,/HV_input*%
X107887500Y-100417500D03*
%TO.P,C8,2*%
%TO.N,GND*%
X107887500Y-97292500D03*
%TD*%
D17*
%TO.P,R17,1*%
%TO.N,Net-(R17-Pad1)*%
X165000000Y-105455000D03*
%TO.P,R17,2*%
%TO.N,Net-(R16-Pad1)*%
X165000000Y-108555000D03*
%TD*%
D25*
%TO.P,C20,1*%
%TO.N,+6.3V (filament)*%
X143500000Y-71500000D03*
%TO.P,C20,2*%
%TO.N,-1500V*%
X143500000Y-73225000D03*
%TD*%
D22*
%TO.P,C15,1*%
%TO.N,Net-(U1-SS{slash}BIAS)*%
X103362500Y-101500000D03*
%TO.P,C15,2*%
%TO.N,GND*%
X101637500Y-101500000D03*
%TD*%
D11*
%TO.P,J5,1,Pin_1*%
%TO.N,cathode*%
X182500000Y-88880000D03*
%TD*%
D26*
%TO.P,RV2,1,1*%
%TO.N,Net-(R3-Pad2)*%
X165000000Y-69555000D03*
%TO.P,RV2,2,2*%
%TO.N,Net-(C6-Pad1)*%
X165000000Y-67015000D03*
%TO.P,RV2,3,3*%
%TO.N,-1500V*%
X165000000Y-64475000D03*
%TD*%
D23*
%TO.P,C1,1*%
%TO.N,0V*%
X157500000Y-115142500D03*
%TO.P,C1,2*%
%TO.N,Net-(D2-K)*%
X157500000Y-110867500D03*
%TD*%
D11*
%TO.P,J10,1,Pin_1*%
%TO.N,+12V*%
X90960000Y-73500000D03*
D27*
%TO.P,J10,2,Pin_2*%
%TO.N,/Filament_input*%
X93500000Y-73500000D03*
%TD*%
D14*
%TO.P,D12,1,K*%
%TO.N,Net-(D11-K)*%
X116500000Y-85750000D03*
%TO.P,D12,2,A*%
%TO.N,Net-(D12-A)*%
X116500000Y-88250000D03*
%TD*%
D11*
%TO.P,J12,1,Pin_1*%
%TO.N,GND*%
X182500000Y-56760000D03*
D27*
%TO.P,J12,2,Pin_2*%
%TO.N,Net-(J12-Pin_2)*%
X182500000Y-59300000D03*
%TO.P,J12,3,Pin_3*%
X182500000Y-61840000D03*
%TO.P,J12,4,Pin_4*%
%TO.N,-1500V*%
X182500000Y-64380000D03*
%TD*%
D22*
%TO.P,C14,1*%
%TO.N,Net-(U3-SS{slash}BIAS)*%
X105862500Y-81500000D03*
%TO.P,C14,2*%
%TO.N,GND*%
X104137500Y-81500000D03*
%TD*%
D28*
%TO.P,C7,1*%
%TO.N,Net-(C7-Pad1)*%
X160562500Y-84000000D03*
%TO.P,C7,2*%
%TO.N,-1500V*%
X157437500Y-84000000D03*
%TD*%
D11*
%TO.P,J9,1,Pin_1*%
%TO.N,+12V*%
X90725000Y-92000000D03*
D27*
%TO.P,J9,2,Pin_2*%
%TO.N,/HV_input*%
X93265000Y-92000000D03*
%TD*%
D29*
%TO.P,R5,1*%
%TO.N,Net-(C7-Pad1)*%
X171950000Y-92000000D03*
%TO.P,R5,2*%
%TO.N,focus*%
X175050000Y-92000000D03*
%TD*%
D12*
%TO.P,R2,1*%
%TO.N,Net-(R18-Pad2)*%
X165000000Y-95555000D03*
%TO.P,R2,2*%
%TO.N,Net-(R2-Pad2)*%
X165000000Y-92455000D03*
%TD*%
D21*
%TO.P,R9,1*%
%TO.N,Net-(U2-RSET)*%
X104000000Y-69587500D03*
%TO.P,R9,2*%
%TO.N,GND*%
X104000000Y-71412500D03*
%TD*%
D12*
%TO.P,R3,1*%
%TO.N,Net-(R3-Pad1)*%
X165000000Y-77055000D03*
%TO.P,R3,2*%
%TO.N,Net-(R3-Pad2)*%
X165000000Y-73955000D03*
%TD*%
D16*
%TO.P,C9,1*%
%TO.N,/Filament_input*%
X110500000Y-64562500D03*
%TO.P,C9,2*%
%TO.N,GND*%
X110500000Y-61437500D03*
%TD*%
D30*
%TO.P,T1,1*%
%TO.N,N/C*%
X116700000Y-98005000D03*
%TO.P,T1,2*%
%TO.N,/HV_input*%
X116700000Y-101005000D03*
%TO.P,T1,3*%
%TO.N,N/C*%
X116700000Y-104005000D03*
%TO.P,T1,4*%
X116700000Y-107005000D03*
%TO.P,T1,5*%
%TO.N,Net-(D10-A)*%
X116700000Y-110005000D03*
%TO.P,T1,6*%
%TO.N,N/C*%
X116700000Y-113005000D03*
%TO.P,T1,7*%
%TO.N,Net-(D1-A)*%
X143300000Y-113005000D03*
%TO.P,T1,8*%
%TO.N,Net-(D2-K)*%
X143300000Y-110005000D03*
%TO.P,T1,9*%
%TO.N,Net-(D2-A)*%
X143300000Y-107005000D03*
%TO.P,T1,10*%
%TO.N,Net-(D3-K)*%
X143300000Y-104005000D03*
%TO.P,T1,11*%
%TO.N,Net-(D3-A)*%
X143300000Y-101005000D03*
%TO.P,T1,12*%
%TO.N,-1500V*%
X143300000Y-98005000D03*
%TD*%
D31*
%TO.P,C17,1*%
%TO.N,+12V*%
X90462500Y-64500000D03*
%TO.P,C17,2*%
%TO.N,GND*%
X95537500Y-64500000D03*
%TD*%
D32*
%TO.P,R6,1*%
%TO.N,Net-(C6-Pad1)*%
X169500000Y-74000000D03*
%TO.P,R6,2*%
%TO.N,cathode*%
X169500000Y-76000000D03*
%TD*%
D17*
%TO.P,R4,1*%
%TO.N,-1500V*%
X174000000Y-66450000D03*
%TO.P,R4,2*%
%TO.N,-75V (grid drive)*%
X174000000Y-69550000D03*
%TD*%
D13*
%TO.P,D7,1,K*%
%TO.N,Net-(D6-K)*%
X115500000Y-66750000D03*
%TO.P,D7,2,A*%
%TO.N,/Filament_input*%
X115500000Y-64250000D03*
%TD*%
D33*
%TO.P,U1,1,SW*%
%TO.N,Net-(D10-A)*%
X107387500Y-106755000D03*
%TO.P,U1,2,FB*%
%TO.N,Net-(U1-FB)*%
X107387500Y-105955000D03*
%TO.P,U1,3,VIN*%
%TO.N,/HV_input*%
X107387500Y-105155000D03*
%TO.P,U1,4,EN/UVLO*%
X107387500Y-104355000D03*
%TO.P,U1,5,SS/BIAS*%
%TO.N,Net-(U1-SS{slash}BIAS)*%
X103517500Y-104355000D03*
%TO.P,U1,6,TC*%
%TO.N,unconnected-(U1-TC-Pad6)*%
X103517500Y-105155000D03*
%TO.P,U1,7,RSET*%
%TO.N,Net-(U1-RSET)*%
X103517500Y-105955000D03*
%TO.P,U1,8,GND*%
%TO.N,GND*%
X103517500Y-106755000D03*
D34*
%TO.P,U1,9,EXP*%
X105452500Y-105555000D03*
%TD*%
D11*
%TO.P,J3,1,Pin_1*%
%TO.N,-1500V*%
X182500000Y-76880000D03*
%TD*%
D35*
%TO.P,R7,1*%
%TO.N,Net-(D6-A)*%
X113000000Y-71487500D03*
%TO.P,R7,2*%
%TO.N,Net-(U2-FB)*%
X113000000Y-69662500D03*
%TD*%
D22*
%TO.P,C16,1*%
%TO.N,Net-(U2-SS{slash}BIAS)*%
X105862500Y-65500000D03*
%TO.P,C16,2*%
%TO.N,GND*%
X104137500Y-65500000D03*
%TD*%
D33*
%TO.P,U3,1,SW*%
%TO.N,Net-(D12-A)*%
X110000000Y-86437500D03*
%TO.P,U3,2,FB*%
%TO.N,Net-(U3-FB)*%
X110000000Y-85637500D03*
%TO.P,U3,3,VIN*%
%TO.N,/grid_input*%
X110000000Y-84837500D03*
%TO.P,U3,4,EN/UVLO*%
X110000000Y-84037500D03*
%TO.P,U3,5,SS/BIAS*%
%TO.N,Net-(U3-SS{slash}BIAS)*%
X106130000Y-84037500D03*
%TO.P,U3,6,TC*%
%TO.N,unconnected-(U3-TC-Pad6)*%
X106130000Y-84837500D03*
%TO.P,U3,7,RSET*%
%TO.N,Net-(U3-RSET)*%
X106130000Y-85637500D03*
%TO.P,U3,8,GND*%
%TO.N,GND*%
X106130000Y-86437500D03*
D34*
%TO.P,U3,9,EXP*%
X108065000Y-85237500D03*
%TD*%
D13*
%TO.P,D11,1,K*%
%TO.N,Net-(D11-K)*%
X116500000Y-82750000D03*
%TO.P,D11,2,A*%
%TO.N,/grid_input*%
X116500000Y-80250000D03*
%TD*%
D11*
%TO.P,J6,1,Pin_1*%
%TO.N,+6.3V (filament)*%
X182500000Y-82880000D03*
%TD*%
D14*
%TO.P,D10,1,K*%
%TO.N,Net-(D10-K)*%
X113500000Y-106500000D03*
%TO.P,D10,2,A*%
%TO.N,Net-(D10-A)*%
X113500000Y-109000000D03*
%TD*%
D36*
%TO.P,D8,1,K*%
%TO.N,Net-(D8-K)*%
X102375000Y-54000000D03*
%TO.P,D8,2,A*%
%TO.N,+12V*%
X100500000Y-54000000D03*
%TD*%
D18*
%TO.P,T3,1*%
%TO.N,/grid_input*%
X119950000Y-80765000D03*
%TO.P,T3,2*%
%TO.N,N/C*%
X119950000Y-83255000D03*
%TO.P,T3,3*%
X119950000Y-85745000D03*
%TO.P,T3,4*%
%TO.N,Net-(D12-A)*%
X119950000Y-88235000D03*
%TO.P,T3,5*%
%TO.N,Net-(D5-K)*%
X128050000Y-88235000D03*
%TO.P,T3,6*%
X128050000Y-85745000D03*
%TO.P,T3,7*%
%TO.N,-1500V*%
X128050000Y-83255000D03*
%TO.P,T3,8*%
X128050000Y-80765000D03*
%TD*%
D37*
%TO.P,D5,1,K*%
%TO.N,Net-(D5-K)*%
X132200000Y-87500000D03*
%TO.P,D5,2,A*%
%TO.N,-75V (grid drive)*%
X135000000Y-87500000D03*
%TD*%
D21*
%TO.P,R10,1*%
%TO.N,Net-(U1-RSET)*%
X100887500Y-105942500D03*
%TO.P,R10,2*%
%TO.N,GND*%
X100887500Y-107767500D03*
%TD*%
D11*
%TO.P,J13,1,Pin_1*%
%TO.N,GND*%
X182500000Y-116000000D03*
D27*
%TO.P,J13,2,Pin_2*%
%TO.N,Net-(J13-Pin_2)*%
X182500000Y-113460000D03*
%TO.P,J13,3,Pin_3*%
X182500000Y-110920000D03*
%TO.P,J13,4,Pin_4*%
%TO.N,0V*%
X182500000Y-108380000D03*
%TD*%
D26*
%TO.P,RV1,1,1*%
%TO.N,Net-(R2-Pad2)*%
X165000000Y-86545000D03*
%TO.P,RV1,2,2*%
%TO.N,Net-(C7-Pad1)*%
X165000000Y-84005000D03*
%TO.P,RV1,3,3*%
%TO.N,Net-(R3-Pad1)*%
X165000000Y-81465000D03*
%TD*%
D11*
%TO.P,J2,1,Pin_1*%
%TO.N,GND*%
X90500000Y-117500000D03*
%TD*%
D33*
%TO.P,U2,1,SW*%
%TO.N,Net-(D6-A)*%
X110370000Y-70200000D03*
%TO.P,U2,2,FB*%
%TO.N,Net-(U2-FB)*%
X110370000Y-69400000D03*
%TO.P,U2,3,VIN*%
%TO.N,/Filament_input*%
X110370000Y-68600000D03*
%TO.P,U2,4,EN/UVLO*%
X110370000Y-67800000D03*
%TO.P,U2,5,SS/BIAS*%
%TO.N,Net-(U2-SS{slash}BIAS)*%
X106500000Y-67800000D03*
%TO.P,U2,6,TC*%
%TO.N,unconnected-(U2-TC-Pad6)*%
X106500000Y-68600000D03*
%TO.P,U2,7,RSET*%
%TO.N,Net-(U2-RSET)*%
X106500000Y-69400000D03*
%TO.P,U2,8,GND*%
%TO.N,GND*%
X106500000Y-70200000D03*
D34*
%TO.P,U2,9,EXP*%
X108435000Y-69000000D03*
%TD*%
D10*
%TO.P,D1,1,K*%
%TO.N,0V*%
X152787500Y-112855000D03*
%TO.P,D1,2,A*%
%TO.N,Net-(D1-A)*%
X149987500Y-112855000D03*
%TD*%
D38*
%TO.P,R1,1*%
%TO.N,Net-(D10-A)*%
X110387500Y-108855000D03*
%TO.P,R1,2*%
%TO.N,Net-(U1-FB)*%
X110387500Y-106855000D03*
%TD*%
D11*
%TO.P,J11,1,Pin_1*%
%TO.N,+12V*%
X90725000Y-82500000D03*
D27*
%TO.P,J11,2,Pin_2*%
%TO.N,/grid_input*%
X93265000Y-82500000D03*
%TD*%
D39*
%TO.N,+6.3V (filament)*%
X146500000Y-64000000D03*
X179000000Y-82500000D03*
%TO.N,-75V (grid drive)*%
X140500000Y-82000000D03*
X182000000Y-68000000D03*
%TO.N,GND*%
X101000000Y-69000000D03*
X100500000Y-59000000D03*
X121500000Y-119000000D03*
X108000000Y-91500000D03*
X97000000Y-78500000D03*
X121000000Y-53000000D03*
X120500000Y-76000000D03*
X90000000Y-111000000D03*
X96000000Y-105500000D03*
X111000000Y-53000000D03*
X116500000Y-59500000D03*
X104500000Y-75500000D03*
X108500000Y-113500000D03*
X119000000Y-92500000D03*
X98000000Y-88000000D03*
X101500000Y-116500000D03*
X98000000Y-96000000D03*
X90000000Y-100500000D03*
%TD*%
D40*
%TO.N,Net-(D2-K)*%
X152850000Y-106855000D02*
X153637500Y-107642500D01*
X153637500Y-107642500D02*
X157500000Y-107642500D01*
X143300000Y-110005000D02*
X149637500Y-110005000D01*
X149637500Y-110005000D02*
X152787500Y-106855000D01*
X152787500Y-106855000D02*
X152850000Y-106855000D01*
X157500000Y-107642500D02*
X157500000Y-110867500D01*
%TO.N,0V*%
X164950000Y-115055000D02*
X171945000Y-115055000D01*
X178620000Y-108380000D02*
X182500000Y-108380000D01*
X157500000Y-115142500D02*
X164862500Y-115142500D01*
X153350000Y-112855000D02*
X155637500Y-115142500D01*
X152787500Y-112855000D02*
X153350000Y-112855000D01*
X155637500Y-115142500D02*
X157500000Y-115142500D01*
X171945000Y-115055000D02*
X178620000Y-108380000D01*
X182500000Y-100880000D02*
X182500000Y-108380000D01*
X164862500Y-115142500D02*
X164950000Y-115055000D01*
%TO.N,Net-(D3-K)*%
X156787500Y-100855000D02*
X157500000Y-100142500D01*
X152787500Y-100855000D02*
X156787500Y-100855000D01*
X149637500Y-104005000D02*
X152787500Y-100855000D01*
X157500000Y-100142500D02*
X157500000Y-103367500D01*
X143300000Y-104005000D02*
X149637500Y-104005000D01*
%TO.N,-1500V*%
X165000000Y-64475000D02*
X171000000Y-64475000D01*
X157437500Y-84000000D02*
X157437500Y-73200000D01*
X174000000Y-66450000D02*
X174000000Y-64475000D01*
X153637500Y-95867500D02*
X157500000Y-95867500D01*
X128050000Y-80765000D02*
X130500000Y-80765000D01*
X130500000Y-76500000D02*
X143500000Y-76500000D01*
X143500000Y-73225000D02*
X157412500Y-73225000D01*
X171000000Y-64475000D02*
X171000000Y-71000000D01*
X157412500Y-73225000D02*
X157637500Y-73000000D01*
X157437500Y-73200000D02*
X157637500Y-73000000D01*
X178975000Y-64475000D02*
X179000000Y-64500000D01*
X128050000Y-83255000D02*
X128050000Y-80765000D01*
X130500000Y-80765000D02*
X130640000Y-80765000D01*
X171000000Y-71000000D02*
X176880000Y-76880000D01*
X157500000Y-95867500D02*
X157437500Y-95805000D01*
X143300000Y-98005000D02*
X151500000Y-98005000D01*
X130640000Y-80765000D02*
X131875000Y-82000000D01*
X172000000Y-64475000D02*
X174000000Y-64475000D01*
X183120000Y-76880000D02*
X182500000Y-76880000D01*
X157637500Y-73000000D02*
X157637500Y-68000000D01*
X182380000Y-64500000D02*
X182500000Y-64380000D01*
X176880000Y-76880000D02*
X182500000Y-76880000D01*
X157637500Y-68000000D02*
X157637500Y-66367500D01*
X128050000Y-71735000D02*
X130500000Y-71735000D01*
X157437500Y-95805000D02*
X157437500Y-84000000D01*
X130500000Y-71735000D02*
X132727500Y-71735000D01*
X171000000Y-64475000D02*
X172000000Y-64475000D01*
X143500000Y-73225000D02*
X143500000Y-76500000D01*
X159530000Y-64475000D02*
X165000000Y-64475000D01*
X151500000Y-98005000D02*
X153637500Y-95867500D01*
X157637500Y-66367500D02*
X159530000Y-64475000D01*
X179000000Y-64500000D02*
X182380000Y-64500000D01*
X132727500Y-71735000D02*
X133462500Y-71000000D01*
X130500000Y-80765000D02*
X130500000Y-76500000D01*
X174000000Y-64475000D02*
X178975000Y-64475000D01*
X128050000Y-69245000D02*
X128050000Y-71735000D01*
X130500000Y-76500000D02*
X130500000Y-71735000D01*
%TO.N,+6.3V (filament)*%
X138500000Y-64000000D02*
X138500000Y-65500000D01*
X139037500Y-71500000D02*
X138537500Y-71000000D01*
X179380000Y-82880000D02*
X179000000Y-82500000D01*
X146500000Y-64000000D02*
X138500000Y-64000000D01*
X138500000Y-65500000D02*
X138537500Y-65537500D01*
X138500000Y-70962500D02*
X138537500Y-71000000D01*
X138537500Y-65537500D02*
X138537500Y-71000000D01*
X182500000Y-82880000D02*
X179380000Y-82880000D01*
X143500000Y-71500000D02*
X139037500Y-71500000D01*
%TO.N,-75V (grid drive)*%
X179000000Y-71000000D02*
X179120000Y-70880000D01*
X177550000Y-69550000D02*
X179000000Y-71000000D01*
X182310000Y-70690000D02*
X182310000Y-68310000D01*
X182500000Y-70880000D02*
X182310000Y-70690000D01*
X135000000Y-87500000D02*
X135000000Y-82000000D01*
X179120000Y-70880000D02*
X182500000Y-70880000D01*
X135000000Y-82000000D02*
X140500000Y-82000000D01*
X182310000Y-68310000D02*
X182000000Y-68000000D01*
X174000000Y-69550000D02*
X177550000Y-69550000D01*
%TO.N,Net-(C6-Pad1)*%
X162000000Y-67000000D02*
X162015000Y-67015000D01*
X167500000Y-71500000D02*
X169500000Y-73500000D01*
X166515000Y-67015000D02*
X167500000Y-68000000D01*
X161000000Y-68000000D02*
X162000000Y-67000000D01*
X162015000Y-67015000D02*
X165000000Y-67015000D01*
X165000000Y-67015000D02*
X166515000Y-67015000D01*
X167500000Y-68000000D02*
X167500000Y-71500000D01*
X169500000Y-73500000D02*
X169500000Y-74000000D01*
X159362500Y-68000000D02*
X161000000Y-68000000D01*
%TO.N,Net-(C7-Pad1)*%
X165000000Y-84005000D02*
X167495000Y-84005000D01*
X171950000Y-88450000D02*
X171950000Y-92000000D01*
X167500000Y-84000000D02*
X171950000Y-88450000D01*
X167495000Y-84005000D02*
X167500000Y-84000000D01*
X160562500Y-84000000D02*
X164995000Y-84000000D01*
X164995000Y-84000000D02*
X165000000Y-84005000D01*
%TO.N,/HV_input*%
X99500000Y-92000000D02*
X105500000Y-98000000D01*
X107887500Y-100417500D02*
X112167500Y-100417500D01*
X105500000Y-98030000D02*
X107887500Y-100417500D01*
X116445000Y-100750000D02*
X116700000Y-101005000D01*
X105500000Y-98000000D02*
X105500000Y-98030000D01*
X93265000Y-92000000D02*
X99500000Y-92000000D01*
X107387500Y-105155000D02*
X107387500Y-100917500D01*
X112500000Y-100750000D02*
X116445000Y-100750000D01*
X107387500Y-100917500D02*
X107887500Y-100417500D01*
X108275000Y-100805000D02*
X107887500Y-100417500D01*
X112167500Y-100417500D02*
X112500000Y-100750000D01*
%TO.N,GND*%
X177740000Y-52000000D02*
X182500000Y-56760000D01*
X123000000Y-52000000D02*
X177740000Y-52000000D01*
X123000000Y-56500000D02*
X123000000Y-52000000D01*
X178500000Y-120000000D02*
X124000000Y-120000000D01*
X182500000Y-116000000D02*
X178500000Y-120000000D01*
%TO.N,/Filament_input*%
X119935000Y-64250000D02*
X119950000Y-64265000D01*
X109062500Y-64562500D02*
X107500000Y-63000000D01*
X98000000Y-67000000D02*
X98000000Y-72500000D01*
X115187500Y-64562500D02*
X115500000Y-64250000D01*
X110500000Y-64562500D02*
X109062500Y-64562500D01*
X115500000Y-64250000D02*
X119935000Y-64250000D01*
X107500000Y-63000000D02*
X102000000Y-63000000D01*
X102000000Y-63000000D02*
X98000000Y-67000000D01*
X97000000Y-73500000D02*
X93500000Y-73500000D01*
X98000000Y-72500000D02*
X97000000Y-73500000D01*
X110370000Y-68600000D02*
X110370000Y-64692500D01*
X119710000Y-64025000D02*
X119950000Y-64265000D01*
X110500000Y-64562500D02*
X115187500Y-64562500D01*
X110370000Y-64692500D02*
X110500000Y-64562500D01*
%TO.N,/grid_input*%
X110000000Y-84837500D02*
X110000000Y-81100000D01*
X110500000Y-80600000D02*
X108600000Y-80600000D01*
X102000000Y-79000000D02*
X98500000Y-82500000D01*
X108600000Y-80600000D02*
X107000000Y-79000000D01*
X110000000Y-81100000D02*
X110500000Y-80600000D01*
X113750000Y-80250000D02*
X116500000Y-80250000D01*
X110500000Y-80600000D02*
X113400000Y-80600000D01*
X113400000Y-80600000D02*
X113750000Y-80250000D01*
X116500000Y-80250000D02*
X119435000Y-80250000D01*
X98500000Y-82500000D02*
X93265000Y-82500000D01*
X119435000Y-80250000D02*
X119950000Y-80765000D01*
X107000000Y-79000000D02*
X102000000Y-79000000D01*
%TO.N,Net-(D6-A)*%
X113000000Y-71487500D02*
X115237500Y-71487500D01*
X115500000Y-71750000D02*
X119935000Y-71750000D01*
X119790000Y-71575000D02*
X119950000Y-71735000D01*
X115237500Y-71487500D02*
X115500000Y-71750000D01*
X119935000Y-71750000D02*
X119950000Y-71735000D01*
X110370000Y-70200000D02*
X111670000Y-71500000D01*
X111670000Y-71500000D02*
X112987500Y-71500000D01*
X112987500Y-71500000D02*
X113000000Y-71487500D01*
D41*
%TO.N,Net-(U3-SS{slash}BIAS)*%
X105862500Y-81500000D02*
X105862500Y-83770000D01*
X105862500Y-83770000D02*
X106130000Y-84037500D01*
%TO.N,Net-(U1-SS{slash}BIAS)*%
X103517500Y-104355000D02*
X103517500Y-101655000D01*
X103517500Y-101655000D02*
X103362500Y-101500000D01*
%TO.N,Net-(U2-SS{slash}BIAS)*%
X105862500Y-65500000D02*
X105862500Y-67162500D01*
X105862500Y-67162500D02*
X106500000Y-67800000D01*
D40*
%TO.N,+12V*%
X90960000Y-72040000D02*
X90462500Y-71542500D01*
X90725000Y-92000000D02*
X90725000Y-82500000D01*
X90725000Y-73735000D02*
X90960000Y-73500000D01*
X90462500Y-71542500D02*
X90462500Y-64500000D01*
X90960000Y-73500000D02*
X90960000Y-72040000D01*
D41*
X100500000Y-54000000D02*
X93500000Y-54000000D01*
D40*
X90462500Y-55037500D02*
X90500000Y-55000000D01*
X90462500Y-64500000D02*
X90462500Y-55037500D01*
X90725000Y-82500000D02*
X90725000Y-73735000D01*
D41*
X93500000Y-54000000D02*
X92500000Y-55000000D01*
X92500000Y-55000000D02*
X90500000Y-55000000D01*
%TO.N,Net-(U1-RSET)*%
X100900000Y-105955000D02*
X100887500Y-105942500D01*
X103517500Y-105955000D02*
X100900000Y-105955000D01*
%TO.N,Net-(U3-RSET)*%
X103962500Y-86500000D02*
X104000000Y-86537500D01*
X104900000Y-85637500D02*
X106130000Y-85637500D01*
X104000000Y-86537500D02*
X104900000Y-85637500D01*
D40*
%TO.N,Net-(D1-A)*%
X149837500Y-113005000D02*
X149987500Y-112855000D01*
X143300000Y-113005000D02*
X149837500Y-113005000D01*
%TO.N,Net-(D2-A)*%
X143300000Y-107005000D02*
X149837500Y-107005000D01*
X149837500Y-107005000D02*
X149987500Y-106855000D01*
%TO.N,Net-(D3-A)*%
X149837500Y-101005000D02*
X149987500Y-100855000D01*
X143300000Y-101005000D02*
X149837500Y-101005000D01*
%TO.N,Net-(D4-A)*%
X133235000Y-64265000D02*
X133500000Y-64000000D01*
X128050000Y-64265000D02*
X133235000Y-64265000D01*
X128050000Y-66755000D02*
X128050000Y-64265000D01*
%TO.N,Net-(D5-K)*%
X131465000Y-88235000D02*
X132200000Y-87500000D01*
X128050000Y-85745000D02*
X128050000Y-88235000D01*
X128050000Y-88235000D02*
X131465000Y-88235000D01*
%TO.N,Net-(D6-K)*%
X115500000Y-66750000D02*
X115500000Y-69250000D01*
D41*
%TO.N,Net-(D8-K)*%
X102375000Y-54000000D02*
X106000000Y-54000000D01*
D40*
%TO.N,focus*%
X175050000Y-92550000D02*
X177380000Y-94880000D01*
X182330000Y-95050000D02*
X182500000Y-94880000D01*
X175050000Y-92000000D02*
X175050000Y-92550000D01*
X182170000Y-94550000D02*
X182500000Y-94880000D01*
X177380000Y-94880000D02*
X182500000Y-94880000D01*
%TO.N,cathode*%
X169500000Y-76000000D02*
X169500000Y-78500000D01*
X169500000Y-78500000D02*
X179880000Y-88880000D01*
X179880000Y-88880000D02*
X182500000Y-88880000D01*
X181380000Y-88880000D02*
X182500000Y-88880000D01*
%TO.N,Net-(J12-Pin_2)*%
X182500000Y-59300000D02*
X182500000Y-61840000D01*
%TO.N,Net-(J13-Pin_2)*%
X182500000Y-113460000D02*
X182500000Y-110920000D01*
D41*
%TO.N,Net-(U1-FB)*%
X107387500Y-105955000D02*
X109487500Y-105955000D01*
X109487500Y-105955000D02*
X110387500Y-106855000D01*
D40*
%TO.N,Net-(R2-Pad2)*%
X165000000Y-86545000D02*
X165000000Y-92455000D01*
%TO.N,Net-(R18-Pad2)*%
X165000000Y-95555000D02*
X165000000Y-99455000D01*
%TO.N,Net-(R3-Pad2)*%
X165000000Y-69555000D02*
X165000000Y-73955000D01*
%TO.N,Net-(R3-Pad1)*%
X165000000Y-77055000D02*
X165000000Y-81465000D01*
D41*
%TO.N,Net-(U2-FB)*%
X110370000Y-69400000D02*
X112737500Y-69400000D01*
X112737500Y-69400000D02*
X113000000Y-69662500D01*
%TO.N,Net-(U3-FB)*%
X110000000Y-85637500D02*
X112812500Y-85637500D01*
X112812500Y-85637500D02*
X113500000Y-84950000D01*
%TO.N,Net-(U2-RSET)*%
X104912500Y-69587500D02*
X105100000Y-69400000D01*
X104000000Y-69587500D02*
X104912500Y-69587500D01*
X105100000Y-69400000D02*
X106500000Y-69400000D01*
D40*
%TO.N,Net-(R16-Pad1)*%
X165000000Y-108555000D02*
X165000000Y-111905000D01*
X165000000Y-111905000D02*
X164950000Y-111955000D01*
%TO.N,Net-(R17-Pad1)*%
X165000000Y-102555000D02*
X165000000Y-105455000D01*
%TO.N,Net-(D10-K)*%
X112500000Y-103250000D02*
X112500000Y-104500000D01*
X113500000Y-105500000D02*
X113500000Y-106500000D01*
X112500000Y-104500000D02*
X113500000Y-105500000D01*
%TO.N,Net-(D10-A)*%
X107387500Y-106755000D02*
X107387500Y-107887500D01*
X113355000Y-108855000D02*
X113500000Y-109000000D01*
X108355000Y-108855000D02*
X110387500Y-108855000D01*
X110387500Y-108855000D02*
X113355000Y-108855000D01*
X113500000Y-109000000D02*
X115695000Y-109000000D01*
X107387500Y-107887500D02*
X108355000Y-108855000D01*
X115695000Y-109000000D02*
X116700000Y-110005000D01*
%TO.N,Net-(D11-K)*%
X116500000Y-82750000D02*
X116500000Y-85750000D01*
%TO.N,Net-(D12-A)*%
X119935000Y-88250000D02*
X119950000Y-88235000D01*
X110000000Y-87500000D02*
X110550000Y-88050000D01*
X110550000Y-88050000D02*
X113500000Y-88050000D01*
X113500000Y-88050000D02*
X116300000Y-88050000D01*
X116300000Y-88050000D02*
X116500000Y-88250000D01*
X110000000Y-86437500D02*
X110000000Y-87500000D01*
X116500000Y-88250000D02*
X119935000Y-88250000D01*
X119647500Y-88537500D02*
X119950000Y-88235000D01*
%TD*%
%TA.AperFunction,Conductor*%
%TO.N,GND*%
G36*
X123943039Y-51520185D02*
G01*
X123988794Y-51572989D01*
X124000000Y-51624500D01*
X124000000Y-120375500D01*
X123980315Y-120442539D01*
X123927511Y-120488294D01*
X123876000Y-120499500D01*
X87624500Y-120499500D01*
X87557461Y-120479815D01*
X87511706Y-120427011D01*
X87500500Y-120375500D01*
X87500500Y-116602155D01*
X89150000Y-116602155D01*
X89150000Y-117250000D01*
X90066988Y-117250000D01*
X90034075Y-117307007D01*
X90000000Y-117434174D01*
X90000000Y-117565826D01*
X90034075Y-117692993D01*
X90066988Y-117750000D01*
X89150000Y-117750000D01*
X89150000Y-118397844D01*
X89156401Y-118457372D01*
X89156403Y-118457379D01*
X89206645Y-118592086D01*
X89206649Y-118592093D01*
X89292809Y-118707187D01*
X89292812Y-118707190D01*
X89407906Y-118793350D01*
X89407913Y-118793354D01*
X89542620Y-118843596D01*
X89542627Y-118843598D01*
X89602155Y-118849999D01*
X89602172Y-118850000D01*
X90250000Y-118850000D01*
X90250000Y-117933012D01*
X90307007Y-117965925D01*
X90434174Y-118000000D01*
X90565826Y-118000000D01*
X90692993Y-117965925D01*
X90750000Y-117933012D01*
X90750000Y-118850000D01*
X91397828Y-118850000D01*
X91397844Y-118849999D01*
X91457372Y-118843598D01*
X91457379Y-118843596D01*
X91592086Y-118793354D01*
X91592093Y-118793350D01*
X91707187Y-118707190D01*
X91707190Y-118707187D01*
X91793350Y-118592093D01*
X91793354Y-118592086D01*
X91843596Y-118457379D01*
X91843598Y-118457372D01*
X91849999Y-118397844D01*
X91850000Y-118397827D01*
X91850000Y-117750000D01*
X90933012Y-117750000D01*
X90965925Y-117692993D01*
X91000000Y-117565826D01*
X91000000Y-117434174D01*
X90965925Y-117307007D01*
X90933012Y-117250000D01*
X91850000Y-117250000D01*
X91850000Y-116602172D01*
X91849999Y-116602155D01*
X91843598Y-116542627D01*
X91843596Y-116542620D01*
X91793354Y-116407913D01*
X91793350Y-116407906D01*
X91707190Y-116292812D01*
X91707187Y-116292809D01*
X91592093Y-116206649D01*
X91592086Y-116206645D01*
X91457379Y-116156403D01*
X91457372Y-116156401D01*
X91397844Y-116150000D01*
X90750000Y-116150000D01*
X90750000Y-117066988D01*
X90692993Y-117034075D01*
X90565826Y-117000000D01*
X90434174Y-117000000D01*
X90307007Y-117034075D01*
X90250000Y-117066988D01*
X90250000Y-116150000D01*
X89602155Y-116150000D01*
X89542627Y-116156401D01*
X89542620Y-116156403D01*
X89407913Y-116206645D01*
X89407906Y-116206649D01*
X89292812Y-116292809D01*
X89292809Y-116292812D01*
X89206649Y-116407906D01*
X89206645Y-116407913D01*
X89156403Y-116542620D01*
X89156401Y-116542627D01*
X89150000Y-116602155D01*
X87500500Y-116602155D01*
X87500500Y-112638856D01*
X114999500Y-112638856D01*
X114999500Y-113371144D01*
X115004825Y-113415494D01*
X115009640Y-113455588D01*
X115062636Y-113589976D01*
X115149921Y-113705078D01*
X115265023Y-113792363D01*
X115265024Y-113792363D01*
X115265025Y-113792364D01*
X115399410Y-113845359D01*
X115483856Y-113855500D01*
X115483862Y-113855500D01*
X117916138Y-113855500D01*
X117916144Y-113855500D01*
X118000590Y-113845359D01*
X118134975Y-113792364D01*
X118250078Y-113705078D01*
X118337364Y-113589975D01*
X118390359Y-113455590D01*
X118400500Y-113371144D01*
X118400500Y-112638856D01*
X118390359Y-112554410D01*
X118337364Y-112420025D01*
X118337363Y-112420024D01*
X118337363Y-112420023D01*
X118250078Y-112304921D01*
X118134976Y-112217636D01*
X118000588Y-112164640D01*
X117957242Y-112159435D01*
X117916144Y-112154500D01*
X115483856Y-112154500D01*
X115445841Y-112159065D01*
X115399411Y-112164640D01*
X115265023Y-112217636D01*
X115149921Y-112304921D01*
X115062636Y-112420023D01*
X115009640Y-112554411D01*
X115004065Y-112600841D01*
X114999500Y-112638856D01*
X87500500Y-112638856D01*
X87500500Y-108066654D01*
X99912501Y-108066654D01*
X99922819Y-108167652D01*
X99977046Y-108331300D01*
X99977051Y-108331311D01*
X100067552Y-108478034D01*
X100067555Y-108478038D01*
X100189461Y-108599944D01*
X100189465Y-108599947D01*
X100336188Y-108690448D01*
X100336199Y-108690453D01*
X100499847Y-108744680D01*
X100600852Y-108754999D01*
X100637500Y-108754999D01*
X101137500Y-108754999D01*
X101174140Y-108754999D01*
X101174154Y-108754998D01*
X101275152Y-108744680D01*
X101438800Y-108690453D01*
X101438811Y-108690448D01*
X101585534Y-108599947D01*
X101585538Y-108599944D01*
X101707444Y-108478038D01*
X101707447Y-108478034D01*
X101797948Y-108331311D01*
X101797953Y-108331300D01*
X101852180Y-108167652D01*
X101862499Y-108066654D01*
X101862500Y-108066641D01*
X101862500Y-108017500D01*
X101137500Y-108017500D01*
X101137500Y-108754999D01*
X100637500Y-108754999D01*
X100637500Y-108017500D01*
X99912501Y-108017500D01*
X99912501Y-108066654D01*
X87500500Y-108066654D01*
X87500500Y-107468345D01*
X99912500Y-107468345D01*
X99912500Y-107517500D01*
X101862499Y-107517500D01*
X101862499Y-107468360D01*
X101862498Y-107468345D01*
X101852180Y-107367347D01*
X101797953Y-107203699D01*
X101797948Y-107203688D01*
X101707447Y-107056965D01*
X101707444Y-107056961D01*
X101585538Y-106935055D01*
X101585534Y-106935052D01*
X101556705Y-106917270D01*
X102587501Y-106917270D01*
X102597920Y-107004054D01*
X102597922Y-107004058D01*
X102652376Y-107142144D01*
X102652379Y-107142150D01*
X102742071Y-107260428D01*
X102860349Y-107350120D01*
X102860355Y-107350123D01*
X102998443Y-107404578D01*
X103085229Y-107414999D01*
X103357499Y-107414999D01*
X103357500Y-107414998D01*
X103357500Y-106915000D01*
X102587501Y-106915000D01*
X102587501Y-106917270D01*
X101556705Y-106917270D01*
X101438811Y-106844551D01*
X101438800Y-106844546D01*
X101346293Y-106813893D01*
X101288848Y-106774121D01*
X101262025Y-106709605D01*
X101274340Y-106640829D01*
X101321883Y-106589629D01*
X101327359Y-106586555D01*
X101331970Y-106584117D01*
X101331975Y-106584116D01*
X101438211Y-106505711D01*
X101516616Y-106399475D01*
X101520441Y-106388543D01*
X101561164Y-106331768D01*
X101626117Y-106306022D01*
X101637482Y-106305500D01*
X102494774Y-106305500D01*
X102561813Y-106325185D01*
X102607568Y-106377989D01*
X102617512Y-106447147D01*
X102610128Y-106474991D01*
X102597921Y-106505944D01*
X102587500Y-106592729D01*
X102587500Y-106595000D01*
X103393500Y-106595000D01*
X103460539Y-106614685D01*
X103506294Y-106667489D01*
X103517500Y-106719000D01*
X103517500Y-106755000D01*
X103553500Y-106755000D01*
X103620539Y-106774685D01*
X103666294Y-106827489D01*
X103677500Y-106879000D01*
X103677500Y-107414999D01*
X103949770Y-107414999D01*
X104037722Y-107404438D01*
X104106630Y-107415990D01*
X104126816Y-107428288D01*
X104220406Y-107498350D01*
X104220413Y-107498354D01*
X104355120Y-107548596D01*
X104355127Y-107548598D01*
X104414655Y-107554999D01*
X104414672Y-107555000D01*
X105202500Y-107555000D01*
X105202500Y-103555000D01*
X104414655Y-103555000D01*
X104355127Y-103561401D01*
X104355120Y-103561403D01*
X104220413Y-103611645D01*
X104220406Y-103611649D01*
X104105312Y-103697809D01*
X104091266Y-103716573D01*
X104035332Y-103758443D01*
X103965641Y-103763427D01*
X103904318Y-103729941D01*
X103870833Y-103668618D01*
X103868000Y-103642261D01*
X103868000Y-102192803D01*
X103887685Y-102125764D01*
X103918366Y-102093033D01*
X103975711Y-102050711D01*
X104054116Y-101944475D01*
X104097725Y-101819849D01*
X104100500Y-101790260D01*
X104100500Y-101209739D01*
X104097725Y-101180150D01*
X104064325Y-101084701D01*
X104054116Y-101055525D01*
X104053189Y-101054269D01*
X103975711Y-100949289D01*
X103975710Y-100949288D01*
X103869476Y-100870884D01*
X103744848Y-100827274D01*
X103744849Y-100827274D01*
X103715260Y-100824500D01*
X103715256Y-100824500D01*
X103009744Y-100824500D01*
X103009740Y-100824500D01*
X102980150Y-100827274D01*
X102855525Y-100870883D01*
X102762560Y-100939494D01*
X102696930Y-100963464D01*
X102628760Y-100948148D01*
X102583388Y-100904820D01*
X102519943Y-100801960D01*
X102398038Y-100680055D01*
X102398034Y-100680052D01*
X102251311Y-100589551D01*
X102251300Y-100589546D01*
X102087652Y-100535319D01*
X101986654Y-100525000D01*
X101887500Y-100525000D01*
X101887500Y-102474999D01*
X101986640Y-102474999D01*
X101986654Y-102474998D01*
X102087652Y-102464680D01*
X102251300Y-102410453D01*
X102251311Y-102410448D01*
X102398034Y-102319947D01*
X102398038Y-102319944D01*
X102519945Y-102198037D01*
X102583388Y-102095180D01*
X102635336Y-102048455D01*
X102704298Y-102037232D01*
X102762560Y-102060505D01*
X102855525Y-102129116D01*
X102980151Y-102172725D01*
X102980150Y-102172725D01*
X103009740Y-102175500D01*
X103009744Y-102175500D01*
X103043000Y-102175500D01*
X103110039Y-102195185D01*
X103155794Y-102247989D01*
X103167000Y-102299500D01*
X103167000Y-103880166D01*
X103147315Y-103947205D01*
X103094511Y-103992960D01*
X103067193Y-104001783D01*
X103033664Y-104008452D01*
X103033661Y-104008454D01*
X102954109Y-104061609D01*
X102900954Y-104141161D01*
X102900952Y-104141165D01*
X102887000Y-104211307D01*
X102887000Y-104498692D01*
X102900952Y-104568834D01*
X102900953Y-104568837D01*
X102900954Y-104568839D01*
X102954109Y-104648391D01*
X102959352Y-104651894D01*
X102959358Y-104651898D01*
X103004163Y-104705510D01*
X103012870Y-104774835D01*
X102982715Y-104837863D01*
X102959358Y-104858102D01*
X102954109Y-104861609D01*
X102900954Y-104941161D01*
X102900952Y-104941165D01*
X102887000Y-105011307D01*
X102887000Y-105298692D01*
X102900952Y-105368834D01*
X102900953Y-105368837D01*
X102900953Y-105368838D01*
X102900954Y-105368839D01*
X102929533Y-105411610D01*
X102950410Y-105478287D01*
X102931925Y-105545667D01*
X102879946Y-105592357D01*
X102826430Y-105604500D01*
X101646230Y-105604500D01*
X101579191Y-105584815D01*
X101533436Y-105532011D01*
X101529189Y-105521456D01*
X101516615Y-105485523D01*
X101438211Y-105379289D01*
X101438210Y-105379288D01*
X101331976Y-105300884D01*
X101207348Y-105257274D01*
X101207349Y-105257274D01*
X101177760Y-105254500D01*
X101177756Y-105254500D01*
X100597244Y-105254500D01*
X100597240Y-105254500D01*
X100567650Y-105257274D01*
X100443023Y-105300884D01*
X100336789Y-105379288D01*
X100336788Y-105379289D01*
X100258384Y-105485523D01*
X100214774Y-105610150D01*
X100212000Y-105639739D01*
X100212000Y-106245260D01*
X100214774Y-106274849D01*
X100258384Y-106399476D01*
X100336788Y-106505710D01*
X100336789Y-106505711D01*
X100443025Y-106584116D01*
X100443029Y-106584117D01*
X100447644Y-106586557D01*
X100497716Y-106635286D01*
X100513495Y-106703350D01*
X100489970Y-106769141D01*
X100434611Y-106811769D01*
X100428706Y-106813893D01*
X100336199Y-106844546D01*
X100336188Y-106844551D01*
X100189465Y-106935052D01*
X100189461Y-106935055D01*
X100067555Y-107056961D01*
X100067552Y-107056965D01*
X99977051Y-107203688D01*
X99977046Y-107203699D01*
X99922819Y-107367347D01*
X99912500Y-107468345D01*
X87500500Y-107468345D01*
X87500500Y-101786654D01*
X100600001Y-101786654D01*
X100610319Y-101887652D01*
X100664546Y-102051300D01*
X100664551Y-102051311D01*
X100755052Y-102198034D01*
X100755055Y-102198038D01*
X100876961Y-102319944D01*
X100876965Y-102319947D01*
X101023688Y-102410448D01*
X101023699Y-102410453D01*
X101187347Y-102464680D01*
X101288351Y-102474999D01*
X101387500Y-102474998D01*
X101387500Y-101750000D01*
X100600001Y-101750000D01*
X100600001Y-101786654D01*
X87500500Y-101786654D01*
X87500500Y-101213345D01*
X100600000Y-101213345D01*
X100600000Y-101250000D01*
X101387500Y-101250000D01*
X101387500Y-100524999D01*
X101288360Y-100525000D01*
X101288344Y-100525001D01*
X101187347Y-100535319D01*
X101023699Y-100589546D01*
X101023688Y-100589551D01*
X100876965Y-100680052D01*
X100876961Y-100680055D01*
X100755055Y-100801961D01*
X100755052Y-100801965D01*
X100664551Y-100948688D01*
X100664546Y-100948699D01*
X100610319Y-101112347D01*
X100600000Y-101213345D01*
X87500500Y-101213345D01*
X87500500Y-63895730D01*
X88599500Y-63895730D01*
X88599500Y-65104269D01*
X88602353Y-65134699D01*
X88602353Y-65134701D01*
X88647206Y-65262880D01*
X88647207Y-65262882D01*
X88727850Y-65372150D01*
X88837118Y-65452793D01*
X88879845Y-65467744D01*
X88965299Y-65497646D01*
X88995730Y-65500500D01*
X88995734Y-65500500D01*
X89838000Y-65500500D01*
X89905039Y-65520185D01*
X89950794Y-65572989D01*
X89962000Y-65624500D01*
X89962000Y-71608391D01*
X89996108Y-71735687D01*
X90029054Y-71792750D01*
X90062000Y-71849814D01*
X90256563Y-72044377D01*
X90423181Y-72210994D01*
X90456666Y-72272317D01*
X90459500Y-72298675D01*
X90459500Y-72325500D01*
X90439815Y-72392539D01*
X90387011Y-72438294D01*
X90335500Y-72449500D01*
X90090247Y-72449500D01*
X90031770Y-72461131D01*
X90031769Y-72461132D01*
X89965447Y-72505447D01*
X89921132Y-72571769D01*
X89921131Y-72571770D01*
X89909500Y-72630247D01*
X89909500Y-74369752D01*
X89921131Y-74428229D01*
X89921132Y-74428230D01*
X89965447Y-74494552D01*
X90031769Y-74538867D01*
X90031770Y-74538868D01*
X90090247Y-74550499D01*
X90090250Y-74550500D01*
X90090252Y-74550500D01*
X90100500Y-74550500D01*
X90167539Y-74570185D01*
X90213294Y-74622989D01*
X90224500Y-74674500D01*
X90224500Y-81325500D01*
X90204815Y-81392539D01*
X90152011Y-81438294D01*
X90100500Y-81449500D01*
X89855247Y-81449500D01*
X89796770Y-81461131D01*
X89796769Y-81461132D01*
X89730447Y-81505447D01*
X89686132Y-81571769D01*
X89686131Y-81571770D01*
X89674500Y-81630247D01*
X89674500Y-83369752D01*
X89686131Y-83428229D01*
X89686132Y-83428230D01*
X89730447Y-83494552D01*
X89796769Y-83538867D01*
X89796770Y-83538868D01*
X89855247Y-83550499D01*
X89855250Y-83550500D01*
X89855252Y-83550500D01*
X90100500Y-83550500D01*
X90167539Y-83570185D01*
X90213294Y-83622989D01*
X90224500Y-83674500D01*
X90224500Y-90825500D01*
X90204815Y-90892539D01*
X90152011Y-90938294D01*
X90100500Y-90949500D01*
X89855247Y-90949500D01*
X89796770Y-90961131D01*
X89796769Y-90961132D01*
X89730447Y-91005447D01*
X89686132Y-91071769D01*
X89686131Y-91071770D01*
X89674500Y-91130247D01*
X89674500Y-92869752D01*
X89686131Y-92928229D01*
X89686132Y-92928230D01*
X89730447Y-92994552D01*
X89796769Y-93038867D01*
X89796770Y-93038868D01*
X89855247Y-93050499D01*
X89855250Y-93050500D01*
X89855252Y-93050500D01*
X91594750Y-93050500D01*
X91594751Y-93050499D01*
X91609568Y-93047552D01*
X91653229Y-93038868D01*
X91653229Y-93038867D01*
X91653231Y-93038867D01*
X91719552Y-92994552D01*
X91763867Y-92928231D01*
X91763867Y-92928229D01*
X91763868Y-92928229D01*
X91775499Y-92869752D01*
X91775500Y-92869750D01*
X91775500Y-92000000D01*
X92209417Y-92000000D01*
X92229699Y-92205932D01*
X92229700Y-92205934D01*
X92289768Y-92403954D01*
X92387315Y-92586450D01*
X92387316Y-92586451D01*
X92387317Y-92586452D01*
X92518589Y-92746410D01*
X92615209Y-92825702D01*
X92678550Y-92877685D01*
X92861046Y-92975232D01*
X93059066Y-93035300D01*
X93059065Y-93035300D01*
X93077529Y-93037118D01*
X93265000Y-93055583D01*
X93470934Y-93035300D01*
X93668954Y-92975232D01*
X93851450Y-92877685D01*
X94011410Y-92746410D01*
X94142685Y-92586450D01*
X94153592Y-92566045D01*
X94202555Y-92516202D01*
X94262949Y-92500500D01*
X99241324Y-92500500D01*
X99308363Y-92520185D01*
X99329005Y-92536819D01*
X105046973Y-98254787D01*
X105066678Y-98280467D01*
X105076406Y-98297315D01*
X105099500Y-98337314D01*
X105099502Y-98337316D01*
X106381268Y-99619082D01*
X106414753Y-99680405D01*
X106409769Y-99750097D01*
X106393358Y-99780395D01*
X106384708Y-99792115D01*
X106339853Y-99920303D01*
X106337000Y-99950730D01*
X106337000Y-100884269D01*
X106339853Y-100914699D01*
X106339853Y-100914701D01*
X106370067Y-101001044D01*
X106384707Y-101042882D01*
X106465350Y-101152150D01*
X106574618Y-101232793D01*
X106617345Y-101247744D01*
X106702799Y-101277646D01*
X106733230Y-101280500D01*
X106733234Y-101280500D01*
X106763000Y-101280500D01*
X106830039Y-101300185D01*
X106875794Y-101352989D01*
X106887000Y-101404500D01*
X106887000Y-103515449D01*
X106867315Y-103582488D01*
X106814511Y-103628243D01*
X106745353Y-103638187D01*
X106688691Y-103614717D01*
X106684592Y-103611648D01*
X106684586Y-103611645D01*
X106549879Y-103561403D01*
X106549872Y-103561401D01*
X106490344Y-103555000D01*
X105702500Y-103555000D01*
X105702500Y-107555000D01*
X106490328Y-107555000D01*
X106490344Y-107554999D01*
X106549872Y-107548598D01*
X106549879Y-107548596D01*
X106684586Y-107498354D01*
X106688685Y-107495286D01*
X106754148Y-107470866D01*
X106822422Y-107485715D01*
X106871830Y-107535118D01*
X106887000Y-107594550D01*
X106887000Y-107953391D01*
X106921108Y-108080687D01*
X106933533Y-108102207D01*
X106987000Y-108194814D01*
X108047686Y-109255500D01*
X108161814Y-109321392D01*
X108289108Y-109355500D01*
X108420893Y-109355500D01*
X109427020Y-109355500D01*
X109494059Y-109375185D01*
X109527531Y-109411628D01*
X109529189Y-109410405D01*
X109534706Y-109417881D01*
X109534707Y-109417882D01*
X109615350Y-109527150D01*
X109724618Y-109607793D01*
X109767345Y-109622744D01*
X109852799Y-109652646D01*
X109883230Y-109655500D01*
X109883234Y-109655500D01*
X110891770Y-109655500D01*
X110922199Y-109652646D01*
X110922201Y-109652646D01*
X110986290Y-109630219D01*
X111050382Y-109607793D01*
X111159650Y-109527150D01*
X111240293Y-109417882D01*
X111240293Y-109417881D01*
X111245811Y-109410405D01*
X111247785Y-109411862D01*
X111287080Y-109371485D01*
X111347980Y-109355500D01*
X112721650Y-109355500D01*
X112788689Y-109375185D01*
X112834444Y-109427989D01*
X112838692Y-109438547D01*
X112847205Y-109462879D01*
X112847206Y-109462881D01*
X112847207Y-109462882D01*
X112927850Y-109572150D01*
X113037118Y-109652793D01*
X113079845Y-109667744D01*
X113165299Y-109697646D01*
X113195730Y-109700500D01*
X113195734Y-109700500D01*
X113804270Y-109700500D01*
X113834699Y-109697646D01*
X113834701Y-109697646D01*
X113898790Y-109675219D01*
X113962882Y-109652793D01*
X114072150Y-109572150D01*
X114087858Y-109550865D01*
X114143506Y-109508615D01*
X114187628Y-109500500D01*
X114876333Y-109500500D01*
X114943372Y-109520185D01*
X114989127Y-109572989D01*
X114998801Y-109635106D01*
X114999721Y-109635162D01*
X114999500Y-109638853D01*
X114999500Y-109638856D01*
X114999500Y-110371144D01*
X115004825Y-110415494D01*
X115009640Y-110455588D01*
X115062636Y-110589976D01*
X115149921Y-110705078D01*
X115265023Y-110792363D01*
X115265024Y-110792363D01*
X115265025Y-110792364D01*
X115399410Y-110845359D01*
X115483856Y-110855500D01*
X115483862Y-110855500D01*
X117916138Y-110855500D01*
X117916144Y-110855500D01*
X118000590Y-110845359D01*
X118134975Y-110792364D01*
X118250078Y-110705078D01*
X118337364Y-110589975D01*
X118390359Y-110455590D01*
X118400500Y-110371144D01*
X118400500Y-109638856D01*
X118390359Y-109554410D01*
X118337364Y-109420025D01*
X118337363Y-109420024D01*
X118337363Y-109420023D01*
X118250078Y-109304921D01*
X118134976Y-109217636D01*
X118000588Y-109164640D01*
X117957242Y-109159435D01*
X117916144Y-109154500D01*
X117916138Y-109154500D01*
X116608676Y-109154500D01*
X116541637Y-109134815D01*
X116520995Y-109118181D01*
X116002316Y-108599502D01*
X116002314Y-108599500D01*
X115945250Y-108566554D01*
X115888187Y-108533608D01*
X115824539Y-108516554D01*
X115760892Y-108499500D01*
X115760891Y-108499500D01*
X114187628Y-108499500D01*
X114120589Y-108479815D01*
X114087858Y-108449134D01*
X114072150Y-108427850D01*
X113962882Y-108347207D01*
X113962880Y-108347206D01*
X113834700Y-108302353D01*
X113804270Y-108299500D01*
X113804266Y-108299500D01*
X113195734Y-108299500D01*
X113195730Y-108299500D01*
X113165302Y-108302353D01*
X113036160Y-108347542D01*
X112995206Y-108354500D01*
X111347980Y-108354500D01*
X111280941Y-108334815D01*
X111247468Y-108298371D01*
X111245811Y-108299595D01*
X111240293Y-108292118D01*
X111159650Y-108182850D01*
X111050382Y-108102207D01*
X111050380Y-108102206D01*
X110922200Y-108057353D01*
X110891770Y-108054500D01*
X110891766Y-108054500D01*
X109883234Y-108054500D01*
X109883230Y-108054500D01*
X109852800Y-108057353D01*
X109852798Y-108057353D01*
X109724619Y-108102206D01*
X109724617Y-108102207D01*
X109615350Y-108182850D01*
X109529189Y-108299595D01*
X109527214Y-108298137D01*
X109487920Y-108338515D01*
X109427020Y-108354500D01*
X108613676Y-108354500D01*
X108546637Y-108334815D01*
X108525995Y-108318181D01*
X107924319Y-107716505D01*
X107890834Y-107655182D01*
X107888000Y-107628824D01*
X107888000Y-107156692D01*
X107907685Y-107089653D01*
X107943109Y-107053590D01*
X107950891Y-107048391D01*
X108004046Y-106968839D01*
X108018000Y-106898688D01*
X108018000Y-106611312D01*
X108018000Y-106611309D01*
X108017999Y-106611307D01*
X108004047Y-106541165D01*
X108004046Y-106541162D01*
X108004046Y-106541161D01*
X107975466Y-106498389D01*
X107954590Y-106431713D01*
X107973075Y-106364333D01*
X108025054Y-106317643D01*
X108078570Y-106305500D01*
X109290956Y-106305500D01*
X109357995Y-106325185D01*
X109378637Y-106341819D01*
X109450681Y-106413863D01*
X109484166Y-106475186D01*
X109487000Y-106501544D01*
X109487000Y-107259269D01*
X109489853Y-107289699D01*
X109489853Y-107289701D01*
X109533698Y-107414998D01*
X109534707Y-107417882D01*
X109615350Y-107527150D01*
X109724618Y-107607793D01*
X109767345Y-107622744D01*
X109852799Y-107652646D01*
X109883230Y-107655500D01*
X109883234Y-107655500D01*
X110891770Y-107655500D01*
X110922199Y-107652646D01*
X110922201Y-107652646D01*
X110990279Y-107628824D01*
X111050382Y-107607793D01*
X111159650Y-107527150D01*
X111240293Y-107417882D01*
X111264004Y-107350120D01*
X111285146Y-107289701D01*
X111285146Y-107289699D01*
X111288000Y-107259269D01*
X111288000Y-106450730D01*
X111285146Y-106420300D01*
X111285146Y-106420298D01*
X111251506Y-106324163D01*
X111240293Y-106292118D01*
X111159650Y-106182850D01*
X111050382Y-106102207D01*
X111050380Y-106102206D01*
X110922200Y-106057353D01*
X110891770Y-106054500D01*
X110891766Y-106054500D01*
X110134044Y-106054500D01*
X110067005Y-106034815D01*
X110046363Y-106018181D01*
X109702713Y-105674531D01*
X109702708Y-105674527D01*
X109622790Y-105628387D01*
X109622789Y-105628386D01*
X109622788Y-105628386D01*
X109533644Y-105604500D01*
X109533643Y-105604500D01*
X108078570Y-105604500D01*
X108011531Y-105584815D01*
X107965776Y-105532011D01*
X107955832Y-105462853D01*
X107975467Y-105411610D01*
X108004046Y-105368839D01*
X108018000Y-105298688D01*
X108018000Y-105011312D01*
X108018000Y-105011309D01*
X108017999Y-105011307D01*
X108004047Y-104941165D01*
X108004046Y-104941164D01*
X108004046Y-104941161D01*
X107950891Y-104861609D01*
X107950886Y-104861605D01*
X107945641Y-104858100D01*
X107900836Y-104804487D01*
X107892130Y-104735162D01*
X107922286Y-104672135D01*
X107945642Y-104651897D01*
X107950891Y-104648391D01*
X108004046Y-104568839D01*
X108018000Y-104498688D01*
X108018000Y-104211312D01*
X108018000Y-104211309D01*
X108017999Y-104211307D01*
X108004047Y-104141165D01*
X108004046Y-104141164D01*
X108004046Y-104141161D01*
X107950891Y-104061609D01*
X107950886Y-104061605D01*
X107943106Y-104056406D01*
X107898302Y-104002792D01*
X107888000Y-103953306D01*
X107888000Y-102945730D01*
X111799500Y-102945730D01*
X111799500Y-103554269D01*
X111802353Y-103584699D01*
X111802353Y-103584701D01*
X111847206Y-103712880D01*
X111847207Y-103712882D01*
X111927850Y-103822150D01*
X111949132Y-103837857D01*
X111991384Y-103893503D01*
X111999500Y-103937628D01*
X111999500Y-104434108D01*
X111999500Y-104565892D01*
X112000290Y-104568839D01*
X112033608Y-104693187D01*
X112040723Y-104705510D01*
X112099500Y-104807314D01*
X112099502Y-104807316D01*
X112963181Y-105670995D01*
X112996666Y-105732318D01*
X112999500Y-105758676D01*
X112999500Y-105812372D01*
X112979815Y-105879411D01*
X112949134Y-105912142D01*
X112927850Y-105927850D01*
X112847207Y-106037117D01*
X112847206Y-106037119D01*
X112802353Y-106165298D01*
X112802353Y-106165300D01*
X112799500Y-106195730D01*
X112799500Y-106804269D01*
X112802353Y-106834699D01*
X112802353Y-106834701D01*
X112847206Y-106962880D01*
X112847207Y-106962882D01*
X112927850Y-107072150D01*
X113037118Y-107152793D01*
X113048261Y-107156692D01*
X113165299Y-107197646D01*
X113195730Y-107200500D01*
X113195734Y-107200500D01*
X113804270Y-107200500D01*
X113834699Y-107197646D01*
X113834701Y-107197646D01*
X113898790Y-107175219D01*
X113962882Y-107152793D01*
X114072150Y-107072150D01*
X114152793Y-106962882D01*
X114175255Y-106898688D01*
X114197646Y-106834701D01*
X114197646Y-106834699D01*
X114200500Y-106804269D01*
X114200500Y-106638856D01*
X114999500Y-106638856D01*
X114999500Y-107371144D01*
X115003498Y-107404438D01*
X115009640Y-107455588D01*
X115062636Y-107589976D01*
X115149921Y-107705078D01*
X115265023Y-107792363D01*
X115265024Y-107792363D01*
X115265025Y-107792364D01*
X115399410Y-107845359D01*
X115483856Y-107855500D01*
X115483862Y-107855500D01*
X117916138Y-107855500D01*
X117916144Y-107855500D01*
X118000590Y-107845359D01*
X118134975Y-107792364D01*
X118250078Y-107705078D01*
X118337364Y-107589975D01*
X118390359Y-107455590D01*
X118400500Y-107371144D01*
X118400500Y-106638856D01*
X118390359Y-106554410D01*
X118337364Y-106420025D01*
X118337363Y-106420024D01*
X118337363Y-106420023D01*
X118250078Y-106304921D01*
X118134976Y-106217636D01*
X118000588Y-106164640D01*
X117957242Y-106159435D01*
X117916144Y-106154500D01*
X115483856Y-106154500D01*
X115445841Y-106159065D01*
X115399411Y-106164640D01*
X115265023Y-106217636D01*
X115149921Y-106304921D01*
X115062636Y-106420023D01*
X115009640Y-106554411D01*
X115004065Y-106600841D01*
X114999500Y-106638856D01*
X114200500Y-106638856D01*
X114200500Y-106195730D01*
X114197646Y-106165300D01*
X114197646Y-106165298D01*
X114159874Y-106057354D01*
X114152793Y-106037118D01*
X114072150Y-105927850D01*
X114050865Y-105912141D01*
X114008615Y-105856494D01*
X114000500Y-105812372D01*
X114000500Y-105434110D01*
X114000500Y-105434108D01*
X113966392Y-105306814D01*
X113961700Y-105298688D01*
X113957563Y-105291521D01*
X113900500Y-105192686D01*
X113807314Y-105099500D01*
X113036819Y-104329005D01*
X113003334Y-104267682D01*
X113000500Y-104241324D01*
X113000500Y-103937628D01*
X113020185Y-103870589D01*
X113050866Y-103837857D01*
X113072150Y-103822150D01*
X113152793Y-103712882D01*
X113178696Y-103638856D01*
X114999500Y-103638856D01*
X114999500Y-104371144D01*
X115004825Y-104415494D01*
X115009640Y-104455588D01*
X115062636Y-104589976D01*
X115149921Y-104705078D01*
X115265023Y-104792363D01*
X115265024Y-104792363D01*
X115265025Y-104792364D01*
X115399410Y-104845359D01*
X115483856Y-104855500D01*
X115483862Y-104855500D01*
X117916138Y-104855500D01*
X117916144Y-104855500D01*
X118000590Y-104845359D01*
X118134975Y-104792364D01*
X118250078Y-104705078D01*
X118337364Y-104589975D01*
X118390359Y-104455590D01*
X118400500Y-104371144D01*
X118400500Y-103638856D01*
X118390359Y-103554410D01*
X118337364Y-103420025D01*
X118337363Y-103420024D01*
X118337363Y-103420023D01*
X118250078Y-103304921D01*
X118134976Y-103217636D01*
X118000588Y-103164640D01*
X117957242Y-103159435D01*
X117916144Y-103154500D01*
X115483856Y-103154500D01*
X115445841Y-103159065D01*
X115399411Y-103164640D01*
X115265023Y-103217636D01*
X115149921Y-103304921D01*
X115062636Y-103420023D01*
X115009640Y-103554411D01*
X115006003Y-103584701D01*
X114999500Y-103638856D01*
X113178696Y-103638856D01*
X113178930Y-103638187D01*
X113197646Y-103584701D01*
X113197646Y-103584699D01*
X113200500Y-103554269D01*
X113200500Y-102945730D01*
X113197646Y-102915300D01*
X113197646Y-102915298D01*
X113152793Y-102787119D01*
X113152792Y-102787117D01*
X113072150Y-102677850D01*
X112962882Y-102597207D01*
X112962880Y-102597206D01*
X112834700Y-102552353D01*
X112804270Y-102549500D01*
X112804266Y-102549500D01*
X112195734Y-102549500D01*
X112195730Y-102549500D01*
X112165300Y-102552353D01*
X112165298Y-102552353D01*
X112037119Y-102597206D01*
X112037117Y-102597207D01*
X111927850Y-102677850D01*
X111847207Y-102787117D01*
X111847206Y-102787119D01*
X111802353Y-102915298D01*
X111802353Y-102915300D01*
X111799500Y-102945730D01*
X107888000Y-102945730D01*
X107888000Y-101404500D01*
X107907685Y-101337461D01*
X107960489Y-101291706D01*
X108012000Y-101280500D01*
X108099481Y-101280500D01*
X108131574Y-101284725D01*
X108209108Y-101305500D01*
X108209110Y-101305500D01*
X108340891Y-101305500D01*
X108340893Y-101305500D01*
X108406397Y-101287948D01*
X108418427Y-101284725D01*
X108450520Y-101280500D01*
X109041770Y-101280500D01*
X109072199Y-101277646D01*
X109072201Y-101277646D01*
X109151207Y-101250000D01*
X109200382Y-101232793D01*
X109309650Y-101152150D01*
X109390293Y-101042882D01*
X109404933Y-101001044D01*
X109445655Y-100944269D01*
X109510608Y-100918522D01*
X109521974Y-100918000D01*
X111675500Y-100918000D01*
X111742539Y-100937685D01*
X111788294Y-100990489D01*
X111799500Y-101042000D01*
X111799500Y-101054269D01*
X111802353Y-101084699D01*
X111802353Y-101084701D01*
X111846107Y-101209739D01*
X111847207Y-101212882D01*
X111927850Y-101322150D01*
X112037118Y-101402793D01*
X112079845Y-101417744D01*
X112165299Y-101447646D01*
X112195730Y-101450500D01*
X112195734Y-101450500D01*
X112804270Y-101450500D01*
X112834699Y-101447646D01*
X112834701Y-101447646D01*
X112898790Y-101425219D01*
X112962882Y-101402793D01*
X113072150Y-101322150D01*
X113087858Y-101300865D01*
X113143506Y-101258615D01*
X113187628Y-101250500D01*
X114875500Y-101250500D01*
X114942539Y-101270185D01*
X114988294Y-101322989D01*
X114997980Y-101367516D01*
X114999278Y-101367439D01*
X114999498Y-101371128D01*
X115009640Y-101455588D01*
X115062636Y-101589976D01*
X115149921Y-101705078D01*
X115265023Y-101792363D01*
X115265024Y-101792363D01*
X115265025Y-101792364D01*
X115399410Y-101845359D01*
X115483856Y-101855500D01*
X115483862Y-101855500D01*
X117916138Y-101855500D01*
X117916144Y-101855500D01*
X118000590Y-101845359D01*
X118134975Y-101792364D01*
X118250078Y-101705078D01*
X118337364Y-101589975D01*
X118390359Y-101455590D01*
X118400500Y-101371144D01*
X118400500Y-100638856D01*
X118390359Y-100554410D01*
X118337364Y-100420025D01*
X118337363Y-100420024D01*
X118337363Y-100420023D01*
X118250078Y-100304921D01*
X118134976Y-100217636D01*
X118000588Y-100164640D01*
X117957242Y-100159435D01*
X117916144Y-100154500D01*
X115483856Y-100154500D01*
X115445841Y-100159065D01*
X115399411Y-100164640D01*
X115265025Y-100217635D01*
X115259450Y-100221863D01*
X115256232Y-100224303D01*
X115190922Y-100249127D01*
X115181307Y-100249500D01*
X113187628Y-100249500D01*
X113120589Y-100229815D01*
X113087858Y-100199134D01*
X113072150Y-100177850D01*
X112962882Y-100097207D01*
X112962880Y-100097206D01*
X112834700Y-100052353D01*
X112804270Y-100049500D01*
X112804266Y-100049500D01*
X112558676Y-100049500D01*
X112491637Y-100029815D01*
X112481494Y-100021641D01*
X112481260Y-100021947D01*
X112474817Y-100017003D01*
X112474814Y-100017000D01*
X112417750Y-99984054D01*
X112360687Y-99951108D01*
X112297039Y-99934054D01*
X112233392Y-99917000D01*
X112233391Y-99917000D01*
X109521974Y-99917000D01*
X109454935Y-99897315D01*
X109409180Y-99844511D01*
X109404933Y-99833956D01*
X109401688Y-99824683D01*
X109390293Y-99792118D01*
X109309650Y-99682850D01*
X109200382Y-99602207D01*
X109200380Y-99602206D01*
X109072200Y-99557353D01*
X109041770Y-99554500D01*
X109041766Y-99554500D01*
X107783676Y-99554500D01*
X107716637Y-99534815D01*
X107695995Y-99518181D01*
X106844494Y-98666680D01*
X106811009Y-98605357D01*
X106815993Y-98535665D01*
X106857865Y-98479732D01*
X106923329Y-98455315D01*
X106932175Y-98454999D01*
X107637499Y-98454999D01*
X108137500Y-98454999D01*
X109037472Y-98454999D01*
X109037486Y-98454998D01*
X109140197Y-98444505D01*
X109306619Y-98389358D01*
X109306624Y-98389356D01*
X109455845Y-98297315D01*
X109579815Y-98173345D01*
X109671856Y-98024124D01*
X109671858Y-98024119D01*
X109727005Y-97857697D01*
X109727006Y-97857690D01*
X109737499Y-97754986D01*
X109737500Y-97754973D01*
X109737500Y-97638856D01*
X114999500Y-97638856D01*
X114999500Y-98371144D01*
X115004825Y-98415494D01*
X115009640Y-98455588D01*
X115062636Y-98589976D01*
X115149921Y-98705078D01*
X115265023Y-98792363D01*
X115265024Y-98792363D01*
X115265025Y-98792364D01*
X115399410Y-98845359D01*
X115483856Y-98855500D01*
X115483862Y-98855500D01*
X117916138Y-98855500D01*
X117916144Y-98855500D01*
X118000590Y-98845359D01*
X118134975Y-98792364D01*
X118250078Y-98705078D01*
X118337364Y-98589975D01*
X118390359Y-98455590D01*
X118400500Y-98371144D01*
X118400500Y-97638856D01*
X118390359Y-97554410D01*
X118337364Y-97420025D01*
X118337363Y-97420024D01*
X118337363Y-97420023D01*
X118250078Y-97304921D01*
X118134976Y-97217636D01*
X118000588Y-97164640D01*
X117957242Y-97159435D01*
X117916144Y-97154500D01*
X115483856Y-97154500D01*
X115445841Y-97159065D01*
X115399411Y-97164640D01*
X115265023Y-97217636D01*
X115149921Y-97304921D01*
X115062636Y-97420023D01*
X115009640Y-97554411D01*
X115004483Y-97597364D01*
X114999500Y-97638856D01*
X109737500Y-97638856D01*
X109737500Y-97542500D01*
X108137500Y-97542500D01*
X108137500Y-98454999D01*
X107637499Y-98454999D01*
X107637500Y-98454998D01*
X107637500Y-97542500D01*
X106037501Y-97542500D01*
X106032439Y-97547561D01*
X106017816Y-97597364D01*
X105965012Y-97643119D01*
X105895854Y-97653063D01*
X105832298Y-97624038D01*
X105825820Y-97618006D01*
X105037827Y-96830013D01*
X106037500Y-96830013D01*
X106037500Y-97042500D01*
X107637500Y-97042500D01*
X108137500Y-97042500D01*
X109737499Y-97042500D01*
X109737499Y-96830028D01*
X109737498Y-96830013D01*
X109727005Y-96727302D01*
X109671858Y-96560880D01*
X109671856Y-96560875D01*
X109579815Y-96411654D01*
X109455845Y-96287684D01*
X109306624Y-96195643D01*
X109306619Y-96195641D01*
X109140197Y-96140494D01*
X109140190Y-96140493D01*
X109037486Y-96130000D01*
X108137500Y-96130000D01*
X108137500Y-97042500D01*
X107637500Y-97042500D01*
X107637500Y-96130000D01*
X106737528Y-96130000D01*
X106737512Y-96130001D01*
X106634802Y-96140494D01*
X106468380Y-96195641D01*
X106468375Y-96195643D01*
X106319154Y-96287684D01*
X106195184Y-96411654D01*
X106103143Y-96560875D01*
X106103141Y-96560880D01*
X106047994Y-96727302D01*
X106047993Y-96727309D01*
X106037500Y-96830013D01*
X105037827Y-96830013D01*
X99807316Y-91599502D01*
X99807314Y-91599500D01*
X99750250Y-91566554D01*
X99693187Y-91533608D01*
X99629539Y-91516554D01*
X99565892Y-91499500D01*
X99565891Y-91499500D01*
X94262949Y-91499500D01*
X94195910Y-91479815D01*
X94153592Y-91433955D01*
X94142684Y-91413548D01*
X94011410Y-91253589D01*
X93861121Y-91130252D01*
X93851450Y-91122315D01*
X93668954Y-91024768D01*
X93470934Y-90964700D01*
X93470932Y-90964699D01*
X93470934Y-90964699D01*
X93265000Y-90944417D01*
X93059067Y-90964699D01*
X92861043Y-91024769D01*
X92773114Y-91071769D01*
X92678550Y-91122315D01*
X92678548Y-91122316D01*
X92678547Y-91122317D01*
X92518589Y-91253589D01*
X92387317Y-91413547D01*
X92289769Y-91596043D01*
X92229699Y-91794067D01*
X92209417Y-92000000D01*
X91775500Y-92000000D01*
X91775500Y-91130249D01*
X91775499Y-91130247D01*
X91763868Y-91071770D01*
X91763867Y-91071769D01*
X91719552Y-91005447D01*
X91653230Y-90961132D01*
X91653229Y-90961131D01*
X91594752Y-90949500D01*
X91594748Y-90949500D01*
X91349500Y-90949500D01*
X91282461Y-90929815D01*
X91236706Y-90877011D01*
X91225500Y-90825500D01*
X91225500Y-88661654D01*
X103025001Y-88661654D01*
X103035319Y-88762652D01*
X103089546Y-88926300D01*
X103089551Y-88926311D01*
X103180052Y-89073034D01*
X103180055Y-89073038D01*
X103301961Y-89194944D01*
X103301965Y-89194947D01*
X103448688Y-89285448D01*
X103448699Y-89285453D01*
X103612347Y-89339680D01*
X103713352Y-89349999D01*
X103750000Y-89349999D01*
X104250000Y-89349999D01*
X104286640Y-89349999D01*
X104286654Y-89349998D01*
X104387652Y-89339680D01*
X104551300Y-89285453D01*
X104551311Y-89285448D01*
X104698034Y-89194947D01*
X104698038Y-89194944D01*
X104819944Y-89073038D01*
X104819947Y-89073034D01*
X104910448Y-88926311D01*
X104910453Y-88926300D01*
X104964680Y-88762652D01*
X104974999Y-88661654D01*
X104975000Y-88661641D01*
X104975000Y-88612500D01*
X104250000Y-88612500D01*
X104250000Y-89349999D01*
X103750000Y-89349999D01*
X103750000Y-88612500D01*
X103025001Y-88612500D01*
X103025001Y-88661654D01*
X91225500Y-88661654D01*
X91225500Y-88063345D01*
X103025000Y-88063345D01*
X103025000Y-88112500D01*
X104974999Y-88112500D01*
X104974999Y-88063360D01*
X104974998Y-88063345D01*
X104964680Y-87962347D01*
X104910453Y-87798699D01*
X104910448Y-87798688D01*
X104819947Y-87651965D01*
X104819944Y-87651961D01*
X104698038Y-87530055D01*
X104698034Y-87530052D01*
X104551311Y-87439551D01*
X104551300Y-87439546D01*
X104458793Y-87408893D01*
X104401348Y-87369121D01*
X104374525Y-87304605D01*
X104386840Y-87235829D01*
X104434383Y-87184629D01*
X104439859Y-87181555D01*
X104444470Y-87179117D01*
X104444475Y-87179116D01*
X104550711Y-87100711D01*
X104629116Y-86994475D01*
X104672725Y-86869849D01*
X104675500Y-86840256D01*
X104675500Y-86599770D01*
X105200001Y-86599770D01*
X105210420Y-86686554D01*
X105210422Y-86686558D01*
X105264876Y-86824644D01*
X105264879Y-86824650D01*
X105354571Y-86942928D01*
X105472849Y-87032620D01*
X105472855Y-87032623D01*
X105610943Y-87087078D01*
X105697729Y-87097499D01*
X105969999Y-87097499D01*
X105970000Y-87097498D01*
X105970000Y-86597500D01*
X105200001Y-86597500D01*
X105200001Y-86599770D01*
X104675500Y-86599770D01*
X104675500Y-86409044D01*
X104695185Y-86342005D01*
X104711819Y-86321363D01*
X105008863Y-86024319D01*
X105070186Y-85990834D01*
X105096544Y-85988000D01*
X105107274Y-85988000D01*
X105174313Y-86007685D01*
X105220068Y-86060489D01*
X105230012Y-86129647D01*
X105222628Y-86157491D01*
X105210421Y-86188444D01*
X105200000Y-86275229D01*
X105200000Y-86277500D01*
X106006000Y-86277500D01*
X106073039Y-86297185D01*
X106118794Y-86349989D01*
X106130000Y-86401500D01*
X106130000Y-86437500D01*
X106166000Y-86437500D01*
X106233039Y-86457185D01*
X106278794Y-86509989D01*
X106290000Y-86561500D01*
X106290000Y-87097499D01*
X106562270Y-87097499D01*
X106650222Y-87086938D01*
X106719130Y-87098490D01*
X106739316Y-87110788D01*
X106832906Y-87180850D01*
X106832913Y-87180854D01*
X106967620Y-87231096D01*
X106967627Y-87231098D01*
X107027155Y-87237499D01*
X107027172Y-87237500D01*
X107815000Y-87237500D01*
X107815000Y-83237500D01*
X107027155Y-83237500D01*
X106967627Y-83243901D01*
X106967620Y-83243903D01*
X106832913Y-83294145D01*
X106832906Y-83294149D01*
X106717812Y-83380309D01*
X106717809Y-83380312D01*
X106631649Y-83495406D01*
X106631645Y-83495413D01*
X106594005Y-83596333D01*
X106552134Y-83652267D01*
X106486669Y-83676684D01*
X106477823Y-83677000D01*
X106337000Y-83677000D01*
X106269961Y-83657315D01*
X106224206Y-83604511D01*
X106213000Y-83553000D01*
X106213000Y-82271852D01*
X106232685Y-82204813D01*
X106285489Y-82159058D01*
X106296045Y-82154811D01*
X106318866Y-82146824D01*
X106369475Y-82129116D01*
X106475711Y-82050711D01*
X106554116Y-81944475D01*
X106597725Y-81819849D01*
X106600500Y-81790256D01*
X106600500Y-81209744D01*
X106597725Y-81180151D01*
X106554116Y-81055525D01*
X106513505Y-81000499D01*
X106475711Y-80949289D01*
X106475710Y-80949288D01*
X106369476Y-80870884D01*
X106244848Y-80827274D01*
X106244849Y-80827274D01*
X106215260Y-80824500D01*
X106215256Y-80824500D01*
X105509744Y-80824500D01*
X105509740Y-80824500D01*
X105480150Y-80827274D01*
X105355525Y-80870883D01*
X105262560Y-80939494D01*
X105196930Y-80963464D01*
X105128760Y-80948148D01*
X105083388Y-80904820D01*
X105019943Y-80801960D01*
X104898038Y-80680055D01*
X104898034Y-80680052D01*
X104751311Y-80589551D01*
X104751300Y-80589546D01*
X104587652Y-80535319D01*
X104486654Y-80525000D01*
X104387500Y-80525000D01*
X104387500Y-82474999D01*
X104486640Y-82474999D01*
X104486654Y-82474998D01*
X104587652Y-82464680D01*
X104751300Y-82410453D01*
X104751311Y-82410448D01*
X104898034Y-82319947D01*
X104898038Y-82319944D01*
X105019945Y-82198037D01*
X105083388Y-82095180D01*
X105135336Y-82048455D01*
X105204298Y-82037232D01*
X105262558Y-82060504D01*
X105355525Y-82129116D01*
X105387608Y-82140342D01*
X105428955Y-82154811D01*
X105485731Y-82195533D01*
X105511478Y-82260486D01*
X105512000Y-82271852D01*
X105512000Y-83818758D01*
X105509617Y-83842950D01*
X105499500Y-83893809D01*
X105499500Y-84181192D01*
X105513452Y-84251334D01*
X105513453Y-84251337D01*
X105513454Y-84251339D01*
X105566609Y-84330891D01*
X105571852Y-84334394D01*
X105571858Y-84334398D01*
X105616663Y-84388010D01*
X105625370Y-84457335D01*
X105595215Y-84520363D01*
X105571858Y-84540602D01*
X105566609Y-84544109D01*
X105513454Y-84623661D01*
X105513452Y-84623665D01*
X105499500Y-84693807D01*
X105499500Y-84981192D01*
X105513452Y-85051334D01*
X105513453Y-85051337D01*
X105542033Y-85094110D01*
X105562910Y-85160787D01*
X105544425Y-85228167D01*
X105492446Y-85274857D01*
X105438930Y-85287000D01*
X104853856Y-85287000D01*
X104764712Y-85310886D01*
X104764709Y-85310887D01*
X104684791Y-85357027D01*
X104684786Y-85357031D01*
X104228637Y-85813181D01*
X104167314Y-85846666D01*
X104140956Y-85849500D01*
X103709740Y-85849500D01*
X103680150Y-85852274D01*
X103555523Y-85895884D01*
X103449289Y-85974288D01*
X103449288Y-85974289D01*
X103370884Y-86080523D01*
X103327274Y-86205150D01*
X103324500Y-86234739D01*
X103324500Y-86840260D01*
X103327274Y-86869849D01*
X103370884Y-86994476D01*
X103446918Y-87097499D01*
X103449289Y-87100711D01*
X103555525Y-87179116D01*
X103555529Y-87179117D01*
X103560144Y-87181557D01*
X103610216Y-87230286D01*
X103625995Y-87298350D01*
X103602470Y-87364141D01*
X103547111Y-87406769D01*
X103541206Y-87408893D01*
X103448699Y-87439546D01*
X103448688Y-87439551D01*
X103301965Y-87530052D01*
X103301961Y-87530055D01*
X103180055Y-87651961D01*
X103180052Y-87651965D01*
X103089551Y-87798688D01*
X103089546Y-87798699D01*
X103035319Y-87962347D01*
X103025000Y-88063345D01*
X91225500Y-88063345D01*
X91225500Y-83674500D01*
X91245185Y-83607461D01*
X91297989Y-83561706D01*
X91349500Y-83550500D01*
X91594750Y-83550500D01*
X91594751Y-83550499D01*
X91609568Y-83547552D01*
X91653229Y-83538868D01*
X91653229Y-83538867D01*
X91653231Y-83538867D01*
X91719552Y-83494552D01*
X91763867Y-83428231D01*
X91763867Y-83428229D01*
X91763868Y-83428229D01*
X91773922Y-83377682D01*
X91775500Y-83369748D01*
X91775500Y-82500000D01*
X92209417Y-82500000D01*
X92229699Y-82705932D01*
X92229700Y-82705934D01*
X92289768Y-82903954D01*
X92387315Y-83086450D01*
X92387316Y-83086451D01*
X92387317Y-83086452D01*
X92518589Y-83246410D01*
X92576759Y-83294148D01*
X92678550Y-83377685D01*
X92861046Y-83475232D01*
X93059066Y-83535300D01*
X93059065Y-83535300D01*
X93077529Y-83537118D01*
X93265000Y-83555583D01*
X93470934Y-83535300D01*
X93668954Y-83475232D01*
X93851450Y-83377685D01*
X94011410Y-83246410D01*
X94142685Y-83086450D01*
X94153592Y-83066045D01*
X94202555Y-83016202D01*
X94262949Y-83000500D01*
X98565890Y-83000500D01*
X98565892Y-83000500D01*
X98693186Y-82966392D01*
X98807314Y-82900500D01*
X99921160Y-81786654D01*
X103100001Y-81786654D01*
X103110319Y-81887652D01*
X103164546Y-82051300D01*
X103164551Y-82051311D01*
X103255052Y-82198034D01*
X103255055Y-82198038D01*
X103376961Y-82319944D01*
X103376965Y-82319947D01*
X103523688Y-82410448D01*
X103523699Y-82410453D01*
X103687347Y-82464680D01*
X103788351Y-82474999D01*
X103887500Y-82474998D01*
X103887500Y-81750000D01*
X103100001Y-81750000D01*
X103100001Y-81786654D01*
X99921160Y-81786654D01*
X100494469Y-81213345D01*
X103100000Y-81213345D01*
X103100000Y-81250000D01*
X103887500Y-81250000D01*
X103887500Y-80524999D01*
X103788360Y-80525000D01*
X103788344Y-80525001D01*
X103687347Y-80535319D01*
X103523699Y-80589546D01*
X103523688Y-80589551D01*
X103376965Y-80680052D01*
X103376961Y-80680055D01*
X103255055Y-80801961D01*
X103255052Y-80801965D01*
X103164551Y-80948688D01*
X103164546Y-80948699D01*
X103110319Y-81112347D01*
X103100000Y-81213345D01*
X100494469Y-81213345D01*
X102170995Y-79536819D01*
X102232318Y-79503334D01*
X102258676Y-79500500D01*
X106741324Y-79500500D01*
X106808363Y-79520185D01*
X106829005Y-79536819D01*
X108292686Y-81000500D01*
X108406814Y-81066392D01*
X108534108Y-81100500D01*
X108665893Y-81100500D01*
X108865526Y-81100500D01*
X108932565Y-81120185D01*
X108978320Y-81172989D01*
X108982567Y-81183544D01*
X108997207Y-81225382D01*
X109077850Y-81334650D01*
X109187118Y-81415293D01*
X109228620Y-81429815D01*
X109315299Y-81460146D01*
X109345730Y-81463000D01*
X109345734Y-81463000D01*
X109375500Y-81463000D01*
X109442539Y-81482685D01*
X109488294Y-81535489D01*
X109499500Y-81587000D01*
X109499500Y-83197949D01*
X109479815Y-83264988D01*
X109427011Y-83310743D01*
X109357853Y-83320687D01*
X109301191Y-83297217D01*
X109297092Y-83294148D01*
X109297086Y-83294145D01*
X109162379Y-83243903D01*
X109162372Y-83243901D01*
X109102844Y-83237500D01*
X108315000Y-83237500D01*
X108315000Y-87237500D01*
X109102828Y-87237500D01*
X109102844Y-87237499D01*
X109162372Y-87231098D01*
X109162379Y-87231096D01*
X109297086Y-87180854D01*
X109301185Y-87177786D01*
X109366648Y-87153366D01*
X109434922Y-87168215D01*
X109484330Y-87217618D01*
X109499500Y-87277050D01*
X109499500Y-87434108D01*
X109499500Y-87565892D01*
X109507891Y-87597207D01*
X109533608Y-87693187D01*
X109537042Y-87699134D01*
X109599500Y-87807314D01*
X110149500Y-88357314D01*
X110242686Y-88450500D01*
X110335811Y-88504266D01*
X110356814Y-88516392D01*
X110484107Y-88550500D01*
X110484108Y-88550500D01*
X112344901Y-88550500D01*
X112411940Y-88570185D01*
X112457695Y-88622989D01*
X112461934Y-88633525D01*
X112472207Y-88662882D01*
X112552850Y-88772150D01*
X112662118Y-88852793D01*
X112704845Y-88867744D01*
X112790299Y-88897646D01*
X112820730Y-88900500D01*
X112820734Y-88900500D01*
X114179270Y-88900500D01*
X114209699Y-88897646D01*
X114209701Y-88897646D01*
X114275847Y-88874500D01*
X114337882Y-88852793D01*
X114447150Y-88772150D01*
X114527793Y-88662882D01*
X114538059Y-88633543D01*
X114578779Y-88576770D01*
X114643731Y-88551022D01*
X114655099Y-88550500D01*
X115702404Y-88550500D01*
X115769443Y-88570185D01*
X115815198Y-88622989D01*
X115819445Y-88633544D01*
X115847207Y-88712882D01*
X115927850Y-88822150D01*
X116037118Y-88902793D01*
X116079845Y-88917744D01*
X116165299Y-88947646D01*
X116195730Y-88950500D01*
X116195734Y-88950500D01*
X116804270Y-88950500D01*
X116834699Y-88947646D01*
X116834701Y-88947646D01*
X116898790Y-88925219D01*
X116962882Y-88902793D01*
X117072150Y-88822150D01*
X117087858Y-88800865D01*
X117143506Y-88758615D01*
X117187628Y-88750500D01*
X118675500Y-88750500D01*
X118742539Y-88770185D01*
X118788294Y-88822989D01*
X118799500Y-88874500D01*
X118799500Y-89054752D01*
X118811131Y-89113229D01*
X118811132Y-89113230D01*
X118855447Y-89179552D01*
X118921769Y-89223867D01*
X118921770Y-89223868D01*
X118980247Y-89235499D01*
X118980250Y-89235500D01*
X118980252Y-89235500D01*
X120919750Y-89235500D01*
X120919751Y-89235499D01*
X120934568Y-89232552D01*
X120978229Y-89223868D01*
X120978229Y-89223867D01*
X120978231Y-89223867D01*
X121044552Y-89179552D01*
X121088867Y-89113231D01*
X121088867Y-89113229D01*
X121088868Y-89113229D01*
X121100499Y-89054752D01*
X121100500Y-89054750D01*
X121100500Y-87415249D01*
X121100499Y-87415247D01*
X121088868Y-87356770D01*
X121088867Y-87356769D01*
X121044552Y-87290447D01*
X120978230Y-87246132D01*
X120978229Y-87246131D01*
X120919752Y-87234500D01*
X120919748Y-87234500D01*
X118980252Y-87234500D01*
X118980247Y-87234500D01*
X118921770Y-87246131D01*
X118921769Y-87246132D01*
X118855447Y-87290447D01*
X118811132Y-87356769D01*
X118811131Y-87356770D01*
X118799500Y-87415247D01*
X118799500Y-87625500D01*
X118779815Y-87692539D01*
X118727011Y-87738294D01*
X118675500Y-87749500D01*
X117187628Y-87749500D01*
X117120589Y-87729815D01*
X117087858Y-87699134D01*
X117083468Y-87693186D01*
X117072150Y-87677850D01*
X116962882Y-87597207D01*
X116962880Y-87597206D01*
X116834700Y-87552353D01*
X116804270Y-87549500D01*
X116804266Y-87549500D01*
X116365892Y-87549500D01*
X114655099Y-87549500D01*
X114588060Y-87529815D01*
X114542305Y-87477011D01*
X114538065Y-87466474D01*
X114527793Y-87437118D01*
X114447150Y-87327850D01*
X114337882Y-87247207D01*
X114337880Y-87247206D01*
X114209700Y-87202353D01*
X114179270Y-87199500D01*
X114179266Y-87199500D01*
X112820734Y-87199500D01*
X112820730Y-87199500D01*
X112790300Y-87202353D01*
X112790298Y-87202353D01*
X112662119Y-87247206D01*
X112662117Y-87247207D01*
X112552850Y-87327850D01*
X112488345Y-87415252D01*
X112472207Y-87437118D01*
X112461940Y-87466456D01*
X112421221Y-87523230D01*
X112356269Y-87548978D01*
X112344901Y-87549500D01*
X110808676Y-87549500D01*
X110741637Y-87529815D01*
X110720995Y-87513181D01*
X110536819Y-87329005D01*
X110503334Y-87267682D01*
X110500500Y-87241324D01*
X110500500Y-86839192D01*
X110520185Y-86772153D01*
X110555609Y-86736090D01*
X110563391Y-86730891D01*
X110616546Y-86651339D01*
X110630500Y-86581188D01*
X110630500Y-86293812D01*
X110630500Y-86293809D01*
X110630499Y-86293807D01*
X110616547Y-86223665D01*
X110616546Y-86223662D01*
X110616546Y-86223661D01*
X110587966Y-86180889D01*
X110567090Y-86114213D01*
X110585575Y-86046833D01*
X110637554Y-86000143D01*
X110691070Y-85988000D01*
X112858642Y-85988000D01*
X112858644Y-85988000D01*
X112947788Y-85964114D01*
X112984035Y-85943186D01*
X112984037Y-85943186D01*
X113027705Y-85917974D01*
X113027704Y-85917974D01*
X113027712Y-85917970D01*
X113108863Y-85836819D01*
X113170186Y-85803334D01*
X113196544Y-85800500D01*
X114179270Y-85800500D01*
X114209699Y-85797646D01*
X114209701Y-85797646D01*
X114273790Y-85775219D01*
X114337882Y-85752793D01*
X114447150Y-85672150D01*
X114527793Y-85562882D01*
X114568785Y-85445734D01*
X114572646Y-85434701D01*
X114572646Y-85434699D01*
X114575500Y-85404269D01*
X114575500Y-84495730D01*
X114572646Y-84465300D01*
X114572646Y-84465298D01*
X114527793Y-84337119D01*
X114527792Y-84337117D01*
X114447150Y-84227850D01*
X114337882Y-84147207D01*
X114337880Y-84147206D01*
X114209700Y-84102353D01*
X114179270Y-84099500D01*
X114179266Y-84099500D01*
X112820734Y-84099500D01*
X112820730Y-84099500D01*
X112790300Y-84102353D01*
X112790298Y-84102353D01*
X112662119Y-84147206D01*
X112662117Y-84147207D01*
X112552850Y-84227850D01*
X112472207Y-84337117D01*
X112472206Y-84337119D01*
X112427353Y-84465298D01*
X112427353Y-84465300D01*
X112424500Y-84495730D01*
X112424500Y-85163000D01*
X112404815Y-85230039D01*
X112352011Y-85275794D01*
X112300500Y-85287000D01*
X110691070Y-85287000D01*
X110624031Y-85267315D01*
X110578276Y-85214511D01*
X110568332Y-85145353D01*
X110587967Y-85094110D01*
X110616546Y-85051339D01*
X110630500Y-84981188D01*
X110630500Y-84693812D01*
X110630500Y-84693809D01*
X110630499Y-84693807D01*
X110616547Y-84623665D01*
X110616546Y-84623664D01*
X110616546Y-84623661D01*
X110563391Y-84544109D01*
X110563386Y-84544105D01*
X110558141Y-84540600D01*
X110513336Y-84486987D01*
X110504630Y-84417662D01*
X110534786Y-84354635D01*
X110558142Y-84334397D01*
X110563391Y-84330891D01*
X110616546Y-84251339D01*
X110630500Y-84181188D01*
X110630500Y-83893812D01*
X110630500Y-83893809D01*
X110630499Y-83893807D01*
X110616547Y-83823665D01*
X110616546Y-83823664D01*
X110616546Y-83823661D01*
X110563391Y-83744109D01*
X110563386Y-83744105D01*
X110555606Y-83738906D01*
X110510802Y-83685292D01*
X110500500Y-83635806D01*
X110500500Y-82445730D01*
X115799500Y-82445730D01*
X115799500Y-83054269D01*
X115802353Y-83084699D01*
X115802353Y-83084701D01*
X115847206Y-83212880D01*
X115847207Y-83212882D01*
X115927850Y-83322150D01*
X115949132Y-83337857D01*
X115991384Y-83393503D01*
X115999500Y-83437628D01*
X115999500Y-85062372D01*
X115979815Y-85129411D01*
X115949134Y-85162142D01*
X115927850Y-85177850D01*
X115847207Y-85287117D01*
X115847206Y-85287119D01*
X115802353Y-85415298D01*
X115802353Y-85415300D01*
X115799500Y-85445730D01*
X115799500Y-86054269D01*
X115802353Y-86084699D01*
X115802353Y-86084701D01*
X115847206Y-86212880D01*
X115847207Y-86212882D01*
X115927850Y-86322150D01*
X116037118Y-86402793D01*
X116079845Y-86417744D01*
X116165299Y-86447646D01*
X116195730Y-86450500D01*
X116195734Y-86450500D01*
X116804270Y-86450500D01*
X116834699Y-86447646D01*
X116834701Y-86447646D01*
X116898790Y-86425219D01*
X116962882Y-86402793D01*
X117072150Y-86322150D01*
X117152793Y-86212882D01*
X117187319Y-86114213D01*
X117197646Y-86084701D01*
X117197646Y-86084699D01*
X117200500Y-86054269D01*
X117200500Y-85445730D01*
X117197646Y-85415300D01*
X117197646Y-85415298D01*
X117152793Y-85287119D01*
X117152792Y-85287117D01*
X117152706Y-85287000D01*
X117072150Y-85177850D01*
X117050865Y-85162141D01*
X117008615Y-85106494D01*
X117000500Y-85062372D01*
X117000500Y-84925247D01*
X118799500Y-84925247D01*
X118799500Y-86564752D01*
X118811131Y-86623229D01*
X118811132Y-86623230D01*
X118855447Y-86689552D01*
X118921769Y-86733867D01*
X118921770Y-86733868D01*
X118980247Y-86745499D01*
X118980250Y-86745500D01*
X118980252Y-86745500D01*
X120919750Y-86745500D01*
X120919751Y-86745499D01*
X120934568Y-86742552D01*
X120978229Y-86733868D01*
X120978229Y-86733867D01*
X120978231Y-86733867D01*
X121044552Y-86689552D01*
X121088867Y-86623231D01*
X121088867Y-86623229D01*
X121088868Y-86623229D01*
X121100499Y-86564752D01*
X121100500Y-86564750D01*
X121100500Y-84925249D01*
X121100499Y-84925247D01*
X121088868Y-84866770D01*
X121088867Y-84866769D01*
X121044552Y-84800447D01*
X120978230Y-84756132D01*
X120978229Y-84756131D01*
X120919752Y-84744500D01*
X120919748Y-84744500D01*
X118980252Y-84744500D01*
X118980247Y-84744500D01*
X118921770Y-84756131D01*
X118921769Y-84756132D01*
X118855447Y-84800447D01*
X118811132Y-84866769D01*
X118811131Y-84866770D01*
X118799500Y-84925247D01*
X117000500Y-84925247D01*
X117000500Y-83437628D01*
X117020185Y-83370589D01*
X117050866Y-83337857D01*
X117072150Y-83322150D01*
X117152793Y-83212882D01*
X117197033Y-83086452D01*
X117197646Y-83084701D01*
X117197646Y-83084699D01*
X117200500Y-83054269D01*
X117200500Y-82445730D01*
X117199517Y-82435247D01*
X118799500Y-82435247D01*
X118799500Y-84074752D01*
X118811131Y-84133229D01*
X118811132Y-84133230D01*
X118855447Y-84199552D01*
X118921769Y-84243867D01*
X118921770Y-84243868D01*
X118980247Y-84255499D01*
X118980250Y-84255500D01*
X118980252Y-84255500D01*
X120919750Y-84255500D01*
X120919751Y-84255499D01*
X120940692Y-84251334D01*
X120978229Y-84243868D01*
X120978229Y-84243867D01*
X120978231Y-84243867D01*
X121044552Y-84199552D01*
X121088867Y-84133231D01*
X121088867Y-84133229D01*
X121088868Y-84133229D01*
X121100499Y-84074752D01*
X121100500Y-84074750D01*
X121100500Y-82435249D01*
X121100499Y-82435247D01*
X121088868Y-82376770D01*
X121088867Y-82376769D01*
X121044552Y-82310447D01*
X120978230Y-82266132D01*
X120978229Y-82266131D01*
X120919752Y-82254500D01*
X120919748Y-82254500D01*
X118980252Y-82254500D01*
X118980247Y-82254500D01*
X118921770Y-82266131D01*
X118921769Y-82266132D01*
X118855447Y-82310447D01*
X118811132Y-82376769D01*
X118811131Y-82376770D01*
X118799500Y-82435247D01*
X117199517Y-82435247D01*
X117197646Y-82415300D01*
X117197646Y-82415298D01*
X117160956Y-82310447D01*
X117152793Y-82287118D01*
X117072150Y-82177850D01*
X116962882Y-82097207D01*
X116962880Y-82097206D01*
X116834700Y-82052353D01*
X116804270Y-82049500D01*
X116804266Y-82049500D01*
X116195734Y-82049500D01*
X116195730Y-82049500D01*
X116165300Y-82052353D01*
X116165298Y-82052353D01*
X116037119Y-82097206D01*
X116037117Y-82097207D01*
X115927850Y-82177850D01*
X115847207Y-82287117D01*
X115847206Y-82287119D01*
X115802353Y-82415298D01*
X115802353Y-82415300D01*
X115799500Y-82445730D01*
X110500500Y-82445730D01*
X110500500Y-81587000D01*
X110520185Y-81519961D01*
X110572989Y-81474206D01*
X110624500Y-81463000D01*
X111654270Y-81463000D01*
X111684699Y-81460146D01*
X111684701Y-81460146D01*
X111771380Y-81429815D01*
X111812882Y-81415293D01*
X111922150Y-81334650D01*
X112002793Y-81225382D01*
X112017433Y-81183544D01*
X112058155Y-81126769D01*
X112123108Y-81101022D01*
X112134474Y-81100500D01*
X113465890Y-81100500D01*
X113465892Y-81100500D01*
X113593186Y-81066392D01*
X113707314Y-81000500D01*
X113920995Y-80786819D01*
X113982318Y-80753334D01*
X114008676Y-80750500D01*
X115812372Y-80750500D01*
X115879411Y-80770185D01*
X115912141Y-80800865D01*
X115927850Y-80822150D01*
X116037118Y-80902793D01*
X116079845Y-80917744D01*
X116165299Y-80947646D01*
X116195730Y-80950500D01*
X116195734Y-80950500D01*
X116804270Y-80950500D01*
X116834699Y-80947646D01*
X116834701Y-80947646D01*
X116898790Y-80925219D01*
X116962882Y-80902793D01*
X117072150Y-80822150D01*
X117087858Y-80800865D01*
X117143506Y-80758615D01*
X117187628Y-80750500D01*
X118675500Y-80750500D01*
X118742539Y-80770185D01*
X118788294Y-80822989D01*
X118799500Y-80874500D01*
X118799500Y-81584752D01*
X118811131Y-81643229D01*
X118811132Y-81643230D01*
X118855447Y-81709552D01*
X118921769Y-81753867D01*
X118921770Y-81753868D01*
X118980247Y-81765499D01*
X118980250Y-81765500D01*
X118980252Y-81765500D01*
X120919750Y-81765500D01*
X120919751Y-81765499D01*
X120934568Y-81762552D01*
X120978229Y-81753868D01*
X120978229Y-81753867D01*
X120978231Y-81753867D01*
X121044552Y-81709552D01*
X121088867Y-81643231D01*
X121088867Y-81643229D01*
X121088868Y-81643229D01*
X121100499Y-81584752D01*
X121100500Y-81584750D01*
X121100500Y-79945249D01*
X121100499Y-79945247D01*
X121088868Y-79886770D01*
X121088867Y-79886769D01*
X121044552Y-79820447D01*
X120978230Y-79776132D01*
X120978229Y-79776131D01*
X120919752Y-79764500D01*
X120919748Y-79764500D01*
X119573198Y-79764500D01*
X119541105Y-79760275D01*
X119500892Y-79749500D01*
X119500891Y-79749500D01*
X117187628Y-79749500D01*
X117120589Y-79729815D01*
X117087858Y-79699134D01*
X117072150Y-79677850D01*
X116962882Y-79597207D01*
X116962880Y-79597206D01*
X116834700Y-79552353D01*
X116804270Y-79549500D01*
X116804266Y-79549500D01*
X116195734Y-79549500D01*
X116195730Y-79549500D01*
X116165300Y-79552353D01*
X116165298Y-79552353D01*
X116037119Y-79597206D01*
X116037117Y-79597207D01*
X115927850Y-79677850D01*
X115912142Y-79699134D01*
X115856494Y-79741385D01*
X115812372Y-79749500D01*
X113684108Y-79749500D01*
X113556812Y-79783608D01*
X113442686Y-79849500D01*
X113442683Y-79849502D01*
X113229005Y-80063181D01*
X113167682Y-80096666D01*
X113141324Y-80099500D01*
X112134474Y-80099500D01*
X112067435Y-80079815D01*
X112021680Y-80027011D01*
X112017433Y-80016456D01*
X112014188Y-80007183D01*
X112002793Y-79974618D01*
X111922150Y-79865350D01*
X111812882Y-79784707D01*
X111812880Y-79784706D01*
X111684700Y-79739853D01*
X111654270Y-79737000D01*
X111654266Y-79737000D01*
X109345734Y-79737000D01*
X109345730Y-79737000D01*
X109315300Y-79739853D01*
X109315298Y-79739853D01*
X109187119Y-79784706D01*
X109187117Y-79784707D01*
X109077850Y-79865350D01*
X108997207Y-79974618D01*
X108982567Y-80016456D01*
X108941845Y-80073231D01*
X108876892Y-80098978D01*
X108865526Y-80099500D01*
X108858676Y-80099500D01*
X108791637Y-80079815D01*
X108770995Y-80063181D01*
X107307316Y-78599502D01*
X107307314Y-78599500D01*
X107250250Y-78566554D01*
X107193187Y-78533608D01*
X107129539Y-78516554D01*
X107065892Y-78499500D01*
X102065892Y-78499500D01*
X101934107Y-78499500D01*
X101806812Y-78533608D01*
X101692686Y-78599500D01*
X101692683Y-78599502D01*
X98329005Y-81963181D01*
X98267682Y-81996666D01*
X98241324Y-81999500D01*
X94262949Y-81999500D01*
X94195910Y-81979815D01*
X94153592Y-81933955D01*
X94142684Y-81913548D01*
X94011410Y-81753589D01*
X93861121Y-81630252D01*
X93851450Y-81622315D01*
X93668954Y-81524768D01*
X93470934Y-81464700D01*
X93470932Y-81464699D01*
X93470934Y-81464699D01*
X93265000Y-81444417D01*
X93059067Y-81464699D01*
X92861043Y-81524769D01*
X92773114Y-81571769D01*
X92678550Y-81622315D01*
X92678548Y-81622316D01*
X92678547Y-81622317D01*
X92518589Y-81753589D01*
X92387317Y-81913547D01*
X92387316Y-81913548D01*
X92387315Y-81913550D01*
X92351895Y-81979815D01*
X92289769Y-82096043D01*
X92229699Y-82294067D01*
X92209417Y-82500000D01*
X91775500Y-82500000D01*
X91775500Y-81630252D01*
X91775500Y-81630249D01*
X91775499Y-81630247D01*
X91763868Y-81571770D01*
X91763867Y-81571769D01*
X91719552Y-81505447D01*
X91653230Y-81461132D01*
X91653229Y-81461131D01*
X91594752Y-81449500D01*
X91594748Y-81449500D01*
X91349500Y-81449500D01*
X91282461Y-81429815D01*
X91236706Y-81377011D01*
X91225500Y-81325500D01*
X91225500Y-77937486D01*
X108650001Y-77937486D01*
X108660494Y-78040197D01*
X108715641Y-78206619D01*
X108715643Y-78206624D01*
X108807684Y-78355845D01*
X108931654Y-78479815D01*
X109080875Y-78571856D01*
X109080880Y-78571858D01*
X109247302Y-78627005D01*
X109247309Y-78627006D01*
X109350019Y-78637499D01*
X110249999Y-78637499D01*
X110750000Y-78637499D01*
X111649972Y-78637499D01*
X111649986Y-78637498D01*
X111752697Y-78627005D01*
X111919119Y-78571858D01*
X111919124Y-78571856D01*
X112068345Y-78479815D01*
X112192315Y-78355845D01*
X112284356Y-78206624D01*
X112284358Y-78206619D01*
X112339505Y-78040197D01*
X112339506Y-78040190D01*
X112349999Y-77937486D01*
X112350000Y-77937473D01*
X112350000Y-77725000D01*
X110750000Y-77725000D01*
X110750000Y-78637499D01*
X110249999Y-78637499D01*
X110250000Y-78637498D01*
X110250000Y-77725000D01*
X108650001Y-77725000D01*
X108650001Y-77937486D01*
X91225500Y-77937486D01*
X91225500Y-77012513D01*
X108650000Y-77012513D01*
X108650000Y-77225000D01*
X110250000Y-77225000D01*
X110750000Y-77225000D01*
X112349999Y-77225000D01*
X112349999Y-77012528D01*
X112349998Y-77012513D01*
X112339505Y-76909802D01*
X112284358Y-76743380D01*
X112284356Y-76743375D01*
X112192315Y-76594154D01*
X112068345Y-76470184D01*
X111919124Y-76378143D01*
X111919119Y-76378141D01*
X111752697Y-76322994D01*
X111752690Y-76322993D01*
X111649986Y-76312500D01*
X110750000Y-76312500D01*
X110750000Y-77225000D01*
X110250000Y-77225000D01*
X110250000Y-76312500D01*
X109350028Y-76312500D01*
X109350012Y-76312501D01*
X109247302Y-76322994D01*
X109080880Y-76378141D01*
X109080875Y-76378143D01*
X108931654Y-76470184D01*
X108807684Y-76594154D01*
X108715643Y-76743375D01*
X108715641Y-76743380D01*
X108660494Y-76909802D01*
X108660493Y-76909809D01*
X108650000Y-77012513D01*
X91225500Y-77012513D01*
X91225500Y-74674500D01*
X91245185Y-74607461D01*
X91297989Y-74561706D01*
X91349500Y-74550500D01*
X91829750Y-74550500D01*
X91829751Y-74550499D01*
X91844568Y-74547552D01*
X91888229Y-74538868D01*
X91888229Y-74538867D01*
X91888231Y-74538867D01*
X91954552Y-74494552D01*
X91998867Y-74428231D01*
X91998867Y-74428229D01*
X91998868Y-74428229D01*
X92010499Y-74369752D01*
X92010500Y-74369750D01*
X92010500Y-73500000D01*
X92444417Y-73500000D01*
X92464699Y-73705932D01*
X92464700Y-73705934D01*
X92524768Y-73903954D01*
X92622315Y-74086450D01*
X92622316Y-74086451D01*
X92622317Y-74086452D01*
X92753589Y-74246410D01*
X92850209Y-74325702D01*
X92913550Y-74377685D01*
X93096046Y-74475232D01*
X93294066Y-74535300D01*
X93294065Y-74535300D01*
X93312529Y-74537118D01*
X93500000Y-74555583D01*
X93705934Y-74535300D01*
X93903954Y-74475232D01*
X94086450Y-74377685D01*
X94246410Y-74246410D01*
X94377685Y-74086450D01*
X94388592Y-74066045D01*
X94437555Y-74016202D01*
X94497949Y-74000500D01*
X97065890Y-74000500D01*
X97065892Y-74000500D01*
X97193186Y-73966392D01*
X97307314Y-73900500D01*
X98400500Y-72807314D01*
X98466392Y-72693186D01*
X98500500Y-72565892D01*
X98500500Y-72434107D01*
X98500500Y-71711654D01*
X103025001Y-71711654D01*
X103035319Y-71812652D01*
X103089546Y-71976300D01*
X103089551Y-71976311D01*
X103180052Y-72123034D01*
X103180055Y-72123038D01*
X103301961Y-72244944D01*
X103301965Y-72244947D01*
X103448688Y-72335448D01*
X103448699Y-72335453D01*
X103612347Y-72389680D01*
X103713352Y-72399999D01*
X103750000Y-72399999D01*
X104250000Y-72399999D01*
X104286640Y-72399999D01*
X104286654Y-72399998D01*
X104387652Y-72389680D01*
X104551300Y-72335453D01*
X104551311Y-72335448D01*
X104698034Y-72244947D01*
X104698038Y-72244944D01*
X104819944Y-72123038D01*
X104819947Y-72123034D01*
X104910448Y-71976311D01*
X104910453Y-71976300D01*
X104964680Y-71812652D01*
X104974999Y-71711654D01*
X104975000Y-71711641D01*
X104975000Y-71662500D01*
X104250000Y-71662500D01*
X104250000Y-72399999D01*
X103750000Y-72399999D01*
X103750000Y-71662500D01*
X103025001Y-71662500D01*
X103025001Y-71711654D01*
X98500500Y-71711654D01*
X98500500Y-71113345D01*
X103025000Y-71113345D01*
X103025000Y-71162500D01*
X104974999Y-71162500D01*
X104974999Y-71113360D01*
X104974998Y-71113345D01*
X104964680Y-71012347D01*
X104910453Y-70848699D01*
X104910448Y-70848688D01*
X104819947Y-70701965D01*
X104819944Y-70701961D01*
X104698038Y-70580055D01*
X104698034Y-70580052D01*
X104551311Y-70489551D01*
X104551300Y-70489546D01*
X104458793Y-70458893D01*
X104401348Y-70419121D01*
X104377712Y-70362270D01*
X105570001Y-70362270D01*
X105580420Y-70449054D01*
X105580422Y-70449058D01*
X105634876Y-70587144D01*
X105634879Y-70587150D01*
X105724571Y-70705428D01*
X105842849Y-70795120D01*
X105842855Y-70795123D01*
X105980943Y-70849578D01*
X106067729Y-70859999D01*
X106339999Y-70859999D01*
X106340000Y-70859998D01*
X106340000Y-70360000D01*
X105570001Y-70360000D01*
X105570001Y-70362270D01*
X104377712Y-70362270D01*
X104374525Y-70354605D01*
X104386840Y-70285829D01*
X104434383Y-70234629D01*
X104439859Y-70231555D01*
X104444470Y-70229117D01*
X104444475Y-70229116D01*
X104550711Y-70150711D01*
X104629116Y-70044475D01*
X104637315Y-70021043D01*
X104678037Y-69964269D01*
X104742990Y-69938522D01*
X104754356Y-69938000D01*
X104958642Y-69938000D01*
X104958644Y-69938000D01*
X105047788Y-69914114D01*
X105060787Y-69906609D01*
X105127712Y-69867970D01*
X105208863Y-69786819D01*
X105270186Y-69753334D01*
X105296544Y-69750500D01*
X105477274Y-69750500D01*
X105544313Y-69770185D01*
X105590068Y-69822989D01*
X105600012Y-69892147D01*
X105592628Y-69919991D01*
X105580421Y-69950944D01*
X105570000Y-70037729D01*
X105570000Y-70040000D01*
X106376000Y-70040000D01*
X106443039Y-70059685D01*
X106488794Y-70112489D01*
X106500000Y-70164000D01*
X106500000Y-70200000D01*
X106536000Y-70200000D01*
X106603039Y-70219685D01*
X106648794Y-70272489D01*
X106660000Y-70324000D01*
X106660000Y-70859999D01*
X106932270Y-70859999D01*
X107020222Y-70849438D01*
X107089130Y-70860990D01*
X107109316Y-70873288D01*
X107202906Y-70943350D01*
X107202913Y-70943354D01*
X107337620Y-70993596D01*
X107337627Y-70993598D01*
X107397155Y-70999999D01*
X107397172Y-71000000D01*
X108185000Y-71000000D01*
X108185000Y-67000000D01*
X107397155Y-67000000D01*
X107337627Y-67006401D01*
X107337620Y-67006403D01*
X107202913Y-67056645D01*
X107202906Y-67056649D01*
X107087812Y-67142809D01*
X107087809Y-67142812D01*
X107001649Y-67257906D01*
X107001645Y-67257913D01*
X106964005Y-67358833D01*
X106922134Y-67414767D01*
X106856669Y-67439184D01*
X106847823Y-67439500D01*
X106686544Y-67439500D01*
X106619505Y-67419815D01*
X106598863Y-67403181D01*
X106249319Y-67053637D01*
X106215834Y-66992314D01*
X106213000Y-66965956D01*
X106213000Y-66271852D01*
X106232685Y-66204813D01*
X106285489Y-66159058D01*
X106296045Y-66154811D01*
X106318866Y-66146824D01*
X106369475Y-66129116D01*
X106475711Y-66050711D01*
X106554116Y-65944475D01*
X106597725Y-65819849D01*
X106598607Y-65810447D01*
X106600500Y-65790260D01*
X106600500Y-65209739D01*
X106597725Y-65180150D01*
X106556914Y-65063522D01*
X106554116Y-65055525D01*
X106550718Y-65050921D01*
X106475711Y-64949289D01*
X106475710Y-64949288D01*
X106369476Y-64870884D01*
X106244848Y-64827274D01*
X106244849Y-64827274D01*
X106215260Y-64824500D01*
X106215256Y-64824500D01*
X105509744Y-64824500D01*
X105509740Y-64824500D01*
X105480150Y-64827274D01*
X105355525Y-64870883D01*
X105262560Y-64939494D01*
X105196930Y-64963464D01*
X105128760Y-64948148D01*
X105083388Y-64904820D01*
X105019943Y-64801960D01*
X104898038Y-64680055D01*
X104898034Y-64680052D01*
X104751311Y-64589551D01*
X104751300Y-64589546D01*
X104587652Y-64535319D01*
X104486654Y-64525000D01*
X104387500Y-64525000D01*
X104387500Y-66474999D01*
X104486640Y-66474999D01*
X104486654Y-66474998D01*
X104587652Y-66464680D01*
X104751300Y-66410453D01*
X104751311Y-66410448D01*
X104898034Y-66319947D01*
X104898038Y-66319944D01*
X105019945Y-66198037D01*
X105083388Y-66095180D01*
X105135336Y-66048455D01*
X105204298Y-66037232D01*
X105262558Y-66060504D01*
X105355525Y-66129116D01*
X105387608Y-66140342D01*
X105428955Y-66154811D01*
X105485731Y-66195533D01*
X105511478Y-66260486D01*
X105512000Y-66271852D01*
X105512000Y-67208644D01*
X105513136Y-67212881D01*
X105535886Y-67297787D01*
X105535887Y-67297790D01*
X105582027Y-67377708D01*
X105582031Y-67377713D01*
X105833181Y-67628863D01*
X105866666Y-67690186D01*
X105869500Y-67716544D01*
X105869500Y-67943692D01*
X105883452Y-68013834D01*
X105883453Y-68013837D01*
X105883454Y-68013839D01*
X105936609Y-68093391D01*
X105941852Y-68096894D01*
X105941858Y-68096898D01*
X105986663Y-68150510D01*
X105995370Y-68219835D01*
X105965215Y-68282863D01*
X105941858Y-68303102D01*
X105936609Y-68306609D01*
X105883454Y-68386161D01*
X105883452Y-68386165D01*
X105869500Y-68456307D01*
X105869500Y-68743692D01*
X105883452Y-68813834D01*
X105883453Y-68813837D01*
X105912033Y-68856610D01*
X105932910Y-68923287D01*
X105914425Y-68990667D01*
X105862446Y-69037357D01*
X105808930Y-69049500D01*
X105053856Y-69049500D01*
X104964712Y-69073386D01*
X104964709Y-69073387D01*
X104884791Y-69119527D01*
X104884786Y-69119531D01*
X104832081Y-69172236D01*
X104770758Y-69205720D01*
X104701066Y-69200735D01*
X104645133Y-69158864D01*
X104634202Y-69138346D01*
X104633458Y-69138740D01*
X104629115Y-69130523D01*
X104550711Y-69024289D01*
X104550710Y-69024288D01*
X104444476Y-68945884D01*
X104319848Y-68902274D01*
X104319849Y-68902274D01*
X104290260Y-68899500D01*
X104290256Y-68899500D01*
X103709744Y-68899500D01*
X103709740Y-68899500D01*
X103680150Y-68902274D01*
X103555523Y-68945884D01*
X103449289Y-69024288D01*
X103449288Y-69024289D01*
X103370884Y-69130523D01*
X103327274Y-69255150D01*
X103324500Y-69284739D01*
X103324500Y-69890260D01*
X103327274Y-69919849D01*
X103370884Y-70044476D01*
X103429007Y-70123230D01*
X103449289Y-70150711D01*
X103555525Y-70229116D01*
X103555529Y-70229117D01*
X103560144Y-70231557D01*
X103610216Y-70280286D01*
X103625995Y-70348350D01*
X103602470Y-70414141D01*
X103547111Y-70456769D01*
X103541206Y-70458893D01*
X103448699Y-70489546D01*
X103448688Y-70489551D01*
X103301965Y-70580052D01*
X103301961Y-70580055D01*
X103180055Y-70701961D01*
X103180052Y-70701965D01*
X103089551Y-70848688D01*
X103089546Y-70848699D01*
X103035319Y-71012347D01*
X103025000Y-71113345D01*
X98500500Y-71113345D01*
X98500500Y-67258675D01*
X98520185Y-67191636D01*
X98536819Y-67170994D01*
X99921159Y-65786654D01*
X103100001Y-65786654D01*
X103110319Y-65887652D01*
X103164546Y-66051300D01*
X103164551Y-66051311D01*
X103255052Y-66198034D01*
X103255055Y-66198038D01*
X103376961Y-66319944D01*
X103376965Y-66319947D01*
X103523688Y-66410448D01*
X103523699Y-66410453D01*
X103687347Y-66464680D01*
X103788351Y-66474999D01*
X103887500Y-66474998D01*
X103887500Y-65750000D01*
X103100001Y-65750000D01*
X103100001Y-65786654D01*
X99921159Y-65786654D01*
X100494468Y-65213345D01*
X103100000Y-65213345D01*
X103100000Y-65250000D01*
X103887500Y-65250000D01*
X103887500Y-64524999D01*
X103788360Y-64525000D01*
X103788344Y-64525001D01*
X103687347Y-64535319D01*
X103523699Y-64589546D01*
X103523688Y-64589551D01*
X103376965Y-64680052D01*
X103376961Y-64680055D01*
X103255055Y-64801961D01*
X103255052Y-64801965D01*
X103164551Y-64948688D01*
X103164546Y-64948699D01*
X103110319Y-65112347D01*
X103100000Y-65213345D01*
X100494468Y-65213345D01*
X102170994Y-63536819D01*
X102232317Y-63503334D01*
X102258675Y-63500500D01*
X107241324Y-63500500D01*
X107308363Y-63520185D01*
X107329005Y-63536819D01*
X108662000Y-64869814D01*
X108755186Y-64963000D01*
X108869314Y-65028892D01*
X108869315Y-65028892D01*
X108869316Y-65028893D01*
X108885745Y-65033295D01*
X108945406Y-65069659D01*
X108970694Y-65112114D01*
X108981583Y-65143231D01*
X108997207Y-65187882D01*
X109077850Y-65297150D01*
X109187118Y-65377793D01*
X109229845Y-65392744D01*
X109315299Y-65422646D01*
X109345730Y-65425500D01*
X109345734Y-65425500D01*
X109745500Y-65425500D01*
X109812539Y-65445185D01*
X109858294Y-65497989D01*
X109869500Y-65549500D01*
X109869500Y-66960449D01*
X109849815Y-67027488D01*
X109797011Y-67073243D01*
X109727853Y-67083187D01*
X109671191Y-67059717D01*
X109667092Y-67056648D01*
X109667086Y-67056645D01*
X109532379Y-67006403D01*
X109532372Y-67006401D01*
X109472844Y-67000000D01*
X108685000Y-67000000D01*
X108685000Y-71000000D01*
X109472828Y-71000000D01*
X109472844Y-70999999D01*
X109532372Y-70993598D01*
X109532379Y-70993596D01*
X109667086Y-70943354D01*
X109667093Y-70943350D01*
X109782187Y-70857190D01*
X109782190Y-70857187D01*
X109868350Y-70742093D01*
X109868355Y-70742084D01*
X109892180Y-70678206D01*
X109934050Y-70622272D01*
X109999514Y-70597854D01*
X110067788Y-70612705D01*
X110096043Y-70633857D01*
X111269500Y-71807314D01*
X111362686Y-71900500D01*
X111476814Y-71966392D01*
X111604108Y-72000500D01*
X112349634Y-72000500D01*
X112416673Y-72020185D01*
X112442480Y-72044377D01*
X112442718Y-72044140D01*
X112449289Y-72050711D01*
X112555523Y-72129115D01*
X112555524Y-72129115D01*
X112555525Y-72129116D01*
X112680151Y-72172725D01*
X112680150Y-72172725D01*
X112709740Y-72175500D01*
X112709744Y-72175500D01*
X113290260Y-72175500D01*
X113319849Y-72172725D01*
X113444475Y-72129116D01*
X113550711Y-72050711D01*
X113559823Y-72038365D01*
X113615471Y-71996115D01*
X113659592Y-71988000D01*
X114681393Y-71988000D01*
X114748432Y-72007685D01*
X114794187Y-72060489D01*
X114800330Y-72078917D01*
X114846546Y-72210994D01*
X114847207Y-72212882D01*
X114927850Y-72322150D01*
X115037118Y-72402793D01*
X115079845Y-72417744D01*
X115165299Y-72447646D01*
X115195730Y-72450500D01*
X115195734Y-72450500D01*
X115804270Y-72450500D01*
X115834699Y-72447646D01*
X115834701Y-72447646D01*
X115898790Y-72425219D01*
X115962882Y-72402793D01*
X116072150Y-72322150D01*
X116087858Y-72300865D01*
X116143506Y-72258615D01*
X116187628Y-72250500D01*
X118675500Y-72250500D01*
X118742539Y-72270185D01*
X118788294Y-72322989D01*
X118799500Y-72374500D01*
X118799500Y-72554752D01*
X118811131Y-72613229D01*
X118811132Y-72613230D01*
X118855447Y-72679552D01*
X118921769Y-72723867D01*
X118921770Y-72723868D01*
X118980247Y-72735499D01*
X118980250Y-72735500D01*
X118980252Y-72735500D01*
X120919750Y-72735500D01*
X120919751Y-72735499D01*
X120934568Y-72732552D01*
X120978229Y-72723868D01*
X120978229Y-72723867D01*
X120978231Y-72723867D01*
X121044552Y-72679552D01*
X121088867Y-72613231D01*
X121088867Y-72613229D01*
X121088868Y-72613229D01*
X121098283Y-72565892D01*
X121100500Y-72554748D01*
X121100500Y-70915252D01*
X121100500Y-70915249D01*
X121100499Y-70915247D01*
X121088868Y-70856770D01*
X121088867Y-70856769D01*
X121044552Y-70790447D01*
X120978230Y-70746132D01*
X120978229Y-70746131D01*
X120919752Y-70734500D01*
X120919748Y-70734500D01*
X118980252Y-70734500D01*
X118980247Y-70734500D01*
X118921770Y-70746131D01*
X118921769Y-70746132D01*
X118855447Y-70790447D01*
X118811132Y-70856769D01*
X118811131Y-70856770D01*
X118799500Y-70915247D01*
X118799500Y-71125500D01*
X118779815Y-71192539D01*
X118727011Y-71238294D01*
X118675500Y-71249500D01*
X116187628Y-71249500D01*
X116120589Y-71229815D01*
X116087858Y-71199134D01*
X116072150Y-71177850D01*
X115962882Y-71097207D01*
X115962880Y-71097206D01*
X115834700Y-71052353D01*
X115804270Y-71049500D01*
X115804266Y-71049500D01*
X115513088Y-71049500D01*
X115451087Y-71032886D01*
X115430691Y-71021110D01*
X115430688Y-71021109D01*
X115430687Y-71021108D01*
X115430686Y-71021108D01*
X115303392Y-70987000D01*
X115303391Y-70987000D01*
X113659592Y-70987000D01*
X113592553Y-70967315D01*
X113559823Y-70936635D01*
X113550710Y-70924288D01*
X113444476Y-70845884D01*
X113319848Y-70802274D01*
X113319849Y-70802274D01*
X113290260Y-70799500D01*
X113290256Y-70799500D01*
X112709744Y-70799500D01*
X112709740Y-70799500D01*
X112680150Y-70802274D01*
X112555523Y-70845884D01*
X112449290Y-70924287D01*
X112449289Y-70924289D01*
X112435219Y-70943354D01*
X112430953Y-70949134D01*
X112375306Y-70991384D01*
X112331183Y-70999500D01*
X111928676Y-70999500D01*
X111861637Y-70979815D01*
X111840995Y-70963181D01*
X111036819Y-70159005D01*
X111003334Y-70097682D01*
X111000500Y-70071324D01*
X111000500Y-70056309D01*
X111000499Y-70056307D01*
X110986547Y-69986165D01*
X110986546Y-69986162D01*
X110986546Y-69986161D01*
X110957966Y-69943389D01*
X110937090Y-69876713D01*
X110955575Y-69809333D01*
X111007554Y-69762643D01*
X111061070Y-69750500D01*
X112200500Y-69750500D01*
X112267539Y-69770185D01*
X112313294Y-69822989D01*
X112324500Y-69874500D01*
X112324500Y-69965260D01*
X112327274Y-69994849D01*
X112370884Y-70119476D01*
X112449288Y-70225710D01*
X112449289Y-70225711D01*
X112555523Y-70304115D01*
X112555524Y-70304115D01*
X112555525Y-70304116D01*
X112680151Y-70347725D01*
X112680150Y-70347725D01*
X112709740Y-70350500D01*
X112709744Y-70350500D01*
X113290260Y-70350500D01*
X113319849Y-70347725D01*
X113331386Y-70343688D01*
X113444475Y-70304116D01*
X113550711Y-70225711D01*
X113629116Y-70119475D01*
X113672725Y-69994849D01*
X113675500Y-69965256D01*
X113675500Y-69359744D01*
X113672725Y-69330151D01*
X113656834Y-69284739D01*
X113629115Y-69205523D01*
X113550711Y-69099289D01*
X113550710Y-69099288D01*
X113444476Y-69020884D01*
X113319848Y-68977274D01*
X113319849Y-68977274D01*
X113290260Y-68974500D01*
X113290256Y-68974500D01*
X112709744Y-68974500D01*
X112709740Y-68974500D01*
X112680150Y-68977274D01*
X112555526Y-69020883D01*
X112555523Y-69020885D01*
X112549581Y-69025271D01*
X112483952Y-69049241D01*
X112475948Y-69049500D01*
X111061070Y-69049500D01*
X110994031Y-69029815D01*
X110948276Y-68977011D01*
X110938332Y-68907853D01*
X110957967Y-68856610D01*
X110986546Y-68813839D01*
X111000500Y-68743688D01*
X111000500Y-68456312D01*
X111000500Y-68456309D01*
X111000499Y-68456307D01*
X110986547Y-68386165D01*
X110986546Y-68386164D01*
X110986546Y-68386161D01*
X110933391Y-68306609D01*
X110933386Y-68306605D01*
X110928141Y-68303100D01*
X110883336Y-68249487D01*
X110874630Y-68180162D01*
X110904786Y-68117135D01*
X110928142Y-68096897D01*
X110933391Y-68093391D01*
X110986546Y-68013839D01*
X111000500Y-67943688D01*
X111000500Y-67656312D01*
X111000500Y-67656309D01*
X111000499Y-67656307D01*
X110986547Y-67586165D01*
X110986546Y-67586164D01*
X110986546Y-67586161D01*
X110933391Y-67506609D01*
X110933386Y-67506605D01*
X110925606Y-67501406D01*
X110880802Y-67447792D01*
X110870500Y-67398306D01*
X110870500Y-66445730D01*
X114799500Y-66445730D01*
X114799500Y-67054269D01*
X114802353Y-67084699D01*
X114802353Y-67084701D01*
X114845724Y-67208644D01*
X114847207Y-67212882D01*
X114927850Y-67322150D01*
X114949132Y-67337857D01*
X114991384Y-67393503D01*
X114999500Y-67437628D01*
X114999500Y-68562372D01*
X114979815Y-68629411D01*
X114949134Y-68662142D01*
X114927850Y-68677850D01*
X114847207Y-68787117D01*
X114847206Y-68787119D01*
X114802353Y-68915298D01*
X114802353Y-68915300D01*
X114799500Y-68945730D01*
X114799500Y-69554269D01*
X114802353Y-69584699D01*
X114802353Y-69584701D01*
X114847206Y-69712880D01*
X114847207Y-69712882D01*
X114927850Y-69822150D01*
X115037118Y-69902793D01*
X115069469Y-69914113D01*
X115165299Y-69947646D01*
X115195730Y-69950500D01*
X115195734Y-69950500D01*
X115804270Y-69950500D01*
X115834699Y-69947646D01*
X115834701Y-69947646D01*
X115898790Y-69925219D01*
X115962882Y-69902793D01*
X116072150Y-69822150D01*
X116152793Y-69712882D01*
X116187450Y-69613839D01*
X116197646Y-69584701D01*
X116197646Y-69584699D01*
X116200500Y-69554269D01*
X116200500Y-68945730D01*
X116197646Y-68915300D01*
X116197646Y-68915298D01*
X116152793Y-68787119D01*
X116152792Y-68787117D01*
X116120743Y-68743692D01*
X116072150Y-68677850D01*
X116050865Y-68662141D01*
X116008615Y-68606494D01*
X116000500Y-68562372D01*
X116000500Y-68425247D01*
X118799500Y-68425247D01*
X118799500Y-70064752D01*
X118811131Y-70123229D01*
X118811132Y-70123230D01*
X118855447Y-70189552D01*
X118921769Y-70233867D01*
X118921770Y-70233868D01*
X118980247Y-70245499D01*
X118980250Y-70245500D01*
X118980252Y-70245500D01*
X120919750Y-70245500D01*
X120919751Y-70245499D01*
X120934568Y-70242552D01*
X120978229Y-70233868D01*
X120978229Y-70233867D01*
X120978231Y-70233867D01*
X121044552Y-70189552D01*
X121088867Y-70123231D01*
X121088867Y-70123229D01*
X121088868Y-70123229D01*
X121100499Y-70064752D01*
X121100500Y-70064750D01*
X121100500Y-68425249D01*
X121100499Y-68425247D01*
X121088868Y-68366770D01*
X121088867Y-68366769D01*
X121044552Y-68300447D01*
X120978230Y-68256132D01*
X120978229Y-68256131D01*
X120919752Y-68244500D01*
X120919748Y-68244500D01*
X118980252Y-68244500D01*
X118980247Y-68244500D01*
X118921770Y-68256131D01*
X118921769Y-68256132D01*
X118855447Y-68300447D01*
X118811132Y-68366769D01*
X118811131Y-68366770D01*
X118799500Y-68425247D01*
X116000500Y-68425247D01*
X116000500Y-67437628D01*
X116020185Y-67370589D01*
X116050866Y-67337857D01*
X116072150Y-67322150D01*
X116152793Y-67212882D01*
X116175219Y-67148790D01*
X116197646Y-67084701D01*
X116197646Y-67084699D01*
X116200500Y-67054269D01*
X116200500Y-66445730D01*
X116197646Y-66415300D01*
X116197646Y-66415298D01*
X116152793Y-66287119D01*
X116152792Y-66287117D01*
X116141526Y-66271852D01*
X116072150Y-66177850D01*
X115962882Y-66097207D01*
X115962880Y-66097206D01*
X115834700Y-66052353D01*
X115804270Y-66049500D01*
X115804266Y-66049500D01*
X115195734Y-66049500D01*
X115195730Y-66049500D01*
X115165300Y-66052353D01*
X115165298Y-66052353D01*
X115037119Y-66097206D01*
X115037117Y-66097207D01*
X114927850Y-66177850D01*
X114847207Y-66287117D01*
X114847206Y-66287119D01*
X114802353Y-66415298D01*
X114802353Y-66415300D01*
X114799500Y-66445730D01*
X110870500Y-66445730D01*
X110870500Y-65935247D01*
X118799500Y-65935247D01*
X118799500Y-67574752D01*
X118811131Y-67633229D01*
X118811132Y-67633230D01*
X118855447Y-67699552D01*
X118921769Y-67743867D01*
X118921770Y-67743868D01*
X118980247Y-67755499D01*
X118980250Y-67755500D01*
X118980252Y-67755500D01*
X120919750Y-67755500D01*
X120919751Y-67755499D01*
X120934568Y-67752552D01*
X120978229Y-67743868D01*
X120978229Y-67743867D01*
X120978231Y-67743867D01*
X121044552Y-67699552D01*
X121088867Y-67633231D01*
X121088867Y-67633229D01*
X121088868Y-67633229D01*
X121100499Y-67574752D01*
X121100500Y-67574750D01*
X121100500Y-65935249D01*
X121100499Y-65935247D01*
X121088868Y-65876770D01*
X121088867Y-65876769D01*
X121044552Y-65810447D01*
X120978230Y-65766132D01*
X120978229Y-65766131D01*
X120919752Y-65754500D01*
X120919748Y-65754500D01*
X118980252Y-65754500D01*
X118980247Y-65754500D01*
X118921770Y-65766131D01*
X118921769Y-65766132D01*
X118855447Y-65810447D01*
X118811132Y-65876769D01*
X118811131Y-65876770D01*
X118799500Y-65935247D01*
X110870500Y-65935247D01*
X110870500Y-65549500D01*
X110890185Y-65482461D01*
X110942989Y-65436706D01*
X110994500Y-65425500D01*
X111654270Y-65425500D01*
X111684699Y-65422646D01*
X111684701Y-65422646D01*
X111748790Y-65400219D01*
X111812882Y-65377793D01*
X111922150Y-65297150D01*
X112002793Y-65187882D01*
X112017433Y-65146044D01*
X112058155Y-65089269D01*
X112123108Y-65063522D01*
X112134474Y-65063000D01*
X115253390Y-65063000D01*
X115253392Y-65063000D01*
X115380686Y-65028892D01*
X115487691Y-64967112D01*
X115549690Y-64950500D01*
X115804270Y-64950500D01*
X115834699Y-64947646D01*
X115834701Y-64947646D01*
X115898790Y-64925219D01*
X115962882Y-64902793D01*
X116072150Y-64822150D01*
X116087858Y-64800865D01*
X116143506Y-64758615D01*
X116187628Y-64750500D01*
X118675500Y-64750500D01*
X118742539Y-64770185D01*
X118788294Y-64822989D01*
X118799500Y-64874500D01*
X118799500Y-65084752D01*
X118811131Y-65143229D01*
X118811132Y-65143230D01*
X118855447Y-65209552D01*
X118921769Y-65253867D01*
X118921770Y-65253868D01*
X118980247Y-65265499D01*
X118980250Y-65265500D01*
X118980252Y-65265500D01*
X120919750Y-65265500D01*
X120919751Y-65265499D01*
X120934568Y-65262552D01*
X120978229Y-65253868D01*
X120978229Y-65253867D01*
X120978231Y-65253867D01*
X121044552Y-65209552D01*
X121088867Y-65143231D01*
X121088867Y-65143229D01*
X121088868Y-65143229D01*
X121100499Y-65084752D01*
X121100500Y-65084750D01*
X121100500Y-63445249D01*
X121100499Y-63445247D01*
X121088868Y-63386770D01*
X121088867Y-63386769D01*
X121044552Y-63320447D01*
X120978230Y-63276132D01*
X120978229Y-63276131D01*
X120919752Y-63264500D01*
X120919748Y-63264500D01*
X118980252Y-63264500D01*
X118980247Y-63264500D01*
X118921770Y-63276131D01*
X118921769Y-63276132D01*
X118855447Y-63320447D01*
X118811132Y-63386769D01*
X118811131Y-63386770D01*
X118799500Y-63445247D01*
X118799500Y-63625500D01*
X118779815Y-63692539D01*
X118727011Y-63738294D01*
X118675500Y-63749500D01*
X116187628Y-63749500D01*
X116120589Y-63729815D01*
X116087858Y-63699134D01*
X116072150Y-63677850D01*
X115962882Y-63597207D01*
X115962880Y-63597206D01*
X115834700Y-63552353D01*
X115804270Y-63549500D01*
X115804266Y-63549500D01*
X115195734Y-63549500D01*
X115195730Y-63549500D01*
X115165300Y-63552353D01*
X115165298Y-63552353D01*
X115037119Y-63597206D01*
X115037117Y-63597207D01*
X114927850Y-63677850D01*
X114847207Y-63787117D01*
X114847206Y-63787119D01*
X114802353Y-63915298D01*
X114802353Y-63915300D01*
X114799229Y-63948620D01*
X114797973Y-63948502D01*
X114776777Y-64009865D01*
X114721883Y-64053089D01*
X114675726Y-64062000D01*
X112134474Y-64062000D01*
X112067435Y-64042315D01*
X112021680Y-63989511D01*
X112017433Y-63978956D01*
X112014188Y-63969683D01*
X112002793Y-63937118D01*
X111922150Y-63827850D01*
X111812882Y-63747207D01*
X111812880Y-63747206D01*
X111684700Y-63702353D01*
X111654270Y-63699500D01*
X111654266Y-63699500D01*
X109345734Y-63699500D01*
X109345730Y-63699500D01*
X109315300Y-63702353D01*
X109315298Y-63702353D01*
X109187119Y-63747206D01*
X109187118Y-63747207D01*
X109139436Y-63782398D01*
X109073807Y-63806368D01*
X109005637Y-63791052D01*
X108978122Y-63770308D01*
X107807316Y-62599502D01*
X107807314Y-62599500D01*
X107750250Y-62566554D01*
X107693187Y-62533608D01*
X107629539Y-62516554D01*
X107565892Y-62499500D01*
X102065892Y-62499500D01*
X101934107Y-62499500D01*
X101806812Y-62533608D01*
X101692686Y-62599500D01*
X101692683Y-62599502D01*
X101599498Y-62692688D01*
X97675245Y-66616940D01*
X97675244Y-66616940D01*
X97675245Y-66616941D01*
X97599500Y-66692686D01*
X97533608Y-66806812D01*
X97499500Y-66934108D01*
X97499500Y-72241324D01*
X97479815Y-72308363D01*
X97463181Y-72329005D01*
X96829005Y-72963181D01*
X96767682Y-72996666D01*
X96741324Y-72999500D01*
X94497949Y-72999500D01*
X94430910Y-72979815D01*
X94388592Y-72933955D01*
X94377684Y-72913548D01*
X94246410Y-72753589D01*
X94096121Y-72630252D01*
X94086450Y-72622315D01*
X93903954Y-72524768D01*
X93705934Y-72464700D01*
X93705932Y-72464699D01*
X93705934Y-72464699D01*
X93500000Y-72444417D01*
X93294067Y-72464699D01*
X93096043Y-72524769D01*
X93019111Y-72565891D01*
X92913550Y-72622315D01*
X92913548Y-72622316D01*
X92913547Y-72622317D01*
X92753589Y-72753589D01*
X92622317Y-72913547D01*
X92622316Y-72913548D01*
X92622315Y-72913550D01*
X92586895Y-72979815D01*
X92524769Y-73096043D01*
X92464699Y-73294067D01*
X92444417Y-73500000D01*
X92010500Y-73500000D01*
X92010500Y-72630249D01*
X92010499Y-72630247D01*
X91998868Y-72571770D01*
X91998867Y-72571769D01*
X91954552Y-72505447D01*
X91888230Y-72461132D01*
X91888229Y-72461131D01*
X91829752Y-72449500D01*
X91829748Y-72449500D01*
X91584500Y-72449500D01*
X91517461Y-72429815D01*
X91471706Y-72377011D01*
X91460500Y-72325500D01*
X91460500Y-71974109D01*
X91460500Y-71974108D01*
X91448195Y-71928186D01*
X91426392Y-71846814D01*
X91360500Y-71732686D01*
X91267314Y-71639500D01*
X91267312Y-71639498D01*
X90999319Y-71371505D01*
X90965834Y-71310182D01*
X90963000Y-71283824D01*
X90963000Y-65624500D01*
X90982685Y-65557461D01*
X91035489Y-65511706D01*
X91087000Y-65500500D01*
X91929270Y-65500500D01*
X91959699Y-65497646D01*
X91959701Y-65497646D01*
X92023790Y-65475219D01*
X92087882Y-65452793D01*
X92197150Y-65372150D01*
X92277793Y-65262882D01*
X92306742Y-65180150D01*
X92322646Y-65134701D01*
X92322646Y-65134699D01*
X92325500Y-65104269D01*
X92325500Y-65099986D01*
X93375001Y-65099986D01*
X93385494Y-65202697D01*
X93440641Y-65369119D01*
X93440643Y-65369124D01*
X93532684Y-65518345D01*
X93656654Y-65642315D01*
X93805875Y-65734356D01*
X93805880Y-65734358D01*
X93972302Y-65789505D01*
X93972309Y-65789506D01*
X94075019Y-65799999D01*
X95287499Y-65799999D01*
X95787500Y-65799999D01*
X96999972Y-65799999D01*
X96999986Y-65799998D01*
X97102697Y-65789505D01*
X97269119Y-65734358D01*
X97269124Y-65734356D01*
X97418345Y-65642315D01*
X97542315Y-65518345D01*
X97634356Y-65369124D01*
X97634358Y-65369119D01*
X97689505Y-65202697D01*
X97689506Y-65202690D01*
X97699999Y-65099986D01*
X97700000Y-65099973D01*
X97700000Y-64750000D01*
X95787500Y-64750000D01*
X95787500Y-65799999D01*
X95287499Y-65799999D01*
X95287500Y-65799998D01*
X95287500Y-64750000D01*
X93375001Y-64750000D01*
X93375001Y-65099986D01*
X92325500Y-65099986D01*
X92325500Y-63900013D01*
X93375000Y-63900013D01*
X93375000Y-64250000D01*
X95287500Y-64250000D01*
X95787500Y-64250000D01*
X97699999Y-64250000D01*
X97699999Y-63900028D01*
X97699998Y-63900013D01*
X97689505Y-63797302D01*
X97634358Y-63630880D01*
X97634356Y-63630875D01*
X97542315Y-63481654D01*
X97418345Y-63357684D01*
X97269124Y-63265643D01*
X97269119Y-63265641D01*
X97102697Y-63210494D01*
X97102690Y-63210493D01*
X96999986Y-63200000D01*
X95787500Y-63200000D01*
X95787500Y-64250000D01*
X95287500Y-64250000D01*
X95287500Y-63200000D01*
X94075028Y-63200000D01*
X94075012Y-63200001D01*
X93972302Y-63210494D01*
X93805880Y-63265641D01*
X93805875Y-63265643D01*
X93656654Y-63357684D01*
X93532684Y-63481654D01*
X93440643Y-63630875D01*
X93440641Y-63630880D01*
X93385494Y-63797302D01*
X93385493Y-63797309D01*
X93375000Y-63900013D01*
X92325500Y-63900013D01*
X92325500Y-63895730D01*
X92322646Y-63865300D01*
X92322646Y-63865298D01*
X92289006Y-63769163D01*
X92277793Y-63737118D01*
X92197150Y-63627850D01*
X92087882Y-63547207D01*
X92087880Y-63547206D01*
X91959700Y-63502353D01*
X91929270Y-63499500D01*
X91929266Y-63499500D01*
X91087000Y-63499500D01*
X91019961Y-63479815D01*
X90974206Y-63427011D01*
X90963000Y-63375500D01*
X90963000Y-61899986D01*
X108650001Y-61899986D01*
X108660494Y-62002697D01*
X108715641Y-62169119D01*
X108715643Y-62169124D01*
X108807684Y-62318345D01*
X108931654Y-62442315D01*
X109080875Y-62534356D01*
X109080880Y-62534358D01*
X109247302Y-62589505D01*
X109247309Y-62589506D01*
X109350019Y-62599999D01*
X110249999Y-62599999D01*
X110750000Y-62599999D01*
X111649972Y-62599999D01*
X111649986Y-62599998D01*
X111752697Y-62589505D01*
X111919119Y-62534358D01*
X111919124Y-62534356D01*
X112068345Y-62442315D01*
X112192315Y-62318345D01*
X112284356Y-62169124D01*
X112284358Y-62169119D01*
X112339505Y-62002697D01*
X112339506Y-62002690D01*
X112349999Y-61899986D01*
X112350000Y-61899973D01*
X112350000Y-61687500D01*
X110750000Y-61687500D01*
X110750000Y-62599999D01*
X110249999Y-62599999D01*
X110250000Y-62599998D01*
X110250000Y-61687500D01*
X108650001Y-61687500D01*
X108650001Y-61899986D01*
X90963000Y-61899986D01*
X90963000Y-60975013D01*
X108650000Y-60975013D01*
X108650000Y-61187500D01*
X110250000Y-61187500D01*
X110750000Y-61187500D01*
X112349999Y-61187500D01*
X112349999Y-60975028D01*
X112349998Y-60975013D01*
X112339505Y-60872302D01*
X112284358Y-60705880D01*
X112284356Y-60705875D01*
X112192315Y-60556654D01*
X112068345Y-60432684D01*
X111919124Y-60340643D01*
X111919119Y-60340641D01*
X111752697Y-60285494D01*
X111752690Y-60285493D01*
X111649986Y-60275000D01*
X110750000Y-60275000D01*
X110750000Y-61187500D01*
X110250000Y-61187500D01*
X110250000Y-60275000D01*
X109350028Y-60275000D01*
X109350012Y-60275001D01*
X109247302Y-60285494D01*
X109080880Y-60340641D01*
X109080875Y-60340643D01*
X108931654Y-60432684D01*
X108807684Y-60556654D01*
X108715643Y-60705875D01*
X108715641Y-60705880D01*
X108660494Y-60872302D01*
X108660493Y-60872309D01*
X108650000Y-60975013D01*
X90963000Y-60975013D01*
X90963000Y-56174500D01*
X90982685Y-56107461D01*
X91035489Y-56061706D01*
X91087000Y-56050500D01*
X91369750Y-56050500D01*
X91369751Y-56050499D01*
X91384568Y-56047552D01*
X91428229Y-56038868D01*
X91428229Y-56038867D01*
X91428231Y-56038867D01*
X91494552Y-55994552D01*
X91538867Y-55928231D01*
X91538867Y-55928229D01*
X91538868Y-55928229D01*
X91550499Y-55869752D01*
X91550500Y-55869750D01*
X91550500Y-55474500D01*
X91570185Y-55407461D01*
X91622989Y-55361706D01*
X91674500Y-55350500D01*
X92546142Y-55350500D01*
X92546144Y-55350500D01*
X92635288Y-55326614D01*
X92715212Y-55280470D01*
X93608863Y-54386819D01*
X93670186Y-54353334D01*
X93696544Y-54350500D01*
X99688000Y-54350500D01*
X99755039Y-54370185D01*
X99800794Y-54422989D01*
X99812000Y-54474500D01*
X99812000Y-54509768D01*
X99814813Y-54539769D01*
X99814815Y-54539781D01*
X99859044Y-54666178D01*
X99859045Y-54666180D01*
X99938569Y-54773930D01*
X100046319Y-54853454D01*
X100046321Y-54853455D01*
X100172718Y-54897684D01*
X100172722Y-54897684D01*
X100172726Y-54897686D01*
X100187731Y-54899093D01*
X100202732Y-54900500D01*
X100202736Y-54900500D01*
X100797268Y-54900500D01*
X100810601Y-54899249D01*
X100827274Y-54897686D01*
X100827278Y-54897684D01*
X100827281Y-54897684D01*
X100898345Y-54872816D01*
X100953679Y-54853455D01*
X101061430Y-54773930D01*
X101140955Y-54666179D01*
X101185186Y-54539774D01*
X101188000Y-54509764D01*
X101188000Y-53490236D01*
X101188000Y-53490231D01*
X101687000Y-53490231D01*
X101687000Y-54509768D01*
X101689813Y-54539769D01*
X101689815Y-54539781D01*
X101734044Y-54666178D01*
X101734045Y-54666180D01*
X101813569Y-54773930D01*
X101921319Y-54853454D01*
X101921321Y-54853455D01*
X102047718Y-54897684D01*
X102047722Y-54897684D01*
X102047726Y-54897686D01*
X102062731Y-54899093D01*
X102077732Y-54900500D01*
X102077736Y-54900500D01*
X102672268Y-54900500D01*
X102685601Y-54899249D01*
X102702274Y-54897686D01*
X102702278Y-54897684D01*
X102702281Y-54897684D01*
X102773345Y-54872816D01*
X102828679Y-54853455D01*
X102936430Y-54773930D01*
X103015955Y-54666179D01*
X103060186Y-54539774D01*
X103063000Y-54509764D01*
X103063000Y-54474500D01*
X103082685Y-54407461D01*
X103135489Y-54361706D01*
X103187000Y-54350500D01*
X105075500Y-54350500D01*
X105142539Y-54370185D01*
X105188294Y-54422989D01*
X105199500Y-54474500D01*
X105199500Y-54504269D01*
X105202353Y-54534699D01*
X105202353Y-54534701D01*
X105241701Y-54647147D01*
X105247207Y-54662882D01*
X105327850Y-54772150D01*
X105437118Y-54852793D01*
X105479845Y-54867744D01*
X105565299Y-54897646D01*
X105595730Y-54900500D01*
X105595734Y-54900500D01*
X106404270Y-54900500D01*
X106434699Y-54897646D01*
X106434701Y-54897646D01*
X106498790Y-54875219D01*
X106562882Y-54852793D01*
X106672150Y-54772150D01*
X106733225Y-54689395D01*
X106788870Y-54647147D01*
X106858526Y-54641688D01*
X106920075Y-54674755D01*
X106950699Y-54724026D01*
X106965642Y-54769121D01*
X106965643Y-54769124D01*
X107057684Y-54918345D01*
X107181654Y-55042315D01*
X107330875Y-55134356D01*
X107330880Y-55134358D01*
X107497302Y-55189505D01*
X107497309Y-55189506D01*
X107600019Y-55199999D01*
X107749999Y-55199999D01*
X108250000Y-55199999D01*
X108399972Y-55199999D01*
X108399986Y-55199998D01*
X108502697Y-55189505D01*
X108669119Y-55134358D01*
X108669124Y-55134356D01*
X108818345Y-55042315D01*
X108942315Y-54918345D01*
X109034356Y-54769124D01*
X109034358Y-54769119D01*
X109089505Y-54602697D01*
X109089506Y-54602690D01*
X109099999Y-54499986D01*
X109100000Y-54499973D01*
X109100000Y-54250000D01*
X108250000Y-54250000D01*
X108250000Y-55199999D01*
X107749999Y-55199999D01*
X107750000Y-55199998D01*
X107750000Y-53750000D01*
X108250000Y-53750000D01*
X109099999Y-53750000D01*
X109099999Y-53500028D01*
X109099998Y-53500013D01*
X109089505Y-53397302D01*
X109034358Y-53230880D01*
X109034356Y-53230875D01*
X108942315Y-53081654D01*
X108818345Y-52957684D01*
X108669124Y-52865643D01*
X108669119Y-52865641D01*
X108502697Y-52810494D01*
X108502690Y-52810493D01*
X108399986Y-52800000D01*
X108250000Y-52800000D01*
X108250000Y-53750000D01*
X107750000Y-53750000D01*
X107750000Y-52800000D01*
X107600027Y-52800000D01*
X107600012Y-52800001D01*
X107497302Y-52810494D01*
X107330880Y-52865641D01*
X107330875Y-52865643D01*
X107181654Y-52957684D01*
X107057684Y-53081654D01*
X106965643Y-53230875D01*
X106965640Y-53230883D01*
X106950698Y-53275974D01*
X106910925Y-53333418D01*
X106846409Y-53360240D01*
X106777633Y-53347924D01*
X106733223Y-53310601D01*
X106672151Y-53227851D01*
X106669736Y-53226069D01*
X106562882Y-53147207D01*
X106562880Y-53147206D01*
X106434700Y-53102353D01*
X106404270Y-53099500D01*
X106404266Y-53099500D01*
X105595734Y-53099500D01*
X105595730Y-53099500D01*
X105565300Y-53102353D01*
X105565298Y-53102353D01*
X105437119Y-53147206D01*
X105437117Y-53147207D01*
X105327850Y-53227850D01*
X105247207Y-53337117D01*
X105247206Y-53337119D01*
X105202353Y-53465298D01*
X105202353Y-53465300D01*
X105199500Y-53495730D01*
X105199500Y-53525500D01*
X105179815Y-53592539D01*
X105127011Y-53638294D01*
X105075500Y-53649500D01*
X103187000Y-53649500D01*
X103119961Y-53629815D01*
X103074206Y-53577011D01*
X103063000Y-53525500D01*
X103063000Y-53490231D01*
X103060662Y-53465300D01*
X103060186Y-53460226D01*
X103060184Y-53460222D01*
X103060184Y-53460218D01*
X103015955Y-53333821D01*
X103015954Y-53333819D01*
X102936430Y-53226069D01*
X102828680Y-53146545D01*
X102828678Y-53146544D01*
X102702281Y-53102315D01*
X102702269Y-53102313D01*
X102672268Y-53099500D01*
X102672264Y-53099500D01*
X102077736Y-53099500D01*
X102077732Y-53099500D01*
X102047730Y-53102313D01*
X102047718Y-53102315D01*
X101921321Y-53146544D01*
X101921319Y-53146545D01*
X101813569Y-53226069D01*
X101734045Y-53333819D01*
X101734044Y-53333821D01*
X101689815Y-53460218D01*
X101689813Y-53460230D01*
X101687000Y-53490231D01*
X101188000Y-53490231D01*
X101185186Y-53460226D01*
X101185184Y-53460222D01*
X101185184Y-53460218D01*
X101140955Y-53333821D01*
X101140954Y-53333819D01*
X101061430Y-53226069D01*
X100953680Y-53146545D01*
X100953678Y-53146544D01*
X100827281Y-53102315D01*
X100827269Y-53102313D01*
X100797268Y-53099500D01*
X100797264Y-53099500D01*
X100202736Y-53099500D01*
X100202732Y-53099500D01*
X100172730Y-53102313D01*
X100172718Y-53102315D01*
X100046321Y-53146544D01*
X100046319Y-53146545D01*
X99938569Y-53226069D01*
X99859045Y-53333819D01*
X99859044Y-53333821D01*
X99814815Y-53460218D01*
X99814813Y-53460230D01*
X99812000Y-53490231D01*
X99812000Y-53525500D01*
X99792315Y-53592539D01*
X99739511Y-53638294D01*
X99688000Y-53649500D01*
X93453856Y-53649500D01*
X93364712Y-53673386D01*
X93364709Y-53673387D01*
X93284791Y-53719527D01*
X93284786Y-53719531D01*
X92391137Y-54613181D01*
X92329814Y-54646666D01*
X92303456Y-54649500D01*
X91674500Y-54649500D01*
X91607461Y-54629815D01*
X91561706Y-54577011D01*
X91550500Y-54525500D01*
X91550500Y-54130249D01*
X91550499Y-54130247D01*
X91538868Y-54071770D01*
X91538867Y-54071769D01*
X91494552Y-54005447D01*
X91428230Y-53961132D01*
X91428229Y-53961131D01*
X91369752Y-53949500D01*
X91369748Y-53949500D01*
X89630252Y-53949500D01*
X89630247Y-53949500D01*
X89571770Y-53961131D01*
X89571769Y-53961132D01*
X89505447Y-54005447D01*
X89461132Y-54071769D01*
X89461131Y-54071770D01*
X89449500Y-54130247D01*
X89449500Y-55869752D01*
X89461131Y-55928229D01*
X89461132Y-55928230D01*
X89505447Y-55994552D01*
X89571769Y-56038867D01*
X89571770Y-56038868D01*
X89630247Y-56050499D01*
X89630250Y-56050500D01*
X89630252Y-56050500D01*
X89838000Y-56050500D01*
X89905039Y-56070185D01*
X89950794Y-56122989D01*
X89962000Y-56174500D01*
X89962000Y-63375500D01*
X89942315Y-63442539D01*
X89889511Y-63488294D01*
X89838000Y-63499500D01*
X88995730Y-63499500D01*
X88965300Y-63502353D01*
X88965298Y-63502353D01*
X88837119Y-63547206D01*
X88837117Y-63547207D01*
X88727850Y-63627850D01*
X88647207Y-63737117D01*
X88647206Y-63737119D01*
X88602353Y-63865298D01*
X88602353Y-63865300D01*
X88599500Y-63895730D01*
X87500500Y-63895730D01*
X87500500Y-51624500D01*
X87520185Y-51557461D01*
X87572989Y-51511706D01*
X87624500Y-51500500D01*
X123876000Y-51500500D01*
X123943039Y-51520185D01*
G37*
%TD.AperFunction*%
%TD*%
M02*
