%TF.GenerationSoftware,KiCad,Pcbnew,8.0.8*%
%TF.CreationDate,2025-02-22T00:18:49-08:00*%
%TF.ProjectId,CRT_main_supply,4352545f-6d61-4696-9e5f-737570706c79,rev?*%
%TF.SameCoordinates,Original*%
%TF.FileFunction,Soldermask,Top*%
%TF.FilePolarity,Negative*%
%FSLAX46Y46*%
G04 Gerber Fmt 4.6, Leading zero omitted, Abs format (unit mm)*
G04 Created by KiCad (PCBNEW 8.0.8) date 2025-02-22 00:18:49*
%MOMM*%
%LPD*%
G01*
G04 APERTURE LIST*
G04 Aperture macros list*
%AMRoundRect*
0 Rectangle with rounded corners*
0 $1 Rounding radius*
0 $2 $3 $4 $5 $6 $7 $8 $9 X,Y pos of 4 corners*
0 Add a 4 corners polygon primitive as box body*
4,1,4,$2,$3,$4,$5,$6,$7,$8,$9,$2,$3,0*
0 Add four circle primitives for the rounded corners*
1,1,$1+$1,$2,$3*
1,1,$1+$1,$4,$5*
1,1,$1+$1,$6,$7*
1,1,$1+$1,$8,$9*
0 Add four rect primitives between the rounded corners*
20,1,$1+$1,$2,$3,$4,$5,0*
20,1,$1+$1,$4,$5,$6,$7,0*
20,1,$1+$1,$6,$7,$8,$9,0*
20,1,$1+$1,$8,$9,$2,$3,0*%
G04 Aperture macros list end*
%ADD10RoundRect,0.250000X0.300000X0.300000X-0.300000X0.300000X-0.300000X-0.300000X0.300000X-0.300000X0*%
%ADD11R,1.700000X1.700000*%
%ADD12RoundRect,0.250000X0.625000X-0.400000X0.625000X0.400000X-0.625000X0.400000X-0.625000X-0.400000X0*%
%ADD13RoundRect,0.250000X0.250000X-0.250000X0.250000X0.250000X-0.250000X0.250000X-0.250000X-0.250000X0*%
%ADD14RoundRect,0.250000X-0.250000X0.250000X-0.250000X-0.250000X0.250000X-0.250000X0.250000X0.250000X0*%
%ADD15RoundRect,0.250000X1.412500X0.550000X-1.412500X0.550000X-1.412500X-0.550000X1.412500X-0.550000X0*%
%ADD16RoundRect,0.250000X1.100000X-0.412500X1.100000X0.412500X-1.100000X0.412500X-1.100000X-0.412500X0*%
%ADD17RoundRect,0.250000X-0.625000X0.400000X-0.625000X-0.400000X0.625000X-0.400000X0.625000X0.400000X0*%
%ADD18RoundRect,0.102000X-0.950000X-0.800000X0.950000X-0.800000X0.950000X0.800000X-0.950000X0.800000X0*%
%ADD19RoundRect,0.250000X-0.350000X-0.450000X0.350000X-0.450000X0.350000X0.450000X-0.350000X0.450000X0*%
%ADD20RoundRect,0.250000X1.500000X0.650000X-1.500000X0.650000X-1.500000X-0.650000X1.500000X-0.650000X0*%
%ADD21RoundRect,0.237500X-0.237500X0.250000X-0.237500X-0.250000X0.237500X-0.250000X0.237500X0.250000X0*%
%ADD22RoundRect,0.237500X0.300000X0.237500X-0.300000X0.237500X-0.300000X-0.237500X0.300000X-0.237500X0*%
%ADD23RoundRect,0.250000X1.450000X-0.537500X1.450000X0.537500X-1.450000X0.537500X-1.450000X-0.537500X0*%
%ADD24RoundRect,0.250000X-0.412500X-0.650000X0.412500X-0.650000X0.412500X0.650000X-0.412500X0.650000X0*%
%ADD25RoundRect,0.237500X-0.237500X0.300000X-0.237500X-0.300000X0.237500X-0.300000X0.237500X0.300000X0*%
%ADD26C,1.440000*%
%ADD27O,1.700000X1.700000*%
%ADD28RoundRect,0.250000X0.412500X0.650000X-0.412500X0.650000X-0.412500X-0.650000X0.412500X-0.650000X0*%
%ADD29RoundRect,0.250000X-0.400000X-0.625000X0.400000X-0.625000X0.400000X0.625000X-0.400000X0.625000X0*%
%ADD30RoundRect,0.325000X-1.175000X0.325000X-1.175000X-0.325000X1.175000X-0.325000X1.175000X0.325000X0*%
%ADD31RoundRect,0.250000X-1.412500X-0.550000X1.412500X-0.550000X1.412500X0.550000X-1.412500X0.550000X0*%
%ADD32RoundRect,0.250000X-0.450000X0.350000X-0.450000X-0.350000X0.450000X-0.350000X0.450000X0.350000X0*%
%ADD33RoundRect,0.065500X0.466500X0.196500X-0.466500X0.196500X-0.466500X-0.196500X0.466500X-0.196500X0*%
%ADD34RoundRect,0.102000X0.990000X1.500000X-0.990000X1.500000X-0.990000X-1.500000X0.990000X-1.500000X0*%
%ADD35RoundRect,0.237500X0.237500X-0.250000X0.237500X0.250000X-0.237500X0.250000X-0.237500X-0.250000X0*%
%ADD36RoundRect,0.243750X0.243750X0.456250X-0.243750X0.456250X-0.243750X-0.456250X0.243750X-0.456250X0*%
%ADD37RoundRect,0.250000X-0.300000X-0.300000X0.300000X-0.300000X0.300000X0.300000X-0.300000X0.300000X0*%
%ADD38RoundRect,0.250000X0.450000X-0.350000X0.450000X0.350000X-0.450000X0.350000X-0.450000X-0.350000X0*%
G04 APERTURE END LIST*
D10*
%TO.C,D3*%
X152787500Y-100855000D03*
X149987500Y-100855000D03*
%TD*%
D11*
%TO.C,J4*%
X182500000Y-94880000D03*
%TD*%
D12*
%TO.C,R8*%
X113500000Y-88050000D03*
X113500000Y-84950000D03*
%TD*%
D10*
%TO.C,D2*%
X152787500Y-106855000D03*
X149987500Y-106855000D03*
%TD*%
D13*
%TO.C,D9*%
X112500000Y-103250000D03*
X112500000Y-100750000D03*
%TD*%
D11*
%TO.C,J7*%
X182500000Y-70880000D03*
%TD*%
D14*
%TO.C,D6*%
X115500000Y-69250000D03*
X115500000Y-71750000D03*
%TD*%
D15*
%TO.C,C4*%
X138537500Y-71000000D03*
X133462500Y-71000000D03*
%TD*%
D16*
%TO.C,C10*%
X110500000Y-80600000D03*
X110500000Y-77475000D03*
%TD*%
D12*
%TO.C,R18*%
X165000000Y-102555000D03*
X165000000Y-99455000D03*
%TD*%
D17*
%TO.C,R16*%
X164950000Y-111955000D03*
X164950000Y-115055000D03*
%TD*%
D11*
%TO.C,J8*%
X182500000Y-100880000D03*
%TD*%
D18*
%TO.C,T2*%
X119950000Y-64265000D03*
X119950000Y-66755000D03*
X119950000Y-69245000D03*
X119950000Y-71735000D03*
X128050000Y-71735000D03*
X128050000Y-69245000D03*
X128050000Y-66755000D03*
X128050000Y-64265000D03*
%TD*%
D19*
%TO.C,R15*%
X106000000Y-54000000D03*
X108000000Y-54000000D03*
%TD*%
D20*
%TO.C,D4*%
X138500000Y-64000000D03*
X133500000Y-64000000D03*
%TD*%
D21*
%TO.C,R11*%
X104000000Y-86537500D03*
X104000000Y-88362500D03*
%TD*%
D22*
%TO.C,C6*%
X159362500Y-68000000D03*
X157637500Y-68000000D03*
%TD*%
D23*
%TO.C,C3*%
X157500000Y-100142500D03*
X157500000Y-95867500D03*
%TD*%
%TO.C,C2*%
X157500000Y-107642500D03*
X157500000Y-103367500D03*
%TD*%
D11*
%TO.C,J1*%
X90500000Y-55000000D03*
%TD*%
D24*
%TO.C,C5*%
X131875000Y-82000000D03*
X135000000Y-82000000D03*
%TD*%
D16*
%TO.C,C8*%
X107887500Y-100417500D03*
X107887500Y-97292500D03*
%TD*%
D17*
%TO.C,R17*%
X165000000Y-105455000D03*
X165000000Y-108555000D03*
%TD*%
D25*
%TO.C,C20*%
X143500000Y-71500000D03*
X143500000Y-73225000D03*
%TD*%
D22*
%TO.C,C15*%
X103362500Y-101500000D03*
X101637500Y-101500000D03*
%TD*%
D11*
%TO.C,J5*%
X182500000Y-88880000D03*
%TD*%
D26*
%TO.C,RV2*%
X165000000Y-69555000D03*
X165000000Y-67015000D03*
X165000000Y-64475000D03*
%TD*%
D23*
%TO.C,C1*%
X157500000Y-115142500D03*
X157500000Y-110867500D03*
%TD*%
D11*
%TO.C,J10*%
X90960000Y-73500000D03*
D27*
X93500000Y-73500000D03*
%TD*%
D14*
%TO.C,D12*%
X116500000Y-85750000D03*
X116500000Y-88250000D03*
%TD*%
D11*
%TO.C,J12*%
X182500000Y-56760000D03*
D27*
X182500000Y-59300000D03*
X182500000Y-61840000D03*
X182500000Y-64380000D03*
%TD*%
D22*
%TO.C,C14*%
X105862500Y-81500000D03*
X104137500Y-81500000D03*
%TD*%
D28*
%TO.C,C7*%
X160562500Y-84000000D03*
X157437500Y-84000000D03*
%TD*%
D11*
%TO.C,J9*%
X90725000Y-92000000D03*
D27*
X93265000Y-92000000D03*
%TD*%
D29*
%TO.C,R5*%
X171950000Y-92000000D03*
X175050000Y-92000000D03*
%TD*%
D12*
%TO.C,R2*%
X165000000Y-95555000D03*
X165000000Y-92455000D03*
%TD*%
D21*
%TO.C,R9*%
X104000000Y-69587500D03*
X104000000Y-71412500D03*
%TD*%
D12*
%TO.C,R3*%
X165000000Y-77055000D03*
X165000000Y-73955000D03*
%TD*%
D16*
%TO.C,C9*%
X110500000Y-64562500D03*
X110500000Y-61437500D03*
%TD*%
D30*
%TO.C,T1*%
X116700000Y-98005000D03*
X116700000Y-101005000D03*
X116700000Y-104005000D03*
X116700000Y-107005000D03*
X116700000Y-110005000D03*
X116700000Y-113005000D03*
X143300000Y-113005000D03*
X143300000Y-110005000D03*
X143300000Y-107005000D03*
X143300000Y-104005000D03*
X143300000Y-101005000D03*
X143300000Y-98005000D03*
%TD*%
D31*
%TO.C,C17*%
X90462500Y-64500000D03*
X95537500Y-64500000D03*
%TD*%
D32*
%TO.C,R6*%
X169500000Y-74000000D03*
X169500000Y-76000000D03*
%TD*%
D17*
%TO.C,R4*%
X174000000Y-66450000D03*
X174000000Y-69550000D03*
%TD*%
D13*
%TO.C,D7*%
X115500000Y-66750000D03*
X115500000Y-64250000D03*
%TD*%
D33*
%TO.C,U1*%
X107387500Y-106755000D03*
X107387500Y-105955000D03*
X107387500Y-105155000D03*
X107387500Y-104355000D03*
X103517500Y-104355000D03*
X103517500Y-105155000D03*
X103517500Y-105955000D03*
X103517500Y-106755000D03*
D34*
X105452500Y-105555000D03*
%TD*%
D11*
%TO.C,J3*%
X182500000Y-76880000D03*
%TD*%
D35*
%TO.C,R7*%
X113000000Y-71487500D03*
X113000000Y-69662500D03*
%TD*%
D22*
%TO.C,C16*%
X105862500Y-65500000D03*
X104137500Y-65500000D03*
%TD*%
D33*
%TO.C,U3*%
X110000000Y-86437500D03*
X110000000Y-85637500D03*
X110000000Y-84837500D03*
X110000000Y-84037500D03*
X106130000Y-84037500D03*
X106130000Y-84837500D03*
X106130000Y-85637500D03*
X106130000Y-86437500D03*
D34*
X108065000Y-85237500D03*
%TD*%
D13*
%TO.C,D11*%
X116500000Y-82750000D03*
X116500000Y-80250000D03*
%TD*%
D11*
%TO.C,J6*%
X182500000Y-82880000D03*
%TD*%
D14*
%TO.C,D10*%
X113500000Y-106500000D03*
X113500000Y-109000000D03*
%TD*%
D36*
%TO.C,D8*%
X102375000Y-54000000D03*
X100500000Y-54000000D03*
%TD*%
D18*
%TO.C,T3*%
X119950000Y-80765000D03*
X119950000Y-83255000D03*
X119950000Y-85745000D03*
X119950000Y-88235000D03*
X128050000Y-88235000D03*
X128050000Y-85745000D03*
X128050000Y-83255000D03*
X128050000Y-80765000D03*
%TD*%
D37*
%TO.C,D5*%
X132200000Y-87500000D03*
X135000000Y-87500000D03*
%TD*%
D21*
%TO.C,R10*%
X100887500Y-105942500D03*
X100887500Y-107767500D03*
%TD*%
D11*
%TO.C,J13*%
X182500000Y-116000000D03*
D27*
X182500000Y-113460000D03*
X182500000Y-110920000D03*
X182500000Y-108380000D03*
%TD*%
D26*
%TO.C,RV1*%
X165000000Y-86545000D03*
X165000000Y-84005000D03*
X165000000Y-81465000D03*
%TD*%
D11*
%TO.C,J2*%
X90500000Y-117500000D03*
%TD*%
D33*
%TO.C,U2*%
X110370000Y-70200000D03*
X110370000Y-69400000D03*
X110370000Y-68600000D03*
X110370000Y-67800000D03*
X106500000Y-67800000D03*
X106500000Y-68600000D03*
X106500000Y-69400000D03*
X106500000Y-70200000D03*
D34*
X108435000Y-69000000D03*
%TD*%
D10*
%TO.C,D1*%
X152787500Y-112855000D03*
X149987500Y-112855000D03*
%TD*%
D38*
%TO.C,R1*%
X110387500Y-108855000D03*
X110387500Y-106855000D03*
%TD*%
D11*
%TO.C,J11*%
X90725000Y-82500000D03*
D27*
X93265000Y-82500000D03*
%TD*%
M02*
