M48
; DRILL file {KiCad 8.0.8} date 2025-02-22T00:18:52-0800
; FORMAT={-:-/ absolute / inch / decimal}
; #@! TF.CreationDate,2025-02-22T00:18:52-08:00
; #@! TF.GenerationSoftware,Kicad,Pcbnew,8.0.8
; #@! TF.FileFunction,Plated,1,2,PTH
FMAT,2
INCH
; #@! TA.AperFunction,Plated,PTH,ViaDrill
T1C0.0118
; #@! TA.AperFunction,Plated,PTH,ComponentDrill
T2C0.0315
; #@! TA.AperFunction,Plated,PTH,ComponentDrill
T3C0.0394
%
G90
G05
T1
X3.5433Y-3.9567
X3.5433Y-4.3701
X3.7795Y-4.1535
X3.8189Y-3.0906
X3.8583Y-3.4646
X3.8583Y-3.7795
X3.9567Y-2.3228
X3.9764Y-2.7165
X3.9961Y-4.5866
X4.1142Y-2.9724
X4.252Y-3.6024
X4.2717Y-4.4685
X4.3701Y-2.0866
X4.5866Y-2.3425
X4.685Y-3.6417
X4.7441Y-2.9921
X4.7638Y-2.0866
X4.7835Y-4.685
X5.5315Y-3.2283
X5.7677Y-2.5197
X7.0472Y-3.248
X7.1654Y-2.6772
T2
X6.4961Y-2.5384
X6.4961Y-2.6384
X6.4961Y-2.7384
X6.4961Y-3.2073
X6.4961Y-3.3073
X6.4961Y-3.4073
T3
X3.563Y-2.1654
X3.563Y-4.626
X3.5719Y-3.248
X3.5719Y-3.622
X3.5811Y-2.8937
X3.6719Y-3.248
X3.6719Y-3.622
X3.6811Y-2.8937
X7.185Y-2.2346
X7.185Y-2.3346
X7.185Y-2.4346
X7.185Y-2.5346
X7.185Y-2.7906
X7.185Y-3.0268
X7.185Y-3.263
X7.185Y-3.4992
X7.185Y-3.7354
X7.185Y-3.9717
X7.185Y-4.2669
X7.185Y-4.3669
X7.185Y-4.4669
X7.185Y-4.5669
M30
