%TF.GenerationSoftware,KiCad,Pcbnew,9.0.0*%
%TF.CreationDate,2025-03-19T21:00:22-07:00*%
%TF.ProjectId,CRT_main_supply_2,4352545f-6d61-4696-9e5f-737570706c79,rev?*%
%TF.SameCoordinates,Original*%
%TF.FileFunction,Paste,Top*%
%TF.FilePolarity,Positive*%
%FSLAX46Y46*%
G04 Gerber Fmt 4.6, Leading zero omitted, Abs format (unit mm)*
G04 Created by KiCad (PCBNEW 9.0.0) date 2025-03-19 21:00:22*
%MOMM*%
%LPD*%
G01*
G04 APERTURE LIST*
G04 Aperture macros list*
%AMRoundRect*
0 Rectangle with rounded corners*
0 $1 Rounding radius*
0 $2 $3 $4 $5 $6 $7 $8 $9 X,Y pos of 4 corners*
0 Add a 4 corners polygon primitive as box body*
4,1,4,$2,$3,$4,$5,$6,$7,$8,$9,$2,$3,0*
0 Add four circle primitives for the rounded corners*
1,1,$1+$1,$2,$3*
1,1,$1+$1,$4,$5*
1,1,$1+$1,$6,$7*
1,1,$1+$1,$8,$9*
0 Add four rect primitives between the rounded corners*
20,1,$1+$1,$2,$3,$4,$5,0*
20,1,$1+$1,$4,$5,$6,$7,0*
20,1,$1+$1,$6,$7,$8,$9,0*
20,1,$1+$1,$8,$9,$2,$3,0*%
G04 Aperture macros list end*
%ADD10C,0.010000*%
%ADD11RoundRect,0.250000X0.475000X-0.250000X0.475000X0.250000X-0.475000X0.250000X-0.475000X-0.250000X0*%
%ADD12RoundRect,0.250000X0.262500X0.450000X-0.262500X0.450000X-0.262500X-0.450000X0.262500X-0.450000X0*%
%ADD13RoundRect,0.250000X3.050000X-0.562500X3.050000X0.562500X-3.050000X0.562500X-3.050000X-0.562500X0*%
%ADD14RoundRect,0.250000X-0.625000X0.312500X-0.625000X-0.312500X0.625000X-0.312500X0.625000X0.312500X0*%
%ADD15RoundRect,0.250000X0.625000X-0.312500X0.625000X0.312500X-0.625000X0.312500X-0.625000X-0.312500X0*%
%ADD16RoundRect,0.040000X0.390000X0.120000X-0.390000X0.120000X-0.390000X-0.120000X0.390000X-0.120000X0*%
%ADD17R,1.900000X1.600000*%
%ADD18RoundRect,0.250000X0.250000X0.475000X-0.250000X0.475000X-0.250000X-0.475000X0.250000X-0.475000X0*%
%ADD19RoundRect,0.200000X0.200000X0.275000X-0.200000X0.275000X-0.200000X-0.275000X0.200000X-0.275000X0*%
%ADD20RoundRect,0.250000X-0.475000X0.250000X-0.475000X-0.250000X0.475000X-0.250000X0.475000X0.250000X0*%
%ADD21RoundRect,0.249999X1.450001X-0.450001X1.450001X0.450001X-1.450001X0.450001X-1.450001X-0.450001X0*%
%ADD22RoundRect,0.250000X-0.312500X-0.625000X0.312500X-0.625000X0.312500X0.625000X-0.312500X0.625000X0*%
%ADD23RoundRect,0.250000X0.300000X-0.300000X0.300000X0.300000X-0.300000X0.300000X-0.300000X-0.300000X0*%
%ADD24RoundRect,0.250000X-0.850000X-0.350000X0.850000X-0.350000X0.850000X0.350000X-0.850000X0.350000X0*%
%ADD25RoundRect,0.250000X-1.275000X-1.125000X1.275000X-1.125000X1.275000X1.125000X-1.275000X1.125000X0*%
%ADD26RoundRect,0.250000X-0.325000X-0.650000X0.325000X-0.650000X0.325000X0.650000X-0.325000X0.650000X0*%
%ADD27RoundRect,0.250000X0.300000X0.300000X-0.300000X0.300000X-0.300000X-0.300000X0.300000X-0.300000X0*%
%ADD28RoundRect,0.317500X0.697500X-0.317500X0.697500X0.317500X-0.697500X0.317500X-0.697500X-0.317500X0*%
%ADD29RoundRect,0.243750X0.243750X0.456250X-0.243750X0.456250X-0.243750X-0.456250X0.243750X-0.456250X0*%
%ADD30RoundRect,0.250000X-0.300000X-1.600000X0.300000X-1.600000X0.300000X1.600000X-0.300000X1.600000X0*%
%ADD31RoundRect,0.172500X0.262500X0.172500X-0.262500X0.172500X-0.262500X-0.172500X0.262500X-0.172500X0*%
%ADD32RoundRect,0.093750X0.093750X0.106250X-0.093750X0.106250X-0.093750X-0.106250X0.093750X-0.106250X0*%
%ADD33RoundRect,0.249999X-1.450001X0.450001X-1.450001X-0.450001X1.450001X-0.450001X1.450001X0.450001X0*%
%ADD34RoundRect,0.250000X0.375000X0.625000X-0.375000X0.625000X-0.375000X-0.625000X0.375000X-0.625000X0*%
%ADD35RoundRect,0.250000X-0.650000X0.325000X-0.650000X-0.325000X0.650000X-0.325000X0.650000X0.325000X0*%
%ADD36RoundRect,0.250000X0.450000X-0.262500X0.450000X0.262500X-0.450000X0.262500X-0.450000X-0.262500X0*%
%ADD37RoundRect,0.250000X-0.450000X0.262500X-0.450000X-0.262500X0.450000X-0.262500X0.450000X0.262500X0*%
%ADD38RoundRect,0.325000X-1.175000X0.325000X-1.175000X-0.325000X1.175000X-0.325000X1.175000X0.325000X0*%
%ADD39RoundRect,0.250000X-0.250000X-0.475000X0.250000X-0.475000X0.250000X0.475000X-0.250000X0.475000X0*%
%ADD40RoundRect,0.200000X0.275000X-0.200000X0.275000X0.200000X-0.275000X0.200000X-0.275000X-0.200000X0*%
%ADD41RoundRect,0.250000X-0.262500X-0.450000X0.262500X-0.450000X0.262500X0.450000X-0.262500X0.450000X0*%
G04 APERTURE END LIST*
D10*
%TO.C,U3*%
X120625000Y-133950000D02*
X119375000Y-133950000D01*
X119375000Y-132050000D01*
X120625000Y-132050000D01*
X120625000Y-133950000D01*
G36*
X120625000Y-133950000D02*
G01*
X119375000Y-133950000D01*
X119375000Y-132050000D01*
X120625000Y-132050000D01*
X120625000Y-133950000D01*
G37*
%TO.C,U6*%
X118625000Y-78450000D02*
X117375000Y-78450000D01*
X117375000Y-76550000D01*
X118625000Y-76550000D01*
X118625000Y-78450000D01*
G36*
X118625000Y-78450000D02*
G01*
X117375000Y-78450000D01*
X117375000Y-76550000D01*
X118625000Y-76550000D01*
X118625000Y-78450000D01*
G37*
%TO.C,U1*%
X121125000Y-120950000D02*
X119875000Y-120950000D01*
X119875000Y-119050000D01*
X121125000Y-119050000D01*
X121125000Y-120950000D01*
G36*
X121125000Y-120950000D02*
G01*
X119875000Y-120950000D01*
X119875000Y-119050000D01*
X121125000Y-119050000D01*
X121125000Y-120950000D01*
G37*
%TO.C,U7*%
X117625000Y-102450000D02*
X116375000Y-102450000D01*
X116375000Y-100550000D01*
X117625000Y-100550000D01*
X117625000Y-102450000D01*
G36*
X117625000Y-102450000D02*
G01*
X116375000Y-102450000D01*
X116375000Y-100550000D01*
X117625000Y-100550000D01*
X117625000Y-102450000D01*
G37*
%TD*%
D11*
%TO.C,C30*%
X124000000Y-94450000D03*
X124000000Y-92550000D03*
%TD*%
D12*
%TO.C,R14*%
X174412500Y-83000000D03*
X172587500Y-83000000D03*
%TD*%
D11*
%TO.C,C10*%
X124500000Y-130450000D03*
X124500000Y-128550000D03*
%TD*%
D13*
%TO.C,C32*%
X173000000Y-98537500D03*
X173000000Y-93462500D03*
%TD*%
D14*
%TO.C,R25*%
X174500000Y-133037500D03*
X174500000Y-135962500D03*
%TD*%
D15*
%TO.C,R33*%
X121500000Y-104962500D03*
X121500000Y-102037500D03*
%TD*%
D16*
%TO.C,U3*%
X121935000Y-134200000D03*
X121935000Y-133400000D03*
X121935000Y-132600000D03*
X121935000Y-131800000D03*
X118065000Y-131800000D03*
X118065000Y-132600000D03*
X118065000Y-133400000D03*
X118065000Y-134200000D03*
%TD*%
D17*
%TO.C,T2*%
X130950000Y-116265000D03*
X130950000Y-118755000D03*
X130950000Y-121245000D03*
X130950000Y-123735000D03*
X139050000Y-123735000D03*
X139050000Y-121245000D03*
X139050000Y-118755000D03*
X139050000Y-116265000D03*
%TD*%
D18*
%TO.C,C29*%
X112950000Y-99990000D03*
X111050000Y-99990000D03*
%TD*%
D19*
%TO.C,R31*%
X112825000Y-103000000D03*
X111175000Y-103000000D03*
%TD*%
D20*
%TO.C,C2*%
X127500000Y-116050000D03*
X127500000Y-117950000D03*
%TD*%
D11*
%TO.C,C4*%
X122500000Y-115950000D03*
X122500000Y-114050000D03*
%TD*%
D21*
%TO.C,C25*%
X166000000Y-109050000D03*
X166000000Y-104950000D03*
%TD*%
D22*
%TO.C,R13*%
X155537500Y-72500000D03*
X158462500Y-72500000D03*
%TD*%
D16*
%TO.C,U6*%
X119935000Y-78700000D03*
X119935000Y-77900000D03*
X119935000Y-77100000D03*
X119935000Y-76300000D03*
X116065000Y-76300000D03*
X116065000Y-77100000D03*
X116065000Y-77900000D03*
X116065000Y-78700000D03*
%TD*%
D23*
%TO.C,D9*%
X159500000Y-105900000D03*
X159500000Y-103100000D03*
%TD*%
D24*
%TO.C,U5*%
X170500000Y-75440000D03*
D25*
X175125000Y-76195000D03*
X175125000Y-79245000D03*
X178475000Y-76195000D03*
X178475000Y-79245000D03*
D24*
X170500000Y-80000000D03*
%TD*%
D26*
%TO.C,C14*%
X162525000Y-135500000D03*
X165475000Y-135500000D03*
%TD*%
D20*
%TO.C,C31*%
X124000000Y-97550000D03*
X124000000Y-99450000D03*
%TD*%
D23*
%TO.C,D2*%
X143500000Y-118900000D03*
X143500000Y-116100000D03*
%TD*%
D27*
%TO.C,D6*%
X118900000Y-73000000D03*
X116100000Y-73000000D03*
%TD*%
D11*
%TO.C,C3*%
X125000000Y-117950000D03*
X125000000Y-116050000D03*
%TD*%
D27*
%TO.C,D8*%
X161900000Y-109000000D03*
X159100000Y-109000000D03*
%TD*%
D28*
%TO.C,T4*%
X127990000Y-82500000D03*
X127990000Y-80000000D03*
X127990000Y-77500000D03*
X127990000Y-75000000D03*
X127990000Y-72500000D03*
X145010000Y-72500000D03*
X145010000Y-75000000D03*
X145010000Y-77500000D03*
X145010000Y-80000000D03*
X145010000Y-82500000D03*
%TD*%
D19*
%TO.C,R8*%
X115325000Y-134000000D03*
X113675000Y-134000000D03*
%TD*%
D20*
%TO.C,C5*%
X143500000Y-121550000D03*
X143500000Y-123450000D03*
%TD*%
D19*
%TO.C,R17*%
X113325000Y-78500000D03*
X111675000Y-78500000D03*
%TD*%
D29*
%TO.C,D11*%
X125875000Y-60500000D03*
X124000000Y-60500000D03*
%TD*%
D21*
%TO.C,C17*%
X184000000Y-80050000D03*
X184000000Y-75950000D03*
%TD*%
D22*
%TO.C,R28*%
X170037500Y-109000000D03*
X172962500Y-109000000D03*
%TD*%
D11*
%TO.C,C8*%
X122000000Y-128950000D03*
X122000000Y-127050000D03*
%TD*%
D14*
%TO.C,R26*%
X125000000Y-77537500D03*
X125000000Y-80462500D03*
%TD*%
D11*
%TO.C,C23*%
X122000000Y-72450000D03*
X122000000Y-70550000D03*
%TD*%
D20*
%TO.C,C11*%
X127500000Y-128600000D03*
X127500000Y-130500000D03*
%TD*%
D30*
%TO.C,L1*%
X146500000Y-119000000D03*
X149500000Y-119000000D03*
%TD*%
D31*
%TO.C,U2*%
X152612500Y-118550000D03*
X152612500Y-117750000D03*
D32*
X153500000Y-118800000D03*
X153500000Y-118150000D03*
X153500000Y-117500000D03*
X151725000Y-117500000D03*
X151725000Y-118150000D03*
X151725000Y-118800000D03*
%TD*%
D21*
%TO.C,C27*%
X166000000Y-96050000D03*
X166000000Y-91950000D03*
%TD*%
D23*
%TO.C,D4*%
X142500000Y-131400000D03*
X142500000Y-128600000D03*
%TD*%
D24*
%TO.C,U4*%
X156200000Y-127720000D03*
D25*
X160825000Y-128475000D03*
X160825000Y-131525000D03*
X164175000Y-128475000D03*
X164175000Y-131525000D03*
D24*
X156200000Y-132280000D03*
%TD*%
D27*
%TO.C,D3*%
X119900000Y-129000000D03*
X117100000Y-129000000D03*
%TD*%
D33*
%TO.C,C15*%
X153500000Y-75950000D03*
X153500000Y-80050000D03*
%TD*%
D21*
%TO.C,C16*%
X161000000Y-80050000D03*
X161000000Y-75950000D03*
%TD*%
D12*
%TO.C,R29*%
X121912500Y-60500000D03*
X120087500Y-60500000D03*
%TD*%
D14*
%TO.C,R21*%
X174500000Y-112575000D03*
X174500000Y-115500000D03*
%TD*%
D34*
%TO.C,F1*%
X120900000Y-57000000D03*
X118100000Y-57000000D03*
%TD*%
D35*
%TO.C,C13*%
X151500000Y-133550000D03*
X151500000Y-136500000D03*
%TD*%
D36*
%TO.C,R18*%
X188000000Y-132912500D03*
X188000000Y-131087500D03*
%TD*%
D14*
%TO.C,R23*%
X174500000Y-122575000D03*
X174500000Y-125500000D03*
%TD*%
D18*
%TO.C,C19*%
X113450000Y-76000000D03*
X111550000Y-76000000D03*
%TD*%
D27*
%TO.C,D7*%
X118400000Y-97500000D03*
X115600000Y-97500000D03*
%TD*%
D37*
%TO.C,R6*%
X159000000Y-117087500D03*
X159000000Y-118912500D03*
%TD*%
D38*
%TO.C,T1*%
X127700000Y-94000000D03*
X127700000Y-97000000D03*
X127700000Y-100000000D03*
X127700000Y-103000000D03*
X127700000Y-106000000D03*
X127700000Y-109000000D03*
X154300000Y-109000000D03*
X154300000Y-106000000D03*
X154300000Y-103000000D03*
X154300000Y-100000000D03*
X154300000Y-97000000D03*
X154300000Y-94000000D03*
%TD*%
D30*
%TO.C,L2*%
X145500000Y-132000000D03*
X148500000Y-132000000D03*
%TD*%
D21*
%TO.C,C22*%
X165500000Y-80050000D03*
X165500000Y-75950000D03*
%TD*%
D20*
%TO.C,C24*%
X125000000Y-73550000D03*
X125000000Y-75450000D03*
%TD*%
D17*
%TO.C,T3*%
X130900000Y-128520000D03*
X130900000Y-131010000D03*
X130900000Y-133500000D03*
X130900000Y-135990000D03*
X139000000Y-135990000D03*
X139000000Y-133500000D03*
X139000000Y-131010000D03*
X139000000Y-128520000D03*
%TD*%
D19*
%TO.C,R16*%
X118825000Y-70500000D03*
X117175000Y-70500000D03*
%TD*%
D14*
%TO.C,R3*%
X127500000Y-120037500D03*
X127500000Y-122962500D03*
%TD*%
D19*
%TO.C,R4*%
X119325000Y-112500000D03*
X117675000Y-112500000D03*
%TD*%
%TO.C,R30*%
X116650000Y-95000000D03*
X115000000Y-95000000D03*
%TD*%
D35*
%TO.C,C12*%
X142500000Y-133525000D03*
X142500000Y-136475000D03*
%TD*%
D21*
%TO.C,C26*%
X166000000Y-102550000D03*
X166000000Y-98450000D03*
%TD*%
D39*
%TO.C,C7*%
X157050000Y-121500000D03*
X158950000Y-121500000D03*
%TD*%
D36*
%TO.C,R27*%
X122500000Y-79912500D03*
X122500000Y-78087500D03*
%TD*%
D12*
%TO.C,R15*%
X170412500Y-83000000D03*
X168587500Y-83000000D03*
%TD*%
D36*
%TO.C,R1*%
X125000000Y-122412500D03*
X125000000Y-120587500D03*
%TD*%
D14*
%TO.C,R22*%
X174500000Y-117575000D03*
X174500000Y-120500000D03*
%TD*%
%TO.C,R24*%
X174500000Y-127575000D03*
X174500000Y-130500000D03*
%TD*%
D13*
%TO.C,C21*%
X183500000Y-109037500D03*
X183500000Y-103962500D03*
%TD*%
D22*
%TO.C,R19*%
X186037500Y-140500000D03*
X188962500Y-140500000D03*
%TD*%
D40*
%TO.C,R5*%
X156500000Y-118825000D03*
X156500000Y-117175000D03*
%TD*%
D14*
%TO.C,R9*%
X127500000Y-132537500D03*
X127500000Y-135462500D03*
%TD*%
D41*
%TO.C,R20*%
X189587500Y-111000000D03*
X191412500Y-111000000D03*
%TD*%
D18*
%TO.C,C1*%
X116450000Y-118500000D03*
X114550000Y-118500000D03*
%TD*%
D11*
%TO.C,C18*%
X125000000Y-69950000D03*
X125000000Y-68050000D03*
%TD*%
%TO.C,C28*%
X121500000Y-96950000D03*
X121500000Y-95050000D03*
%TD*%
D20*
%TO.C,C6*%
X152500000Y-121550000D03*
X152500000Y-123450000D03*
%TD*%
D18*
%TO.C,C9*%
X115450000Y-131500000D03*
X113550000Y-131500000D03*
%TD*%
D19*
%TO.C,R2*%
X116325000Y-121000000D03*
X114675000Y-121000000D03*
%TD*%
%TO.C,R7*%
X116825000Y-126500000D03*
X115175000Y-126500000D03*
%TD*%
D27*
%TO.C,D5*%
X151400000Y-72500000D03*
X148600000Y-72500000D03*
%TD*%
D14*
%TO.C,R32*%
X124000000Y-102037500D03*
X124000000Y-104962500D03*
%TD*%
D16*
%TO.C,U1*%
X122435000Y-121200000D03*
X122435000Y-120400000D03*
X122435000Y-119600000D03*
X122435000Y-118800000D03*
X118565000Y-118800000D03*
X118565000Y-119600000D03*
X118565000Y-120400000D03*
X118565000Y-121200000D03*
%TD*%
D27*
%TO.C,D1*%
X119900000Y-116000000D03*
X117100000Y-116000000D03*
%TD*%
D12*
%TO.C,R12*%
X156412500Y-135500000D03*
X154587500Y-135500000D03*
%TD*%
D36*
%TO.C,R10*%
X124500000Y-134825000D03*
X124500000Y-133000000D03*
%TD*%
D39*
%TO.C,C20*%
X191050000Y-135000000D03*
X192950000Y-135000000D03*
%TD*%
D12*
%TO.C,R11*%
X160412500Y-135500000D03*
X158587500Y-135500000D03*
%TD*%
D23*
%TO.C,D10*%
X159500000Y-99900000D03*
X159500000Y-97100000D03*
%TD*%
D16*
%TO.C,U7*%
X118935000Y-102700000D03*
X118935000Y-101900000D03*
X118935000Y-101100000D03*
X118935000Y-100300000D03*
X115065000Y-100300000D03*
X115065000Y-101100000D03*
X115065000Y-101900000D03*
X115065000Y-102700000D03*
%TD*%
M02*
