%TF.GenerationSoftware,KiCad,Pcbnew,9.0.0*%
%TF.CreationDate,2025-03-19T21:00:22-07:00*%
%TF.ProjectId,CRT_main_supply_2,4352545f-6d61-4696-9e5f-737570706c79,rev?*%
%TF.SameCoordinates,Original*%
%TF.FileFunction,Soldermask,Bot*%
%TF.FilePolarity,Negative*%
%FSLAX46Y46*%
G04 Gerber Fmt 4.6, Leading zero omitted, Abs format (unit mm)*
G04 Created by KiCad (PCBNEW 9.0.0) date 2025-03-19 21:00:22*
%MOMM*%
%LPD*%
G01*
G04 APERTURE LIST*
G04 Aperture macros list*
%AMRoundRect*
0 Rectangle with rounded corners*
0 $1 Rounding radius*
0 $2 $3 $4 $5 $6 $7 $8 $9 X,Y pos of 4 corners*
0 Add a 4 corners polygon primitive as box body*
4,1,4,$2,$3,$4,$5,$6,$7,$8,$9,$2,$3,0*
0 Add four circle primitives for the rounded corners*
1,1,$1+$1,$2,$3*
1,1,$1+$1,$4,$5*
1,1,$1+$1,$6,$7*
1,1,$1+$1,$8,$9*
0 Add four rect primitives between the rounded corners*
20,1,$1+$1,$2,$3,$4,$5,0*
20,1,$1+$1,$4,$5,$6,$7,0*
20,1,$1+$1,$6,$7,$8,$9,0*
20,1,$1+$1,$8,$9,$2,$3,0*%
G04 Aperture macros list end*
%ADD10R,1.700000X1.700000*%
%ADD11O,1.700000X1.700000*%
%ADD12RoundRect,0.250000X-1.330000X-1.850000X1.330000X-1.850000X1.330000X1.850000X-1.330000X1.850000X0*%
%ADD13O,3.160000X4.200000*%
%ADD14C,1.440000*%
%ADD15RoundRect,0.250000X-1.850000X1.330000X-1.850000X-1.330000X1.850000X-1.330000X1.850000X1.330000X0*%
%ADD16O,4.200000X3.160000*%
%ADD17RoundRect,0.250000X1.850000X-1.330000X1.850000X1.330000X-1.850000X1.330000X-1.850000X-1.330000X0*%
G04 APERTURE END LIST*
D10*
%TO.C,J2*%
X107225000Y-128000000D03*
D11*
X109765000Y-128000000D03*
%TD*%
D10*
%TO.C,J1*%
X107225000Y-112500000D03*
D11*
X109765000Y-112500000D03*
%TD*%
D12*
%TO.C,J4*%
X106160000Y-147000000D03*
D13*
X110120000Y-147000000D03*
X114080000Y-147000000D03*
X118040000Y-147000000D03*
X122000000Y-147000000D03*
X125960000Y-147000000D03*
%TD*%
D14*
%TO.C,RV2*%
X193450000Y-140500000D03*
X195990000Y-140500000D03*
X198530000Y-140500000D03*
%TD*%
%TO.C,RV1*%
X195500000Y-74460000D03*
X195500000Y-77000000D03*
X195500000Y-79540000D03*
%TD*%
D15*
%TO.C,J9*%
X110275000Y-57520000D03*
D16*
X110275000Y-61480000D03*
%TD*%
D10*
%TO.C,J8*%
X107225000Y-94500000D03*
D11*
X109765000Y-94500000D03*
%TD*%
D17*
%TO.C,J6*%
X195725000Y-103920000D03*
D16*
X195725000Y-99960000D03*
X195725000Y-96000000D03*
X195725000Y-92040000D03*
X195725000Y-88080000D03*
%TD*%
D10*
%TO.C,J7*%
X107225000Y-71000000D03*
D11*
X109765000Y-71000000D03*
%TD*%
D12*
%TO.C,J10*%
X144540000Y-147225000D03*
D13*
X148500000Y-147225000D03*
X152460000Y-147225000D03*
X156420000Y-147225000D03*
X160380000Y-147225000D03*
X164340000Y-147225000D03*
%TD*%
D17*
%TO.C,J5*%
X196000000Y-130920000D03*
D16*
X196000000Y-126960000D03*
X196000000Y-123000000D03*
X196000000Y-119040000D03*
X196000000Y-115080000D03*
%TD*%
D14*
%TO.C,RV3*%
X176420000Y-140500000D03*
X178960000Y-140500000D03*
X181500000Y-140500000D03*
%TD*%
D12*
%TO.C,J3*%
X139120000Y-61500000D03*
D13*
X143080000Y-61500000D03*
X147040000Y-61500000D03*
X151000000Y-61500000D03*
X154960000Y-61500000D03*
X158920000Y-61500000D03*
X162880000Y-61500000D03*
X166840000Y-61500000D03*
X170800000Y-61500000D03*
%TD*%
M02*
