M48
; DRILL file {KiCad 9.0.0} date 2025-03-19T21:00:24-0700
; FORMAT={-:-/ absolute / inch / decimal}
; #@! TF.CreationDate,2025-03-19T21:00:24-07:00
; #@! TF.GenerationSoftware,Kicad,Pcbnew,9.0.0
; #@! TF.FileFunction,Plated,1,2,PTH
FMAT,2
INCH
; #@! TA.AperFunction,Plated,PTH,ComponentDrill
T1C0.0079
; #@! TA.AperFunction,Plated,PTH,ViaDrill
T2C0.0118
; #@! TA.AperFunction,Plated,PTH,ComponentDrill
T3C0.0315
; #@! TA.AperFunction,Plated,PTH,ComponentDrill
T4C0.0394
; #@! TA.AperFunction,Plated,PTH,ComponentDrill
T5C0.0709
%
G90
G05
T1
X6.0084Y-4.6299
X6.0084Y-4.6732
T2
X4.2913Y-3.1496
X4.2913Y-3.5039
X4.2913Y-3.8189
X4.2913Y-4.2717
X4.2913Y-4.5276
X4.2913Y-4.8228
X4.2913Y-5.1378
X4.2913Y-5.4724
X4.498Y-3.8091
X4.5079Y-2.815
X4.5079Y-4.4882
X4.5472Y-5.0787
X4.6063Y-4.2717
X4.6457Y-3.2677
X4.7244Y-5.4724
X4.7441Y-2.6378
X4.7441Y-4.9016
X6.122Y-4.7244
X6.3386Y-4.8425
T3
X6.9457Y-5.5315
X7.0457Y-5.5315
X7.1457Y-5.5315
X7.6161Y-5.5315
X7.6969Y-2.9315
X7.6969Y-3.0315
X7.6969Y-3.1315
X7.7161Y-5.5315
X7.8161Y-5.5315
T4
X4.2215Y-2.7953
X4.2215Y-3.7205
X4.2215Y-4.4291
X4.2215Y-5.0394
X4.3215Y-2.7953
X4.3215Y-3.7205
X4.3215Y-4.4291
X4.3215Y-5.0394
T5
X4.1795Y-5.7874
X4.3354Y-5.7874
X4.3415Y-2.2646
X4.3415Y-2.4205
X4.4913Y-5.7874
X4.6472Y-5.7874
X4.8031Y-5.7874
X4.9591Y-5.7874
X5.4772Y-2.4213
X5.6331Y-2.4213
X5.6906Y-5.7963
X5.789Y-2.4213
X5.8465Y-5.7963
X5.9449Y-2.4213
X6.0024Y-5.7963
X6.1008Y-2.4213
X6.1583Y-5.7963
X6.2567Y-2.4213
X6.3142Y-5.7963
X6.4126Y-2.4213
X6.4701Y-5.7963
X6.5685Y-2.4213
X6.7244Y-2.4213
X7.7057Y-3.4677
X7.7057Y-3.6236
X7.7057Y-3.7795
X7.7057Y-3.9354
X7.7057Y-4.0913
X7.7165Y-4.5307
X7.7165Y-4.6866
X7.7165Y-4.8425
X7.7165Y-4.9984
X7.7165Y-5.1543
M30
