%TF.GenerationSoftware,KiCad,Pcbnew,9.0.0*%
%TF.CreationDate,2026-01-15T13:34:26-08:00*%
%TF.ProjectId,test_load,74657374-5f6c-46f6-9164-2e6b69636164,rev?*%
%TF.SameCoordinates,Original*%
%TF.FileFunction,Soldermask,Top*%
%TF.FilePolarity,Negative*%
%FSLAX46Y46*%
G04 Gerber Fmt 4.6, Leading zero omitted, Abs format (unit mm)*
G04 Created by KiCad (PCBNEW 9.0.0) date 2026-01-15 13:34:26*
%MOMM*%
%LPD*%
G01*
G04 APERTURE LIST*
G04 Aperture macros list*
%AMRoundRect*
0 Rectangle with rounded corners*
0 $1 Rounding radius*
0 $2 $3 $4 $5 $6 $7 $8 $9 X,Y pos of 4 corners*
0 Add a 4 corners polygon primitive as box body*
4,1,4,$2,$3,$4,$5,$6,$7,$8,$9,$2,$3,0*
0 Add four circle primitives for the rounded corners*
1,1,$1+$1,$2,$3*
1,1,$1+$1,$4,$5*
1,1,$1+$1,$6,$7*
1,1,$1+$1,$8,$9*
0 Add four rect primitives between the rounded corners*
20,1,$1+$1,$2,$3,$4,$5,0*
20,1,$1+$1,$4,$5,$6,$7,0*
20,1,$1+$1,$6,$7,$8,$9,0*
20,1,$1+$1,$8,$9,$2,$3,0*%
G04 Aperture macros list end*
%ADD10C,2.800000*%
%ADD11RoundRect,0.250000X-0.312500X-0.625000X0.312500X-0.625000X0.312500X0.625000X-0.312500X0.625000X0*%
G04 APERTURE END LIST*
D10*
%TO.C,TP11*%
X55000000Y-100000000D03*
%TD*%
%TO.C,TP10*%
X110000000Y-97500000D03*
%TD*%
%TO.C,TP9*%
X55000000Y-92500000D03*
%TD*%
%TO.C,TP8*%
X110000000Y-87500000D03*
%TD*%
%TO.C,TP7*%
X55000000Y-82500000D03*
%TD*%
%TO.C,TP6*%
X110000000Y-77500000D03*
%TD*%
%TO.C,TP5*%
X55000000Y-72500000D03*
%TD*%
%TO.C,TP4*%
X110000000Y-67500000D03*
%TD*%
%TO.C,TP3*%
X55000000Y-62500000D03*
%TD*%
%TO.C,TP2*%
X110000000Y-57500000D03*
%TD*%
%TO.C,TP1*%
X55000000Y-55000000D03*
%TD*%
D11*
%TO.C,R15*%
X81462500Y-60000000D03*
X78537500Y-60000000D03*
%TD*%
%TO.C,R13*%
X71462500Y-60000000D03*
X68537500Y-60000000D03*
%TD*%
%TO.C,R17*%
X91462500Y-60000000D03*
X88537500Y-60000000D03*
%TD*%
%TO.C,R16*%
X86462500Y-60000000D03*
X83537500Y-60000000D03*
%TD*%
%TO.C,R19*%
X101462500Y-60000000D03*
X98537500Y-60000000D03*
%TD*%
%TO.C,R18*%
X96462500Y-60000000D03*
X93537500Y-60000000D03*
%TD*%
%TO.C,R20*%
X106462500Y-60000000D03*
X103537500Y-60000000D03*
%TD*%
%TO.C,R11*%
X61462500Y-60000000D03*
X58537500Y-60000000D03*
%TD*%
%TO.C,R14*%
X76462500Y-60000000D03*
X73537500Y-60000000D03*
%TD*%
%TO.C,R12*%
X66462500Y-60000000D03*
X63537500Y-60000000D03*
%TD*%
%TO.C,R79*%
X101462500Y-90000000D03*
X98537500Y-90000000D03*
%TD*%
%TO.C,R88*%
X93537500Y-95000000D03*
X96462500Y-95000000D03*
%TD*%
%TO.C,R96*%
X86462500Y-100000000D03*
X83537500Y-100000000D03*
%TD*%
%TO.C,R86*%
X83537500Y-95000000D03*
X86462500Y-95000000D03*
%TD*%
%TO.C,R84*%
X73537500Y-95000000D03*
X76462500Y-95000000D03*
%TD*%
%TO.C,R64*%
X76462500Y-85000000D03*
X73537500Y-85000000D03*
%TD*%
%TO.C,R72*%
X63537500Y-90000000D03*
X66462500Y-90000000D03*
%TD*%
%TO.C,R58*%
X96462500Y-80000000D03*
X93537500Y-80000000D03*
%TD*%
%TO.C,R57*%
X91462500Y-80000000D03*
X88537500Y-80000000D03*
%TD*%
%TO.C,R52*%
X63537500Y-80000000D03*
X66462500Y-80000000D03*
%TD*%
%TO.C,R39*%
X101462500Y-70000000D03*
X98537500Y-70000000D03*
%TD*%
%TO.C,R37*%
X91462500Y-70000000D03*
X88537500Y-70000000D03*
%TD*%
%TO.C,R45*%
X78537500Y-75000000D03*
X81462500Y-75000000D03*
%TD*%
%TO.C,R27*%
X88537500Y-65000000D03*
X91462500Y-65000000D03*
%TD*%
%TO.C,R29*%
X98537500Y-65000000D03*
X101462500Y-65000000D03*
%TD*%
%TO.C,R46*%
X83537500Y-75000000D03*
X86462500Y-75000000D03*
%TD*%
%TO.C,R48*%
X93537500Y-75000000D03*
X96462500Y-75000000D03*
%TD*%
%TO.C,R49*%
X98537500Y-75000000D03*
X101462500Y-75000000D03*
%TD*%
%TO.C,R42*%
X66462500Y-75000000D03*
X63537500Y-75000000D03*
%TD*%
%TO.C,R75*%
X78537500Y-90000000D03*
X81462500Y-90000000D03*
%TD*%
%TO.C,R76*%
X83537500Y-90000000D03*
X86462500Y-90000000D03*
%TD*%
%TO.C,R77*%
X88537500Y-90000000D03*
X91462500Y-90000000D03*
%TD*%
%TO.C,R78*%
X93537500Y-90000000D03*
X96462500Y-90000000D03*
%TD*%
%TO.C,R80*%
X106462500Y-90000000D03*
X103537500Y-90000000D03*
%TD*%
%TO.C,R83*%
X71462500Y-95000000D03*
X68537500Y-95000000D03*
%TD*%
%TO.C,R85*%
X81462500Y-95000000D03*
X78537500Y-95000000D03*
%TD*%
%TO.C,R87*%
X91462500Y-95000000D03*
X88537500Y-95000000D03*
%TD*%
%TO.C,R89*%
X101462500Y-95000000D03*
X98537500Y-95000000D03*
%TD*%
%TO.C,R90*%
X106462500Y-95000000D03*
X103537500Y-95000000D03*
%TD*%
%TO.C,R93*%
X68537500Y-100000000D03*
X71462500Y-100000000D03*
%TD*%
%TO.C,R94*%
X73537500Y-100000000D03*
X76462500Y-100000000D03*
%TD*%
%TO.C,R95*%
X78537500Y-100000000D03*
X81462500Y-100000000D03*
%TD*%
%TO.C,R97*%
X88537500Y-100000000D03*
X91462500Y-100000000D03*
%TD*%
%TO.C,R98*%
X93537500Y-100000000D03*
X96462500Y-100000000D03*
%TD*%
%TO.C,R99*%
X98537500Y-100000000D03*
X101462500Y-100000000D03*
%TD*%
%TO.C,R100*%
X103537500Y-100000000D03*
X106462500Y-100000000D03*
%TD*%
%TO.C,R23*%
X68537500Y-65000000D03*
X71462500Y-65000000D03*
%TD*%
%TO.C,R22*%
X66462500Y-65000000D03*
X63537500Y-65000000D03*
%TD*%
%TO.C,R43*%
X68537500Y-75000000D03*
X71462500Y-75000000D03*
%TD*%
%TO.C,R38*%
X93537500Y-70000000D03*
X96462500Y-70000000D03*
%TD*%
%TO.C,R44*%
X73537500Y-75000000D03*
X76462500Y-75000000D03*
%TD*%
%TO.C,R24*%
X73537500Y-65000000D03*
X76462500Y-65000000D03*
%TD*%
%TO.C,R54*%
X73537500Y-80000000D03*
X76462500Y-80000000D03*
%TD*%
%TO.C,R63*%
X68537500Y-85000000D03*
X71462500Y-85000000D03*
%TD*%
%TO.C,R40*%
X103537500Y-70000000D03*
X106462500Y-70000000D03*
%TD*%
%TO.C,R60*%
X103537500Y-80000000D03*
X106462500Y-80000000D03*
%TD*%
%TO.C,R59*%
X98537500Y-80000000D03*
X101462500Y-80000000D03*
%TD*%
%TO.C,R56*%
X83537500Y-80000000D03*
X86462500Y-80000000D03*
%TD*%
%TO.C,R55*%
X78537500Y-80000000D03*
X81462500Y-80000000D03*
%TD*%
%TO.C,R65*%
X78537500Y-85000000D03*
X81462500Y-85000000D03*
%TD*%
%TO.C,R67*%
X88537500Y-85000000D03*
X91462500Y-85000000D03*
%TD*%
%TO.C,R68*%
X93537500Y-85000000D03*
X96462500Y-85000000D03*
%TD*%
%TO.C,R69*%
X98537500Y-85000000D03*
X101462500Y-85000000D03*
%TD*%
%TO.C,R70*%
X103537500Y-85000000D03*
X106462500Y-85000000D03*
%TD*%
%TO.C,R53*%
X68537500Y-80000000D03*
X71462500Y-80000000D03*
%TD*%
%TO.C,R30*%
X103537500Y-65000000D03*
X106462500Y-65000000D03*
%TD*%
%TO.C,R25*%
X78537500Y-65000000D03*
X81462500Y-65000000D03*
%TD*%
%TO.C,R35*%
X78537500Y-70000000D03*
X81462500Y-70000000D03*
%TD*%
%TO.C,R36*%
X83537500Y-70000000D03*
X86462500Y-70000000D03*
%TD*%
%TO.C,R33*%
X68537500Y-70000000D03*
X71462500Y-70000000D03*
%TD*%
%TO.C,R62*%
X66462500Y-85000000D03*
X63537500Y-85000000D03*
%TD*%
%TO.C,R66*%
X83537500Y-85000000D03*
X86462500Y-85000000D03*
%TD*%
%TO.C,R34*%
X73537500Y-70000000D03*
X76462500Y-70000000D03*
%TD*%
%TO.C,R73*%
X68537500Y-90000000D03*
X71462500Y-90000000D03*
%TD*%
%TO.C,R74*%
X73537500Y-90000000D03*
X76462500Y-90000000D03*
%TD*%
%TO.C,R26*%
X83537500Y-65000000D03*
X86462500Y-65000000D03*
%TD*%
%TO.C,R50*%
X103537500Y-75000000D03*
X106462500Y-75000000D03*
%TD*%
%TO.C,R28*%
X93537500Y-65000000D03*
X96462500Y-65000000D03*
%TD*%
%TO.C,R47*%
X88537500Y-75000000D03*
X91462500Y-75000000D03*
%TD*%
%TO.C,R91*%
X58537500Y-100000000D03*
X61462500Y-100000000D03*
%TD*%
%TO.C,R1*%
X61462500Y-55000000D03*
X58537500Y-55000000D03*
%TD*%
%TO.C,R81*%
X61462500Y-95000000D03*
X58537500Y-95000000D03*
%TD*%
%TO.C,R82*%
X66462500Y-95000000D03*
X63537500Y-95000000D03*
%TD*%
%TO.C,R92*%
X63537500Y-100000000D03*
X66462500Y-100000000D03*
%TD*%
%TO.C,R71*%
X58537500Y-90000000D03*
X61462500Y-90000000D03*
%TD*%
%TO.C,R61*%
X58537500Y-85000000D03*
X61462500Y-85000000D03*
%TD*%
%TO.C,R51*%
X58537500Y-80000000D03*
X61462500Y-80000000D03*
%TD*%
%TO.C,R41*%
X58537500Y-75000000D03*
X61462500Y-75000000D03*
%TD*%
%TO.C,R32*%
X63537500Y-70000000D03*
X66462500Y-70000000D03*
%TD*%
%TO.C,R31*%
X58537500Y-70000000D03*
X61462500Y-70000000D03*
%TD*%
%TO.C,R21*%
X58537500Y-65000000D03*
X61462500Y-65000000D03*
%TD*%
%TO.C,R10*%
X103537500Y-55000000D03*
X106462500Y-55000000D03*
%TD*%
%TO.C,R9*%
X98537500Y-55000000D03*
X101462500Y-55000000D03*
%TD*%
%TO.C,R8*%
X93537500Y-55000000D03*
X96462500Y-55000000D03*
%TD*%
%TO.C,R7*%
X88537500Y-55000000D03*
X91462500Y-55000000D03*
%TD*%
%TO.C,R6*%
X83537500Y-55000000D03*
X86462500Y-55000000D03*
%TD*%
%TO.C,R5*%
X78537500Y-55000000D03*
X81462500Y-55000000D03*
%TD*%
%TO.C,R4*%
X73537500Y-55000000D03*
X76462500Y-55000000D03*
%TD*%
%TO.C,R3*%
X68537500Y-55000000D03*
X71462500Y-55000000D03*
%TD*%
%TO.C,R2*%
X63537500Y-55000000D03*
X66462500Y-55000000D03*
%TD*%
M02*
